<svg xmlns="http://www.w3.org/2000/svg" width="128" height="128" fill="none"><path fill="#066DA5" d="M127.963 0H.038A.037.037 0 0 0 0 .037v127.926c0 .02.017.037.037.037h127.926c.02 0 .037-.017.037-.037V.038a.038.038 0 0 0-.037-.038Z"/><path fill="#fff" d="M74 61.25h10.5v-9.5H74v9.5Zm-12.5 0H72v-9.5H61.5v9.5Zm-12.25 0h10.5v-9.5h-10.5v9.5Zm-12.25 0h10.25v-9.5H37v9.5Zm-12.5 0H35v-9.5H24.5v9.5ZM37 49.75h10.25v-9.5H37v9.5Zm12.25 0h10.5v-9.5h-10.5v9.5Zm12.25 0H72v-9.5H61.5v9.5Zm0-11.5H72v-9.5H61.5v9.5ZM118 57s-4.5-4.25-13.75-2.75c-1-7.25-8.75-11.5-8.75-11.5s-7.25 8.75-2 18.5C92 62 89.5 63 85.75 63H17c-1.25 4.75-1.25 36.25 33.25 36.25 24.75 0 43.25-11.5 52-32.5 13 1 15.75-9.75 15.75-9.75Z"/></svg>