<svg xmlns="http://www.w3.org/2000/svg" width="128" height="128" fill="none"><g fill="#E10098" clip-path="url(#a)"><path d="m17.41 97.553-4.693-2.714L65.06 4.181l4.694 2.714L17.41 97.553Z"/><path d="M11.637 87.595h104.696v5.427H11.637v-5.427Z"/><path d="M66.076 120.883 13.71 90.65l2.713-4.694L68.79 116.19l-2.713 4.693Zm45.491-78.805-52.37-30.23 2.714-4.693 52.365 30.234-2.709 4.689Z"/><path d="m16.437 42.061-2.713-4.693L66.135 7.125l2.714 4.694L16.437 42.06Z"/><path d="M110.602 97.553 58.25 6.886l4.694-2.713 52.352 90.666-4.694 2.714ZM15.789 33.767h5.427v60.467h-5.427V33.767Zm90.999 0h5.427v60.467h-5.427V33.767Z"/><path d="m65.154 118.584-2.368-4.105 45.547-26.295 2.368 4.104-45.547 26.296Z"/><path d="M119.405 96a11.433 11.433 0 0 1-15.591 4.185 11.433 11.433 0 0 1-4.185-15.59 11.434 11.434 0 0 1 15.59-4.186c5.491 3.17 7.356 10.134 4.182 15.59m-91.06-52.59a11.434 11.434 0 0 1-15.59 4.185A11.435 11.435 0 0 1 8.565 32a11.435 11.435 0 0 1 15.59-4.186 11.434 11.434 0 0 1 4.186 15.595ZM8.6 95.999a11.435 11.435 0 0 1 4.185-15.59 11.435 11.435 0 0 1 15.59 4.186 11.434 11.434 0 0 1-4.185 15.59C18.699 103.321 11.73 101.461 8.6 96Zm91.063-52.586a11.435 11.435 0 0 1 4.186-15.59 11.432 11.432 0 0 1 15.59 4.185 11.432 11.432 0 0 1-4.186 15.59 11.432 11.432 0 0 1-15.59-4.185ZM64.003 128a11.408 11.408 0 0 1-8.067-19.478 11.408 11.408 0 0 1 19.475 8.073A11.434 11.434 0 0 1 64.002 128Zm0-105.182a11.394 11.394 0 0 1-11.41-11.41 11.407 11.407 0 1 1 22.814 0 11.392 11.392 0 0 1-7.038 10.541c-1.385.572-2.869.87-4.367.869Z"/></g><defs><clipPath id="a"><path fill="#fff" d="M0 0h128v128H0z"/></clipPath></defs></svg>