<svg xmlns="http://www.w3.org/2000/svg" width="130" height="128" fill="none"><path fill="#EA2845" fill-rule="evenodd" d="M76.365.25c-.922 0-1.783.196-2.57.453 1.686 1.134 2.608 2.608 3.077 4.294.03.226.098.393.128.627.03.234.076.393.076.605.136 2.91-.756 3.273-1.39 4.989-.96 2.215-.696 4.596.453 6.5.105.256.237.499.393.727-1.255-8.361 5.722-9.623 7.007-12.231.098-2.283-1.784-3.803-3.273-4.86C78.845.49 77.545.218 76.366.218v.03Zm10.508 1.89c-.136.755-.03.559-.076.96l-.075.861-.227.794c-.076.264-.166.529-.265.793l-.363.756c-.098.136-.166.265-.264.393L85.406 7l-.499.657c-.196.197-.362.431-.604.605s-.394.393-.628.56c-.695.529-1.489.922-2.215 1.42-.226.167-.453.303-.657.5a4.847 4.847 0 0 0-.628.529c-.227.196-.393.393-.604.627a4.08 4.08 0 0 0-.5.658l-.453.695-.363.756-.264.756-.227.832c-.03.136-.03.302-.076.43-.045.129-.03.265-.075.394l-.03.831c0 .197 0 .393.03.605 0 .264.03.529.098.831.068.303.098.53.166.794l.265.794c.076.166.166.332.227.453l-7.605-2.948-3.832-.982-2.087-.5a61.376 61.376 0 0 0-6.017-.891c-.076 0-.098-.03-.166-.03l-5.92-.303-4.33.166a63.092 63.092 0 0 0-6.048.726l-1.489.265-2.978.657-1.49.393-1.42.628-1.09.499c-.075.03-.135.03-.166.075l-.922.454c-.098.03-.166.075-.226.098l-1.028.53c-.227.098-.454.226-.658.332-.098.075-.227.128-.302.166l-.862.5a8.314 8.314 0 0 0-.794.498l-.658.454-.725.529-.56.453c-.075.03-.136.099-.196.136l-.5.431c-.03.076-.097.098-.135.136l-.605.56-.658.627-.559.605c-.076.075-.166.136-.227.196a9.309 9.309 0 0 1-.56.598c-.03.075-.097.098-.135.166l-.756.793-1.784 1.716a18.97 18.97 0 0 1-1.852 1.452l-1.98 1.255c-.658.362-1.361.695-2.087.982-.702.3-1.419.564-2.147.794-1.39.302-2.812.862-4.036.96-.265 0-.56.076-.832.098l-.831.197-.794.302a8.49 8.49 0 0 0-.794.363c-.227.166-.499.302-.726.454a5.058 5.058 0 0 0-.657.559c-.204.197-.454.393-.658.605l-.56.657c-.166.265-.362.5-.498.756a5.82 5.82 0 0 0-.461.764l-.363.861-.302.862-.167.794c-.098.393-.098.794-.136.983-.038.189 0 .438 0 .672-.006.145.004.29.03.431.03.227.076.431.137.628l.226.604c.099.227.227.431.363.628l.431.605.56.529c.193.194.403.37.627.529.794.695.982.922 2.018 1.451.166.099.333.167.53.265.098.098.098.128.135.196.03.265.099.53.167.794.063.272.151.538.264.794l.265.605c.03.075.075.136.098.166l.393.726.499.695.56.627c.196.197.392.363.627.56l.657.499c.227.166.454.302.726.43.245.141.5.263.764.363.196.099.43.167.657.227.227.06.431.136.56.166-.099 1.785-.136 3.478.136 4.067.302.658 1.753-1.36 3.205-3.666-.197 2.283-.333 4.959 0 5.745.332.786 2.343-1.754 4.067-4.596 23.433-5.42 44.826 10.78 47.07 33.654-.43-3.568-4.822-5.556-6.84-5.065-.983 2.45-2.676 5.594-5.39 7.537.227-2.193.128-4.43-.333-6.615a21.393 21.393 0 0 1-4.097 8.33c-3.137.227-6.274-1.285-7.937-3.567-.136-.099-.166-.303-.264-.431l-.265-.696a2.517 2.517 0 0 1-.197-.695c-.03-.242-.03-.454-.03-.726v-.499c.03-.227.099-.453.167-.695l.226-.696c.136-.226.227-.453.393-.695.56-1.512.56-2.873-.453-3.629a3.79 3.79 0 0 0-.628-.332c-.136-.03-.302-.098-.43-.136l-.265-.098-.695-.167a2.495 2.495 0 0 0-.696-.098 5.381 5.381 0 0 0-.726-.068c-.166 0-.332.03-.498.03a2.57 2.57 0 0 0-.726.098l-.696.129-.695.227-.658.302-.627.333c-7.71 5.026-3.1 16.781 2.147 20.198-1.98.363-4.007.794-4.558 1.224 1.36.923 2.842 1.663 4.399 2.283l5.352 1.512c2.744.605 5.518.794 8.33.628a31.446 31.446 0 0 0 28.823-26.843l.197.862.302 1.852.136.892.076.982.076 1.089v.529c0 .166.03.363.03.53 0 .165-.03.392-.03.604v.453c0 .227-.03.431-.03.658 0 .129 0 .265-.031.43l-.03.727c-.03.098-.03.196-.03.302l-.099.756c0 .098 0 .196-.03.302l-.128.96v.076l-.197.922-.197.983-.264 1.028-.265 1.028-.332 1.058-.726 1.92-.393.96-.454.922c-.03.099-.075.167-.098.227a31.493 31.493 0 0 1-9.358 11.203c-.265.166-.53.363-.794.559-.076.076-.166.099-.227.167l-.725.499.098.196h.03l1.391-.196h.03l2.57-.454c.227-.03.5-.098.726-.166l.454-.099.695-.128.605-.166c3.303-.794 6.5-1.89 9.585-3.175-5.254 7.181-12.299 12.956-20.53 16.759 3.801-.265 7.604-.892 11.262-1.951 13.32-3.931 24.53-12.888 31.243-24.96a52.773 52.773 0 0 1-8.89 21.256 52.438 52.438 0 0 0 8.829-7.332 52.392 52.392 0 0 0 13.917-28.098 52.501 52.501 0 0 1 .96 15.935c23.864-33.29 1.98-67.806-7.182-76.892-.03-.076-.075-.098-.075-.166-.076.393-.099.793-.129 1.186-.098.756-.196 1.49-.332 2.215-.136.726-.363 1.452-.56 2.192-.196.741-.499 1.421-.793 2.117a23.83 23.83 0 0 1-.983 2.018 22.796 22.796 0 0 1-1.187 1.883 23.498 23.498 0 0 1-1.361 1.784 24.642 24.642 0 0 1-1.557 1.655c-.332.302-.627.56-.96.831l-.756.658c-.59.468-1.209.9-1.852 1.293-.631.407-1.282.783-1.95 1.126-.695.333-1.39.627-2.086.922a23.28 23.28 0 0 1-2.147.696 29.17 29.17 0 0 1-2.215.499c-.726.136-1.512.196-2.245.264-.53.03-1.058.076-1.512.076-.756 0-1.512-.076-2.245-.136a16.707 16.707 0 0 1-2.253-.333c-.75-.136-1.49-.322-2.215-.56h-.03c.726-.075 1.452-.135 2.192-.264a24.636 24.636 0 0 0 4.362-1.194c.695-.265 1.421-.605 2.086-.922.678-.33 1.339-.694 1.98-1.089.628-.43 1.256-.862 1.853-1.323.592-.46 1.155-.958 1.686-1.489.559-.499 1.058-1.058 1.557-1.618.499-.559.96-1.186 1.39-1.784.076-.098.137-.226.197-.332l.96-1.512c.363-.658.696-1.323.983-2.018.287-.696.559-1.391.794-2.117.234-.726.393-1.421.559-2.147.166-.726.265-1.489.333-2.215.068-.725.128-1.511.128-2.245 0-.529-.03-1.058-.075-1.511a65.189 65.189 0 0 0-.265-2.215 24.293 24.293 0 0 0-.499-2.215c-.227-.696-.453-1.421-.726-2.117a27.594 27.594 0 0 0-.922-2.04 18.864 18.864 0 0 0-1.134-1.951 25.823 25.823 0 0 0-1.323-1.814L96.24 8.043c-.28-.283-.567-.558-.862-.824a60.847 60.847 0 0 0-4.596-3.243 8.953 8.953 0 0 0-.658-.332c-1.088-.696-2.116-1.059-3.137-1.391l-.113-.114Z" clip-rule="evenodd"/></svg>