<svg xmlns="http://www.w3.org/2000/svg" width="128" height="128" fill="none"><path fill="#2F406A" d="M103.466 40.828v46.146L64.28 109.948l-.36.328v17.394l.36.328 55.172-31.868V31.87h-.526l-15.556 8.7v.36"/><path fill="#2379BD" d="m24.96 87.3 39.384 22.81V128L8.714 96V32h.56l15.524 9.026.164.526V87.5"/><path fill="#03AFEF" d="M24.96 41.452 8.55 32l55.6-32 55.3 31.868-15.984 8.96L64.08 18.412 24.894 41.386"/><path fill="#2F406A" d="m63.59 82.02-.426-.426V64.298l.426-.23v-.426l14.834-8.664h.46v17.854l-15.392 9.124"/><path fill="#2379BD" d="M47.934 73.486V54.94h.426l15.1 8.796V82.05l-15.656-8.566"/><path fill="#03AFEF" d="m63.328 45.85-15.392 9.124L63.59 64l15.392-8.992-15.656-9.256"/><path fill="#2F406A" d="m44.42 93.34-.426-.426v-17.33l.426-.23v-.426l14.834-8.664h.46v17.854l-15.392 9.124"/><path fill="#2379BD" d="M28.768 84.776V66.232h.426l15.1 8.796v18.314L28.77 84.776"/><path fill="#03AFEF" d="m44.192 57.14-15.426 9.092 15.656 9.124 15.392-8.992-15.656-9.256"/><path fill="#2F406A" d="m84.136 93.768-.426-.426v-17.33l.426-.23v-.426l14.834-8.664h.46v17.854L84.038 93.67"/><path fill="#2379BD" d="M68.48 85.2V66.66h.492l15.1 8.796V93.77L68.414 85.2"/><path fill="#03AFEF" d="M83.872 57.436 68.48 66.56l15.656 9.124 15.392-8.992-15.656-9.256Z"/><path fill="#2F406A" d="m64.968 105.06-.426-.426V87.3l.426-.23v-.426l14.834-8.664h.46v17.854l-15.392 9.124"/><path fill="#2379BD" d="M49.28 96.492V77.98h.426l15.1 8.796v18.314l-15.524-8.6"/><path fill="#03AFEF" d="M64.706 68.86 49.28 77.98l15.688 8.992L80.36 77.98l-15.656-9.124"/><path fill="#2F406A" d="m63.59 57.436-.426-.426V39.746l.426-.23v-.426l14.834-8.664h.46V48.28L63.59 57.436Z"/><path fill="#2379BD" d="M47.934 48.936V30.392h.426l15.1 8.796v18.248L47.804 48.87"/><path fill="#03AFEF" d="m63.328 21.334-15.392 9.124 15.656 9.124 15.392-8.992-15.656-9.256Z"/><path fill="#2F406A" d="m44.42 68.76-.426-.426v-17.46l.426-.23v-.426l14.834-8.664h.46v17.854l-15.392 9.124"/><path fill="#2379BD" d="M28.768 60.226V41.68h.426l15.1 8.796V68.79L28.77 60.224"/><path fill="#03AFEF" d="m44.192 32.59-15.426 9.092 15.656 9.19 15.392-8.992-15.656-9.256"/><path fill="#2F406A" d="m84.136 69.186-.426-.426v-17.3l.426-.23v-.426L98.97 42.14h.46v17.854l-15.392 9.124"/><path fill="#2379BD" d="M68.48 60.72V42.11h.492l15.032 8.764v18.314L68.48 60.72Z"/><path fill="#03AFEF" d="M83.872 33.02 68.48 42.14l15.656 9.124 15.392-8.992-15.656-9.256"/><path fill="#2F406A" d="m64.968 80.41-.426-.426v-17.23l.426-.23v-.426l14.834-8.664h.46v17.854L64.968 80.41Z"/><path fill="#2379BD" d="M49.28 71.94V53.4h.426l15.1 8.796v18.216L49.28 71.94Z"/><path fill="#03AFEF" d="M64.706 44.308 49.28 53.4l15.656 9.124 15.392-8.992-15.62-9.22"/></svg>