<svg width="477" height="512" fill="none" xmlns="http://www.w3.org/2000/svg"><path d="M465.328 467.932c-38.714-10.601-133.369-22.28-173.23-26.991-95.721-11.314-195.39-20.785-290.958-25.21-.29-.002-.57.107-.783.306a1.13 1.13 0 0 0 .66 1.943c119.023 7.916 393.711 36.96 463.244 54.551 1.436.36 2.484-4.211 1.067-4.599z" fill="#151515"/><path d="M132.451 292.44c.603-1.365-2.124.175-3.134-2.661-2.404-6.764-2.434-8.885.694-11.227a52.956 52.956 0 0 1 11.936-5.731c1.05-.322-1.221-1.365-3.803-4.509-.655-.795-.45-.489-6.689 2.625-7.613 3.802-8.088 3.382-9.008 5.828a12.337 12.337 0 0 1-6.182 6.392c-5.647 2.88-11.139 5.62-15.645.833-.562-.598-.524-.53-3.674 1.132-14.42 7.607-14.024 6.122-14.365 7.716a11.037 11.037 0 0 1-2.3 4.589 11.023 11.023 0 0 1-4.125 3.054c-4.626 2.481-6.96 4.225-11.638 2.626-13.648-4.668-21.751-23.949-15.528-30.084 5.33-5.252 8.224-8.877 15.59-7.258 1.141.251.227.259 14.608-9.807 1.493-1.045 1.515-1.307 1.283-2.159a5.748 5.748 0 0 1-.063-2.699 5.723 5.723 0 0 1 1.18-2.429c8.027-10.604 15.285-10.222 17.877-10.061a1.635 1.635 0 0 0 1.365-.488c11.737-13.519 94.499-70.993 114.604-84.542 1.998-1.349.748-1.804 1.277-3.666 1.911-6.733 12.13-15.869 18.288-18.241 24.357-9.381 54.032 21.975 51.471 47.785-1.408 14.193-8.625 19.553-21.625 24.707a14.826 14.826 0 0 1-7.241.884 31.026 31.026 0 0 1-7.312-3.09c-2.41-1.597-1.136 2.47-77.243 46.477-1.218.704-.716.644-.672 2.025a30.75 30.75 0 0 1-3.453 15.52c-.576 1.091.273.546 3.849.439 9.436-.3 10.263 2.369 10.295 11.66 0 1.941-1.119 2.814-3.059 3.901-2.844 1.596-2.954 1.673-2.79 2.232.306 1.043 77.593 218.569 77.713 221.972.09 2.588-2.651 4.558-5.186 5.014-.587.107-2.937-5.702-7.151-16.297-9.949-25.01-35.442-86.079-39.992-97.673-38.338-97.714-32.8-84.46-38.278-97.93-.789-1.938-.767-.303-1.223 7.339-.215 3.601-12.675 181.028-13.396 189.487-.649 7.579-.963 7.563-2 7.642a7.394 7.394 0 0 1-6.668-1.599c-1.42-1.72-.956-2.329-.322-20.198.36-10.146 6.351-177.248 6.302-177.253 0-7.097-63.258 150.452-84.51 197.753-.862 1.911-2.024 1.005-5.01-.461a5.546 5.546 0 0 1-2.2-3.144 5.565 5.565 0 0 1 .363-3.821c8.764-23.566 76.79-202.604 76.79-202.604zm-82.31-17.741c-2.666 2.868-1.85 10.483 3.276 17.64 3.603 5.028 10.24 11.01 15.888 8.781 3.275-1.292 4.596-4.913 2.44-11.737-3.098-9.829-16.158-20.553-21.6-14.687l-.003.003zm10.233-7.097a8.442 8.442 0 0 0-4.943 2.541c-.237.213-1.012 1.005.434 1.01 8.161.953 18.547 13.191 19.106 22.845.216 3.631-.546 4.163.56 3.772 7.672-2.688 5.519-13.737-.62-21.726a30.397 30.397 0 0 0-7.44-6.791 11.621 11.621 0 0 0-7.094-1.651h-.003zm7.643-1.329c-1.542 1.001 1.45.057 7.225 6.55 11 12.357 5.254 18.187 9.28 16.423 1.662-.728 4.836-2.535 11.785-6.144 11.191-5.811 11.079-5.75 10.918-7.003a33.562 33.562 0 0 0-6.04-13.877 36.378 36.378 0 0 0-9.722-9.586c-1.054-.734-1.687-1.258-3.044-.316-2.033 1.422-6.951 5.221-20.383 13.953h-.02zm23.07-23.722c-4.234 2.812-7.97 6.824-6.341 6.065 4.299-2.003 9.438 2.509 13.306 6.114a40.183 40.183 0 0 1 11.417 18.937 11.68 11.68 0 0 1-.715 8.971c-.301.467-.988 1.638.546 1.171a26.22 26.22 0 0 0 8.87-4.615c2.656-2.208 3.232-6.925 3.191-10.257-.194-16.595-19.652-33.433-30.261-26.386h-.014zm169.271-40.775c.308.451.851.369 1.365.175 8.982-3.39 19.886-7.585 21.562-20.695 2.457-19.28-11.368-40.428-30.842-46.673a24.338 24.338 0 0 0-16.377-.412 42.35 42.35 0 0 0-14.021 11.261 14.534 14.534 0 0 1 7.178-.818c21.039 2.543 44.558 43.965 32.101 56.038-.437.423-1.083.95-.966 1.124zm.311-10.786a1.367 1.367 0 0 0 .783-1.619c-4.386-25.695-25.845-41.777-31.432-41.575-1.012-.068-.933-.153-9.46 5.817-34.552 24.18-83.993 57.25-117.811 85.346-1.291 1.073 7.599 1.196 16.044 13.702 7.762 11.496 3.875 20.266 5.631 19.341 66.767-35.139 129.615-77.601 136.245-81.012zm-81.747 78.334c-1.637-1.768-9.924-.273-10.918-.164-.45.022-.889.148-1.282.363a2.979 2.979 0 0 0-.994.893 16.361 16.361 0 0 1-19.777 4.261 2.69 2.69 0 0 0-1.881-.456 53.576 53.576 0 0 0-11.125 4.858c-10.934 6.862 18.372 4.501 38.504-3.799 2.102-.876 9.026-4.296 7.473-5.964v.008zm-41.124 20.4c23.331.074 43.163-8.983 43.035-11.529-.183-3.619-.104-6.106-1.201-5.085-8.06 7.49-39.181 13.767-48.704 11.712-.502-.109-.601.049-.546.412a26 26 0 0 0 .879 3.521c.69 1.294 2.096.947 6.537.961v.008z" fill="#151515"/><path d="M68.178 296.051c-1.703 4.094-8.893-.017-12.81-6.499-1.782-2.948-3.534-6.141-2.964-9.084.683-3.548 4.755-3.149 7.416-1.149 4.91 3.688 10.031 11.513 8.358 16.732zM472.907 354.29c-2.915 0-2.787.164-2.73-.819 0 0 .456-4.563.868-10.161.129-1.742-3.614-3.437-3.979 6.859-.164 4.64-.415 4.367-1.223 4.386-10.323.218-10.457-.295-10.825.59-.336.818 4.132 2.071 4.992 2.232 6.253 1.163 6.278 0 6.278 1.736-.077 11.581-.044 9.253-.336 11.633-.057.456.442.445.62.309 1.826-1.401 2.729-8.014 2.8-9.603.18-3.613.45-3.395 1.166-3.45 5.123-.393 6.367-.286 6.449-1.454.172-2.402-1.659-2.258-4.08-2.258zM194.657 42.746c0 5.731.249 5.622-.739 5.625-3.928 0-4.913.128-6.379.213-1.466.084-1.332 1.122-.625 1.556a12.344 12.344 0 0 0 6.48 1.774c1.719.166.914-.415 1.782 7.58.494 4.571.917 6.392 1.801 5.756 1.624-1.168 1.332-8.925 1.592-12.534.06-.868-.126-.95 4.236-.941.846 0 1.99.1 2.238-.931.379-1.578.112-2.35-3.002-2.457-3.595-.13-3.723.123-3.759-.677a94.501 94.501 0 0 0-.778-10.32 1.415 1.415 0 0 0-2.413-1 1.418 1.418 0 0 0-.414 1 52.272 52.272 0 0 0-.02 5.356zM51.32 137.353c-.72.224.716 1.535 1.911 2.059 1.338.415 2.719.68 4.116.789.32.049.928 0 1.03.494.373 1.861.532 4.536 1.263 9.007.546 3.341 1.122 3.578 1.638 3.657.401.06 1.092-.461 1.043-3.504-.066-3.456-.254-8.134-.35-8.686-.123-.693 1.223-.529 4.739-.152a1.491 1.491 0 0 0 1.602-1.076 1.493 1.493 0 0 0-.808-1.752 14.306 14.306 0 0 0-5.055-1.444c-.314-.074-.677.142-.855-.361-.63-1.768-.464-6.203-1.042-8.461-.617-2.41-2.367-1.7-2.413.142-.303 12.921 1.578 6.679-6.818 9.288z" fill="#151515"/><circle cx="89.017" cy="89.017" r="89.017" transform="matrix(-1 0 0 1 464.89 0)" fill="#151515"/><path d="M349.831 108.627c10.917 5.458 21.971 5.185 34.144 3.575 15.913-2.102 29.641-15.721 33.217-19.488-25.656 7.042-55.052 8.352-80.953 6.469 3.953 3.289 9.153 6.847 13.592 9.444z" fill="#fff"/><path d="M417.983 91.459c40.75-13.647 3.821-13.483-14.602-15.721-3.439 12.664-44.489 14.001-49.647 3.903-6.223.791-34.336 4.667-37.038 10.917-1.146 2.73 1.256 4.422 4.613 5.459a258.206 258.206 0 0 0 96.483-4.613.971.971 0 0 1 .191.191v-.136z" fill="#fff"/><path fill-rule="evenodd" clip-rule="evenodd" d="m354.907 79.368.01.014-.01.122v-.136z" fill="#000"/><path d="M354.917 79.382c6.85 10.272 46.227 6.722 47.809-4.3-8.606-15.769-46.266-14.77-47.809 4.3z" fill="#3B82F6"/><path d="M387.256 247.769c0 5.732.249 5.623-.739 5.625-3.928 0-4.913.129-6.379.213-1.466.085-1.332 1.122-.625 1.556a12.346 12.346 0 0 0 6.48 1.774c1.719.167.914-.415 1.782 7.58.494 4.572.917 6.392 1.801 5.756 1.624-1.168 1.332-8.925 1.592-12.533.06-.868-.126-.95 4.236-.942.846 0 1.989.101 2.238-.931.379-1.577.112-2.35-3.003-2.456-3.594-.131-3.723.123-3.758-.677a94.494 94.494 0 0 0-.778-10.32 1.416 1.416 0 0 0-2.413-1 1.416 1.416 0 0 0-.415 1 52.554 52.554 0 0 0-.019 5.355z" fill="#151515"/></svg>