<svg width="321" height="21" viewBox="0 0 321 21" fill="none" xmlns="http://www.w3.org/2000/svg">
<path d="M320.216 12.0663C319.612 12.1211 318.949 11.6905 318.325 11.4892C311.686 9.33151 304.866 9.46807 297.986 9.66214C286.383 9.96933 274.982 11.8933 263.534 13.4007L251.558 14.997C247.264 15.5565 243.026 15.4698 238.79 14.2743C235.817 13.4318 232.714 13.0828 229.733 12.3359C223.106 10.6714 216.565 8.26108 209.839 7.27349C201.227 6.01457 192.468 5.41746 183.755 5.37834C179.456 5.3491 175.146 7.20856 170.799 8.15433C169.545 8.4131 168.138 8.74466 166.956 8.44893C155.445 5.533 143.675 4.57126 131.905 3.75096C127.487 3.43523 123.061 3.07361 118.654 2.68522C116.619 2.50979 114.76 2.39903 113.023 3.98927C112.126 4.82459 110.582 5.17954 109.285 5.32753C100.349 6.34024 91.3939 7.37985 82.4381 8.13645C77.3675 8.5676 72.2275 8.72739 67.1328 8.59659C61.3764 8.45952 55.6079 7.97074 49.8814 7.4513C48.0376 7.29077 47.186 7.97679 46.4395 9.56496C48.175 11.0409 50.0096 10.4484 51.4195 9.71521C52.9631 8.93588 54.1873 9.05952 55.577 9.74478C60.2015 11.9831 65.0748 12.3399 70.1338 11.84C81.4793 10.7037 92.8289 9.73187 104.267 10.8205C107.84 11.1609 111.502 10.4957 115.101 10.1479C119.632 9.73703 124.155 8.99726 128.687 8.72781C134.828 8.35177 141.02 7.99084 147.143 8.20742C150.991 8.35995 154.803 9.55647 158.595 10.3552C161.017 10.8663 163.241 11.7409 163.503 14.6918C166.437 15.0221 168.937 14.3171 171.049 12.8523C176.228 9.28973 182.102 9.0061 188.019 8.83315C192.176 8.72123 196.348 8.70104 200.498 8.68471C201.439 8.66745 202.372 8.74571 203.294 8.89671C212.323 10.2503 221.269 12.0897 230.017 14.717C231.035 15.0169 232.236 15.1445 233.067 15.7353C239.132 20.1069 245.82 18.7069 252.168 17.378L252.354 17.339C257.959 16.1573 263.562 16.0844 269.152 15.5183C275.695 14.8623 282.289 14.7874 288.835 14.1544C295.592 13.5094 302.217 13.7593 308.844 15.1409M320.497 18.9053C314.399 17.859 308.342 16.6406 302.236 15.69C299.864 15.3355 297.405 15.3026 295.003 15.472C288.422 15.8986 281.879 16.5545 275.301 17.0041C271.825 17.237 268.315 17.4048 264.838 17.3547C259.403 17.3049 254.212 18.5584 248.932 19.5673C245.273 20.2555 241.46 20.1679 237.72 20.3745C237.23 20.41 236.652 20.2009 236.227 19.9189C229.269 15.4566 221.216 14.292 213.394 12.4044C210.789 11.7829 208.118 11.3373 205.463 10.9835C203.221 10.7014 200.942 10.6144 198.689 10.5465C195.208 10.4735 191.689 10.3127 188.209 10.5226C184.19 10.7527 180.19 11.2389 176.218 11.7442C175.201 11.8687 174.135 12.4024 173.344 13.0311C169.991 15.6723 166.168 16.5059 161.682 16.4847C161.22 12.9072 158.483 12.0718 155.465 11.52C152.691 11.0211 149.932 10.1897 147.132 9.9547C143.953 9.71285 140.737 9.949 137.54 10.0169C136.457 10.0344 135.394 10.1666 134.323 10.2529C125.241 10.9601 116.167 11.7131 107.054 12.3783C105.727 12.4843 104.373 12.2883 103.023 12.2567C96.7155 12.0711 90.4078 11.6026 84.1127 11.7687C78.7547 11.8946 73.4287 12.7698 68.0905 13.2932C64.3316 13.6681 60.6753 13.672 56.9742 12.292C54.9341 11.5278 52.4711 11.6131 50.2224 11.7095C45.3961 11.9108 40.6741 12.5898 35.965 14.0448C32.4905 15.1263 28.5202 14.9473 24.8099 14.7715C19.3134 14.4963 5.94683 10.6046 0.457738 10.2338C10.774 10.8277 21.4978 8.71158 32.1121 7.43108L32.1587 7.43339C34.9528 7.57217 37.9328 7.72018 40.5138 6.88594C44.5156 5.57388 48.448 5.94807 52.4222 6.15003C57.7734 6.40264 63.129 6.96099 68.5028 7.06826C72.668 7.14366 76.821 6.86732 80.9931 6.56421C92.0409 5.76118 103.198 5.88317 113.703 1.44546C115.113 0.853745 116.895 0.930352 118.471 1.04175C123.027 1.33425 127.564 1.93644 132.116 2.20601C143.094 2.80622 154.08 3.59371 164.836 5.95303C168.268 6.71813 171.365 6.47847 174.66 5.4508C178.876 4.14976 183.211 3.13518 187.745 3.85592C189.731 4.15762 191.754 4.12277 193.766 4.16062C203.481 4.40792 212.976 5.73011 222.306 8.58943C228.177 10.3817 234.317 11.3971 240.362 12.5467C243.362 13.1254 246.515 13.7725 249.505 13.4566C258.567 12.4933 267.629 11.2473 276.622 9.72986C285.936 8.15818 295.321 7.84798 304.702 7.65632C308.439 7.56822 312.134 7.79352 315.924 7.885M13.0484 12.464C19.074 13.3575 25.0142 13.6051 31.0218 13.1338" stroke="white" stroke-width="0.5"/>
</svg>
