<svg xmlns="http://www.w3.org/2000/svg" width="287" height="52" fill="none"><path fill="#fff" fill-rule="evenodd" d="M206.871.199c-2.925.142-5.482.31-5.684.374-.201.062 1.036.217 2.75.343 3.108.23 3.103.23-1.65.343-2.621.063-6.499.243-8.616.401-2.664.2-1.308.236 4.4.118 13.045-.27 26.44-.507 28.163-.501.961.004 1.491-.138 1.353-.36-.149-.241 3.059-.367 9.35-.367 6.798 0 9.505.116 9.331.398-.155.25.074.366.62.312.476-.048 1.113.011 1.416.131.302.12 3.025.393 6.05.609 3.025.215 6.119.537 6.875.714.756.178 1.375.186 1.375.02 0-.416-.971-.658-6.6-1.647a70.974 70.974 0 0 1-2.933-.603c-1.955-.449-38.261-.673-46.2-.285ZM95.221.584c-1.724.204-1.674.22.825.275 2.632.057 3.427-.098 1.833-.357-.454-.074-1.65-.037-2.658.082Zm-4.034.18c-.403.063-2.177.22-3.941.35-1.765.129-3.209.356-3.209.505 0 .148.536.204 1.192.124.914-.112 1.063-.056.642.24-.418.294-.154.378 1.1.35 1.504-.035 1.553-.063.55-.318l-1.1-.28 1.344-.043c.74-.024 1.4.104 1.467.284.07.185 1.466.208 3.239.052 3.361-.295 3.303-.436-.184-.444-1.21-.003-1.787-.086-1.283-.184.866-.17 2.039-.91 1.265-.8-.191.028-.678.101-1.082.164Zm126.424.057c-1.252.071-3.397.072-4.767.001-1.37-.07-.345-.129 2.277-.13 2.621 0 3.742.058 2.49.129Zm5.118-.028a1.415 1.415 0 0 1-.917 0c-.252-.102-.046-.185.459-.185.504 0 .71.083.458.185Zm27.867.366a1.415 1.415 0 0 1-.917 0c-.252-.102-.046-.185.458-.185s.711.083.459.185Zm2.573-.002c-.248.1-.743.106-1.1.013-.357-.093-.153-.175.452-.182.605-.007.896.068.648.169Zm-156.94.378c.353.092.93.092 1.283 0 .353-.092.064-.167-.641-.167-.706 0-.995.075-.642.167Zm3.483-.01c.253.102.665.102.917 0 .252-.101.046-.184-.458-.184-.505 0-.71.083-.459.184Zm-70.196.605c-.105.17-2.03.277-4.277.235-4.077-.074-11.218.465-12.42.938-.402.159-.606.588-.558 1.173.083.995.14 1.03 2.201 1.373 1.688.28 1.824.873.184.798-1.092-.05-1.183.03-1.086.954.092.882-.022 1.008-.917 1.012-1.282.008-1.734.333-1.835 1.324-.066.644.172.819 1.375 1.01 1.946.312 1.841.818-.218 1.05-1.627.183-3.65 1.502-3.263 2.128.096.156-.32.392-.926.525-.951.209-1.03.312-.58.762.288.286.74.523 1.007.526.365.005.352.09-.052.345-.376.237.053.373 1.433.452 1.946.112 1.97.128 2.003 1.304.019.655-.09 1.19-.241 1.19s-.275.33-.275.733c0 .543-.261.745-1.009.782-.879.044-.901.07-.173.21 1.063.204 2.996 1.2 2.334 1.203-.28.001-.41.23-.297.525.299.777-.427 1.196-2.84 1.64-2.16.397-3.09.767-1.927.767.337 0 .612.248.612.55 0 .427-.49.55-2.2.55-2.373 0-3.11.699-.825.781.85.031 1.06.11.55.21-.454.086-.825.3-.825.474s-.333.421-.74.55c-.405.129-.647.381-.536.56.111.18-.34.483-1.003.674-1.04.3-.83.353 1.545.39 2.824.046 2.929.432.249.913-1.189.213-1.334.335-.95.797.365.438.515.452.768.07.244-.37.436-.315.865.246.505.661.48.752-.282 1.081-.713.308-.542.389 1.184.56 1.81.18 1.936.247 1.237.647-.428.246-1.5.556-2.383.69-2.743.417-2.901.854-.321.887l2.383.03-3.116 1.171-3.117 1.171 1.833.184 1.834.183-2.16.495c-1.51.347-2.007.593-1.65.819.28.177.84.337 1.243.354.728.031.728.033.007.315-.528.205-.074.37 1.65.6 2.153.286 2.238.328.91.447-.807.072-1.624.286-1.815.474-.216.211 1.316.352 4.033.37 3.384.023 4.152.113 3.373.397-.584.213-1.008.642-1.008 1.02 0 .529-.641.782-3.387 1.339-1.863.378-3.076.746-2.696.82.552.105.587.197.178.456-.376.238-.27.326.405.334.504.007 1.16.165 1.456.353.6.378.444.471-1.507.896-.533.115-1.058.444-1.167.73-.168.434.466.49 3.9.35 3.031-.125 3.958-.064 3.551.232-.464.339-.435.393.184.344 1.225-.098 1.493.019.916.4-.374.247.154.279 1.65.1 2.74-.325 2.6-.33 8.8.236 3.8.347 9.371.403 21.45.218 10.027-.154 19.427-.1 24.384.136 16.337.784 17.962.839 17.728.598-.13-.135-1.946-.335-4.033-.444-2.087-.11-3.952-.346-4.144-.525-.477-.448 31.096-.413 42.231.046 6.387.264 54.633.78 71.418.764 3.744-.003 20.077-.466 20.826-.59.619-.103.938-.027.804.19-.123.2-.059.361.143.361.202 0 .469-.164.593-.366.297-.48 1.65-.474 1.65.007 0 .414 8.662.438 14.987.043 2.897-.182 3.847-.129 3.981.222.098.253.417.46.71.46s.43-.164.306-.366c-.125-.201.071-.394.436-.428.365-.035.911-.1 1.214-.145.302-.044 1.457-.101 2.566-.126 1.229-.027 1.829-.163 1.536-.349-.476-.301 2.125-.582 9.464-1.02 3.69-.22 5.359-.821 2.549-.917-.898-.031-1.797-.094-1.999-.141-.201-.047-1.934-.127-3.85-.178l-3.483-.092 2.383-.285c1.311-.157 4.006-.337 5.988-.4 1.983-.062 3.684-.241 3.78-.397.097-.155.506-.283.909-.283s.644-.143.536-.319c-.109-.176-.893-.183-1.763-.015-1.756.339-3.429.424-3.165.161.353-.353 7.949-1.66 8.475-1.459.307.118.641-.04.765-.361.155-.405.781-.588 2.156-.63l1.936-.06-2.017-.216c-1.586-.17-1.806-.263-1.029-.435.543-.12 1.78-.096 2.75.053.969.15 1.8.239 1.846.198.046-.041-.18-.449-.501-.907-.387-.552-.707-.71-.948-.469-.242.241-.753.235-1.516-.02-2.049-.68-1.726-.834 1.479-.7 2.236.093 3.072.013 2.894-.275-.155-.25.075-.419.595-.439.754-.03-2.849-.76-5.753-1.168-.605-.085.137-.182 1.65-.215 1.512-.033 2.997-.22 3.3-.415.456-.295.425-.357-.183-.366-.404-.007-.981-.186-1.284-.399-.402-.282-.082-.324 1.191-.154 2.275.302 2.756-.018 1.706-1.134-.464-.495-.627-.877-.372-.877.248 0 .35-.165.225-.367-.124-.201-.918-.368-1.763-.371-.845-.004-1.784-.178-2.087-.388-.395-.275-.01-.315 1.375-.143 1.959.243 2.7-.245 1.1-.724-.804-.241-.807-.256-.091-.6.581-.278.465-.319-.56-.197-1.476.175-3.026-.615-1.988-1.013a4.18 4.18 0 0 1 1.249-.226c.363 0 .864-.247 1.115-.55.359-.43.36-.549.006-.549-.25 0-.357-.244-.24-.55.136-.352-.014-.558-.419-.574-.523-.022-.505-.077.103-.326.682-.28.661-.33-.299-.707-.567-.223-1.269-.407-1.558-.407-.289 0-.526-.164-.526-.366 0-.201.949-.382 2.108-.402l2.109-.035-1.375-.564c-1.491-.61-1.761-1.33-.711-1.892.365-.195 2.51-.472 4.767-.615 2.256-.142 4.102-.386 4.102-.542 0-.156-.454-.45-1.008-.652-.844-.308-.575-.372 1.65-.396 1.508-.017 2.658-.188 2.658-.396 0-.201-.34-.366-.755-.366s-.657-.157-.538-.35c.119-.193.459-.258.755-.144.296.113.538.051.538-.138 0-.19-.784-.527-1.742-.752-1.478-.346-.911-.39 3.759-.292l5.5.117-4.767-.67c-8.341-1.17-8.192-1.14-7.15-1.452.848-.254.856-.277.113-.311-1.118-.051-1.402-.683-.394-.876.462-.09.153-.182-.697-.21-.84-.027-1.582-.212-1.65-.41-.067-.2-2.02-.497-4.339-.661-4.13-.293-4.184-.308-2.669-.749.987-.287 3.56-.42 7.104-.368 5.129.075 5.596.026 6.076-.63.457-.625 1.071-.726 5.088-.833 3.642-.096 4.568-.226 4.568-.64 0-.286-.143-.52-.319-.52-.515 0-6.772-1.103-7.473-1.318-1.324-.405-.568-.88 1.467-.922 2.086-.041 2.093-.045.642-.345-.807-.166-2.787-.324-4.4-.35-2.874-.048-6.77-.546-5.684-.727 1.035-.173-2.746-.679-5.274-.706-2.204-.024-2.633-.143-3.375-.943l-.849-.915 1.541-.033 1.541-.033-1.254-.36c-.69-.198-1.556-.28-1.925-.184-.369.096-.671.038-.671-.13s-.289-.38-.642-.473c-.353-.092.101-.207 1.008-.256l1.65-.088-1.65-.277c-5.393-.907-43.745-1.408-56.1-.733-3.529.193-8.094.355-10.144.36-2.631.007-3.783.144-3.914.467-.14.345-.262.352-.492.03-.258-.361-7.872-.777-8.55-.467-.662.303-97.25.263-103.766-.043-4.336-.203-9.286-.434-11-.512-1.715-.079-6.817-.229-11.338-.333-4.522-.105-9.884-.294-11.917-.42-5.877-.365-14.19-.401-14.4-.063Zm186.086-.23c.264.105.581.092.703-.03.121-.121-.095-.208-.481-.192-.428.018-.515.104-.222.221Zm-9.9.365c.264.106.581.093.703-.029.121-.121-.095-.208-.481-.192-.428.018-.515.105-.222.221Zm2.933 0c.265.106.581.093.703-.029.122-.121-.095-.208-.481-.192-.427.018-.514.105-.222.221Zm-117.723.741a5.238 5.238 0 0 0 1.65 0c.454-.087.083-.159-.825-.159-.907 0-1.279.072-.825.16Zm74.257 1.447c-.248.1-.743.107-1.1.014-.357-.093-.153-.175.452-.183.605-.007.896.069.648.169Zm94.036-.019c-.122.122-.439.135-.703.029-.293-.117-.206-.204.222-.221.386-.016.602.07.481.192Zm-54.64.65c.125.125-1.078.246-2.675.27-1.597.022-7.11.125-12.253.227-5.142.102-23.345.313-40.45.469-17.105.155-32 .394-33.1.532-2.02.252-4.438-.04-3.995-.481.255-.255 3.726-.323 23.187-.454 7.428-.05 12.192-.218 12.192-.431 0-.192.232-.26.516-.151.783.3 12.994.25 21.85-.092 8.659-.333 34.366-.25 34.728.111Zm9.578-.321c-.264.263-6.549.295-6.81.034-.12-.12 1.405-.218 3.388-.218 1.983 0 3.523.082 3.422.184Zm1.428.037c-.121.122-.438.135-.702.03-.293-.118-.206-.204.221-.222.387-.016.603.07.481.192Zm-27.854.404c.456.088 1.116.084 1.466-.007.351-.092-.022-.163-.829-.16-.807.005-1.093.08-.637.167Zm50.08.016c.093.15-2.111.275-4.898.275-2.786 0-5.19-.124-5.342-.275-.151-.15 2.052-.275 4.897-.275 2.846 0 5.25.124 5.343.275Zm1.89.092c-1.001.43-1.283.43-1.283 0 0-.202.454-.355 1.008-.341.894.023.925.061.275.34Zm-66.985.25c.264.106.581.092.703-.03.121-.12-.095-.207-.481-.192-.428.018-.515.105-.222.222Zm2.184.015c.658.081 1.648.08 2.2-.004.551-.083.011-.15-1.199-.148-1.21.002-1.66.07-1.001.152Zm-74.017.855c-.264.163-.629.204-.812.091-.182-.112-.115-.338.148-.5.264-.164.63-.205.812-.092.182.112.116.338-.148.5Zm6.635-.308c0 .157-1.196.267-2.658.243-1.973-.032-2.375-.114-1.559-.317 1.408-.35 4.217-.3 4.217.074Zm3.667-.254c0 .391-1.98.928-2.538.688-.457-.196-.387-.307.338-.528 1.119-.341 2.2-.42 2.2-.16Zm-11.93.561c-.118.19-1.483.343-3.034.34-1.55-.003-2.627-.127-2.391-.275.653-.41 5.676-.47 5.425-.065Zm117.262-.147c-.249.1-.744.107-1.1.014-.357-.093-.154-.175.451-.183.605-.007.897.069.649.17Zm25.659.385a5.238 5.238 0 0 1-1.65 0c-.453-.088-.082-.16.825-.16.908 0 1.279.072.825.16ZM14.737 11.538c0 .201-.072.366-.161.366-.09 0-.264-.165-.389-.366-.124-.202-.051-.366.162-.366s.388.164.388.366ZM4.77 24.973c.264.106.58.093.702-.029.122-.121-.094-.208-.48-.192-.428.018-.515.104-.222.221Zm260.669 6.198c-.122.121-.438.134-.703.029-.292-.117-.205-.204.222-.222.386-.015.603.071.481.193Zm-257.667.877c0 .202-.175.366-.389.366-.213 0-.286-.164-.161-.366.124-.201.299-.366.388-.366.089 0 .162.165.162.366Zm109.098 5.518c.395.638-.055.773-.558.168-.289-.348-.317-.558-.073-.558.214 0 .498.175.631.39Zm23.251.902c.218-.134.301-.398.185-.585-.121-.196.721-.341 1.98-.341 1.266 0 2.248.17 2.325.402.074.221.91.49 1.857.596 2.36.266 1.822.83-.659.69-1.492-.083-2.004.014-2.004.382 0 .622-1.342.652-1.591.036-.107-.266-.197-.18-.213.205-.016.364-.165.579-.331.476-.166-.102-.576.135-.913.528-.718.838-2.452.97-2.452.188 0-.401-.318-.475-1.332-.311-1.046.17-1.294.105-1.153-.297.099-.283.415-.497.701-.477.286.02.746-.204 1.021-.498.436-.466.338-.503-.743-.285-.684.138-1.519.328-1.855.422-.336.094-.707.014-.825-.176-.118-.191.619-.462 1.639-.602 1.02-.14 2.051-.47 2.292-.732.359-.392.55-.38 1.057.072.34.304.797.442 1.014.307Zm51.717-.418c0 .3-2.242.452-2.421.163-.104-.167.399-.305 1.116-.305.718 0 1.305.064 1.305.142Zm-66.954 2.205c-.315.82-.777.41-.666-.592.137-1.246.146-1.256.532-.596.196.335.256.87.134 1.188Zm25.986-1.374c-.248.1-.743.107-1.1.014-.357-.094-.153-.176.452-.183.605-.007.896.069.648.169Zm12.368.145c-2.351.418-10.711.404-11.366-.019-.365-.235 1.734-.341 6.233-.315 4.639.028 6.262.133 5.133.334Zm7.609-.123a8.113 8.113 0 0 1-2.017 0c-.555-.084-.101-.152 1.008-.152s1.563.068 1.009.152Zm3.483-.02a1.415 1.415 0 0 1-.917 0c-.252-.101-.046-.184.459-.184.504 0 .71.083.458.184Zm3.667 0a1.415 1.415 0 0 1-.917 0c-.252-.101-.046-.184.458-.184s.711.083.459.184Zm-62.425.303c0 .533-1.367 1.65-2.007 1.64-.715-.011-.711-.039.096-.71l.838-.7-1.572-.14c-1.38-.124-1.315-.149.536-.205 1.16-.035 2.109.017 2.109.115Zm1.734.042c-.122.122-.439.135-.703.03-.293-.118-.206-.205.222-.222.386-.016.602.07.481.192Zm22.466.145c0 .202.175.367.388.367.213 0 .286-.165.162-.367-.125-.201-.3-.366-.389-.366-.089 0-.161.165-.161.366Zm114.667-.145c-.122.122-.438.135-.703.03-.292-.118-.205-.205.222-.222.386-.016.603.07.481.192Zm2.758.021a1.415 1.415 0 0 1-.917 0c-.252-.101-.046-.184.458-.184s.711.083.459.184Zm-157.491.345c-.122.122-.439.135-.703.03-.292-.117-.206-.204.222-.222.386-.016.602.07.48.192Zm10.282.214c-.08.24-.364.508-.632.597-.274.091-.381-.007-.246-.226.134-.217-.125-.457-.591-.546-.592-.114-.479-.174.391-.21.798-.032 1.172.102 1.078.385Zm11.634.298c-.134.42-.066.732.158.732.216 0 .392.138.392.305 0 .476-1.491.249-1.816-.277-.226-.364-.469-.375-1.078-.049-.434.232-.967.311-1.185.177-.44-.272 2.035-1.544 3.095-1.591.504-.022.61.149.434.703Zm69.3-.367c.124.202.051.367-.162.367s-.388-.165-.388-.367c0-.2.072-.366.161-.366.089 0 .264.165.389.367Zm3.483-.204c0 .089-.165.263-.367.388-.201.124-.366.051-.366-.162s.165-.388.366-.388c.202 0 .367.073.367.162Zm53.632.079c-.248.1-.743.106-1.1.013-.357-.093-.154-.175.451-.182.605-.008.897.068.649.169Zm2.002-.02c-.122.122-.438.135-.703.03-.292-.117-.205-.204.222-.222.386-.016.603.07.481.192Zm-144.917.512c.124.201.051.366-.162.366s-.388-.165-.388-.366c0-.202.072-.367.161-.367.089 0 .264.165.389.367Zm43.35-.145c-.121.121-.438.135-.702.029-.293-.117-.206-.204.221-.221.387-.016.603.07.481.192Zm1.834 0c-.122.121-.439.135-.703.029-.293-.117-.206-.204.222-.221.386-.016.602.07.481.192Zm3.399.328c0 .302.165.55.367.55.201 0 .366-.206.366-.459-.001-.34.804-.427 3.121-.339 1.888.072 3.036.259 2.903.473-.12.195-.51.262-.866.149-.355-.113-1.125.045-1.71.35-.942.49-1.078.49-1.183.006-.133-.611-1.729-.75-2.081-.18-.246.397-1.758.502-2.114.147-.357-.357.133-1.246.686-1.246.281 0 .511.247.511.549Zm33.733 0c-.386.465-.306.55.527.55.562 0 .886.156.757.366-.125.201-.575.366-1 .366-.425 0-.655.118-.511.262.145.144 1.598.21 3.23.15 2.652-.101 2.943-.048 2.733.5-.155.404-.079.556.222.446.253-.092.418-.353.367-.58-.05-.227.331-.412.847-.412.532 0 .84.159.712.366-.125.202-.052.367.161.367.214 0 .389-.165.389-.367 0-.61 1.371-.41 1.619.236.127.33.176.657.109.724-.068.067-1.749.167-3.736.222-2.638.073-3.655-.023-3.767-.358-.084-.251-.479-.457-.877-.457-.399 0-.623.164-.498.366.132.213-.241.366-.895.366-.617 0-1.122-.165-1.122-.366 0-.202-.611-.366-1.357-.366-1.483 0-1.293-.586.257-.793.689-.093.945-.373 1.032-1.13.072-.618.337-1.008.687-1.008.466 0 .487.102.114.55Zm36.484.295c.403.105-.051.174-1.009.154-.957-.02-1.741-.182-1.741-.359 0-.178.35-.211.779-.075.596.188.709.13.479-.25-.235-.391-.186-.408.23-.08.29.231.858.505 1.262.61Zm-45.834-.112c-.124.201-.381.366-.571.366-.19 0-.345-.165-.345-.366 0-.201.257-.366.571-.366.315 0 .47.165.345.366Zm-39.05.366c.711.46 1.1.46 1.1 0 0-.201-.371-.363-.825-.36-.667.004-.719.073-.275.36Zm34.467.16c0 .297.437.58 1.008.653.809.103.709.163-.504.304-1.379.16-1.512.103-1.512-.653 0-.46.224-.83.504-.83.277 0 .504.236.504.525Zm11.367-.214c0 .184-.664.343-1.474.355-.811.01-1.4-.1-1.31-.247.247-.398 2.784-.497 2.784-.108Zm-114.217.42c.125.202-.03.367-.345.367-.314 0-.572-.165-.572-.366 0-.202.155-.367.345-.367.19 0 .447.165.572.367Zm72.783.022c0 .213-.183.275-.407.136-.224-.138-.552-.024-.728.253-.253.4-.321.371-.326-.136-.003-.398.272-.64.728-.64.403 0 .733.174.733.387Zm5.134-.113c0 .15-.397.275-.882.275s-.805-.124-.712-.275c.094-.15.49-.275.882-.275s.712.124.712.275Zm69.85.092c-.125.201-.589.354-1.03.34-.775-.025-.777-.037-.07-.34 1.009-.434 1.368-.434 1.1 0Zm26.95 0c0 .201.371.368.825.371.453.004 1.072.166 1.375.361.405.262.117.376-1.1.432-.908.043-2.228.143-2.934.222-.706.08-6.976.194-13.933.252-6.958.06-11.66-.015-10.45-.166l4.033-.5c3.874-.482 8.573-.607 8.803-.236.127.206.401.27.607.142.208-.128.762-.026 1.234.226.471.252 1.157.338 1.523.192.367-.147 1.852-.295 3.301-.33 1.45-.036 2.743-.172 2.875-.304.131-.132.802-.148 1.49-.037.995.161 1.251.08 1.251-.394 0-.329.247-.598.55-.598.302 0 .55.165.55.367Zm10.786.091c.171.366.257.366.427 0 .231-.492 3.292-.649 3.58-.183.093.15-.557.217-1.445.146-1.009-.08-1.615.023-1.615.275 0 .61-1.724.483-1.966-.146-.257-.668.709-.755 1.019-.092Zm-85.036.275c-.125.201-.671.354-1.214.34-.881-.023-.908-.06-.253-.34 1.019-.438 1.737-.438 1.467 0Zm34.466 0c-.124.201.114.366.529.366.415 0 .755-.165.755-.366 0-.433.71-.335 1.314.18.554.474-1.329 1.308-2.349 1.042-.394-.103-.827-.008-.962.211-.136.219-.494.398-.797.398-.302 0-.44-.178-.305-.394.169-.274-.275-.317-1.445-.142-1.025.153-1.69.113-1.69-.104 0-.196.946-.454 2.103-.573 1.156-.119 2.16-.39 2.23-.6.071-.212.289-.384.486-.384s.256.164.131.366Zm10.484-.029c-.284.18-1.002.266-1.596.19-.831-.104-1.123.03-1.268.584-.104.396-.329.72-.501.72-.396 0 .031-1.193.555-1.551.216-.148 1.053-.27 1.86-.27 1 0 1.302.105.95.327Zm-129.1.352c0 .436-1.418.785-1.652.406-.103-.165.021-.384.274-.486.751-.303 1.378-.266 1.378.08Zm4.766.043c0 .202-.155.366-.345.366-.19 0-.447-.164-.571-.366-.125-.201.03-.366.345-.366.314 0 .571.165.571.366Zm6.6-.04c0 .554-2.677.672-3.657.161-.858-.447-.756-.483 1.366-.485 1.26-.001 2.291.145 2.291.324Zm1.128.14c-.046.439-.548.354-.706-.118-.08-.242.051-.374.293-.293.242.08.428.266.413.412Zm3.247 1.154c.014.187-.28.022-.654-.366-.461-.478-.55-.789-.275-.966.367-.237.863.475.929 1.332Zm3.112-1.398c.746.286.752.877.008.877-.314 0-.476.154-.358.343.117.19-.12.32-.527.29-.76-.058-.879-.949-.193-1.452.449-.33.372-.326 1.07-.058Zm143.947.144c0 .202-.289.364-.642.36-.549-.004-.562-.057-.092-.36.692-.447.734-.447.734 0Zm-140.236.57c-.938.385-.988.47-.367.628.581.147.543.19-.201.225-.531.024-1.097-.242-1.34-.63-.384-.615-.276-.67 1.287-.67 1.691.002 1.696.006.621.447Zm5.04.423c.148.772.061.87-.608.691-.429-.115-1.44-.216-2.246-.225-1.187-.013-1.343-.088-.818-.394.357-.208.558-.526.445-.708-.112-.182.529-.316 1.425-.298 1.428.029 1.651.144 1.802.934Zm10.774-.054c.381.52.589.572.93.232.61-.61 1.392-.548 1.392.111 0 .428-.466.543-2.109.52-1.159-.015-1.902-.112-1.65-.213 1.078-.435.311-.856-1.558-.856-2.181 0-2.768.593-.825.834.741.091.403.17-.895.206-1.171.033-2.195-.116-2.333-.34-.178-.287-.358-.287-.645 0-.219.22-.646.398-.949.398-.406 0-.442-.107-.138-.41.226-.227.32-.65.208-.94-.172-.447.437-.504 3.939-.37 3.476.132 4.222.265 4.633.828Zm8.186-.115c.003.41-2.485.333-2.743-.085-.135-.216.365-.325 1.26-.274.815.046 1.482.208 1.483.36Zm13.202-.113c0 .19-.164.446-.365.57-.64.395-10.545.214-11.368-.208-.419-.214 4.123-.591 7.792-.647 2.26-.034 3.941.087 3.941.285Zm16.08.212c.387.386-.307.517-3.727.703-3.507.19-7.219-.276-7.219-.907 0-.322 10.618-.123 10.946.204Zm13.07.163c-2.365.21-4.143.055-3.555-.31.2-.125 1.576-.15 3.059-.057l2.696.17-2.2.197Zm6.417-.353c0 .201-.073.366-.162.366-.089 0-.263-.165-.388-.366-.125-.202-.052-.367.162-.367.213 0 .388.165.388.367Zm8.25 0c-.125.201.031.366.345.366.314 0 .572-.165.572-.366 0-.202-.155-.367-.345-.367-.19 0-.447.165-.572.367Zm76.015-.117c.264.106.581.093.702-.028.122-.122-.094-.209-.481-.193-.427.018-.514.105-.221.221Zm-85.894.448c-.113.183-.535.246-.938.14-1.009-.263-.918-.471.205-.471.516 0 .846.149.733.331Zm18.954-.089a1.414 1.414 0 0 1-.917 0c-.252-.101-.046-.185.459-.185.504 0 .71.084.458.185Zm16.867 0a1.414 1.414 0 0 1-.917 0c-.252-.101-.046-.185.458-.185s.711.084.459.185Zm47.391 1.589c.125.201.299.366.389.366.089 0 .161-.165.161-.366 0-.202-.175-.366-.388-.366-.213 0-.286.164-.162.366Zm9.648-.116c.265.106.581.092.703-.03.122-.12-.095-.207-.481-.191-.427.017-.514.104-.222.22Zm-149.898 4.602c0 .151-3.341.244-7.425.207-5.14-.047-6.465-.132-4.308-.275 4.477-.296 11.732-.254 11.733.069Zm3.667.135c0 .077-.784.12-1.742.097-1.498-.037-1.587-.078-.641-.293 1.027-.233 2.383-.122 2.383.196Zm-18.975.016a1.415 1.415 0 0 1-.917 0c-.252-.101-.046-.184.459-.184.504 0 .71.083.458.184Zm-33.184.781c.254.167-1.25.313-3.388.33-2.114.015-3.778-.08-3.697-.211.223-.359 6.557-.465 7.084-.119Zm167.59.326c.265.106.581.093.703-.03.122-.12-.095-.207-.481-.191-.427.017-.514.104-.222.22Zm-26.797.337c-.122.122-.438.135-.703.03-.292-.118-.205-.205.222-.222.386-.016.603.07.481.192Zm-127.43.785c2.157.064 5.788.065 8.068 0 2.28-.064.515-.117-3.922-.117s-6.302.052-4.145.117Zm32.863.172c.195.196.661.291 1.036.212.504-.107.412-.2-.356-.355-.669-.137-.91-.086-.68.143Zm113.664-.195c.265.105.581.092.703-.03.122-.12-.095-.207-.481-.192-.427.018-.514.105-.222.222Zm-110.752.375c.456.087 1.116.084 1.467-.008.351-.091-.023-.163-.829-.159-.807.004-1.094.08-.638.167Zm5.134 0c.456.087 1.116.084 1.466-.008.351-.091-.022-.163-.829-.159-.807.004-1.093.08-.637.167Zm11.369.006c.658.081 1.648.08 2.2-.003.551-.084.011-.151-1.199-.149-1.21.002-1.66.07-1.001.152Zm5.315-.002c.557.084 1.382.081 1.833-.005.451-.087-.005-.156-1.013-.154-1.009.003-1.378.074-.82.159Zm48.028-.011c.353.092.931.092 1.283 0 .353-.092.064-.167-.641-.167-.706 0-.995.075-.642.167Zm6.05-.01c.252.102.665.102.917 0 .252-.101.045-.184-.459-.184s-.71.083-.458.184Z" clip-rule="evenodd"/></svg>