<svg width="233" height="244" viewBox="0 0 233 244" fill="none" xmlns="http://www.w3.org/2000/svg">
<path fill-rule="evenodd" clip-rule="evenodd" d="M168.062 0.935842C165.686 1.60887 163.609 2.40097 163.445 2.69779C163.281 2.99289 164.286 3.72286 165.679 4.31823C168.204 5.39853 168.2 5.40198 164.339 5.9335C162.209 6.22687 159.059 7.07764 157.338 7.82315C155.174 8.76193 156.276 8.93278 160.913 8.3771C171.511 7.10871 182.393 5.987 183.793 6.01633C184.574 6.03359 185.004 5.36746 184.892 4.31823C184.771 3.18444 187.378 2.59252 192.488 2.59252C198.011 2.59252 200.21 3.13612 200.068 4.46664C199.942 5.64703 200.129 6.19235 200.572 5.93695C200.959 5.71261 201.477 5.99045 201.723 6.55475C201.968 7.11734 204.18 8.40816 206.638 9.42288C209.095 10.4376 211.609 11.9528 212.223 12.7897C212.837 13.625 213.34 13.6664 213.34 12.8812C213.34 10.9208 212.551 9.7801 207.978 5.12241C207.405 4.53912 206.332 3.25865 205.595 2.27844C204.007 0.166176 174.512 -0.888233 168.062 0.935842ZM77.3574 2.75301C75.9574 3.71423 75.9976 3.79189 78.0276 4.04729C80.1658 4.31478 80.8119 3.58481 79.517 2.363C79.1483 2.01441 78.1766 2.19043 77.3574 2.75301ZM74.0807 3.60206C73.753 3.89716 72.3122 4.63749 70.8785 5.24666C69.4451 5.85584 68.272 6.92578 68.272 7.62642C68.272 8.32533 68.7075 8.58936 69.2402 8.21143C69.9825 7.68509 70.104 7.94913 69.7614 9.34695C69.4219 10.731 69.6363 11.1262 70.6551 10.9898C71.8776 10.8276 71.9169 10.6965 71.1019 9.49536L70.2083 8.17864L71.3006 7.97329C71.9011 7.86111 72.4373 8.46166 72.4921 9.30898C72.5484 10.1839 73.683 10.2909 75.1233 9.55576C77.8543 8.16484 77.8069 7.50044 74.9744 7.4642C73.9914 7.4504 73.5222 7.06038 73.9318 6.59617C74.6354 5.79889 75.588 2.30606 74.9595 2.82722C74.804 2.95665 74.4084 3.30524 74.0807 3.60206ZM176.788 3.86782C175.77 4.20433 174.028 4.20606 172.915 3.873C171.802 3.54166 172.634 3.26555 174.764 3.26382C176.894 3.26037 177.805 3.53303 176.788 3.86782ZM180.945 3.73494C180.741 4.21469 180.406 4.21469 180.201 3.73494C179.996 3.25692 180.163 2.86519 180.573 2.86519C180.983 2.86519 181.15 3.25692 180.945 3.73494ZM203.584 5.46065C203.38 5.9404 203.045 5.9404 202.84 5.46065C202.635 4.98263 202.802 4.5909 203.212 4.5909C203.622 4.5909 203.789 4.98263 203.584 5.46065ZM205.675 5.4503C205.473 5.92314 205.071 5.95248 204.781 5.51415C204.492 5.07582 204.657 4.68926 205.148 4.65475C205.64 4.62023 205.877 4.97745 205.675 5.4503ZM78.1766 7.23295C78.4631 7.66783 78.9326 7.66783 79.2192 7.23295C79.5057 6.7998 79.2713 6.4443 78.6979 6.4443C78.1244 6.4443 77.89 6.7998 78.1766 7.23295ZM81.0064 7.18636C81.2114 7.66611 81.5465 7.66611 81.7511 7.18636C81.9561 6.70834 81.7884 6.31661 81.3788 6.31661C80.9692 6.31661 80.8018 6.70834 81.0064 7.18636ZM23.979 10.0372C23.8932 10.8414 22.3296 11.3401 20.5042 11.1451C17.1921 10.7948 11.3908 13.3351 10.4144 15.5647C10.0876 16.3102 9.9217 18.3327 9.96102 21.0887C10.028 25.7792 10.0742 25.9466 11.7492 27.5584C13.12 28.8785 13.2306 31.6707 11.8981 31.3204C11.0111 31.0874 10.9372 31.4636 11.0158 35.8124C11.0909 39.9679 10.9982 40.5616 10.2711 40.584C9.22943 40.6185 8.86244 42.1527 8.78023 46.819C8.72691 49.8545 8.92023 50.6794 9.89728 51.5837C11.4787 53.0488 11.3932 55.4355 9.72004 56.5279C8.39834 57.3907 6.75493 63.6067 7.06949 66.5542C7.14754 67.2877 6.80915 68.4007 6.31735 69.0272C5.54435 70.0108 5.4806 70.4975 5.8467 72.6184C6.07964 73.9679 6.44752 75.0844 6.66408 75.0982C6.96077 75.1189 6.95035 75.5176 6.62178 76.7221C6.31646 77.8404 6.66468 78.4772 7.7862 78.8516C9.36705 79.3797 9.38641 79.4522 9.41322 84.9952C9.42841 88.0807 9.33994 90.6037 9.21722 90.6037C9.09449 90.6037 8.99381 92.1569 8.99381 94.0551C8.99381 96.6126 8.78171 97.567 8.17463 97.7413C7.46061 97.9466 7.44244 98.0726 8.03344 98.7301C8.89699 99.6896 10.4677 104.385 9.93005 104.399C9.70276 104.404 9.59731 105.486 9.68906 106.872C9.93153 110.532 9.34173 112.506 7.38138 114.598C5.62746 116.469 4.87173 118.215 5.81631 118.215C6.08947 118.215 6.31288 119.38 6.31288 120.804C6.31288 122.818 5.91581 123.392 4.5256 123.392C2.59831 123.392 1.99897 126.688 3.85537 127.078C4.54675 127.223 4.71713 127.598 4.30219 128.062C3.93341 128.473 3.63196 129.479 3.63196 130.299C3.63196 131.118 3.36178 132.285 3.03173 132.892C2.70167 133.498 2.50567 134.687 2.59563 135.531C2.68589 136.376 2.31919 137.804 1.78092 138.703C0.935241 140.116 1.10593 140.366 3.03619 140.546C5.33017 140.76 5.41537 142.577 3.23786 144.845C2.27243 145.849 2.15476 146.422 2.46665 148.598C2.76274 150.665 2.88457 150.729 3.09011 148.928C3.2885 147.186 3.44488 147.445 3.79281 150.089C4.20299 153.204 4.18363 153.63 3.56374 155.183C2.98466 156.633 3.12347 157.012 4.5256 157.824C5.99594 158.673 6.099 158.985 5.53094 160.871C5.18302 162.027 4.31172 163.491 3.59472 164.122C1.36628 166.086 1.23789 168.143 3.33407 168.3L5.2703 168.444L2.73831 173.961L0.206328 179.478L1.69573 180.341L3.18513 181.204L1.43002 183.538C0.203648 185.171 -0.19998 186.332 0.0895596 187.395C0.317736 188.232 0.772301 188.983 1.09997 189.064C1.69156 189.211 1.69156 189.221 1.10533 190.548C0.676981 191.516 1.04516 192.293 2.4458 193.375C4.19525 194.724 4.26465 194.923 3.18513 195.484C2.5298 195.824 1.86642 196.828 1.71063 197.713C1.53517 198.711 2.78032 199.375 4.98731 199.46C7.73645 199.565 8.36051 199.991 7.72781 201.329C7.25299 202.335 6.90864 204.354 6.90864 206.135C6.90864 208.627 6.38795 209.821 4.15712 212.444C2.64389 214.223 1.6582 215.961 1.9665 216.304C2.41511 216.805 2.44401 217.235 2.11128 218.455C1.80565 219.576 1.89263 219.992 2.44043 220.032C2.85002 220.061 3.38233 220.809 3.62361 221.692C4.11095 223.476 3.98435 223.913 2.39873 225.913C1.96621 226.459 1.53964 228.005 1.45058 229.351C1.31474 231.397 1.82948 231.667 4.62003 231.001C7.08201 230.414 7.83475 230.7 7.5044 232.098C7.12758 233.694 7.15112 233.948 7.65334 233.717C8.64886 233.254 8.86691 233.807 8.39804 235.601C8.09421 236.764 8.52286 236.916 9.73851 236.078C11.9637 234.54 11.8499 234.523 16.8876 237.187C19.9749 238.82 24.5006 239.086 34.3137 238.214C42.4592 237.489 50.0957 237.738 54.1227 238.856C67.3948 242.547 68.715 242.806 68.5252 241.671C68.4189 241.034 66.9444 240.092 65.2486 239.577C63.553 239.065 62.038 237.95 61.8825 237.104C61.4947 234.994 87.1446 235.158 96.1909 237.324C101.38 238.566 140.575 240.998 154.211 240.923C157.253 240.906 170.521 238.725 171.13 238.142C171.633 237.658 171.892 238.016 171.783 239.041C171.683 239.976 171.736 240.74 171.899 240.74C172.063 240.74 172.28 239.964 172.381 239.015C172.623 236.752 173.722 236.778 173.722 239.046C173.722 240.998 180.759 241.113 185.897 239.248C188.25 238.394 189.022 238.644 189.131 240.295C189.211 241.489 189.47 242.466 189.708 242.466C189.946 242.466 190.058 241.69 189.956 240.74C189.855 239.791 190.015 238.882 190.311 238.72C190.607 238.557 191.051 238.252 191.297 238.04C191.542 237.829 192.481 237.562 193.382 237.446C194.38 237.318 194.868 236.675 194.629 235.802C194.243 234.381 196.356 233.059 202.318 230.995C205.316 229.958 206.672 227.125 204.389 226.673C203.66 226.528 202.929 226.229 202.765 226.008C202.601 225.787 201.194 225.411 199.637 225.173L196.808 224.736L198.744 223.394C199.809 222.655 201.998 221.808 203.608 221.513C205.219 221.216 206.601 220.374 206.679 219.64C206.758 218.907 207.09 218.306 207.417 218.306C207.745 218.306 207.941 217.632 207.853 216.805C207.764 215.971 207.127 215.939 206.421 216.731C204.994 218.329 203.635 218.731 203.849 217.492C204.136 215.828 210.307 209.667 210.735 210.617C210.984 211.17 211.256 210.427 211.356 208.913C211.482 207.006 211.99 206.145 213.107 205.945L214.68 205.664L213.042 204.646C211.753 203.843 211.575 203.406 212.206 202.597C212.647 202.029 213.652 202.143 214.44 202.847C215.227 203.551 215.902 203.971 215.939 203.779C215.977 203.586 215.794 201.664 215.533 199.505C215.218 196.906 214.958 196.16 214.762 197.296C214.566 198.433 214.15 198.404 213.531 197.206C211.866 193.994 212.129 193.271 214.732 193.901C216.549 194.34 217.228 193.965 217.083 192.607C216.958 191.43 217.144 190.635 217.567 190.54C218.18 190.402 215.252 186.955 212.893 185.036C212.402 184.636 213.005 184.18 214.234 184.025C215.462 183.868 216.669 182.986 216.914 182.066C217.285 180.679 217.26 180.384 216.766 180.341C216.438 180.311 215.969 179.467 215.723 178.465C215.396 177.133 215.656 176.936 216.69 177.735C218.539 179.16 218.93 177.654 218.076 172.394C217.699 170.064 217.567 168.261 217.774 168.261C217.976 168.261 218.058 167.484 217.957 166.535C217.856 165.586 217.211 164.797 216.525 164.783C215.838 164.768 215.075 163.946 214.829 162.956C214.508 161.662 214.821 161.472 215.946 162.283C217.538 163.427 218.14 161.128 216.84 158.869C216.186 157.734 216.184 157.665 216.766 156.048C217.238 154.736 217.143 154.541 216.311 155.114C215.112 155.941 213.852 152.22 214.696 150.344C214.96 149.758 215.417 149.278 215.711 149.278C216.005 149.278 216.413 148.113 216.617 146.689C216.908 144.656 216.909 144.101 216.621 144.101C216.418 144.101 216.331 142.948 216.427 141.512C216.536 139.849 216.415 138.88 216.086 138.803C215.661 138.701 215.676 138.44 216.17 137.267C216.723 135.952 216.706 135.717 215.927 133.936C215.466 132.884 214.896 132.021 214.661 132.021C214.426 132.021 214.234 131.244 214.234 130.295C214.234 129.346 215.004 128.493 215.946 128.402L217.659 128.235L216.542 125.579C215.331 122.7 215.111 119.309 215.965 116.664C216.261 115.744 218.004 114.441 219.837 113.768C221.67 113.097 223.17 111.946 223.17 111.21C223.17 110.475 222.801 109.095 222.351 108.14C221.665 106.691 221.884 106.385 223.691 106.271C224.917 106.194 225.851 105.388 225.851 104.409C225.851 103.46 225.575 102.684 225.238 102.684C224.9 102.684 224.703 101.942 224.8 101.034C224.897 100.126 225.173 99.8207 225.414 100.356C225.654 100.889 225.851 100.597 225.851 99.7068C225.851 98.8147 225.214 97.2201 224.436 96.1622C223.235 94.5297 223.696 94.3226 227.489 94.7886L231.957 95.3391L228.085 92.1845C221.309 86.6639 221.43 86.8072 222.276 85.3386C222.965 84.1427 222.972 84.0322 222.368 83.8735C221.46 83.6336 221.23 80.6567 222.048 79.7456C222.424 79.3262 222.173 78.8896 221.482 78.7585C220.799 78.629 220.196 77.7575 220.141 76.8222C220.087 75.8869 218.501 74.4856 216.617 73.7108C213.261 72.3302 213.217 72.2577 214.448 70.1817C215.25 68.8304 217.34 68.2023 220.219 68.4456C224.386 68.7994 224.766 68.5699 225.155 65.4791C225.526 62.5333 226.025 62.0605 229.289 61.5566C232.248 61.101 233 60.4884 233 58.5366C233 57.1905 232.884 56.0895 232.741 56.0895C232.322 56.0895 227.239 50.89 226.67 49.8804C225.594 47.9683 226.209 45.7284 227.862 45.5368C229.556 45.3401 229.562 45.3228 228.383 43.9112C227.728 43.126 226.119 42.3805 224.808 42.2562C222.474 42.0319 219.309 39.6867 220.191 38.8324C221.032 38.0196 217.96 35.6364 215.906 35.5087C214.116 35.3965 213.767 34.8322 213.165 31.0667L212.475 26.7525L213.727 26.5972L214.978 26.4418L213.96 24.7455C213.399 23.8136 212.696 23.4236 212.396 23.8774C212.096 24.3313 211.85 24.0569 211.85 23.2665C211.85 22.4762 211.616 21.4735 211.329 21.0386C211.043 20.6055 211.411 20.0619 212.148 19.8341L213.489 19.4182L212.148 18.1101C207.767 13.8372 176.61 11.4782 166.573 14.6604C163.706 15.5699 159.997 16.3326 158.331 16.3551C156.194 16.3861 155.258 17.0333 155.152 18.5553C155.038 20.1792 154.939 20.2155 154.752 18.6968C154.542 16.9953 148.356 15.0366 147.806 16.4966C147.268 17.9237 68.7996 17.7356 63.506 16.2947C59.9835 15.3352 55.9621 14.248 54.5695 13.8787C53.1769 13.5094 49.0319 12.8018 45.3588 12.31C41.6853 11.8164 37.3288 10.926 35.6777 10.3323C30.9032 8.61353 24.1491 8.44268 23.979 10.0372ZM175.155 8.94831C175.37 9.44704 175.627 9.38492 175.726 8.81198C175.825 8.23905 175.649 7.83177 175.335 7.90598C174.988 7.98881 174.918 8.39781 175.155 8.94831ZM167.113 10.674C167.327 11.1727 167.585 11.1106 167.683 10.5377C167.782 9.96476 167.607 9.55748 167.293 9.63169C166.946 9.71452 166.875 10.1235 167.113 10.674ZM169.496 10.674C169.711 11.1727 169.968 11.1106 170.066 10.5377C170.165 9.96476 169.99 9.55748 169.676 9.63169C169.329 9.71452 169.258 10.1235 169.496 10.674ZM73.8573 14.1651C74.2261 14.5759 74.829 14.5759 75.1978 14.1651C75.5665 13.7527 75.2648 13.4162 74.5275 13.4162C73.7903 13.4162 73.4885 13.7527 73.8573 14.1651ZM134.184 20.9817C133.982 21.4545 133.58 21.4839 133.29 21.0455C133 20.6072 133.165 20.2206 133.657 20.1861C134.148 20.1516 134.385 20.5088 134.184 20.9817ZM210.578 20.892C210.479 21.4649 210.222 21.527 210.007 21.0283C209.77 20.4778 209.84 20.0688 210.187 19.986C210.501 19.9117 210.677 20.319 210.578 20.892ZM166.189 23.9568C166.291 24.5453 165.313 25.1148 164.016 25.2235C162.719 25.3305 158.239 25.8137 154.062 26.2951C149.884 26.7783 135.096 27.7706 121.2 28.5041C107.303 29.2375 95.2028 30.3644 94.3095 31.0115C92.6682 32.1988 90.7036 30.8286 91.0638 28.7457C91.2711 27.5463 94.0908 27.2253 109.901 26.6092C115.935 26.3728 119.805 25.579 119.805 24.5763C119.805 23.6721 119.994 23.3511 120.224 23.8636C120.861 25.2787 130.781 25.0388 137.976 23.4339C145.01 21.8635 165.895 22.2518 166.189 23.9568ZM173.97 22.4399C173.756 23.6807 168.65 23.8308 168.438 22.6021C168.34 22.0378 169.579 21.5753 171.19 21.5753C172.801 21.5753 174.052 21.9636 173.97 22.4399ZM175.13 22.6177C175.032 23.1906 174.774 23.2527 174.56 22.754C174.322 22.2035 174.393 21.7945 174.74 21.7117C175.054 21.6375 175.229 22.0447 175.13 22.6177ZM152.501 24.5211C152.872 24.9336 153.408 24.918 153.693 24.4866C153.978 24.0552 153.674 23.7169 153.019 23.7359C152.364 23.7549 152.131 24.1087 152.501 24.5211ZM193.186 24.5953C193.262 25.3063 191.472 25.8896 189.208 25.8896C186.944 25.8896 184.991 25.3063 184.868 24.5953C184.745 23.8843 186.535 23.301 188.846 23.301C191.158 23.301 193.111 23.8843 193.186 24.5953ZM194.722 25.0268C193.909 27.0527 193.68 27.0527 193.68 25.0268C193.68 24.0776 194.048 23.3563 194.499 23.4218C195.225 23.5306 195.25 23.7118 194.722 25.0268ZM140.303 26.2054C140.518 26.7041 140.775 26.642 140.874 26.0691C140.973 25.4961 140.797 25.0889 140.483 25.1631C140.136 25.2459 140.066 25.6549 140.303 26.2054ZM142.077 26.2779C142.613 26.661 143.417 26.6541 143.865 26.2606C144.312 25.8654 143.874 25.5514 142.891 25.5617C141.908 25.5703 141.542 25.8931 142.077 26.2779ZM81.9463 30.3057C81.7318 31.0736 81.4348 31.2669 81.2867 30.7371C81.1387 30.2073 81.1929 29.1443 81.4071 28.3764C81.6216 27.6084 81.9185 27.4151 82.0666 27.9449C82.2146 28.4747 82.1604 29.5378 81.9463 30.3057ZM87.3364 28.8527C87.3364 29.5964 86.3647 30.1124 85.1768 30.0003C83.5739 29.8484 83.2474 29.4635 83.9108 28.5075C85.0543 26.8577 87.3364 27.089 87.3364 28.8527ZM90.3152 27.6585C90.3152 29.5015 88.707 32.0297 88.2533 30.8993C87.8821 29.9744 87.9396 29.4515 88.5279 28.4126C89.4377 26.8042 90.3152 26.4349 90.3152 27.6585ZM80.6237 30.3022C80.528 31.1962 79.419 31.9175 78.159 31.9037C76.899 31.8882 76.0247 31.3066 76.2162 30.6094C76.7465 28.6784 80.8271 28.3936 80.6237 30.3022ZM175.887 29.6102C175.685 30.0831 175.283 30.1124 174.993 29.6741C174.704 29.2358 174.869 28.8492 175.36 28.8147C175.852 28.7802 176.089 29.1374 175.887 29.6102ZM196.733 31.4222C196.365 31.833 195.761 31.833 195.393 31.4222C195.024 31.0098 195.326 30.6733 196.063 30.6733C196.8 30.6733 197.102 31.0098 196.733 31.4222ZM11.9726 54.3638C11.9726 55.313 11.9136 56.0895 11.8412 56.0895C11.7689 56.0895 11.6271 55.313 11.5258 54.3638C11.4245 53.4147 11.4838 52.6381 11.6572 52.6381C11.8305 52.6381 11.9726 53.4147 11.9726 54.3638ZM3.87413 117.668C4.08891 118.167 4.34598 118.105 4.44487 117.532C4.54377 116.959 4.36802 116.552 4.05405 116.626C3.70702 116.709 3.63642 117.118 3.87413 117.668ZM215.642 146.869C215.543 147.442 215.286 147.504 215.071 147.005C214.834 146.455 214.904 146.046 215.251 145.963C215.565 145.889 215.741 146.296 215.642 146.869ZM6.31288 151.004C6.31288 151.953 6.17079 152.729 5.99742 152.729C5.82406 152.729 5.76478 151.953 5.86606 151.004C5.96734 150.054 6.10913 149.278 6.18152 149.278C6.2539 149.278 6.31288 150.054 6.31288 151.004ZM94.9446 177.005C95.2651 180.009 94.9002 180.646 94.4915 177.794C94.2565 176.154 94.2338 175.164 94.4316 175.164C94.6056 175.164 94.8367 175.992 94.9446 177.005ZM113.834 181.254C114.011 180.62 114.078 179.379 113.984 178.496C113.886 177.573 114.57 176.889 115.593 176.889C116.621 176.889 117.419 177.69 117.482 178.784C117.542 179.826 118.22 181.091 118.99 181.594C120.907 182.846 120.47 185.504 118.455 184.846C117.242 184.451 116.827 184.91 116.827 186.643C116.827 189.573 115.737 189.716 115.534 186.812C115.447 185.561 115.374 185.966 115.361 187.777C115.348 189.494 115.227 190.505 115.092 190.022C114.958 189.54 114.624 190.659 114.351 192.509C113.767 196.457 112.358 197.08 112.358 193.392C112.358 191.504 112.1 191.156 111.276 191.929C110.426 192.728 110.225 192.426 110.34 190.528C110.42 189.195 110.677 188.186 110.909 188.282C111.142 188.379 111.515 187.321 111.739 185.934C112.092 183.74 112.013 183.564 111.135 184.593C110.579 185.243 109.901 186.137 109.628 186.579C109.355 187.023 109.053 186.648 108.957 185.751C108.862 184.852 109.461 183.576 110.289 182.917C111.118 182.256 111.956 180.703 112.151 179.464C112.443 177.617 112.598 177.68 113.01 179.807C113.286 181.236 113.657 181.887 113.834 181.254ZM155.849 179.283C155.849 180.7 154.027 181.412 153.882 180.052C153.798 179.262 154.206 178.615 154.789 178.615C155.372 178.615 155.849 178.915 155.849 179.283ZM101.455 189.673C101.199 193.537 100.824 191.606 100.914 186.885C101.026 181.014 101.033 180.965 101.346 184.075C101.505 185.654 101.554 188.174 101.455 189.673ZM122.566 183.198C122.365 183.671 121.963 183.701 121.673 183.262C121.383 182.824 121.548 182.437 122.039 182.403C122.531 182.368 122.768 182.726 122.566 183.198ZM132.614 183.88C130.704 185.849 123.912 185.785 123.38 183.792C123.084 182.682 124.789 182.184 128.444 182.308C132.213 182.439 133.531 182.934 132.614 183.88ZM138.795 183.302C138.345 183.697 137.608 183.697 137.157 183.302C136.706 182.907 137.075 182.584 137.976 182.584C138.877 182.584 139.246 182.907 138.795 183.302ZM141.625 183.209C141.42 183.689 141.085 183.689 140.88 183.209C140.676 182.731 140.843 182.339 141.253 182.339C141.662 182.339 141.83 182.731 141.625 183.209ZM144.604 183.209C144.399 183.689 144.064 183.689 143.859 183.209C143.655 182.731 143.822 182.339 144.232 182.339C144.641 182.339 144.809 182.731 144.604 183.209ZM93.8898 184.636C93.8898 187.149 92.7793 192.412 92.2598 192.364C91.6789 192.308 91.6819 192.179 92.3372 189.014L93.0185 185.723L91.7415 185.059C90.6199 184.475 90.673 184.358 92.177 184.094C93.1192 183.928 93.8898 184.172 93.8898 184.636ZM95.2985 184.834C95.1996 185.407 94.9425 185.469 94.7277 184.971C94.49 184.42 94.5606 184.011 94.9076 183.928C95.2216 183.854 95.3973 184.261 95.2985 184.834ZM113.55 185.518C113.55 186.467 113.692 187.243 113.865 187.243C114.039 187.243 114.098 186.467 113.997 185.518C113.895 184.569 113.754 183.792 113.681 183.792C113.609 183.792 113.55 184.569 113.55 185.518ZM206.706 184.834C206.607 185.407 206.35 185.469 206.135 184.971C205.897 184.42 205.968 184.011 206.315 183.928C206.629 183.854 206.805 184.261 206.706 184.834ZM208.946 184.934C208.741 185.414 208.406 185.414 208.201 184.934C207.997 184.456 208.164 184.065 208.574 184.065C208.983 184.065 209.151 184.456 208.946 184.934ZM81.0002 186.56C80.9013 187.133 80.6442 187.195 80.4294 186.696C80.1917 186.146 80.2623 185.737 80.6094 185.654C80.9233 185.58 81.0991 185.987 81.0002 186.56ZM89.3534 187.568C89.2884 188.695 89.0576 189.96 88.8401 190.379C88.6179 190.809 88.5303 190.345 88.6399 189.316C88.7493 188.291 88.539 187.161 88.16 186.74C87.6796 186.205 87.7713 185.92 88.4782 185.752C89.1261 185.599 89.4302 186.231 89.3534 187.568ZM98.8048 188.969C98.6964 190.949 98.7512 192.421 98.9338 192.421C99.1086 192.421 99.2516 193.068 99.2516 193.858C99.2516 196.1 98.0404 195.028 97.7762 192.552C97.5933 190.838 97.3958 190.786 96.9005 192.322C96.5484 193.413 96.1155 193.787 95.9383 193.152C95.5808 191.872 97.5912 185.88 98.4524 185.658C98.862 185.552 98.9478 186.358 98.8048 188.969ZM155.104 187.243C155.206 188.193 155.146 188.969 154.973 188.969C154.8 188.969 154.657 188.193 154.657 187.243C154.657 186.294 154.716 185.518 154.789 185.518C154.861 185.518 155.003 186.294 155.104 187.243ZM157.934 186.279C157.934 186.698 157.8 187.52 157.636 188.106C157.472 188.693 157.338 188.35 157.338 187.345C157.338 186.341 157.472 185.518 157.636 185.518C157.8 185.518 157.934 185.859 157.934 186.279ZM201.505 186.65C201.303 187.123 200.901 187.152 200.611 186.714C200.321 186.275 200.486 185.889 200.978 185.854C201.469 185.82 201.706 186.177 201.505 186.65ZM203.131 186.56C203.032 187.133 202.775 187.195 202.56 186.696C202.323 186.146 202.393 185.737 202.74 185.654C203.054 185.58 203.23 185.987 203.131 186.56ZM85.4002 188.969C85.5015 189.918 85.4422 190.695 85.2688 190.695C85.0954 190.695 84.9534 189.918 84.9534 188.969C84.9534 188.02 85.0123 187.243 85.0847 187.243C85.1571 187.243 85.2989 188.02 85.4002 188.969ZM120.618 188.286C120.519 188.859 120.262 188.921 120.048 188.422C119.81 187.872 119.88 187.463 120.227 187.38C120.541 187.306 120.717 187.713 120.618 188.286ZM122.108 188.286C122.009 188.859 121.752 188.921 121.537 188.422C121.299 187.872 121.37 187.463 121.717 187.38C122.031 187.306 122.207 187.713 122.108 188.286ZM124.869 189.832C124.869 191.256 125.003 192.421 125.167 192.421C125.331 192.421 125.465 191.451 125.465 190.263C125.464 188.662 126.118 188.251 128 188.665C129.534 189.004 130.467 189.884 130.359 190.893C130.261 191.81 129.945 192.126 129.655 191.594C129.366 191.062 128.741 191.805 128.266 193.24C127.501 195.553 127.39 195.556 127.305 193.273C127.197 190.391 125.9 189.737 125.614 192.421C125.414 194.293 124.186 194.79 123.897 193.114C123.607 191.435 124.005 187.243 124.454 187.243C124.683 187.243 124.869 188.408 124.869 189.832ZM152.274 189.832C151.96 192.024 152.026 192.421 152.702 192.421C153.159 192.421 153.422 193.159 153.317 194.146C153.216 195.095 152.85 195.872 152.505 195.872C152.16 195.872 151.973 196.428 152.09 197.106C152.207 197.784 153.388 198.1 154.714 197.81C156.868 197.337 157.105 197.589 156.934 200.173C156.808 202.074 156.87 202.792 157.115 202.273C157.32 201.836 157.454 200.607 157.413 199.539C157.372 198.471 157.681 197.598 158.101 197.598C158.533 197.598 158.783 198.345 158.679 199.323C158.578 200.273 158.637 201.049 158.81 201.049C158.984 201.049 159.126 200.273 159.126 199.323C159.126 196.452 160.24 197.391 160.441 200.433C160.544 201.993 160.584 203.529 160.53 203.847C160.475 204.162 159.109 204.633 157.494 204.892C155.351 205.236 154.525 204.782 154.434 203.206C154.366 202.021 154.045 201.049 153.721 201.049C153.398 201.049 153.216 201.826 153.317 202.775C153.424 203.781 153.122 204.501 152.59 204.501C152.089 204.501 151.679 203.724 151.679 202.775C151.679 201.826 151.183 201.049 150.576 201.049C149.372 201.049 149.526 198.29 150.785 197.313C151.345 196.878 151.553 195.558 151.624 191.989C151.682 189.08 151.898 187.243 152.182 187.243C152.56 187.243 152.577 187.72 152.274 189.832ZM181.913 191.223C182.241 191.718 181.872 192.044 181.094 191.95C180.316 191.855 179.679 191.092 179.679 190.257C179.679 189.42 179.964 189.261 180.312 189.901C180.796 190.79 180.888 190.514 180.702 188.722C180.511 186.881 180.55 186.802 180.888 188.351C181.124 189.437 181.586 190.728 181.913 191.223ZM144.678 190.695C144.577 191.644 144.368 192.421 144.214 192.421C144.06 192.421 143.934 191.644 143.934 190.695C143.934 189.746 144.143 188.969 144.398 188.969C144.653 188.969 144.78 189.746 144.678 190.695ZM112.954 192.421C113.532 194.583 113.848 194.583 113.848 192.421C113.848 191.471 113.546 190.707 113.178 190.721C112.636 190.743 112.593 191.068 112.954 192.421ZM140.955 193.17C140.955 194.571 141.31 195.907 141.774 196.25C142.431 196.737 142.35 197.02 141.364 197.684C140.244 198.438 140.136 198.166 140.136 194.604C140.136 192.438 140.318 190.695 140.545 190.695C140.771 190.695 140.955 191.808 140.955 193.17ZM150.189 192.163C150.189 193.03 149.65 193.782 148.992 193.836C148.333 193.887 147.854 193.365 147.928 192.674C148.128 190.8 150.189 190.334 150.189 192.163ZM57.3994 194.146C57.5007 195.095 57.3744 195.872 57.1191 195.872C56.8638 195.872 56.6547 195.095 56.6547 194.146C56.6547 193.197 56.7807 192.421 56.935 192.421C57.0893 192.421 57.2981 193.197 57.3994 194.146ZM116.529 194.248C116.529 195.253 116.38 195.542 116.197 194.89C116.015 194.238 115.749 194.774 115.606 196.083C115.401 197.964 115.345 197.829 115.342 195.441C115.339 193.563 115.562 192.421 115.933 192.421C116.261 192.421 116.529 193.244 116.529 194.248ZM120.699 193.715C120.699 194.426 120.377 195.009 119.983 195.009C119.589 195.009 119.329 194.426 119.405 193.715C119.48 193.004 119.803 192.421 120.121 192.421C120.439 192.421 120.699 193.004 120.699 193.715ZM177.445 194.146C177.344 195.095 176.967 195.817 176.609 195.751C175.979 195.634 175.977 195.577 176.552 194.146C177.371 192.105 177.663 192.105 177.445 194.146ZM199.339 194.146C199.339 195.095 199.641 195.884 200.01 195.898C200.378 195.913 200.881 196.678 201.127 197.598C201.456 198.832 201.222 199.367 200.233 199.634C199.496 199.834 198.424 200.305 197.85 200.68C197.277 201.056 192.183 201.591 186.531 201.869C180.878 202.147 177.058 201.795 178.041 201.085C179.024 200.378 180.499 199.315 181.318 198.725C184.465 196.459 188.282 195.869 188.469 197.617C188.572 198.587 188.795 198.887 188.963 198.285C189.131 197.684 189.582 198.162 189.965 199.349C190.347 200.537 190.904 200.944 191.202 200.254C191.5 199.563 192.707 198.863 193.884 198.697C195.061 198.531 196.112 197.888 196.219 197.266C196.326 196.647 196.871 196.569 197.43 197.094C198.238 197.853 198.446 197.473 198.446 195.235C198.446 193.687 198.647 192.421 198.893 192.421C199.138 192.421 199.339 193.197 199.339 194.146ZM208.102 194.578C208.241 196.303 208.311 196.303 208.45 194.578C208.637 192.258 211.123 191.52 211.358 193.715C211.433 194.426 210.905 194.737 210.184 194.403C209.364 194.026 208.872 194.512 208.872 195.698C208.872 198.576 207.471 197.972 207.274 195.009C207.066 191.861 207.851 191.452 208.102 194.578ZM139.019 195.872C138.917 196.821 138.474 197.543 138.033 197.477C137.317 197.368 137.295 197.196 137.827 195.872C138.655 193.812 139.239 193.812 139.019 195.872ZM167.019 195.872C166.918 196.821 167.111 197.598 167.449 197.598C167.786 197.598 168.062 196.821 168.062 195.872C168.062 193.834 168.639 194.295 169.13 196.725C169.58 198.952 168.05 202.885 167.222 201.631C166.902 201.146 166.55 201.593 166.44 202.625C166.33 203.657 166.039 204.501 165.793 204.501C165.547 204.501 165.435 203.664 165.544 202.642C165.682 201.355 165.321 201.149 164.37 201.974C163.538 202.697 162.998 202.506 162.998 201.486C162.998 200.563 163.767 199.346 164.706 198.785C165.646 198.224 166.461 196.951 166.518 195.955C166.575 194.961 166.753 194.146 166.913 194.146C167.073 194.146 167.121 194.923 167.019 195.872ZM175.536 195.737C175.306 196.585 174.722 196.989 174.24 196.635C173.564 196.14 173.328 196.771 173.21 199.384C173.125 201.249 172.942 202.775 172.803 202.775C172.481 202.775 172.828 197.156 173.253 195.466C173.429 194.769 174.109 194.2 174.764 194.2C175.577 194.2 175.823 194.688 175.536 195.737ZM70.6551 197.396C70.6551 199.451 69.5035 201.092 69.3131 199.31C69.23 198.53 69.3304 197.499 69.5362 197.018C70.1463 195.592 70.6551 195.765 70.6551 197.396ZM74.5275 197.598C74.5275 198.547 74.4015 199.323 74.2472 199.323C74.0929 199.323 73.8841 198.547 73.7828 197.598C73.6816 196.649 73.8079 195.872 74.0631 195.872C74.3184 195.872 74.5275 196.649 74.5275 197.598ZM79.8894 197.41C79.8894 200.019 77.7143 200.575 76.9186 198.169C76.2216 196.062 76.3038 195.893 78.0276 195.882C79.0517 195.877 79.8894 196.564 79.8894 197.41ZM80.8054 198.072C80.7684 200.136 80.36 199.736 80.2319 197.511C80.1664 196.372 80.2737 195.751 80.4703 196.131C80.6669 196.511 80.8176 197.384 80.8054 198.072ZM83.4431 203.508C83.4544 204.387 83.2155 203.61 82.9117 201.783C82.5372 199.531 82.4652 198.064 82.6883 197.23C82.9865 196.112 83.3901 199.468 83.4431 203.508ZM85.9715 196.92C86.5777 198.267 86.5825 201.049 85.9784 201.049C85.7231 201.049 85.5917 201.779 85.687 202.67C85.7821 203.562 85.5896 204.174 85.2593 204.029C84.6415 203.76 84.5453 199.563 85.1023 197.192C85.4672 195.639 85.4043 195.658 85.9715 196.92ZM202.914 197.598C202.914 198.547 202.679 199.311 202.393 199.298C201.947 199.275 201.936 199.027 202.318 197.598C202.88 195.492 202.914 195.492 202.914 197.598ZM88.9864 200.285C88.2244 202.097 88.1839 202.499 88.6885 203.241C89.1606 203.936 89.1293 204.138 88.5252 204.3C88.0939 204.416 87.6334 203.161 87.4365 201.337C87.124 198.438 87.2119 198.174 88.4821 198.181C89.8556 198.188 89.86 198.207 88.9864 200.285ZM93.081 202.274C93.2011 205.912 93.1305 206.378 92.5871 205.533C92.2386 204.991 91.4174 204.513 90.762 204.471C89.7978 204.411 89.6712 204.055 90.0981 202.616C90.3882 201.638 90.5508 200.136 90.4594 199.279C90.3679 198.423 90.8889 197.791 91.6169 197.876C92.7772 198.01 92.9583 198.554 93.081 202.274ZM101.834 202.021C102.143 204.471 102.312 204.716 102.589 203.113C103.085 200.24 103.72 200.533 103.72 203.638C103.72 205.655 103.342 206.197 102.007 206.09C101.065 206.016 100.462 205.562 100.667 205.084C101.542 203.035 100.919 201.049 99.4006 201.049C97.6285 201.049 97.1519 203.843 98.7303 204.979C99.3324 205.41 99.0574 205.778 98.0032 205.95C97.0518 206.105 96.2201 205.403 96.1078 204.35C95.9636 202.999 95.8171 202.999 95.5838 204.35C95.4057 205.382 95.059 206.226 94.8132 206.226C94.4829 206.226 94.4537 205.721 94.7006 204.29C94.8844 203.225 94.9607 201.234 94.8698 199.864C94.7304 197.758 95.2252 197.489 98.0702 198.119C100.894 198.744 101.5 199.37 101.834 202.021ZM108.484 201.481C108.487 203.408 106.465 203.048 106.255 201.082C106.146 200.062 106.552 199.548 107.279 199.788C107.941 200.007 108.484 200.77 108.484 201.481ZM119.21 200.947C119.21 201.841 119.076 203.049 118.913 203.634C118.393 205.495 110.346 204.64 109.677 202.654C109.337 201.645 113.027 199.867 116.007 199.605C117.844 199.444 119.21 200.015 119.21 200.947ZM132.273 201.948C132.587 203.767 132.023 204.383 129.245 205.258C126.396 206.157 123.38 203.959 123.38 200.984C123.38 199.467 132.006 200.404 132.273 201.948ZM142.891 202.713C140.97 203.707 139.525 202.975 140.003 201.249C140.165 200.664 141.283 200.547 142.488 200.987L144.678 201.788L142.891 202.713ZM148.104 201.049C148.104 201.998 148.045 202.775 147.973 202.775C147.9 202.775 147.759 201.998 147.657 201.049C147.556 200.1 147.615 199.323 147.789 199.323C147.962 199.323 148.104 200.1 148.104 201.049ZM154.806 201.049C154.705 201.998 154.831 202.775 155.087 202.775C155.342 202.775 155.551 201.998 155.551 201.049C155.551 200.1 155.425 199.323 155.271 199.323C155.116 199.323 154.908 200.1 154.806 201.049ZM216.561 200.502C216.776 201.001 217.033 200.939 217.132 200.366C217.231 199.793 217.055 199.386 216.741 199.46C216.394 199.543 216.323 199.952 216.561 200.502ZM146.781 202.613C146.689 203.472 146.346 203.771 146.019 203.274C145.199 202.033 145.273 201.049 146.185 201.049C146.605 201.049 146.873 201.753 146.781 202.613ZM162.179 202.192C161.974 202.671 161.639 202.671 161.434 202.192C161.23 201.714 161.397 201.322 161.807 201.322C162.216 201.322 162.384 201.714 162.179 202.192ZM175.881 202.192C175.677 202.671 175.342 202.671 175.137 202.192C174.932 201.714 175.099 201.322 175.509 201.322C175.919 201.322 176.086 201.714 175.881 202.192ZM214.382 209.678C214.484 210.627 214.626 211.403 214.698 211.403C214.77 211.403 214.829 210.627 214.829 209.678C214.829 208.729 214.687 207.952 214.514 207.952C214.34 207.952 214.281 208.729 214.382 209.678ZM222.221 209.131C222.435 209.629 222.692 209.567 222.791 208.994C222.89 208.421 222.714 208.014 222.401 208.088C222.053 208.171 221.983 208.58 222.221 209.131ZM100.443 230.818C100.443 231.529 97.7286 231.967 94.4111 231.791C90.2354 231.568 89.1582 231.17 90.911 230.497C94.5481 229.099 100.442 229.297 100.443 230.818ZM103.422 231.451C103.422 231.813 102.785 232.02 102.007 231.908C100.79 231.732 100.717 231.539 101.486 230.528C102.321 229.428 103.422 229.955 103.422 231.451ZM88.0066 231.529C87.802 232.008 87.4669 232.008 87.2619 231.529C87.0573 231.051 87.2247 230.659 87.6343 230.659C88.0439 230.659 88.2116 231.051 88.0066 231.529ZM61.0475 235.208C61.254 235.995 60.0318 236.683 58.2957 236.758C56.5778 236.832 55.2264 236.387 55.2925 235.767C55.473 234.076 60.6192 233.577 61.0475 235.208ZM197.199 236.742C197.413 237.241 197.67 237.179 197.769 236.606C197.868 236.033 197.693 235.625 197.379 235.7C197.032 235.783 196.961 236.192 197.199 236.742ZM175.428 238.331C175.329 238.904 175.072 238.966 174.858 238.468C174.62 237.917 174.69 237.508 175.038 237.425C175.351 237.351 175.527 237.758 175.428 238.331ZM71.9047 242.028C73.6568 242.332 76.6059 242.333 78.4581 242.03C80.3103 241.726 78.8766 241.477 75.2722 241.476C71.6679 241.474 70.1526 241.722 71.9047 242.028ZM98.6016 242.842C98.7604 243.762 99.1393 244.211 99.4435 243.836C99.853 243.334 99.778 242.899 99.1545 242.164C98.6109 241.52 98.4152 241.762 98.6016 242.842ZM190.943 241.919C191.158 242.418 191.415 242.356 191.514 241.783C191.613 241.21 191.437 240.803 191.123 240.877C190.776 240.96 190.705 241.369 190.943 241.919ZM100.968 243.686C101.339 244.099 101.875 244.083 102.16 243.652C102.444 243.22 102.141 242.882 101.486 242.901C100.83 242.92 100.597 243.274 100.968 243.686ZM105.138 243.686C105.509 244.099 106.045 244.083 106.33 243.652C106.615 243.22 106.311 242.882 105.656 242.901C105.001 242.92 104.768 243.274 105.138 243.686ZM114.374 243.717C114.91 244.1 115.714 244.094 116.162 243.7C116.609 243.305 116.171 242.991 115.188 243.001C114.205 243.01 113.839 243.333 114.374 243.717ZM118.692 243.705C119.145 244.1 119.816 244.09 120.182 243.681C120.548 243.272 120.178 242.948 119.359 242.96C118.539 242.974 118.24 243.308 118.692 243.705ZM157.711 243.655C157.997 244.09 158.467 244.09 158.753 243.655C159.04 243.222 158.805 242.867 158.232 242.867C157.659 242.867 157.424 243.222 157.711 243.655ZM162.626 243.609C162.831 244.088 163.166 244.088 163.37 243.609C163.575 243.131 163.408 242.739 162.998 242.739C162.588 242.739 162.421 243.131 162.626 243.609Z" fill="white"/>
</svg>
