<svg xmlns="http://www.w3.org/2000/svg" width="288" height="500" fill="none"><path fill="#fff" fill-rule="evenodd" d="M90.964 344.939c9.582-2.666 61.347-26.845 84.091-39.278 1.941-1.061 36.367-22.188 31.778-17.55-1.705 1.721-41.533 29.315-58.27 39.843-10.298 6.477-26.176 18.792-36.136 28.027-1.7 1.577-5.343 4.736-8.096 7.02-7.382 6.129-6.668 7.292 1.593 2.597 7.555-4.294 30.363-19.074 40.219-26.063 11.023-7.817 22.761-14.944 33.283-23.432 10.349-8.341 17.892-12.852 28.386-21.011 6.992-5.436 12.067-6.93 1.946 1.861-2.785 2.42-4.436 5.617-12.403 12.675-18.943 16.777-30.377 26.838-37.658 33.133-9.087 7.857-50.228 46.595-50.632 47.674-.589 1.571 8.165-3.343 15.906-8.929 8.179-5.904 21.019-16.504 58.426-48.231 23.638-20.05 36.11-35.748 37.097-33.253 2.156 5.456-45.99 56.536-48.5 60.1-18.833 26.746-24.264 35.503-30.218 48.731-3.784 8.403-4.275 11.523-1.427 9.064 2.704-2.333 11.912-14.038 24.879-31.623 8.908-12.083 18.709-23.73 26.88-36.332 6.061-9.344 25.577-35.513 26.283-35.249.645.242-17.76 34.767-19.311 36.872-4.421 5.995-27.274 68.265-28.231 76.926-.414 3.741 2.033-.617 9.118-16.236 12.422-27.384 27.391-53.519 39.077-81.174 4.173-9.876 13.479-31.635 13.852-31.495.796.298-5.774 20.074-7.668 26.444-1.361 4.576-2.395 8.814-4.518 18.513-5.772 26.386-12.533 52.54-18.241 78.937-2.204 10.196-4.622 20.684-5.372 23.308-.749 2.623-.92 4.926-.378 5.117 1.256.441 12.537-31.24 21.141-59.369 6.796-22.221 13.45-44.524 17.86-67.362 1.14-5.915 2.226-8.457 2.942-6.885.123.27-.023 4.169-.326 8.663a6081.343 6081.343 0 0 0-1.597 25.128c-.845 13.678-1.839 27.362-3.181 41.002-2.286 23.261-4.089 61.913-3.001 64.305.681 1.496 1.983-4.403 2.73-12.374 3.561-37.908 10.6-75.297 13.28-113.337.977-13.872-4.77-34.357-3.993-32.649.893 1.963 9.042 25.961 9.45 33.461 1.925 35.546 5.579 70.955 5.962 106.611.075 6.852 1.408 15.127 2.123 13.172 1.282-3.502 3.886-56.907 3.691-75.701-.168-16.268-1.582-28.253-3.171-35.364-.973-4.358-11.727-47.8-10.84-46.847 1.162 1.251 16.052 43.961 18.113 54.56 2.811 14.453 6.03 29.155 9.398 43.481 8.629 36.712 10.718 44.334 12.203 44.524 1.272.161 1.297-2.377.148-14.987-2.389-26.223-8.165-52.476-19.004-86.389-6.38-19.958-17.708-45.047-17.195-46.417.514-1.372 11.69 21.966 20.43 40 4.975 10.265 6.763 14.285 10.77 24.214 7.9 19.576 34.673 69.034 38.055 70.3 3.287 1.231-16.76-43.821-31.61-71.036-10.695-19.6-24.289-44.153-22.129-42.568.762.559 8.391 10.531 10.581 13.764 4.954 7.317 13.861 20.096 23.838 34.197 7.637 10.794 14.61 22.107 22.606 32.64 11.034 14.534 15.683 20.38 16.952 21.321 2.296 1.701-2.882-8.797-8.52-17.272-11.841-17.809-22.612-36.64-36.726-52.778-3.232-3.695-33.006-44.199-33.512-46.965-.413-2.255 21.683 24.551 25.037 27.873 3.811 3.776 6.711 8.298 10.404 12.21 2.979 3.155 7.481 8.258 10.004 11.339 8.397 10.25 18.449 19.196 27.802 28.548 7.538 7.535 12.227 11.264 11.229 8.928-.713-1.666-10.425-13.744-24.434-30.386-4.598-5.461-9.369-11.2-10.602-12.753-1.234-1.554-7.637-8.528-14.229-15.498-11.605-12.27-33.206-33.422-34.355-35.86-1.04-2.208 14.168 9.869 17.322 13.124 1.728 1.781 7.792 7.302 13.476 12.269 5.684 4.966 15.164 13.698 21.067 19.403 14.901 14.402 49.254 41.577 55.611 43.992 2.563.973 2.567.961.45-1.519-7.335-8.596-38.291-37.68-52.597-49.419-9.76-8.006-18.753-16.916-28.677-24.721-3.593-2.825-22.511-17.713-22.823-18.399-1.528-3.357 17.929 10.443 35.895 21.656 16.813 10.493 38.179 23.428 42.475 25.714 14.936 7.949 42.511 21.758 43.768 21.918 1.63.207-4.166-4.083-14.321-10.6-10.294-6.607-20.241-13.71-30.843-19.835-14.103-8.146-27.053-18.299-41.377-26.018-4.83-2.604-22.205-10.727-18.104-9.26 1.623.581 34.313 12.929 52.832 19.743 21.228 7.809 42.755 16.915 65.083 21.123l-6.087-3.118c-7.78-3.986-17.454-7.982-54.06-22.326-16.329-6.398-32.712-13.225-36.404-15.17-3.872-2.039-22.912-7.504-26.888-9.274-2.685-1.195 13.55 2.608 20.194 3.729 27.825 4.693 55.186 11.837 82.684 18.117 17.226 3.932 30.354 6.588 30.976 6.266 1.257-.649-31.415-10.765-42.321-13.103-4.952-1.062-49.91-13.198-65.103-17.574-7.346-2.116-16.864-4.723-21.149-5.794-14.105-3.525-15.119-3.825-14.897-4.42 2.655-7.047 68.145 1.274 77.547 2.269 16.035 1.698 32.108 2.916 48.134 4.729 11.053 1.25 20.182 2.044 20.287 1.764.389-1.041-29.407-6.937-59.268-11.73-38.9-6.243-64.673-7.7-87.117-4.925-5.864.725-10.812.988-10.995.585-1.509-3.315 43.122-20.665 74.377-28.913 12.842-3.39 61.478-13.529 80.608-16.805 5.326-.911 12.155-2.471 15.177-3.466l5.495-1.808-1.284-2.821c-1.227-2.697-1.592-2.779-8.256-1.845-15.949 2.235-62.927 12.722-78.543 17.533-2.65.817-8.357 2.401-12.682 3.52-16.879 4.367-34.688 10.892-55.176 20.218-11.466 5.219-20.981 9.178-21.143 8.799-.679-1.58 13.272-18.834 37.599-46.497a3784.038 3784.038 0 0 0 14.816-16.935c12.384-14.312 27.107-25.118 50.651-37.173l14.257-7.299-6.444 1.532c-19.395 4.613-50.753 23.746-65.668 40.067-6.204 6.791-13.126 12.88-19.12 19.869-5.032 5.865-33.757 39.784-33.548 38.136.914-7.197 33.326-45.314 37.098-51.484 5.182-8.478 11.759-16.046 17.468-24.165 13.999-19.903 22.139-27.136 42.775-38.004 6.169-3.248 11.07-6.225 10.892-6.616-.465-1.021-22.916 7.849-29.712 11.738-13.275 7.6-29.971 24.052-38.839 38.274-1.96 3.143-5.081 7.691-6.935 10.109-1.855 2.417-5.724 7.918-8.599 12.223-2.874 4.306-11.595 17.84-11.997 17.415-1.412-1.498 6.209-16.735 11.697-27.824a2062.6 2062.6 0 0 0 9.282-19.003c10.72-22.375 25.254-43.34 44.863-64.713 2.424-2.642 4.075-4.672 3.668-4.512-1.586.625-13.751 9.76-18.779 14.103-17.1 14.77-35.466 44.42-47.508 76.7-6.116 16.393-24.941 54.361-16.24 27.612.34-6.776 11.207-34.656 19.522-51.936 11.725-24.369 17.557-41.643 19.267-57.071.871-7.856 2.166-13.815 3.43-15.785 1.116-1.74 4.549-6.961 7.627-11.602 3.079-4.64 5.533-8.579 5.454-8.75-.175-.385-12.475 13.99-14.678 14.993-.018.008-.81-12.816-2.464-12.063-.408.186-1.481 4.337-2.382 9.226-1.456 7.893-2.302 9.795-7.567 17.011-17.865 24.488-17.215 30.112-31.847 61.846-1.787 3.876-8.5 24.497-8.842 24.368-2.123-.794 10.088-54.473 17.746-74.407 3.517-9.154 7.798-22.172 9.513-28.928 3.049-12.009 3.152-16.215.231-9.417-9.106 21.18-23.688 56.492-25.898 62.714-2.373 6.683-5.647 23.819-8.31 43.503-1.368 10.116 3.51 33.422 2.356 31.045-1.429-2.941-8.722-48.649-8.701-57.378.069-29.904 1.085-49.786 3.253-63.606.511-3.254 1.217-9.261 1.569-13.35 1.477-17.126-7.284 19.86-7.721 21.793-5.706 25.23-6.276 28.68-6.681 40.44-.507 14.656.168 23.39 2.974 38.471 1.391 7.478 14.152 50.048 13.887 50.757-1.18 3.152-17.041-41.319-21.08-55.637-1.057-3.749-3.768-13.145-6.023-20.881-2.257-7.735-6.148-22.774-8.649-33.42-4.828-20.558-13.272-44.536-15.795-44.857-1.51-.191-1.398.711 1.724 13.906 2.778 11.749 4.341 23.678 6.308 35.583 3.509 21.227 6.169 31.448 13.169 50.59 4.756 13.011 22.027 58.21 23.937 64.774 1.778 6.11-13.171-27.254-22.471-43.467-11.911-20.764-20.692-41.572-26.258-62.212-4.77-17.694-12.224-38.634-15.518-43.6-3.625-5.465 3.09 21.962 4.086 26.83 9.271 45.339 24.089 73.78 46.471 112.891 4.612 8.057 2.353 6.513-6.054-1.232-16.164-14.893-30.639-34.361-45.694-63.112l-17.423-33.271c-4.6-8.784-9.794-17.727-11.54-19.874-3.142-3.86-3.116-3.734 2.401 11.542 8.02 22.208 21.419 54.122 25.898 61.682 6.924 11.688 25.486 30.841 35.159 40.439-13.149-11.298-35.948-33.011-47.847-45.651l-12.333-16.218-10.672-17.809c-11.576-23.032-18.228-35.48-18.531-34.672-.251.674 3.35 12.322 8.09 26.164 5.198 15.183 10.91 26.938 18.471 38.01 3.645 5.339 29.973 29.992 30.171 30.428.901 1.978-25.024-18.875-35.488-24.083-20.849-10.377-53.48-24.509-52.716-22.83 2.306 5.067 16.827 10.918 21.463 13.578 11.972 6.866 29.745 18.338 41.368 26.699 4.492 3.233 15.122 10.292 23.622 15.69s17.652 11.477 20.34 13.512c1.473 1.115 33.415 15.907 33.128 18.17-.18 1.41-31.487-12.28-48.237-20.237-26.051-12.373-56.395-24.691-77.502-31.458-14.844-4.758-26.293-7.573-26.673-6.556-.136.361 5.947 3.224 13.516 6.362 28.015 11.613 55.122 25.137 81.66 39.763 9.33 5.143 52.371 12.397 56.732 21.978.565 1.242-8.319-1.241-12.447-2.717-9.923-3.552-20.913-5.588-31.103-8.367-11.582-3.157-50.159-14.67-60.375-18.018-12.275-4.025-24.641-7.777-36.973-11.627-2.252-.703-27.948-8.742-21.544-4.576 15.534 10.11 52.316 25.626 79.161 33.394 16.517 4.78 44.6 7.543 61.969 14.358 10.26 4.025-16.384 1.997-18.514 1.783-6.332-.636-14.951-1.649-19.152-2.25-16.007-2.291-26.662-3.372-38.589-3.916-6.788-.309-22.872-1.068-35.743-1.688-12.87-.619-23.77-.781-24.223-.36-1.393 1.294 23.135 7.488 40.631 10.263 25.743 4.079 51.913 4.841 77.519 8.795 3.628.558 47.944-3.469 29.618 1.896-5.361 1.571-38.717 8.32-50.425 10.202-14.524 2.332-28.947 4.294-43.611 6.077-28.43 3.458-38.833 4.955-39.084 5.625-1.036 2.768 29.748 3.399 58.163 1.194 6.301-.489 29.888-5.384 29.953-4.701.146 1.555-21.924 7.768-29.303 8.917-16.927 2.633-56.899 14.554-54.404 16.225 1.68 1.124 27.192-2.075 45.35-5.686 5.612-1.116 88.905-32.717 89.679-31.015.264.579-38.417 19.303-51.859 25.468-11.216 5.145-22.079 10.561-32.889 16.453-15.257 8.318-36.11 21.214-37.689 23.311-.666.885.612.879 3.837-.019Zm164.651-186.722c11.168-28.668 22.866-51.75 24.456-48.257 1.876 4.121-30.332 90.416-38.822 102.199-6.085 8.446 4.145-25.101 14.366-53.942Z" clip-rule="evenodd"/></svg>