<svg xmlns="http://www.w3.org/2000/svg" width="1123" height="1070" fill="none"><path fill="#fff" d="M-8.669 84.521c6.04-4.015 11.86-8.45 18.158-11.93 12.632-7.036 25.596-13.46 38.34-20.305 5.597-2.982 11.306-5.888 16.462-9.56 3.13-2.217 5.12-6.08 7.956-8.832 13.958-13.613 29.832-23.326 49.72-20.458 8.655 1.262 16.978 5.506 25.302 8.833 3.756 1.492 7.034 4.207 10.68 6.042 3.683 1.835 7.55 3.212 12.817 5.392-1.215-8.069-2.32-15.105-3.388-22.217 2.725-1.147 3.941-.038 4.751 2.715 1.289 4.474 2.873 8.871 4.677 14.378 2.615-4.207 4.641-7.686 6.851-10.975 3.977-5.927 7.071-13.04 14.326-15.448 4.125-1.377 8.618-1.912 12.964-1.95 16.5-.153 33-.497 49.426.306 7.476.382 14.879 2.982 22.208 5.162 26.555 7.8 51.93 18.89 75.023 34.338 19.261 12.886 36.056 29.176 50.088 48.371 7.44 10.172 13.48 20.917 18.562 33.574 1.952-3.021 3.941-5.392 5.12-8.145 6.85-15.678 18.12-27.99 28.837-40.724 5.967-7.112 12.449-13.651 20.993-17.704 4.751-2.256 8.14-7.19 13.664-8.183 1.473-.268 2.983-.077 4.493-.077 0 1.568.332 3.25-.037 4.704-.81 3.326-1.952 6.577-3.351 11.203 5.782-2.753 10.349-4.856 14.879-7.15.479-.23.737-1.3.847-2.027 1.51-9.942 7.219-17.169 14.217-23.478 1.252-1.147 3.498-1.07 5.303-1.568 0 1.912.7 4.206-.074 5.698-2.872 5.468-6.482 10.515-9.318 16.022-1.657 3.212-2.283 7.035-3.646 10.439-.957 2.37-2.43 4.473-3.941 7.15 4.494 0 9.282-.65 13.849.115 10.533 1.797 21.103 3.633 31.342 6.73 8.47 2.562 16.094 7.418 20.182 16.251 5.12 10.975 14.843 16.825 23.682 23.784 13.922 10.937 27.696 22.064 38.156 36.939 7.697 10.936 15.468 21.872 23.386 32.655 7.293 9.904 10.976 21.49 14.806 33.038 2.468 7.342 5.083 14.684 6.666 22.255 2.1 9.942 3.425 20.075 4.862 30.132 3.462 23.937 7.145 47.836 10.091 71.85 1.768 14.339 2.394 28.832 3.352 43.286 1.215 18.546 4.088 37.053 1.657 55.675-2.431 18.508-4.088 37.053-11.491 54.566-6.924 16.405-12.78 33.344-18.157 50.36-2.357 7.419-2.32 15.678-3.388 23.555.515.344 1.068.689 1.583 1.033 4.678-4.168 9.392-8.298 13.996-12.504 2.099-1.912 3.867-4.321 6.15-5.851 1.216-.803 3.278-.191 4.972-.229-.847 1.185-1.583 2.524-2.578 3.556-1.952 2.027-4.088 3.939-6.15 5.889-5.893 5.468-11.823 10.898-17.679 16.404-3.241 3.059-4.272 6.959-4.309 11.548 0 18.584-.147 37.168-2.873 55.599-1.51 10.095-3.167 20.151-4.53 30.246-1.436 10.631 1.289 20.802 5.157 30.323 5.782 14.263 8.434 28.985 10.165 44.242 2.209 19.655 5.487 39.233 9.133 58.696 4.125 22.14 8.471 44.127 9.576 66.841.737 15.41-.7 30.4-2.725 45.504-1.216 8.986-2.726 17.972-4.236 26.92-.92 5.391-3.646 9.521-7.476 13.498-3.609 3.785-5.672 9.101-8.729 14.263 1.363 0 1.547.038 1.621 0 9.207-12.084 21.766-19.846 33.699-28.526 3.83-2.792 6.335-7.533 9.244-11.548 7.44-10.286 14.253-21.07 16.353-33.994 1.767-10.822 2.467-21.834 4.125-32.656 1.952-12.618 3.756-25.352 6.924-37.665 4.566-17.551 6.003-35.408 6.96-53.419.295-5.315 1.253-10.63 1.179-15.945-.037-4.512-.921-9.063-1.805-13.537-1.473-7.609-3.057-15.18-4.824-22.751-.921-3.901-2.247-7.725-4.42-11.969-1.142 2.906-2.394 5.812-3.462 8.757-2.689 7.418-5.598 14.76-7.845 22.331-1.841 6.233-3.093 12.657-4.088 19.119-.294 1.835 1.436 3.939 1.621 5.965.11 1.339-.847 2.792-1.326 4.206-.995-.764-2.357-1.261-2.873-2.294-4.788-9.139-5.119-19.846-9.391-29.214-.663-1.415-1.179-2.906-1.805-4.359-.368.114-.7.191-1.068.306.663 5.927 1.473 11.854 1.915 17.819.773 10.324 1.805 20.649 1.805 31.011-.037 18.584-.553 37.168-1.253 55.752-.699 18.354-1.583 36.747-2.946 55.063-.516 7.036-2.652 13.995-4.051 20.955-.59-.153-1.216-.268-1.805-.421 1.068-5.238 2.652-10.439 3.131-15.716.92-10.401 1.252-20.878 1.767-31.317.332-6.539.663-13.116.847-19.655.295-10.362.663-20.725.663-31.049-.036-19.961.074-39.959-.736-59.92-.368-8.718-3.131-17.322-4.42-26.04-.773-5.354-.699-10.822-1.068-16.213a18.009 18.009 0 0 0-.552-3.48c-3.941-14.034-8.14-27.952-11.786-42.062-3.683-14.225-4.162-28.717-4.162-43.477 0-22.332 6.667-43.21 10.976-64.662 4.456-22.178 12.301-43.209 20.035-64.278 5.267-14.378 11.381-28.373 16.831-42.674.737-1.912.184-4.589-.331-6.769-1.805-7.647-.184-15.104 1.031-22.56 4.972-30.668 13.59-60.226 25.707-88.637 1.584-3.709 3.499-7.227 4.899-11.051-5.967 4.474-9.687 10.669-13.038 17.169-8.287 15.907-12.338 33.115-15.1 50.819-2.689 17.437-6.077 34.72-8.766 52.157-.957 6.271-.957 12.772-1.031 19.158-.037 2.753-1.289 4.359-3.425 4.015-1.031-.191-2.615-3.059-2.394-4.436 3.499-22.408 7.403-44.777 10.902-67.185 2.209-14.186 4.603-28.258 9.391-41.794 4.972-14.11 12.264-26.461 22.577-37.168 14.032-14.531 31.121-22.599 50.051-26.92 13.443-3.097 25.892.076 37.272 7.992 2.136 1.453 4.641 2.37 6.593 4.015 5.856 4.933 8.949 11.51 9.281 20.304 8.839-5.315 17.236-9.865 25.007-15.371 2.394-1.683 2.762-6.157 4.604-9.025 2.909-4.512 5.745-9.215 9.465-12.963 4.935-4.971 11.27-3.709 17.015-1.491 2.542.994 3.315.23 4.936-1.606 6.408-7.227 9.796-15.754 9.17-25.39-.736-10.86-3.057-21.414-10.865-29.673-1.068-1.109-1.583-2.753-2.983-5.277 2.431.153 4.309-.344 5.193.382 8.618 7.418 16.684 15.334 20.22 26.844 1.326 4.397.773 8.603-1.915 12.542-2.799 4.053-5.414 8.221-7.771 12.542-.663 1.262-.553 3.518.11 4.818.405.841 2.468.918 3.794 1.032.847.077 1.767-.191 2.541-.611 9.428-4.742 17.641-1.798 25.191 4.474 5.046 4.206 10.092 8.374 14.843 12.924 2.283 2.18 3.425 5.812 5.819 7.724 3.02 2.409 6.665 4.474 10.315 5.43 16.64 4.398 31.82 12.389 46.7 20.764 7.92 4.474 15.54 10.898 21.06 18.278 5.42 7.227 8.7 16.519 11.68 25.313 5.12 15.066 9.54 30.438 13.74 45.81 4.05 14.837 6.81 29.979 6.66 45.542-.14 15.907 4.68 30.973 7.88 46.307 4.28 20.534 10.32 40.8 10.28 62.061 0 6.347-1.36 12.657-2.17 19.004-1.51 11.778-2.88 23.593-4.61 35.333-3.05 20.878-6.29 41.756-9.65 62.634-.4 2.486-1.8 4.78-2.87 7.112-6.85 15.181-10.16 31.318-12.26 47.798-.22 1.645-1.44 3.136-2.21 4.704-1.73-1.338-4.31-2.333-5.01-4.13-2.95-7.609-5.34-15.448-8.21-24.014-.48 1.53-.82 2.333-.96 3.212-2.36 13.001-4.5 26.079-7.07 39.004-4.68 23.249-3.1 46.039 2.61 68.982 2.65 10.63 3.61 21.796 1.73 33.114-2.39 14.225-2.94 28.794-5.52 42.98-1.66 9.139-5.49 17.896-8.55 26.767-.44 1.262-2.1 2.103-3.42 3.365.29.497 1.14 1.3 1.03 1.95-.22 1.415-.92 2.792-1.44 4.168-1.29-.612-3.28-.841-3.83-1.912-6.41-12.427-12.3-25.161-19.04-37.397-2.76-5.009-6.85-9.559-11.12-13.345-7.85-6.959-12.34-15.869-15.32-25.696-5.453-17.858-11.309-35.677-15.471-53.878-3.867-16.863-5.745-34.224-8.544-51.393-3.499-21.643-7.293-43.286-10.423-64.967-3.02-20.84-5.34-41.756-8.029-62.634-.552-4.398-.847-8.872-2.099-13.078-3.094-10.401-2.947-21.069-3.241-31.738-.332-11.892-1.51-23.746-1.51-35.638.036-13.689 2.283-27.493 1.141-41.03-1.657-19.654-.773-39.806-6.776-58.887-3.61-11.433-8.987-22.293-11.823-33.879-3.388-13.957-11.159-24.588-20.182-35.371-.848 7.686-1.474 14.837-2.431 21.987-1.51 11.319-2.799 22.676-4.972 33.88-2.91 15.027-7.071 29.825-9.613 44.93-.699 4.206 1.694 9.483 3.867 13.574 6.151 11.548 12.412 23.096 19.631 33.918 10.68 16.022 16.831 34.032 22.908 52.119 3.13 9.33 6.887 18.584 8.839 28.182 3.094 15.142 5.082 30.59 7.182 45.924 1.289 9.177 2.283 18.431 2.799 27.684.699 13.231 1.362 26.538 1.031 39.807-.589 21.298-2.431 42.597-2.946 63.896-.442 18.278-3.647 36.021-7.882 53.61-3.978 16.634-8.544 33.077-13.075 49.557-.847 3.021-2.909 5.66-4.161 8.604-.553 1.338-.184 3.097-.737 4.436-.405 1.032-1.584 1.759-2.394 2.6-.589-1.032-1.768-2.103-1.731-3.097.479-12.007 1.952-24.052 1.51-36.021-.847-22.561.847-44.854 3.867-67.108 2.357-17.399-.184-34.683-.073-52.005.073-11.28 1.252-22.675.442-33.879-1.658-22.637-4.162-45.198-6.703-67.72-.7-6.08-2.836-12.007-5.341-17.781.221 4.627 1.032 9.33.59 13.919-1.068 11.012-1.989 22.178-4.309 32.961-2.542 11.663-5.415 23.593-10.387 34.262-5.156 11.127-12.927 20.955-19.703 31.279-5.672 8.642-13.222 15.984-16.316 26.461-.331 1.109-3.388 1.338-5.193 1.988-.221-1.491-1.031-3.212-.626-4.474 2.467-7.991 5.23-15.869 7.881-23.822 2.947-8.833.774-17.628-.662-26.232-3.131-18.89-6.262-37.818-10.644-56.401-2.615-11.09-7.587-21.605-11.491-32.35-.626.076-1.252.115-1.878.191-1.4 5.621-3.278 11.166-4.125 16.863-2.726 18.469-8.177 36.174-13.627 53.878-5.599 18.163-6.74 36.709-5.599 55.599.59 9.712.185 19.501 1.216 29.138 1.51 14.186 3.867 28.296 5.966 42.444.295 1.912 1.51 3.671 1.731 5.583.148 1.147-.773 2.447-1.178 3.671-.958-.727-2.173-1.224-2.799-2.18-5.562-8.183-10.976-16.404-16.942-25.352-.663 2.333-1.215 3.862-1.51 5.43-5.156 26.614-16.684 50.284-30.9 72.73-3.72 5.85-7.698 11.509-11.675 17.169-.921 1.338-2.136 2.6-3.462 3.441-1.105.688-3.02 1.3-3.794.765-.884-.612-1.399-2.677-1.178-3.939 1.988-10.018 4.714-19.884 6.224-29.979 4.751-31.661 9.465-63.361 7.366-95.596-.847-13.039-3.057-25.581-9.023-37.626-8.25-16.711-13.406-34.797-16.611-53.381-.184-1.033-.515-2.027-1.068-3.939-3.535 6.31-6.924 11.816-9.649 17.628-.81 1.721-.553 4.933.515 6.539 5.009 7.609 5.562 16.366 6.888 25.008.147 1.071.11 2.18.478 3.174 4.788 12.771 3.389 25.619 1.474 38.735-1.584 11.013-1.289 22.331-2.468 33.459-.7 6.386-2.32 12.772-4.199 18.928-4.014 13.077-6.518 26.346-7.771 40.036-1.252 13.268-2.394 26.766-5.966 39.462-2.504 8.871-8.508 16.901-13.959 24.587-4.272 6.003-9.465 11.739-15.284 16.098-10.165 7.61-19.777 15.602-27.696 25.773-2.173 2.753-4.64 6.539-10.239 5.2 1.989-5.315 3.352-10.592 5.893-15.18 2.394-4.359 6.188-7.839 9.097-11.931 1.363-1.912 2.541-4.206 2.983-6.538 4.236-21.988 7.882-44.089 7.624-66.574-.258-22.522-3.204-44.738-8.25-66.649-5.892-25.582-9.723-51.431-12.19-77.624-.847-9.101-3.315-18.393-6.777-26.844-8.434-20.648-8.876-41.297-3.83-62.749 2.136-9.101 2.578-18.698 3.02-28.105.589-12.351.331-24.74.736-37.091.074-2.065 1.216-4.436 2.542-6.042 2.651-3.288 3.83-6.118.994-10.133-1.51-2.103-1.657-5.162-2.689-7.686-1.988-4.933-1.878-10.439-5.229-15.181-1.731-2.485-.516-7.265-.59-10.974-.147-10.516-.368-21.031-.405-31.547-.11-23.899.405-47.836-.295-71.735-.626-21.031-2.025-42.101-4.051-63.055-2.136-22.293-5.082-44.51-8.25-66.688-1.141-7.915-4.272-15.525-5.892-23.402-3.72-18.087-8.692-35.753-15.506-52.846-7.145-17.857-14.547-35.638-21.913-53.38-8.729-20.955-17.163-42.024-26.518-62.635-4.125-9.1-9.539-17.934-15.837-25.543-3.241-3.9-9.612-5.354-14.842-7.074-6.003-1.95-12.191-3.404-18.415-4.245-4.972-.688-10.128-.153-15.211-.153-.073.42-.147.88-.221 1.3 3.168 2.218 6.63 4.13 9.466 6.73 12.411 11.319 22.355 24.32 26.775 41.374 2.652 10.286 6.371 20.228 9.539 30.362 1.51 4.818 1.031 10.783 5.856 13.727 7.881 4.818 12.411 12.542 16.757 20.228 12.67 22.446 25.523 44.816 37.198 67.797 6.372 12.58 7.956 26.996 9.944 41.03 5.93 41.986 7.366 84.201 7.293 126.569-.037 13.842 1.878 27.646 2.799 41.489.626 8.986.957 17.972 1.657 26.958.221 2.791 1.51 5.468 1.989 8.259.921 5.354 1.731 10.707 2.357 16.099.258 2.294 0 4.665-.037 6.997-.479.077-.957.115-1.436.192 4.53 11.05 8.913 22.178 13.664 33.152 1.326 3.059 3.94 5.507 5.45 8.489.737 1.453.332 3.556.442 5.392-1.62.115-3.535.841-4.788.191-4.272-2.332-8.286-5.162-12.411-7.762-.405.344-.847.65-1.252.994 0 6.883-.553 13.842.11 20.687 2.762 28.87 1.658 57.587-1.326 86.38-1.841 17.858-2.173 35.868-3.093 53.84-.258 4.703-.074 9.445-.295 14.187-.074 1.529-.81 3.059-1.215 4.588-.442.115-.884.23-1.29.344-.994-2.026-2.32-3.9-2.909-6.041-4.309-15.334-8.176-30.782-12.854-45.963-3.425-11.127-7.881-21.949-11.932-32.885-4.089-11.089-8.361-22.14-12.302-33.267-4.788-13.537-9.318-27.188-14.511-40.763.332 4.78.479 9.56 1.105 14.302a2386.817 2386.817 0 0 0 5.414 39.691c1.584 10.975 7.035 20.266 12.338 29.558 4.862 8.489 10.276 16.672 12.044 26.653.147.803.221 1.988-.221 2.37-.516.459-1.731.536-2.394.23-1.731-.841-3.573-1.721-4.862-3.059-8.102-8.298-18.194-11.778-29.39-13.46.516 4.741 1.4 9.559 1.436 14.377.221 15.946-2.209 31.624-5.266 47.225-1.768 8.909-4.162 18.049-3.757 26.996.516 12.045 2.431 24.282 5.488 35.944 3.388 12.887 3.167 25.697 2.652 38.621-.553 13.881-1.732 27.723-2.468 41.565-.147 2.792.994 5.66.884 8.489-.184 5.201-.81 10.401-1.252 15.602h-1.363c-.774-3.901-2.247-7.801-2.21-11.663.074-9.521-4.199-17.705-6.85-26.346-5.746-18.89-15.064-35.868-26.812-51.66-14.253-19.12-24.75-40.686-33.7-62.979-3.609-8.948-7.218-17.896-10.975-27.15.332 2.027.368 3.977.995 5.66 5.34 14.148 5.082 28.908 5.34 43.745.221 12.771-4.383 24.51-6.003 36.861-1.584 12.237-3.978 24.358-1.326 36.824.7 3.289.11 6.883.11 10.324-.368.153-.736.268-1.105.421-.663-1.147-1.62-2.18-1.878-3.403-3.094-15.219-6.003-30.476-9.097-45.695-.479-2.333-1.768-4.474-2.578-6.768-.295-.842-.626-2.027-.258-2.677 3.462-6.003-.221-11.472-1.252-17.016-1.4-7.457-3.609-14.76-5.893-22.217 0 5.392-.037 10.784 0 16.137.074 16.634.258 33.267.295 49.939.037 13.881.626 27.838-.258 41.642-1.289 20.419-4.972 40.38-12.412 59.576-3.793 9.789-5.708 20.381-8.765 30.514-1.878 6.233-4.714 12.16-6.261 18.431-3.204 12.924-5.856 26.003-8.766 39.003-.478 2.22-1.252 4.32-2.099 7.27-.331-2.22-.552-3.6-.736-4.94-.442-.04-.884-.07-1.29-.07-1.362 9.25-2.614 18.54-4.124 27.8-.258 1.68-1.511 3.17-2.321 4.78-.442-.2-.884-.35-1.326-.54 0-2.33-.221-4.7.037-7 .405-3.29 1.289-6.54 1.731-9.83.884-6.61 2.136-13.23 2.21-19.84.074-7.72 1.289-15.07 3.278-22.485 2.541-9.521 4.493-19.272 6.077-29.023 3.057-18.775 6.592-37.55 8.323-56.478 2.394-26.041 2.505-52.234-1.878-78.121-3.683-21.758-7.182-43.822-16.905-63.782-10.202-20.955-23.239-39.883-41.691-54.146-1.731-1.338-3.499-2.638-5.377-4.091-1.879 6.003-1.621 10.554 3.057 15.142 11.932 11.739 19.888 26.385 25.559 42.215 6.814 19.12 13.591 38.315 19.483 57.779 4.567 15.104 6.556 30.782 7.329 46.689.332 6.768 1.253 13.46.553 20.304-1.657 16.443-2.431 33.038-4.898 49.366-1.842 12.084-4.715 24.243-9.061 35.6-3.572 9.33-9.281 18.011-15.284 26.001-10.349 13.73-21.177 27.19-32.852 39.69-5.23 5.62-13.038 8.64-19.594 13-8.618 5.74-17.162 11.63-25.707 17.52-1.326.91-2.21 2.56-3.572 3.29-1.621.88-3.573 1.1-5.341 1.64-.036-1.99-.662-4.24.037-5.89 1.952-4.59 4.53-8.87 6.703-13.38 7.771-15.99 13.48-32.77 17.936-50.02 1.4-5.43 3.168-10.781 4.494-16.211 2.983-12.236 5.782-24.549 8.765-36.786.81-3.365 2.173-6.615 3.204-9.942 6.372-20.037 6.777-40.685 5.93-61.525-.553-13.269-.626-26.538-1.289-39.806-1.105-22.599-4.088-44.931-10.607-66.612-5.819-19.31-10.754-39.003-17.936-57.778-5.12-13.269-13.222-25.352-20.293-37.741-3.02-5.316-6.556-10.439-10.35-15.219-6.371-7.992-11.417-17.246-21.84-21.108-4.235-1.568-7.513-5.85-11.527-9.139-15.469 16.404-31.674 33.65-47.548 50.513 8.177 13.957 16.279 27.341 23.903 41.03 7.845 14.186 11.344 29.941 14.658 45.771 5.23 25.085 6.593 50.399 5.009 75.942-.957 15.754-4.014 31.011-9.244 45.924-2.91 8.26-4.899 16.94-6.666 25.582-3.426 16.633-9.65 32.196-15.874 47.836-7.329 18.393-14.253 36.979-20.22 55.909-2.393 7.57-1.731 16.17-2.357 24.28-.147 1.79.811 3.9.184 5.39-.589 1.49-2.43 2.64-3.94 3.33-.369.15-2.468-2.03-2.542-3.18-.257-4.93.074-9.9-.11-14.87-.037-1.3-1.179-2.6-1.878-3.83-.369-.61-1.142-1.07-1.326-1.72-3.241-11.2-7.44-22.21-9.429-33.69-3.498-20.071-6.924-40.299-7.955-60.604-.957-18.813.737-37.856 2.247-56.707 1.362-16.978 3.941-33.88 6.187-50.781 3.609-27.073 5.709-54.222 3.573-81.563-.553-7.15-.111-14.339-.258-21.528-.037-2.409-.442-4.818-1.694-7.762-2.136 2.715-4.567 5.2-6.372 8.145-5.34 8.718-10.312 17.628-15.653 26.346-.773 1.262-2.725 1.759-4.161 2.6-.626-1.644-1.915-3.365-1.768-4.933.81-9.865 2.246-19.654 2.946-29.52 1.473-21.681 2.357-43.439 6.924-64.776 1.216-5.621 2.468-11.204 3.573-16.863.368-1.912.847-4.13.331-5.889-2.357-7.647-.479-15.486-1.252-23.172a987.886 987.886 0 0 1-2.504-27.723c-.59-7.801-3.168-13.919-11.86-15.639-1.878 5.697-3.867 11.815-5.966 17.857-.589 1.682-1.473 3.288-2.431 4.78-2.173 3.326-4.677 3.212-6.408-.497-6.335-13.69-12.522-27.456-18.747-41.183-3.572-7.839-7.108-15.64-10.791-23.746-1.841 6.424-3.83 12.733-5.45 19.157-2.947 11.625-5.672 23.287-8.435 34.95-.441 1.912-.147 4.015-.736 5.851-.368 1.185-1.694 2.026-2.578 3.02-.884-1.032-2.431-2.026-2.541-3.135-.258-2.715.184-5.468.257-8.221.405-22.867 1.253-45.733-2.614-68.409-.185-1.032-.222-2.141-.222-3.212-.11-7.801-2.725-14.11-8.176-19.884-9.76-10.324-18.746-21.413-28.064-32.197-.295-.306-.626-.573-.958-.841-3.904 8.183-7.697 16.29-11.601 24.358-2.32 4.742-5.12 9.292-7.034 14.186-.958 2.448-1.032 5.66-.406 8.26 1.842 7.495 4.273 14.836 6.446 22.255 2.467 8.45 4.935 16.901 7.44 25.352.257.841.846 2.256 1.252 2.256 4.677-.23 4.787 4.283 6.666 6.806 6.187 8.298 13.148 16.213 18.01 25.314 7.034 13.116 12.706 27.073 18.562 40.839 3.719 8.756 7.439 17.628 9.98 26.805 4.383 15.907 8.177 32.006 11.528 48.18 2.099 10.095 3.646 20.42 4.236 30.706 1.068 19.616 1.731 39.271 1.657 58.925-.037 15.028-2.615 30.094-1.842 45.007.627 12.16-2.909 23.019-5.156 34.414-1.841 9.369-3.499 18.814-4.382 28.335-1.437 15.946-2.431 31.929-3.168 47.913-.442 9.101 0 18.24-.073 27.34-.037 5.545-.037 11.128-.553 16.634-.147 1.568-1.915 3.212-3.351 4.206-.406.268-2.468-1.453-3.352-2.6-4.604-6.041-8.876-12.313-13.59-18.24-6.924-8.68-9.65-19.348-13.7-29.443-5.341-13.231-6.336-27.455-9.466-41.221-2.063-9.024-4.42-17.972-6.224-27.073-1.216-6.08-.553-12.81-2.763-18.393-2.835-7.189-.294-14.186-1.288-21.222-.995-6.998-.406-14.339 0-21.49 1.104-18.852 3.056-37.588.036-56.516-1.841-11.395-2.025-23.096-2.983-34.644-.11-1.339-.295-2.639-.479-3.977-.405 0-.81-.039-1.215-.039-.663 8.336-1.29 16.672-1.952 24.97-.11 1.339-.11 2.868-.7 3.977-.479.879-1.841 1.874-2.652 1.759-.773-.115-1.878-1.644-1.915-2.562-.81-20.305-8.692-38.736-14.142-57.816-5.967-20.84-13.149-41.336-18.489-62.329-3.72-14.684-11.122-27.455-16.536-41.221-.295-.688-.774-1.377-.81-2.103-.222-3.824-2.395-5.507-5.746-5.965v-10.095c.994-3.786 1.952-7.61 2.983-11.357 4.677-16.749 9.428-33.459 14.032-50.207 3.352-12.275 6.445-24.626 9.797-36.9 2.062-7.495 3.13-14.646-1.62-21.682-1.805-2.676-2.91-5.965-3.905-9.139C8.09 423.237-.05 412.607-9 402.474v-7.342c2.983 3.862 5.966 7.686 8.986 11.548.369-.267.737-.497 1.142-.765-3.351-8.183-6.74-16.366-10.091-24.549v-10.095c2.91 6.922 5.893 13.805 8.692 20.726 3.793 9.406 7.44 18.928 11.16 28.373.367-.077.736-.115 1.104-.192.184-3.938.552-7.838.552-11.777.074-12.16-.22-24.358.11-36.518.148-4.971 1.621-9.865 2.432-14.836 2.983-17.361 5.708-34.338 8.323-51.316 1.51-9.751 2.578-19.54 4.31-29.253 1.84-10.286 3.277-20.84 6.629-30.629 4.567-13.421 10.275-26.537 16.352-39.309 5.598-11.739 11.712-23.325 18.783-34.108 5.562-8.489 13.038-15.64 19.52-23.441 7.145-8.603 14.143-17.36 21.324-25.963 2.947-3.557 6.114-6.883 9.245-10.248.957-1.033 2.062-1.874 3.425-3.098-2.505.192-4.383.574-6.224.459-4.236-.268-8.655-1.682-12.67-.918-7.623 1.415-15.026 4.13-22.576 6.119-26.26 6.844-47.695 22.293-66.92 41.259C6.174 164.86-.934 174.573-8.67 183.635v-7.341c.48-.268 1.069-.459 1.437-.88 9.612-9.98 18.93-20.343 28.874-29.941 18.01-17.322 38.598-29.978 62.795-35.829 10.497-2.524 20.662-6.73 31.784-5.85 5.451.42 8.434-1.912 10.055-7.304 4.198-14.072 11.712-25.773 23.018-34.873 5.562-4.474 10.828-9.369 15.874-14.454 1.952-1.95 2.946-4.933 4.346-7.419-.295-.497-.553-.956-.847-1.453-2.726 0-5.451.153-8.176-.038-7.256-.497-14.511-1.07-21.767-1.683-4.235-.344-7.734-4.206-12.632-2.217-12.78 5.2-25.965 9.521-38.524 15.218-10.165 4.627-20.146 10.057-26.997 19.846-.515.765-1.915 1.606-2.54 1.415-2.8-.994-3.573 1.186-4.752 2.792-3.462 4.703-6.371 10.018-10.46 14.033C27.94 102.493 10.005 112.55-8.669 121.23v-5.506c15.727-6.309 30.422-14.798 42.539-26.805 8.692-8.604 15.468-19.31 22.982-29.176 2.062-2.715 3.72-5.736 5.598-8.604l-.995-.918c-4.788 2.18-9.539 4.474-14.326 6.578C33.317 62.802 19.69 69.073 7.537 78.365 2.38 82.265-3.255 85.554-8.67 89.11v-4.589Zm607.434 597.017c3.388 2.294 6.777 4.589 10.128 6.883.184-.229.405-.497.589-.727a1062.197 1062.197 0 0 1-4.456-7.685c-2.394.611-4.346 1.07-6.261 1.529-.553-1.224-.847-2.677-1.658-3.671-6.261-7.686-13.516-14.683-18.672-23.058-6.998-11.356-12.743-23.554-18.452-35.714-8.692-18.546-12.853-38.583-15.689-58.735-2.984-21.107-4.53-42.406-6.63-63.628-1.326-13.346-2.136-26.729-3.793-39.998-2.726-22.063-6.151-44.089-8.913-66.152-2.247-17.819-3.83-35.753-5.966-53.61-1.842-15.411-3.757-30.859-6.151-46.192-2.652-16.825-5.893-33.574-8.876-50.36-1.4-7.916-2.873-15.831-4.346-23.708-1.768 3.976-2.909 7.877-3.646 11.892-5.377 30.132-10.791 60.302-15.874 90.51-.773 4.665-3.646 10.363 2.394 14.148.369.23.258 1.186.553 1.683 1.399 2.256 2.541 4.894 4.419 6.653 5.672 5.277 11.639 10.172 17.494 15.258 2.689 2.37 2.652 4.741-.626 5.544-4.603 1.109-9.428 1.262-14.179 1.53-2.689.153-5.377-.344-8.618-.574.589 4.168 1.105 7.418 1.51 10.707 1.62 13.421 3.13 26.881 4.898 40.303 1.068 8.145 2.762 16.213 3.609 24.396 1.768 17.475 2.431 35.141 4.972 52.502 2.21 15.142 6.188 30.017 9.76 44.93 2.726 11.357 6.446 22.484 8.95 33.879 3.351 15.334 6.261 30.629 13.627 44.662 8.839 16.864 17.31 33.918 29.795 48.296 3.462 3.976 7.403 7.494 13.333 6.309.884-.191 2.541.535 2.872 1.262 2.247 5.009 6.924 4.78 11.012 6.08 4.383 1.3 8.619 3.212 12.891 4.856Zm293.202-360.856c-15.322 7.227-29.427 15.563-41.287 27.723-16.02 16.481-24.307 37.971-35.098 57.816-3.462 6.348-6.372 13.04-8.95 19.808-1.031 2.715-.921 6.194-.516 9.177.627 4.512 2.358 8.871 2.873 13.384 2.32 19.654 4.567 39.309 6.482 59.001 1.363 14.225.995 28.488-3.315 42.177-3.277 10.401-7.513 20.458-11.269 30.668-2.947 7.953-5.451 16.136-8.876 23.86-9.502 21.605-19.115 43.21-29.28 64.47-3.793 7.954-3.867 15.831-2.578 23.976 2.504 15.907 7.44 31.088 13.295 45.924 7.514 19.005 18.857 35.103 32.779 49.672 7.587 7.954 13.774 17.322 20.551 26.117 2.283 2.982 4.346 6.194 6.482 9.292.405-.115.81-.268 1.252-.383-.294-3.862-.294-7.762-.957-11.509-1.51-8.375-4.052-16.634-4.936-25.047-.994-9.062-.368-18.278-.81-27.417-1.215-23.325 1.879-45.886 9.502-67.949 3.425-9.866 5.267-20.305 7.845-30.514 2.91-11.434 5.488-22.982 8.802-34.3 3.057-10.478 6.887-20.687 10.386-31.012 4.088-12.045 8.287-24.052 12.301-36.135 5.488-16.634 11.307-33.191 16.095-50.054 4.051-14.301 7.44-28.87 10.055-43.554 3.719-21.107 6.482-42.444 9.649-63.667 1.657-11.012-.074-21.375-6.445-30.399-2.431-3.442-3.315-6.807-3.278-10.898.037-2.868-.884-5.736-1.068-8.604-.589-8.909-1.252-17.781-1.363-26.69-.037-4.015 1.179-8.069 1.805-12.122a7.868 7.868 0 0 0-2.652 3.174c-5.487 11.28-11.196 22.408-16.279 33.917-4.125 9.369-7.513 19.081-11.049 28.717-1.289 3.557-1.988 7.342-3.02 10.975-6.85 25.008-13.995 49.901-20.403 75.024-3.352 13.077-5.414 26.461-7.956 39.729-1.583 8.222-3.02 16.443-4.493 24.702-2.283 13.002-3.941 26.194-6.961 39.004-6.445 27.455-13.553 54.795-20.514 82.136-4.235 16.748-5.303 33.956-6.924 51.086-.626 6.501-1.252 13.231-.368 19.655 1.805 13.269 4.64 26.346 7.034 39.5.59 3.174 1.142 6.31 1.731 9.483-4.603-5.506-5.782-12.121-6.85-18.813-2.468-15.678-8.544-30.82-5.782-47.224.884-5.086 1.105-10.325 1.731-15.449 1.362-10.898 2.283-21.872 4.309-32.617 2.431-12.848 5.635-25.505 8.802-38.2 4.346-17.399 8.95-34.759 13.517-52.119 3.793-14.454 5.451-29.214 7.439-43.975 2.247-16.71 6.261-33.19 10.092-49.595 4.972-21.299 10.422-42.444 15.91-63.59 5.93-22.79 11.823-45.58 22.982-66.459 3.72-7.036 6.408-14.568 9.576-21.872Zm159.803 619.31c.7 0 1.44-.039 2.14-.039 2.61-6.691 6.18-13.154 7.62-20.113 2.76-13.498 4.72-27.264 6.34-40.992 1.95-16.48 1.06-32.808-2.77-49.098-2.24-9.559-3.72-19.501-4.12-29.367-.55-13.23.77-26.537.37-39.768-.67-21.643-1.26-43.362-3.39-64.929-1.84-18.584-4.94-37.129-8.99-55.369-3.05-13.919-7.99-27.417-12.85-40.8-6.93-19.043-11.93-38.889-22.87-56.249-5.9-9.407-9.84-20.152-15.877-29.444-8.765-13.46-18.525-26.231-28.064-39.156-3.057-4.13-6.74-7.762-10.128-11.624-.516 2.179-.295 3.823.147 5.391 5.046 17.628 10.386 35.18 15.1 52.922 5.157 19.502 10.644 38.889 12.375 59.308 1.584 18.775 5.009 37.435 7.919 56.058 2.762 17.704 5.888 35.332 8.838 52.998 4.02 23.976 7.77 48.028 12.08 71.927 2.51 13.689 5.97 27.225 8.95 40.838 1.92 8.719 3.79 17.399 5.53 26.155 1.06 5.392 1.39 10.975 2.72 16.328 4.38 17.896 9.17 35.715 13.55 53.61 1.11 4.551 1.37 9.331 1.99 14.034-.37.038-.73.115-1.1.153-.26-1.377-.44-2.792-.81-4.168-7.04-27.799-15.43-55.216-20.55-83.551-4.98-27.685-11.31-55.102-16.8-82.672-2.83-14.148-5.23-28.411-7.58-42.674-2.472-15.027-4.535-30.093-6.966-45.121-2.836-17.551-6.113-35.065-8.765-52.654-1.915-12.81-2.136-25.926-4.825-38.545-4.567-21.528-10.386-42.789-15.873-64.126-1.326-5.2-3.352-10.209-5.046-15.333-.958 1.453-1.031 2.715-.958 4.015.774 9.712 2.136 19.425 2.284 29.176.184 10.821-1.179 21.643-1.068 32.464.147 16.596.736 33.229 1.547 49.825.441 8.68 1.583 17.284 2.688 25.887 1.289 10.248 2.946 20.496 4.346 30.744 2.247 16.748 4.162 33.573 6.629 50.322 2.8 19.004 6.777 37.818 8.987 56.86 2.983 25.62 7.034 50.934 14.879 75.521 2.801 8.795 5.161 17.743 7.921 26.576 3.13 10.057 6.44 20.381 14.43 27.226 9.88 8.489 15.73 19.387 21 31.011 2.61 5.736 6 10.974 9.02 16.443ZM371.599 716.144c.294-7.457.663-14.34.81-21.261.368-16.48.737-32.961.921-49.442.074-5.048 2.541-10.21-.589-15.142-.258-.383.257-1.415.552-2.065.81-1.721 2.32-3.365 2.504-5.124.884-8.336 1.731-16.71 1.989-25.085.7-22.14 1.621-44.28 1.473-66.382-.11-12.121-2.614-24.243-3.351-36.364-1.621-26.461-5.377-52.578-14.364-77.357-5.487-15.18-13.258-29.482-20.219-44.05-8.397-17.628-18.71-34.033-32.631-47.378-11.712-11.242-24.492-21.299-37.051-31.546-4.714-3.863-10.791-1.339-11.565 4.818-.884 7.188-1.952 14.76-.81 21.795 2.689 16.481 5.856 32.962 10.312 49.022 5.525 19.999 12.559 39.577 18.857 59.384 4.972 15.602 10.939 30.974 14.548 46.881 5.635 24.893 9.465 50.207 14.364 75.291 5.082 26.155 10.201 52.31 15.873 78.312 2.468 11.281 6.261 22.179 12.338 32.121a193.455 193.455 0 0 1 9.723 17.895c5.562 11.434 10.681 23.211 16.316 35.677Zm425.899-313.288c-2.136 5.277-4.456 10.516-6.334 15.908-5.967 17.322-12.191 34.605-17.458 52.157-9.981 33.114-19.998 66.267-28.764 99.726-5.009 19.081-8.139 38.735-11.122 58.275-3.131 20.343-5.046 40.877-7.514 61.334-.368 2.945-.773 5.889-1.178 8.833-.405-.038-.81-.076-1.216-.152 0-1.798-.11-3.595.037-5.354.369-5.009.995-10.018 1.289-15.028 1.768-29.099 5.635-57.969 11.381-86.457a715.111 715.111 0 0 1 16.168-64.47c10.828-36.173 22.65-72.041 34.215-107.985 2.283-7.151 5.193-14.072 7.808-21.069-8.361 6.691-16.095 13.689-23.719 20.801-11.343 10.554-21.692 22.14-28.469 36.403-6.666 13.996-12.817 28.297-18.268 42.866-7.476 19.998-14.879 40.035-19.446 61.105-5.266 24.319-12.08 48.256-11.785 73.609.147 12.121 1.178 24.09 3.683 35.791 2.725 12.771 6.555 25.314 10.275 37.856 3.389 11.51 7.219 22.905 10.939 34.3 1.51 4.665 3.314 9.253 5.414 14.989.773-2.141 1.105-2.944 1.399-3.747 4.899-14.034 9.244-28.335 14.843-42.062 5.634-13.805 12.595-26.997 18.82-40.495 6.518-14.148 12.853-28.373 19.262-42.559 4.345-9.636 8.986-19.158 12.853-29.023 4.641-11.816 8.029-24.167 12.964-35.83 6.593-15.601 9.244-31.852 8.361-48.524-.958-18.24-2.8-36.442-4.936-54.605-1.068-9.177-3.314-18.239-5.745-27.187-2.725-9.675-5.598-19.119-3.757-29.406ZM322.91 1067.25c2.652-1.61 4.088-2.64 5.635-3.4 12.817-6.5 23.46-15.87 33.22-26.43 6.004-6.46 12.191-12.73 17.863-19.5 7.034-8.37 14.584-16.48 20.146-25.848 6.555-11.089 11.675-23.21 16.536-35.255 6.188-15.372 10.939-31.28 10.092-48.334-.037-.726 0-1.988.368-2.141 4.272-1.874 2.836-5.851 2.873-8.948.036-9.904.405-19.922-.663-29.711-1.474-13.575-2.726-27.494-6.63-40.456-8.25-27.456-15.8-55.255-29.427-80.645-4.198-7.801-9.575-14.225-15.8-20.076-.442.115-.884.23-1.326.383v32.732c-1.767-1.186-3.204-2.753-3.462-4.512-.847-5.392-1.215-10.86-1.878-16.328-.479-4.168-1.105-8.298-1.694-12.466-.295.039-.626.077-.921.153-.147 1.491-.258 2.983-.515 5.774-2.284-6.194-4.125-11.089-5.967-16.022-.258.268-.552.536-.81.803-1.142-.612-2.726-.879-3.315-1.835-2.578-4.206-4.603-8.795-7.366-12.887-8.581-12.771-17.089-25.581-31.305-32.693-3.683-1.836-6.556-5.545-9.686-8.528-.774-.764-.958-2.141-1.4-3.25-.552.459-1.068.956-1.62 1.415.405 1.071.626 2.256 1.215 3.174 4.309 6.539 8.95 12.848 12.927 19.578 5.562 9.483 11.749 18.775 15.653 29.023 6.372 16.825 11.049 34.3 16.537 51.507 6.887 21.528 11.638 43.515 13.295 66.114 1.252 17.169 1.436 34.415 2.247 51.622.994 21.184.663 42.215-5.304 62.749-1.731 5.966-3.756 11.816-5.303 17.858-2.726 10.554-4.935 21.299-7.919 31.776-4.088 14.414-8.36 28.834-13.258 42.984-3.536 10.24-8.25 20.19-13.038 31.62ZM173.05 283.017c8.47-1.568 16.536-2.791 24.491-4.55 10.423-2.295 20.699-5.162 31.122-7.533 13.811-3.136 27.659-6.195 41.543-8.872 4.972-.955 10.165-.497 15.211-.994 3.278-.306 6.519-.994 9.723-1.912 7.329-2.026 14.437-5.2 21.877-6.309 15.653-2.371 29.685 4.397 43.349 10.898 10.975 5.2 21.619 8.183 33.368 3.518 4.088-1.606 8.434-2.447 12.632-3.633-1.657-7.915-3.793-16.136-4.972-24.472-1.952-13.804-4.898-27.723-1.51-41.718 1.768-7.228-1.584-11.931-6.445-16.061-2.026-1.72-4.236-3.288-6.372-4.894-.405-.306-1.252-.727-1.436-.535-2.394 2.179-3.315-.192-4.53-1.53-2.136-2.409-4.383-4.283-7.882-4.244-2.32.038-4.64-.536-6.924-1.071-8.986-2.027-17.825-4.78-26.885-6.042-12.707-1.759-25.487-1.185-37.898 2.753-10.202 3.251-20.22 7.113-30.458 10.248-11.675 3.595-22.724 8.413-31.416 17.399-14.106 14.607-27.844 29.635-41.692 44.509-11.822 12.695-19.446 27.8-24.896 45.045Zm403.322-188.86c-.221.115-.405.23-.626.383.553 1.338 1.068 2.677 1.621 3.977 14.474 34.835 28.69 69.747 43.459 104.429 12.485 29.367 23.203 59.422 28.58 91.046 4.567 26.843 7.881 53.916 10.754 81.027 1.989 18.775 2.762 37.741 3.241 56.631.589 23.134.037 46.268.589 69.403.369 16.098 1.584 32.158 2.799 48.218.295 3.939 2.1 7.763 3.205 11.663 1.252-13.077 4.861-25.123 9.207-36.938 4.53-12.198 10.018-24.09 13.922-36.518 6.482-20.534 9.207-41.909 9.428-63.476.111-11.089-1.105-22.216-1.841-33.344-.995-15.83-1.584-31.699-3.315-47.454-2.062-18.736-4.751-37.435-7.918-56.019-3.426-20.228-3.647-41.068-11.234-60.493-4.419-11.28-7.181-23.478-13.111-33.765-8.434-14.568-19.188-27.646-28.801-41.45-9.17-13.192-21.803-22.446-33.773-32.465-6.703-5.621-13.737-10.821-20.293-16.595-2.394-2.218-3.904-5.506-5.893-8.26Zm-59.369 38.086c-3.389 14.913-6.814 28.488-9.502 42.215-1.915 9.789-6.63 18.89-4.641 29.673 3.646 19.884 6.188 39.959 9.465 59.92 2.873 17.437 6.777 34.682 8.987 52.195 2.983 23.555 4.604 47.301 7.255 70.933 1.621 14.377 4.199 28.64 6.04 42.98 1.547 11.93 2.652 23.937 3.941 35.867 1.105 10.439 2.136 20.878 3.278 31.279 1.473 13.804 2.799 27.608 4.567 41.374 2.099 16.137 3.572 32.503 7.219 48.295 4.64 20.037 13 38.698 23.313 56.517 6.997 12.083 15.21 22.866 24.897 32.808.037-.497.184-.841.073-1.032-.81-1.453-1.62-2.906-2.504-4.321-7.513-11.969-14.069-24.358-15.616-38.889-3.204-29.673-6.482-59.346-9.428-89.057-.7-7.227-.074-14.569-.442-21.834-.221-4.856-1.216-9.674-1.658-14.531-1.252-14.568-2.246-29.175-3.535-43.783-2.578-28.87-5.856-57.663-7.771-86.571-1.952-30.132-2.394-60.379-3.978-90.511-.589-11.395-1.805-22.866-4.199-33.994-4.972-23.21-11.343-46.115-16.241-69.326-2.615-12.313-5.82-24.128-12.228-34.912-2.725-4.474-4.567-9.445-7.292-15.295ZM465.11 480.672c-.295.076-.59.191-.884.267a368.865 368.865 0 0 0-1.694-5.927c-1.621-5.544-3.168-11.089-4.899-16.557-1.142-3.556-3.02-6.921-3.904-10.554-2.504-10.286-4.383-20.763-6.997-31.049-5.451-21.529-11.418-42.904-16.758-64.47-1.252-5.124-4.456-7.38-8.655-10.248.184 1.682.258 2.676.442 3.671 2.615 15.945 6.372 31.776 7.624 47.836 2.357 30.132 3.167 60.378 4.898 90.587.479 8.183 1.473 16.366 2.873 24.472 1.62 9.445 3.683 18.814 6.04 28.106 2.026 8.03 3.13 17.054 7.476 23.593 9.429 14.186 19.336 27.914 25.597 44.05 4.42 11.434 9.76 22.561 13.848 34.109 6.151 17.36 4.751 35.485 3.904 53.496-.479 9.98-2.799 20.075 1.031 29.864 6.887 17.628 13.259 35.485 20.993 52.692 5.304 11.778 12.338 22.752 19.078 33.765 4.53 7.418 10.533 13.88 14.695 21.452 5.856 10.668 10.718 21.949 15.763 33.114 1.915 4.245 3.131 8.795 4.678 13.231 1.399-4.207 1.767-8.145 2.136-12.084.073-.726.221-1.873-.184-2.179-5.304-4.054-4.567-10.248-5.341-15.907-.294-2.104-.037-4.321-.479-6.348-2.209-10.248-4.161-20.572-7.034-30.591-2.173-7.571-5.966-14.607-8.397-22.063-5.304-16.29-10.202-32.771-15.285-49.137-5.414-17.398-11.675-34.567-16.131-52.233-5.156-20.343-8.765-41.069-12.964-61.641-.7-3.403-.516-7.036-1.179-10.439-3.277-16.595-6.924-33.076-10.091-49.672-3.609-18.851-6.887-37.779-10.386-56.669-3.793-20.419-6.077-40.953-6.519-61.755-.258-11.93-1.289-23.823-1.952-35.676-2.946 11.7-6.703 23.172-8.581 34.988-1.915 11.777-1.915 23.937-2.762 35.906ZM212.605 213.92c8.323-8.03 16.242-14.607 22.834-22.369 6.74-7.954 15.1-12.504 24.271-15.831 10.349-3.786 21.067-6.462 31.232-10.63 12.117-4.971 24.528-6.883 37.419-7.113 11.822-.191 22.834 3.404 33.994 6.616 2.467.726 5.045 1.032 7.586 1.529l.332-1.262c-1.105-.917-2.173-1.988-3.388-2.753-6.777-4.206-13.48-8.489-20.367-12.466-20.441-11.815-39.077-26.04-54.214-44.662-13.627-16.787-26.517-34.223-36.645-53.61-4.899-9.369-11.16-17.475-18.783-24.55-9.539-8.832-20.883-12.236-33.368-13.23-5.377-.42-9.245 1.033-11.675 5.965-2.063 4.168-3.867 8.49-5.93 12.657-.442.842-1.62 1.3-2.467 1.912-.516-.918-1.105-1.835-1.51-2.83-.221-.535-.037-1.185-.037-2.714-2.763 4.282-2.1 7.838-.884 11.318 5.856 16.557 11.491 33.191 17.825 49.557 5.893 15.181 10.902 30.629 12.633 46.88 1.215 11.434.921 23.058 1.068 34.606.184 13.804.074 27.608.074 42.98Zm42.317 83.781c-5.119 3.288-10.239 5.506-14.069 9.215-7.218 7.074-14.732 14.263-20.219 22.714-8.582 13.268-13.222 28.181-8.803 44.509 4.935 18.278 9.834 36.633 15.321 54.758 3.647 12.16 7.587 24.319 12.633 35.906 5.304 12.159 12.412 23.44 18.157 35.447 6.335 13.23 11.859 26.843 17.936 40.188 6.372 14.034 9.208 29.673 18.857 42.292 3.904 5.086 5.893 11.701 8.987 17.513 3.535 6.654 6.776 13.613 14.216 16.71.921.383 1.731 1.109 2.652 1.683-1.51 1.682-2.358 2.6-3.241 3.556 4.419 5.43 8.618 10.592 12.816 15.792-4.419-20.954-9.097-41.679-13.074-62.558-4.53-23.899-8.25-47.989-12.633-71.926-2.431-13.46-4.604-27.073-8.397-40.15-5.377-18.623-12.228-36.824-18.231-55.255-4.751-14.569-9.723-29.099-13.664-43.898-3.683-13.766-6.739-27.761-9.023-41.833-1.215-7.533-.221-15.448-.221-24.663Zm-145.735-55.675c.515.114 1.068.191 1.583.305.811 3.06 1.916 6.08 2.394 9.216 1.032 6.921 1.621 13.919 2.615 20.84.774 5.391 2.542 10.745 2.615 16.136.184 16.405 2.505 32.503 5.635 48.449 2.541 13.001 4.714 25.963 5.598 39.232.7 10.592 2.578 21.108 4.015 31.662.11.841.331 1.797.847 2.409 10.312 11.968 19.667 24.51 26.296 39.194 9.502 21.069 16.795 42.598 16.169 66.305-.037.803.147 1.645.22 2.524 19.778-16.404 38.672-33.42 61.617-44.089-3.204-8.068-7.329-16.71-10.128-25.772-7.072-22.905-13.664-46.001-20.22-69.059-2.652-9.292-3.131-18.66-1.068-28.449 3.793-17.972 14.842-30.782 26.812-43.019 3.978-4.091 8.95-7.112 13.48-10.63-.074-.382-.111-.765-.184-1.109-6.667.65-13.37 2.027-19.999 1.721-6.74-.306-13.406-2.256-20.441-3.556-.478 5.238-1.252 9.903-1.252 14.53.037 15.066-1.952 29.788-6.887 43.936-3.388 9.713-7.44 19.196-10.975 28.87-1.437 3.939-2.689 8.107-3.094 12.237-.773 8.297-.847 16.672-1.436 25.008-.074 1.032-1.658 1.911-2.542 2.867-1.694-2.026-3.83-3.785-4.972-6.08-1.915-3.9-3.867-7.991-4.53-12.198-1.51-10.018-6.445-18.545-10.017-27.684-4.015-10.286-6.519-21.223-10.791-31.356-8.913-21.146-13.517-43.477-17.531-65.885-3.057-16.901-4.751-34.07-7.109-51.124-.221-1.53-.699-2.983-1.289-5.392a9530.546 9530.546 0 0 0-15.431 19.961Zm321.634 248.817c0-1.3.037-2.18 0-3.097-1.142-24.817-2.578-49.634-3.388-74.451-.737-21.872-3.536-43.362-8.434-64.623-1.768-7.647-5.414-12.886-11.823-17.054-18.893-12.389-40.07-18.66-61.137-24.893-17.273-5.086-35.099-8.221-52.703-12.122-5.378-1.185-10.865-1.95-16.279-2.906 5.929 6.195 11.712 12.428 18.562 16.94 13.959 9.215 24.934 21.643 33.81 35.485 11.012 17.169 20.477 35.524 29.353 54.031 9.613 19.999 14.106 41.909 18.157 63.782.626 3.441 1.952 4.091 5.046 4.665 6.556 1.223 13.516 2.218 19.299 5.353 10.091 5.315 19.372 12.237 29.537 18.89ZM21.458 446.028c3.02-10.937 5.304-20.687 8.434-30.132 5.746-17.322 11.307-34.759 18.268-51.546 6.482-15.601 11.38-31.546 15.174-47.951 2.651-11.548 5.524-22.981 11.343-33.458 4.162-7.457 7.145-15.64 10.68-23.479 3.61-7.992 6.225-16.71 11.087-23.746 5.745-8.298 12.743-16.098 20.514-22.331 6.887-5.506 7.403-11.51 6.85-19.349-1.326-19.31-2.062-38.697-2.909-58.046-.221-5.391-.037-10.783-.037-16.175-.405-.114-.847-.267-1.252-.382-2.1 1.797-4.457 3.365-6.262 5.468-6.003 7.036-12.043 14.072-17.678 21.452-6.077 7.954-11.785 16.251-17.53 24.473-6.188 8.909-13.002 17.436-18.084 26.996-6.85 12.848-12.412 26.461-18.268 39.883-5.303 12.121-8.36 24.855-10.202 38.162-3.609 26.078-7.992 52.004-12.411 77.929-2.652 15.64-5.01 31.165-3.389 47.148.737 7.228.663 14.569-2.43 21.529-.59 1.376-.663 3.441-.11 4.818 2.467 6.041 5.192 11.93 8.212 18.737ZM489.27 56.951l-1.768.115c-.736 1.453-1.584 2.868-2.173 4.398-3.977 10.324-8.102 20.61-11.785 31.05-5.23 14.683-11.381 29.099-12.559 45.006-.332 4.397-.811 8.833-1.879 13.077-5.892 23.326-7.587 47.187-7.955 71.086-.442 28.334.221 56.707.516 85.042.11 11.586-.184 23.211.81 34.72 2.062 23.479 4.862 46.919 7.403 70.359 1.068 9.636 2.283 19.234 3.425 28.832.921-.65 1.215-1.3 1.399-1.988 3.205-12.963 7.477-25.658 7.808-39.348.479-18.737 1.658-37.435 2.542-56.134.442-8.948.036-18.048 1.473-26.805 4.788-29.329 10.091-58.543 15.431-87.795 2.579-14.225 5.488-28.412 8.545-42.522 3.72-17.245 8.176-34.299 11.565-51.583 2.209-11.128 2.099-22.484-2.689-33.191-1.805-3.977-3.536-8.03-5.745-11.778-4.494-7.647-5.856-17.016-12.191-23.63-.405-.46-.258-1.454-.442-2.18a354.949 354.949 0 0 1-1.731-6.73Zm-60.106 957.029c.405.12.81.27 1.215.39.7-1.92 1.621-3.75 2.026-5.74 1.473-7.15 2.32-14.454 4.198-21.49 3.647-13.46 7.845-26.767 11.786-40.189 1.657-5.698 2.615-11.663 4.825-17.093 7.255-17.933 10.57-36.823 11.859-55.981 1.031-15.027.405-30.208.368-45.312-.074-21.834.184-43.668-.626-65.464-.479-12.887-2.652-25.735-4.088-38.583-2.21-19.654-5.488-39.003-16.905-55.637-2.615-3.785-5.782-7.342-9.281-10.21-6.188-5.123-12.706-9.827-19.336-14.377-8.581-5.889-16.205-13.46-27.769-13.422-7.109.038-8.913.382-9.208 7.686-.663 17.857-.884 35.715-1.804 53.534-.369 7.418 2.467 11.968 7.918 16.366 29.795 23.937 48.173 55.407 55.539 93.684 2.615 13.575 4.457 27.302 6.74 40.992 3.02 18.201 2.173 36.556.884 54.795-1.068 14.799-3.315 29.52-5.782 44.166-2.947 17.513-6.519 34.911-10.055 52.348-1.215 6.497-3.904 12.737-2.504 19.537Zm134.023-843.001c.332 2.332.59 4.129.847 5.888 2.284 15.525 5.23 30.973 6.703 46.575 2.394 25.619 4.015 51.354 5.562 77.05.994 17.054 1.141 34.185 1.915 51.24.258 6.194.957 12.427 1.804 18.583 1.216 8.719 2.726 17.361 4.089 26.079.663 4.321 1.399 8.183 4.419 11.93 6.077 7.572 11.381 15.793 16.537 24.091 2.836 4.588 4.751 9.789 6.997 14.76 6.998 15.563 13.959 31.164 20.993 46.727.516 1.147 1.253 2.141 2.431 4.092.147-2.027.295-2.945.258-3.824-.81-12.619-1.915-25.238-2.431-37.895-.957-24.396-1.584-48.83-2.32-73.226-.958-31.585-2.505-63.132-7.477-94.373-3.314-20.725-9.317-40.265-20.587-57.893-5.672-8.871-11.344-17.78-16.721-26.843-3.83-6.462-6.777-13.498-10.791-19.884-3.094-4.818-5.23-10.821-12.228-13.077Zm-155.605-5.469c.11-.153.736-.841 1.068-1.644 4.751-11.471 9.428-22.981 14.105-34.491.258-.65.553-1.912.295-2.065-3.793-2.562-1.989-7.303-3.904-10.554-4.456-7.647-8.618-15.486-13.259-23.02-10.864-17.589-25.965-30.972-41.507-43.782-16.389-13.498-35.393-22.178-54.434-30.553-10.607-4.665-21.803-7.838-32.742-11.662-2.467-.88-5.009-2.065-7.513-2.18-11.712-.535-23.461-.726-35.173-1.032-2.394-.077-4.751 0-7.145 0 1.916 2.409 3.978 3.823 5.967 5.353 8.36 6.462 17.126 12.39 24.897 19.54 17.199 15.83 32.226 33.803 46.737 52.272 3.977 5.047 8.36 10.057 13.406 13.804 20.882 15.525 42.354 30.208 63.089 45.962 9.244 7.036 17.237 15.793 26.113 24.052ZM59.246 558.143c1.473 6.768 3.204 12.465 3.867 18.278 1.62 13.918 2.983 27.837 4.014 41.832.479 6.31-1.178 12.351 1.179 19.043 3.867 11.051 5.524 22.943 8.176 34.453 2.136 9.33 5.267 18.507 6.408 27.952 2.431 19.923 3.867 39.998 5.709 60.035 1.142 12.695 2.21 25.39 3.425 38.085 1.068 11.204 3.057 22.37 3.241 33.573.368 19.196-.22 38.43-.7 57.626-.368 15.142-.405 30.132 4.383 44.739 1.952 6.003 3.02 12.351 4.456 18.545 1.179 5.01 2.284 10.057 3.389 15.105.368-.039.736-.115 1.105-.153.368-6.157.847-12.351 1.031-18.508.405-11.28-.074-22.675 1.068-33.841 1.878-18.316 3.278-36.747 8.36-54.604 2.505-8.757 3.941-17.781 2.394-27.111-.626-3.709-.663-7.763.148-11.395 3.535-15.984 1.694-32.274 2.946-48.372.552-6.959.221-14.072-.479-21.031-1.62-16.672-3.793-33.306-5.451-49.978-1.731-17.245-5.671-34.032-11.27-50.245-5.598-16.29-12.816-31.967-18.93-48.066-6.372-17.016-16.242-31.585-28.47-45.962ZM1096.15 704.787c.7.115 1.44.191 2.14.306 1.43-4.092 3.35-8.068 4.2-12.236 1.69-8.336 2.91-16.787 4.19-25.238 2.1-13.995 4.09-28.029 6.15-42.024 1.55-10.707 3.36-21.375 4.57-32.12.92-7.992 2.36-16.29 1.25-24.09-2.43-17.169-6.26-34.147-9.68-51.163-2.29-11.319-5.38-22.484-7.22-33.841-2.58-16.213-.74-33-5.34-49.022-1.66-5.812-2.73-11.816-4.53-17.59-1.33-4.206-4.46-7.991-5.08-12.274-1.55-10.057-5.05-19.196-10.83-27.149-4.97-6.845-10.02-14.072-16.5-19.158-9.61-7.609-20.48-13.536-30.94-19.999-3.53-2.179-7.48-3.747-11.19-5.621 1.25 4.627 3.2 8.336 5.15 12.045 1.51 2.792 3.21 5.469 4.57 8.298 3.5 7.342 6.15 15.181 10.35 21.987 9.65 15.602 17.49 31.929 21.84 50.016 2.46 10.325 5.3 20.572 7.99 30.859 3.65 13.957 7.77 27.761 10.79 41.871 2.1 9.75 2.76 19.845 3.79 29.826.85 8.144 1.33 16.366 1.85 24.549.51 8.45.7 16.939 1.4 25.39 1.17 14.416 2.83 28.794 3.97 43.248 1.07 13.307 1.62 26.652 2.62 39.997.7 9.368 1.62 18.737 2.58 28.067.51 5.048 1.25 10.057 1.91 15.066ZM482.051 58.519c-.478 0-.847-.114-.994 0-1.989 1.797-3.941 3.595-5.93 5.392-13.59 12.466-25.781 26.231-35.319 42.292-10.423 17.513-18.526 36.211-26.334 55.139-11.306 27.532-13.774 55.637-7.697 84.546 2.983 14.263 7.145 28.258 10.865 42.368 3.425 13.039 6.703 26.117 10.643 39.003 1.879 6.195 1.474 13.46 6.961 18.316.553.497.332 1.989.332 3.021-.037 1.377-.59 2.906-.258 4.168 3.83 14.225 8.029 28.335 11.564 42.636 3.389 13.689 6.041 27.608 9.134 41.374 1.4 6.194 3.057 12.313 4.641 18.469.442-.076.847-.191 1.289-.268 0-.994.11-1.988 0-2.982-.884-6.654-2.026-13.231-2.762-19.884-2.873-25.888-5.746-51.813-8.324-77.739-1.068-10.745-1.731-21.566-1.915-32.388-.368-20.878-.184-41.795-.368-62.673-.332-36.441-.811-72.882 7.844-108.673 2.063-8.528 1.695-17.705 4.015-26.117 3.904-14.148 8.949-27.99 13.701-41.871 2.762-8.069 5.892-16.022 8.912-24.129Zm3.425 768.593c.332-.038.663-.115 1.032-.153 1.326-7.992 2.136-16.175 4.125-24.014 5.045-20.075 5.782-40.227.884-60.225-2.21-9.101-4.936-17.858-3.978-27.379.663-6.615 1.768-13.231 1.878-19.846.295-13.88 1.4-27.914-.258-41.603-2.762-23.249-14.437-43.477-24.602-63.82-10.57-21.184-26.517-38.545-43.054-55.064-10.68-10.668-23.387-17.283-39.518-19.004 1.142 1.797 1.584 3.288 2.394 3.556 3.351 1.147 4.051 3.9 4.935 6.959 1.436 4.895 3.02 9.828 5.23 14.416 5.266 10.975 11.343 21.529 16.389 32.618 11.97 26.155 26.149 51.201 34.915 78.924 3.904 12.313 9.502 24.052 12.927 36.479 4.162 15.219 6.887 30.859 10.128 46.345 3.83 18.316 7.661 36.633 11.38 54.987 1.29 6.386 2.321 12.848 3.242 19.311.81 5.812 1.289 11.701 1.951 17.513Zm533.374-480.466c-.23 1.415-.37 1.759-.26 1.988 7.22 15.563 8.54 32.312 8.43 49.098-.11 23.67-1.66 47.378-1.66 71.047 0 11.854 2.14 23.746 3.32 35.6.15 1.683.26 3.365.55 5.01 2.62 15.792 9.43 29.94 17.68 43.056 7.92 12.619 13.15 25.811 15.95 40.533 2.1 10.86 4.97 21.681 8.76 32.005 7.52 20.458 9.91 41.527 9.1 63.209-.41 11.089-1.03 22.292-.22 33.305.55 7.266 3.5 14.34 5.41 21.452.11.459.78.765 1.36 1.338 2.07-8.221 4.13-16.136 6.04-24.09.78-3.212 2.1-6.615 1.74-9.751-1.18-11.204-2.88-22.331-4.57-33.458-1.36-9.025-3.68-17.934-4.46-27.035-1.88-22.178-3.24-44.395-4.6-66.611-1.03-17.208-.88-34.53-2.84-51.622-2.1-18.546-5.52-36.977-9.35-55.255-3.1-14.721-7.52-29.137-11.71-43.591-3.94-13.652-7.19-27.685-14.37-40.074-7.69-13.307-16.42-26.002-21.06-41.03-.48-1.606-1.85-2.945-3.24-5.124Zm-848.268 39.041c.405-.114.81-.191 1.215-.306-.11-2.026-.147-4.053-.368-6.041-.81-6.807-1.768-13.575-2.541-20.381-2.578-22.523-1.879-45.313-6.372-67.797-2.836-14.148-3.093-28.947-3.941-43.477-.699-12.16.111-24.473-1.031-36.556-1.952-20.955-.7-41.795 1.142-62.52 2.541-28.488 5.488-57.014 11.675-85.004 1.031-4.665.147-9.827.147-15.64-7.145 6.348-13.7 11.74-19.74 17.667-4.531 4.474-9.466 9.1-12.412 14.721-9.907 18.776-15.1 38.889-13.443 60.57a2047.17 2047.17 0 0 1 3.278 49.71c.479 8.68-.516 17.475.516 26.04 2.835 23.861 3.903 47.99 10.128 71.353 2.909 10.975 4.64 22.332 7.881 33.191 4.641 15.525 9.981 30.859 15.432 46.116 2.21 6.309 5.561 12.236 8.434 18.354Zm810.697-62.328c-.774 1.72-1.179 2.218-1.216 2.715-1.399 12.389-4.677 24.931-3.756 37.129 1.473 19.311 5.009 38.544 9.134 57.472 3.867 17.781 9.649 35.103 14.51 52.655 5.339 19.234 10.679 38.506 15.949 57.778.44 1.606 1.25 3.747.62 4.895-2.32 4.397.93 6.959 2.51 10.056 1.18 2.256 2.98 4.245 3.9 6.615 3.98 10.478 7.77 21.032 11.6 31.547 7.92 21.758 15.8 43.477 20.81 66.344 4.72 21.413 6.89 42.942 8.03 64.699.7 13.307 1.4 26.653 2.06 39.96 1.44-1.377 1.92-2.868 2.18-4.436 1.18-7.801 2.28-15.64 3.5-23.44 1.62-10.669 3.57-21.299 4.86-32.006.66-5.583.15-11.28.37-16.94.73-16.366-1.7-32.082-7-47.606-5.12-15.028-9.43-30.4-13-45.925-2.32-10.018-6.37-18.813-11.49-27.417-9.17-15.41-18.6-30.782-20.55-49.48-.78-7.38-1.51-14.798-2.51-22.178-.99-7.342-2.36-14.646-3.53-21.949-.08-.421.14-.88.33-1.3 4.12-11.548 1.29-22.791-1.4-34.033-2.32-9.674-4.72-19.31-6.93-29.023-1.58-6.921-2.32-14.071-4.49-20.763-4.68-14.378-9.207-28.87-16.462-42.177-2.357-4.206-5.046-8.298-8.029-13.192ZM875.43 576.268c-.626.994-1.031 1.453-1.215 2.026-5.341 15.755-10.718 31.547-15.948 47.339-.368 1.109-.11 2.715.442 3.786 8.434 16.557 14.29 33.956 17.384 52.425 1.842 10.936 3.793 21.834 5.966 32.694 2.763 13.88 6.372 27.684.295 41.603-.074.153.221.421.442.803.479-.382 1.068-.65 1.4-1.109 8.507-12.542 18.23-24.434 25.228-37.856 10.865-20.916 14.437-44.242 15.432-67.835.405-9.292-.295-18.622-.737-27.914-.184-3.977-.589-8.03-1.657-11.854-1.51-5.391-3.831-10.515-5.562-15.83-4.824-14.684-9.465-29.406-14.29-44.089-2.762-8.413-5.782-16.749-8.655-25.085-6.629 15.563-12.116 30.897-17.531 46.269-.331.917.185 2.256.553 3.327 3.204 8.947 7.513 17.627 9.539 26.843 3.057 14.11 5.119 28.526 6.482 42.903 1.694 17.437 2.394 34.989 3.167 52.502.221 4.818-.847 9.712-1.326 14.569-.626 0-1.215-.039-1.841-.039 0-6.921-.074-13.88 0-20.801.442-29.482-5.193-58.276-9.539-87.184-1.289-9.254-5.156-18.048-8.029-27.493ZM211.389 698.133c2.91 4.933 6.114 8.948 7.882 13.537 6.74 17.475 11.049 35.715 12.927 54.451 3.02 30.171-3.02 59.538-8.618 88.828-3.241 17.055-4.825 34.224-6.077 51.508-.957 13.345-1.547 26.728-2.615 40.073-.921 11.816-2.504 23.594-3.351 35.447-.737 10.631-.884 21.303-1.253 31.963-.036 1.23.185 2.49.295 3.71 1.252-.99 1.768-2.02 2.099-3.13 1.547-5.09 2.652-10.36 4.604-15.259 6.077-15.333 12.633-30.514 18.673-45.886 2.799-7.189 5.045-14.607 7.145-22.063 3.904-13.881 7.108-27.991 11.417-41.757 4.935-15.831 7.587-32.044 8.066-48.563.626-21.987-.258-43.936-4.899-65.617-3.278-15.372-6.298-30.744-13.627-44.701-5.524-10.553-11.527-20.916-17.567-31.164-1.916-3.288-4.715-6.003-7.219-9.062l-7.882 7.685Zm38.966-202.74c-2.688 3.327-4.64 5.583-6.445 7.992-10.018 13.345-10.644 22.752-2.725 37.627 1.878 3.556 1.767 7.227-1.105 10.133-2.578 2.6-5.783 4.589-8.508 7.074-4.788 4.283-9.355 8.833-14.179 13.039-5.856 5.048-11.749 9.904-15.948 16.787-5.045 8.26-7.918 17.322-9.981 26.614-5.193 23.517-10.422 47.11-14.474 70.856-2.062 12.045-1.583 24.549-2.246 36.823-.184 3.212-.332 6.463-.516 9.675 1.363-.841 1.878-1.874 2.431-2.868 4.493-8.298 8.765-16.71 13.553-24.817 5.746-9.674 12.117-18.966 17.863-28.64 6.666-11.243 13.037-22.676 19.335-34.147 7.735-13.996 15.579-27.914 22.761-42.216 7.145-14.263 13.664-28.908 20.146-43.515 2.173-4.856 2.431-10.171.184-15.334-4.014-9.139-7.992-18.278-12.043-27.416-2.468-5.66-5.12-11.166-8.103-17.667Zm-83.346-214.097c.627.153 1.216.268 1.842.421 7.071-26.652 24.418-46.077 40.881-64.929-.442-4.321-1.142-7.877-1.142-11.433 0-14.645.405-29.253.258-43.898-.11-9.139-.147-18.393-1.584-27.34-2.062-12.848-5.34-25.429-10.201-37.627-7.072-17.857-13.075-36.135-19.631-54.184-.405-1.07-1.583-1.873-2.394-2.791-.478 1.262-1.289 2.523-1.326 3.785-.073 5.316.774 10.745.074 15.984-1.805 13.536-4.64 26.958-6.335 40.533-3.793 30.208-8.065 60.417-6.776 91.007 1.215 28.029 2.688 56.02 4.235 84.01.111 2.218 1.363 4.321 2.099 6.462Zm404.723 577.86c.294-.039.552-.115.847-.153.258-4.971.663-9.942.7-14.913.036-10.057.478-20.152-.406-30.132-.736-8.26-3.056-16.405-4.714-24.588-2.209-10.898-4.125-21.795-2.209-33.038 2.43-14.224 4.751-28.487 6.85-42.788 1.657-11.357 2.062-22.752-.332-34.147-.552-2.639-1.546-4.283-4.161-5.239-9.65-3.48-15.948-11.472-21.693-19.463-5.635-7.916-10.165-16.711-14.806-25.352-6.003-11.128-12.117-22.255-15.026-34.874-2.578-11.127-5.451-22.14-8.066-33.267-6.224-26.461-15.321-52.196-17.494-79.727-1.768-22.293-4.935-44.472-7.513-66.726-.884-7.533-1.879-15.066-2.836-22.599-.958 1.912-.995 3.747-.958 5.544.626 16.902 1.179 33.803 1.989 50.704.442 9.598.516 19.273 2.026 28.679 3.462 22.102 7.476 44.127 11.638 66.076 3.941 20.955 8.581 41.756 12.522 62.673 3.351 17.781 5.709 35.753 9.244 53.457 2.578 12.963 6.114 25.696 9.686 38.43 2.836 10.057 6.519 19.884 9.65 29.864 6.813 21.796 13.59 43.63 20.256 65.464 2.983 9.828 6.004 19.655 8.508 29.597 2.099 8.336 4.898 16.519 4.272 25.467-.258 3.632 1.289 7.38 2.026 11.051Zm435.108-338.334c.29-.115.62-.23.92-.344-2.06-7.266-4.27-14.493-6.11-21.796-4.166-16.328-7.812-32.809-12.232-49.06-5.487-20.075-11.749-39.921-14.732-60.684-2.136-14.837-4.493-29.559-1.804-44.586 1.215-6.73 2.099-13.537 2.799-20.343.147-1.415-.884-3.862-1.989-4.321-6.372-2.677-12.817-5.392-19.446-7.074-6.003-1.492-13.553 2.294-15.874 7.227-6.924 14.569-13.7 29.214-20.403 43.897-.663 1.415-1.253 3.518-.7 4.78 2.541 6.271 4.935 12.772 8.434 18.508 9.428 15.563 17.089 31.891 22.54 49.365 2.173 6.96 4.898 13.575 9.98 18.967 3.278 3.479 6.482 7.074 9.429 10.859 8.765 11.243 17.568 22.446 25.965 33.956 4.751 6.615 8.803 13.766 13.223 20.649ZM38.99 502.965c-.332.076-.7.153-1.032.229-2.873 7.151-5.488 14.378-8.692 21.337-1.804 3.939-3.867 8.948-7.145 10.592-3.572 1.797-4.125 4.436-5.45 7.189-.81 1.606-1.584 3.25-2.616 4.741-4.566 6.539-9.318 12.925-13.737 19.579-1.068 1.567-1.842 3.9-1.584 5.735.405 2.945 1.584 5.851 2.762 8.642 4.494 10.898 9.613 21.528 13.554 32.656 5.046 14.263 9.318 28.832 13.59 43.362 4.825 16.29 9.281 32.694 13.995 49.022 1.547 5.315 3.389 10.477 5.083 15.754.405-.038.81-.076 1.252-.115.7-4.015 1.363-8.03 2.1-12.045 5.155-26.958 10.017-53.916 11.527-81.448 1.142-20.151-.847-39.997-5.45-59.46-4.53-19.081-10.129-37.856-15.322-56.784-.81-3.021-1.878-5.966-2.836-8.986Zm901.445 390.72c.515.076 1.031.153 1.51.229 3.167-11.51 6.813-22.943 9.428-34.605 3.131-13.881 6.077-27.915 7.845-42.063 1.731-13.995 1.878-28.182 2.725-42.292.442-7.456 1.142-14.912 1.363-22.369.405-14.645 1.289-29.291.589-43.898-.773-16.289-2.615-32.541-4.751-48.677-2.062-15.525-4.309-31.126-7.955-46.307-3.167-13.23-8.139-26.04-12.817-38.85-3.388-9.216-7.292-18.24-11.601-27.035-4.088-8.374-8.803-16.481-13.554-24.472-4.309-7.266-9.023-14.302-14.216-22.446-1.399 5.659-2.467 9.903-3.462 14.148-.147.574-.184 1.3.037 1.797 2.578 6.156 5.267 12.275 7.771 18.508 5.009 12.465 10.128 24.931 14.806 37.55 2.872 7.762 5.266 15.716 7.292 23.746 1.584 6.309 2.062 12.924 3.462 19.272 5.119 23.44 11.896 46.574 12.964 70.817.7 15.831 1.768 31.662 2.21 47.493.405 15.792-.074 31.623.331 47.415.258 9.675.958 19.043-1.031 28.832-4.604 22.331-4.493 45.121-3.572 67.873.184 5.124.405 10.248.626 15.334ZM205.018 1026.18c.442-4.24.81-7.23 1.031-10.21 1.436-21.909 2.836-43.782 4.309-65.692 1.326-19.961 2.063-39.959 4.346-59.805 2.799-24.052 6.445-48.028 10.607-71.888 5.893-33.88 2.615-66.841-7.661-99.229-1.878-5.965-4.382-11.892-9.98-16.213-2.615 3.326-5.193 6.424-7.477 9.751-.737 1.108-.994 2.791-.957 4.206.662 17.169 1.583 34.338 2.136 51.545.81 25.696-2.505 51.125-6.409 76.362-4.382 28.45-4.972 57.052-6.113 85.654-.479 12.045 1.068 24.244 2.246 36.289 1.842 18.698 6.482 36.82 11.933 54.68.368 1.15.994 2.3 1.989 4.55Zm-81.247-812.451c-13.148 9.445-24.786 20.152-30.495 36.48-3.278 9.406-7.992 18.278-12.19 27.302-5.377 11.586-10.607 23.134-13.222 35.906-2.32 11.433-5.267 22.828-9.06 33.802-6.077 17.552-13.664 34.568-19.52 52.196-5.083 15.219-8.397 31.05-13.038 46.383-1.326 4.436.295 8.642-1.989 13.498-4.235 8.948-5.856 19.272-8.25 29.1-2.32 9.406-4.088 18.966-6.408 28.334-2.062 8.26-4.64 16.405-6.813 24.626-1.658 6.118-3.094 12.313-4.604 18.469.368.23.736.459 1.142.65 3.977-5.124 8.58-9.865 11.711-15.525 3.83-6.921 6.446-14.607 9.54-21.987 1.51-3.594 2.946-1.912 4.64.344.92-2.409 1.547-4.588 2.578-6.577 4.272-8.489 6.408-17.857 10.717-26.384 6.482-12.772 12.117-26.002 17.937-39.118.662-1.53.994-3.824.405-5.239-1.731-4.168-4.162-7.992-5.967-12.083-.663-1.491-.405-3.403-.552-5.124 1.289.803 3.02 1.338 3.83 2.524 1.768 2.6 3.057 5.544 4.567 8.336l1.215-.115c1.99-6.653 4.42-13.154 5.82-19.922 1.767-8.604 2.136-17.513 4.05-26.079 2.91-13.039 6.888-25.811 9.982-38.774 2.578-10.783 5.082-21.643 6.74-32.579 3.093-20.381 3.277-41.259 10.901-60.875 4.788-12.351 9.392-24.588 18.01-34.797 3.204-3.824 5.561-8.489 8.323-12.772Zm-20.035 762.398c.368-.23.7-.497 1.068-.727-.368-1.414-.7-2.829-1.142-4.206-.884-2.868-2.025-5.697-2.725-8.642-2.762-11.204-5.672-22.407-7.955-33.726-1.62-8.145-3.205-16.519-3.205-24.817 0-19.999 1.695-39.997 1.253-59.919-.442-19.464-2.652-38.927-4.125-58.352-1.584-20.534-3.168-41.03-4.825-61.564-1.473-17.819-5.193-35.179-9.723-52.387-2.1-8.068-3.904-16.213-5.82-24.319-1.104 2.026-1.325 3.976-1.657 5.888-1.878 12.16-3.94 24.32-5.634 36.518-.7 4.894-.884 9.904-.884 14.837 0 3.632.847 7.227 1.141 10.859 1.142 14.263 2.32 28.526 3.315 42.789.59 8.183 1.252 16.404 1.179 24.626-.148 15.563-.958 31.087-1.105 46.65-.11 11.204 4.714 21.911 3.609 33.306-.258 2.524.074 5.201.626 7.724 4.42 20.343 8.471 40.801 13.553 60.991 3.462 13.651 7.882 27.187 17.053 38.2 1.878 2.218 4.014 4.168 6.003 6.271Zm476.061-459.052c-.331.076-.699.152-1.031.267 0 2.409-.221 4.818.037 7.189 1.179 11.739.884 23.44 4.236 35.141 3.277 11.395 3.867 23.67 8.139 34.988 3.499 9.216 6.371 18.661 9.797 27.876 4.272 11.51 8.36 23.134 13.332 34.3 6.813 15.334 11.822 31.126 14.99 47.645 1.178 6.156 3.351 12.083 5.045 18.163 1.51-14.263 1.695-28.296 3.168-42.177 2.762-26.575 5.598-53.075 3.904-79.88-.811-12.504-1.252-25.008-2.026-37.512-.11-1.644-.847-3.862-2.026-4.627-2.651-1.758-5.708-3.059-8.728-4.091-4.162-1.415-8.471-2.256-12.633-3.671-15.652-5.353-27.548-15.181-34.399-31.049-.442-.995-1.215-1.759-1.805-2.562ZM407.839 268.831c-5.708 1.3-11.343 2.179-16.72 3.938-9.576 3.098-18.452 1.3-27.365-2.676a443.004 443.004 0 0 0-25.67-10.554c-7.992-2.983-16.316-3.518-24.713-1.989-14.879 2.715-27.18 10.937-39.113 19.884-3.057 2.295-5.967 4.895-9.208 7.572 16.39 3.212 31.858 5.85 47.106 9.406 16.683 3.862 33.294 8.183 49.757 13.001 21.656 6.386 42.391 15.104 60.327 29.712.92.764 2.099 1.223 4.088 2.37-6.335-24.281-12.412-47.415-18.489-70.664Zm170.743 125.307c-.221-3.174-.258-6.003-.663-8.757-1.068-7.533-2.762-14.989-3.388-22.56-.847-10.478-.995-21.031-1.326-31.547-.221-7.762.147-15.601-.405-23.364-1.51-20.534-3.241-41.03-5.083-61.525a3578.592 3578.592 0 0 0-5.524-55.867c-.479-4.512-.368-10.133-2.873-13.192-3.278-4.053-2.541-8.03-3.13-12.198-.332-2.409-.516-4.894-1.142-7.227-3.241-11.548-6.924-22.943-9.907-34.568-4.457-17.36-14.511-30.743-27.365-42.024-2.615-2.294-6.961-3.976-10.238-3.594-6.077.727-4.678-4.397-6.077-6.998-1.621-3.02 1.62-2.944 3.277-3.9 2.763-1.606 5.341-3.556 7.993-5.353-.332-.574-.627-1.11-.958-1.683-4.604 2.294-9.171 4.589-14.511 7.227 4.42 9.292 8.213 18.355 12.89 26.882 4.346 7.953 6.446 16.289 6.851 25.237.147 2.868-1.032 6.31 3.351 7.036.405.077.737 1.185.995 1.874 2.909 7.418 5.782 14.836 8.728 22.255 2.431 6.156 5.709 12.121 7.329 18.507 4.052 16.06 6.703 32.503 11.197 48.41 8.176 28.679 13.258 57.702 13.774 87.642.405 21.949 1.547 43.86 2.431 65.77.147 3.327-.368 7.38 1.252 9.789 3.352 4.857 7.845 8.719 12.522 13.728Zm68.172 152.227c.553-.42 1.142-.879 1.694-1.3-2.652-6.883-5.414-13.689-7.918-20.649-10.386-28.678-22.209-56.707-35.762-83.971-1.547-3.098-2.799-6.463-4.825-9.177-8.839-11.701-17.899-23.249-26.848-34.836-1.842-2.37-3.72-4.741-6.225-7.915-.221 2.18-.442 3.059-.368 3.9.994 14.301 1.768 28.603 3.057 42.866.884 9.98 3.057 19.731 9.097 27.952 9.76 13.269 19.593 26.499 29.648 39.538a587.168 587.168 0 0 0 21.766 26.461c5.267 6.004 11.123 11.472 16.684 17.131ZM129.627 451.61c0-14.53.553-28.87-.184-43.133-.589-11.853-2.578-23.593-4.162-35.37-1.399-10.401-3.204-20.764-4.567-31.164-1.988-15.258-3.756-30.553-5.635-45.81-1.657-13.192-3.351-26.346-5.045-39.5-.405 0-.774.038-1.179.038-.221.803-.589 1.644-.626 2.447-.184 5.927-.405 11.854-.405 17.781-.074 19.502-.258 39.003.037 58.505.147 10.515 2.025 21.031 1.694 31.508-.516 15.678-2.578 31.241-3.388 46.919-.921 18.278-1.253 36.594-1.694 54.872-.074 3.174-.7 7.112.81 9.368 4.824 7.342 10.496 14.034 16.647 22.026.81-3.021 1.363-4.436 1.547-5.889 1.326-9.521 2.725-19.005 3.793-28.564.258-2.447.037-5.239-.884-7.495-1.473-3.441-2.283-6.08 3.241-6.539ZM206.822 9.995c1.032.153 1.842.344 2.652.42 19.262 1.377 32.558 13.04 43.165 28.22 11.454 16.366 21.877 33.459 32.815 50.207 11.27 17.208 25.928 31.012 42.06 43.019 9.023 6.73 19.004 12.083 28.506 18.125 9.502 6.003 19.004 12.083 28.506 18.163 1.215.803 2.32 1.835 3.388 2.868 4.567 4.359 9.134 8.718 14.033 13.421a1314.86 1314.86 0 0 1 3.793-12.733c-3.02-2.983-6.445-5.506-8.802-8.833-7.956-11.319-18.931-19.081-29.648-26.996-13.369-9.866-27.181-19.12-40.918-28.45-10.754-7.342-19.888-16.29-28.138-26.652-10.938-13.804-22.761-26.882-34.62-39.883-10.902-11.93-23.35-21.948-36.719-30.782-5.525-3.709-15.248-4.015-20.073-.114Zm-24.97 718.882c.294.191.626.383.921.536 4.787-6.233 9.612-12.466 14.4-18.737 3.167-4.13 7.882-7.227 8.213-13.307.037-.536.884-1.071 1.436-1.492 2.137-1.682 4.604-3.059 6.482-5.009 9.834-10.477 19.226-21.413 29.354-31.546 16.463-16.481 30.826-34.453 40.844-55.905 1.363-2.944 1.179-6.73 2.762-9.521 3.094-5.545 3.61-10.631-.184-15.946-.921-1.338-1.399-2.982-2.062-4.55-2.726-6.348-5.414-12.734-8.324-19.617-.921 1.492-1.547 2.333-1.952 3.251-3.315 7.609-6.335 15.41-9.944 22.866-7.145 14.799-14.327 29.635-22.024 44.127-8.913 16.749-18.194 33.306-27.659 49.71-7.477 12.925-15.579 25.429-23.24 38.239-3.278 5.506-6.04 11.28-9.023 16.901Zm636.971-339.251c.331-.574.957-1.568 1.51-2.562 4.567-8.336 8.876-16.825 13.737-24.97 4.825-8.068 4.862-15.945-2.136-22.216-6.261-5.621-13.516-10.057-20.404-14.952-7.808-5.506-18.93-2.37-23.165 6.157-3.205 6.462-5.856 13.269-8.398 20.037-6.445 17.092-8.471 35.064-9.17 53.228-.111 3.403.884 5.468 5.156 6.041 6.556-6.347 14.4-12.389 20.219-20.075 4.015-5.315 6.888-12.771 7.256-19.463.331-6.08-3.204-12.466-5.525-18.508-.736-1.95-2.209-3.862 0-4.856 1.068-.459 3.831 1.109 4.678 2.524 1.915 3.212 3.167 6.845 4.604 10.362 3.904 9.751 7.771 19.502 11.638 29.253ZM444.485 661.31c-.111-.459-.221-1.53-.589-2.486-7.219-17.666-14.253-35.408-21.84-52.922-5.488-12.618-11.933-24.778-17.679-37.282-6.445-13.995-12.595-28.105-18.857-42.177-.331-.688-.847-1.3-.957-1.491-1.179 33.611-2.32 67.491-3.462 100.605 6.85 1.377 14.253 1.721 20.772 4.474 6.114 2.562 11.307 7.495 16.757 11.586 8.692 6.462 17.31 13.154 25.855 19.693Zm340.638 108.75-1.325.344c5.082 44.586-2.873 88.14-9.282 131.923.995-.191 1.437-.497 1.842-.918.626-.65 1.289-1.262 1.768-2.027 17.126-25.046 31.784-51.354 36.535-82.25.921-6.042.7-12.275-4.272-17.437-6.63-6.883-12.633-14.416-18.857-21.72-2.21-2.523-4.272-5.238-6.409-7.915Zm-648.83-352.214-1.104.918c-.479 11.089-.516 22.216-1.658 33.19-.7 6.692.258 12.504 2.91 18.47 5.856 13.23 9.723 27.072 11.601 41.527.774 5.965 1.584 12.006 3.094 17.819.515 1.95 3.462 4.932 4.714 4.665 5.488-1.224 11.196-3.327 13.038-9.636 1.583-5.392 2.578-11.128 2.836-16.787.257-5.545-.332-11.242-1.326-16.748-3.094-17.361-9.244-33.688-17.642-48.946-4.714-8.603-10.938-16.327-16.463-24.472Zm41.765-16.672c3.241-10.63 6.261-21.146 9.723-31.509 3.168-9.483 6.998-18.698 10.276-28.143 4.972-14.416 3.351-29.558 4.162-44.395.221-3.9-1.437-5.009-4.751-5.353-3.057-.306-6.004-1.53-9.06-1.836-5.341-.535-10.681-.879-16.021-.841-3.094 0-4.604 2.027-4.346 5.506.515 6.539.626 13.116 1.178 19.655 2.247 27.761 4.604 55.522 7.035 83.283.073 1.415 1.326 2.715 1.804 3.633Zm563.791 45.886c1.068-.918 1.583-1.224 1.951-1.682 5.635-6.807 11.086-13.766 16.905-20.42 3.278-3.747 7.366-6.845 4.825-12.848-.147-.382.037-.918.037-1.377.736-20.036 3.204-39.806 9.355-58.887 2.32-7.227 4.824-14.416 7.918-21.299 4.677-10.4 16.131-16.289 25.155-12.35 9.244 4.053 18.415 8.871 25.339 16.824 3.719 4.283 6.703 9.254 10.201 14.225 1.621-1.95 4.678-4.015 5.046-6.539.405-2.715-1.142-6.233-2.725-8.756-7.072-11.128-17.347-17.475-29.832-19.77-4.715-.879-9.65-1.223-14.401-.917-8.986.535-18.194 2.868-23.571 10.515-6.74 9.636-12.927 20.152-16.905 31.241-7.402 20.649-14.216 41.604-17.531 63.514-1.436 9.139-3.499 18.355-1.767 28.526ZM104.325 258.812c-.479-.038-.957-.115-1.436-.153-5.12 12.772-9.244 26.002-9.944 39.806-1.326 26.194-8.066 51.24-13.848 76.516-1.694 7.341-3.941 14.492-6.003 21.872 10.643 1.415 20.403 2.753 30.826 4.13.7-11.281 2.026-23.402 2.063-35.524.036-12.924-1.474-25.811-1.731-38.735-.295-16.596 0-33.191.036-49.787.074-6.041.037-12.083.037-18.125Zm274.382 211.115c0 3.976-.184 6.538.037 9.1.7 8.069 1.583 16.099 2.283 24.129.737 8.603 1.363 8.489 9.613 10.248 10.533 2.217 20.44 6.653 28.653 14.071 7.477 6.769 14.474 14.072 22.135 21.567-.147-1.912-.147-3.25-.405-4.55-2.541-11.893-5.819-23.67-7.44-35.677-1.141-8.374-5.524-13.804-11.491-17.896-9.133-6.232-18.709-11.853-28.469-16.977-4.383-2.295-9.649-2.677-14.916-4.015Zm-185.696 53.839c-3.204.344-6.961.803-10.754 1.147-7.771.727-14.437 14.531-10.386 21.567.368.612 1.031 1.071 1.621 1.491 6.297 4.168 12.558 8.413 18.93 12.389 4.935 3.059 10.239 5.583 15.063 8.795 2.689 1.798 4.457 1.3 6.593-.65 7.034-6.347 14.216-12.58 21.214-18.966 2.32-2.103 3.683-4.283 1.252-7.801-2.173-3.135-3.057-7.15-4.788-10.63-.7-1.377-2.099-3.136-3.351-3.288-11.565-1.53-23.166-2.715-35.394-4.054Zm381.004-59.652c1.842 17.705-1.105 35.639 8.95 52.005 8.434 13.727 17.825 25.008 33.036 30.17 12.043 4.091 24.05 8.374 36.056 12.542.295.115.7-.229 2.173-.765-1.73-1.415-3.056-2.371-4.235-3.441-6.519-5.889-13.885-11.051-19.372-17.858-16.279-20.228-31.748-41.106-47.621-61.678-2.873-3.748-5.967-7.304-8.987-10.975ZM205.791 574.088a3455.57 3455.57 0 0 0-17.347-10.707c-1.51-.917-3.093-1.759-4.53-2.791-8.323-5.965-16.426-12.275-24.933-17.858-9.797-6.385-18.636-13.804-26.076-22.981-6.335-7.8-12.522-15.716-18.93-23.478-9.282-11.166-18.82-22.14-28.028-33.382-6.887-8.413-13.443-17.131-20.109-25.697-4.456 7.036-4.346 10.593.368 15.984 9.65 11.051 19.336 22.14 28.838 33.306 7.292 8.565 14.364 17.36 21.619 25.925 1.363 1.607 3.646 2.486 4.825 4.207 2.578 3.824 4.198 8.45 7.145 11.892 5.745 6.73 11.712 13.307 18.341 19.081 8.434 7.38 17.2 14.492 26.554 20.534 8.582 5.544 18.157 9.483 27.365 14.148 1.289-2.027 2.283-3.518 3.204-5.047.516-.842.958-1.759 1.694-3.136Zm815.489-144.962c.73-1.338 1.1-1.721 1.1-2.065.41-20.878 1.03-41.641-3.31-62.367-4.2-20.037-16.1-33.688-31.235-45.236-1.474-1.109-2.947-2.37-3.978-3.862-3.425-4.971-5.635-10.133-13.332-10.898-8.324-.841-16.279 0-24.382.918-.957.115-1.915.574-2.872.841.441.612.92 1.224 1.362 1.836 1.694-.115 3.425-.497 5.12-.344 4.566.42 9.244.497 13.59 1.797 5.487 1.606 10.68 4.206 15.947 6.462.921.382 1.878 1.033 2.431 1.836 3.351 4.818 7.329 9.368 9.723 14.645a657.983 657.983 0 0 1 16.686 40.609c2.35 6.309 3.42 13.154 4.75 19.808 1.25 6.385 1.69 13.001 3.09 19.348 1.29 5.354 3.35 10.592 5.31 16.672Zm-792.839 93.646c6.335-10.707 12.486-21.108 19.005-32.12-.442-.918-1.363-2.983-2.357-5.009-.958-2.027-1.952-4.015-3.352-6.883-21.73 9.712-39.739 24.434-58.154 39.806 15.873 1.491 30.679 2.906 44.858 4.206Zm53.698-256.465c-.11-.421-.257-.88-.368-1.3-32.005 3.25-62.795 12.733-95.058 19.884 2.321.765 3.536 1.3 4.825 1.529 9.171 1.912 18.525 3.098 27.438 5.774 11.638 3.48 22.835 1.874 32.742-3.823 10.791-6.195 20.367-14.646 30.421-22.064ZM156.992 33.627c.221-.46.405-.88.626-1.34-5.414-2.752-10.57-6.385-16.279-8.106-8.986-2.715-17.347-7.953-27.549-6.195-18.672 3.213-34.435 10.516-43.422 29.1-1.657 3.403-3.535 6.692-5.893 11.166 2.173-1.148 3.057-1.645 3.941-2.104 13.996-6.882 27.917-13.995 42.06-20.572 5.303-2.485 11.086-3.938 16.72-5.468 1.989-.535 4.531-.535 6.335.344 7.55 3.595 15.248 5.086 23.461 3.174Zm632.735 276.539c27.991-5.735 49.536 2.256 63.716 28.603 4.493-3.442 9.281-7.113 13.774-10.516-.589-2.065-.921-3.938-1.657-5.621-1.658-3.633-2.799-7.992-5.488-10.515-21.361-20.42-47.805-15.946-70.345-1.951Zm121.465 58.39c.81-1.758 1.547-3.059 2.099-4.435 2.725-6.883 5.046-13.957 8.139-20.649 6.335-13.728 13.112-27.187 19.668-40.839.736-1.567 1.841-3.709 1.362-4.971-1.399-3.632-3.535-6.959-5.782-11.127-1.436 3.097-2.725 6.003-4.125 8.91-.589 1.223-1.399 2.37-2.136 3.556-1.179-.918-2.983-1.606-3.462-2.83-1.878-4.818-5.451-5.468-9.723-4.971-3.978.497-6.556 2.677-8.14 7.495 3.205-.65 5.783-1.644 8.287-1.53 2.21.115 5.009.803 6.482 2.371 3.241 3.442 3.499 7.457.995 12.083-5.93 10.975-12.596 21.682-14.18 34.606-.074.689-.663 1.3-1.105 1.874-3.941 5.392-3.388 14.454 1.621 20.457ZM353.294 699.204c.295-.191.59-.42.884-.612-5.266-12.886-10.496-25.811-15.836-38.659-.479-1.185-1.547-2.332-2.652-2.944-7.513-3.977-15.137-7.724-22.651-11.701-4.566-2.409-9.096-4.856-13.406-7.686-4.53-2.944-8.802-6.347-13.148-9.521-.294.267-.626.535-.921.841 1.326 2.065 2.358 4.397 4.052 6.08 6.85 6.845 13.921 13.422 20.809 20.19 3.977 3.938 6.924 8.833 12.153 11.624 10.239 5.43 18.01 13.919 24.566 23.632 1.989 2.944 4.125 5.812 6.15 8.756Zm-23.939-52.654c-1.547-2.524-2.725-4.78-4.199-6.768a1649.73 1649.73 0 0 0-16.499-22.523c-.59-.765-1.437-1.491-2.321-1.873-3.94-1.683-7.881-3.365-11.896-4.742-6.408-2.218-7.071-1.874-10.791 3.709-.515.727-1.105 1.415-2.136 2.677 13.369 13.88 28.764 24.014 47.842 29.52ZM72.32 409.854c-.81 3.9-1.142 7.265-2.21 10.401-3.13 8.909.663 16.098 5.34 22.713 5.01 7.075 10.865 13.537 16.353 20.229 2.21 2.676 4.457 5.277 7.366 8.718.479-2.868.737-4.436 1.031-6.042-.589.459-1.142.88-1.73 1.339-.59-1.339-1.29-2.639-1.769-4.054-2.136-6.462-4.235-12.924-6.224-19.425-2.1-6.806-3.867-13.727-6.224-20.419-2.1-5.889-6.335-10.057-11.933-13.46Zm59.738 62.176c-.626 1.988-1.068 2.944-1.215 3.938-.921 7.189-1.289 14.531-2.873 21.567-1.179 5.238-.589 9.177 3.02 13.039 4.309 4.589 8.25 9.56 12.338 14.339l1.105-.688c-.553-17.857-4.604-34.835-12.375-52.195Zm-28.322 31.087c-.295.153-.553.345-.847.498 1.105 18.545 2.173 37.091 3.315 56.669 3.535-11.816 6.924-22.599 9.87-33.535.663-2.486.736-6.004-.516-7.992-3.462-5.506-7.808-10.477-11.822-15.64ZM1010.23 319.65c-.3.611-.59 1.185-.92 1.797 4.89 3.441 9.61 7.265 14.73 10.324 11.53 6.845 23.83 12.16 34.58 20.611 5.42 4.244 12.08 6.691 14.92 13.842.07.191.48.268 1.69.879-2.54-5.047-3.79-10.286-7-13.307-6.99-6.577-14.62-12.618-22.65-17.78-6.77-4.36-14.43-7.266-21.76-10.631-4.42-2.141-9.03-3.862-13.59-5.735Zm-87.253-15.411c-2.43-.267-3.72-.114-4.714-.573-4.788-2.141-7.329.612-8.765 4.627-1.989 5.468-4.162 11.051-5.009 16.786-.847 5.583-.184 11.434-.184 18.317 6.592-13.766 12.448-26.079 18.672-39.157Zm20.92-11.624.92.956c5.157-3.9 10.865-4.474 16.463-2.371 8.655 3.212 16.132 8.451 22.577 15.41 8.692 9.407 17.683 18.508 26.593 27.761.59.612 1.32 1.071 1.95 1.568-.15-1.95-.29-3.824-.52-6.653-9.61-8.604-21.21-16.634-29.901-28.22-3.315-4.398-8.619-7.189-13.038-10.669-7.661-6.08-15.616-3.977-23.534-.841-.774.268-1.032 1.988-1.51 3.059ZM361.692 1040.44c6.334-1.64 10.901-5.35 15.91-11.89 9.208-12.01 18.562-23.94 27.512-36.133 7.292-9.981 13.038-20.84 14.584-34.874-3.756 7.992-7.218 14.798-10.238 21.834-6.188 14.378-15.469 26.343-25.965 37.473-7.366 7.76-14.548 15.72-21.803 23.59Zm444.83-660.259c-3.499 13.345-7.256 26.499-4.015 40.456a23.187 23.187 0 0 0 4.051-6.921c2.063-5.392 6.188-10.095 3.831-16.863-1.879-5.353-2.615-11.089-3.867-16.672Zm-327.417-22.178c6.924.612 13.885 3.518 22.724.841-8.066-6.845-15.248-12.925-22.724-19.272v18.431ZM99.869 455.281c.11-.994.258-1.988.294-2.982.185-6.501.221-13.04.553-19.54.258-4.818-.737-6.08-5.34-7.342-1.51-.421-3.352-2.332-3.72-3.862-1.032-4.703-6.372-10.669-11.528-11.663 13.148 12.237 12.743 30.4 19.74 45.389Zm-20.404-53.725c-.22.65-.405 1.3-.626 1.95 10.202 2.409 14.953 11.663 22.208 19.77.7-7.304 1.253-12.963 1.768-18.278a3392.687 3392.687 0 0 0-23.35-3.442Zm51.378 136.588c-.221.229-.442.421-.663.65 5.708 11.969 11.454 23.899 17.162 35.868a27.28 27.28 0 0 1 1.658-.536c-.884-3.326-1.915-6.615-2.689-9.98-.773-3.441-1.289-6.959-1.952-10.401-.184-1.071-.184-2.409-.81-3.059-4.125-4.321-8.434-8.412-12.706-12.542Zm18.709 18.393c1.768 9.177 3.388 17.704 5.009 26.193.442.115.884.229 1.363.344 1.473-5.697 2.946-11.395 4.346-17.092.11-.459-.258-1.262-.663-1.568-3.278-2.639-6.593-5.201-10.055-7.877Zm35.872 24.472c1.032 7.916 1.916 14.722 2.947 22.599 3.351-6.462 6.113-11.892 8.986-17.437-3.941-1.682-7.439-3.212-11.933-5.162Zm118.04 27.952c-3.683-6.424-6.777-11.853-9.871-17.245-.478.115-.92.229-1.399.306-1.068 4.283-2.173 8.527-3.204 12.58 4.64 1.377 8.839 2.639 14.474 4.359Zm-13.885 34.224c-3.794-6.271-7.734-12.734-11.565-19.081-3.498 3.633-3.498 8.948.811 12.16 3.572 2.676 7.476 4.818 10.754 6.921ZM940.25 241.758c1.879 7.992 3.499 14.875 5.157 22.102 5.156-5.966 2.983-16.099-5.157-22.102Zm7.44 58.734c6.04-.879 11.528-1.682 17.347-2.524-7.108-4.856-13.995-3.938-17.347 2.524Zm-766.28 282.62c-.479.039-.921.115-1.4.153.626 5.774 1.253 11.587 1.879 17.36l1.657-.229c-.7-5.774-1.436-11.51-2.136-17.284Zm342.112-542.68c-.405-.305-.811-.573-1.216-.879-1.878 2.944-3.72 5.927-5.598 8.871.442.306.884.574 1.326.88a511.889 511.889 0 0 0 5.488-8.872Z"/><path fill="#fff" d="M703.066 928.901c-2.541 7.342-2.467 15.449-5.524 22.638-.553-.153-1.142-.345-1.694-.498 1.988-7.494 3.977-14.989 5.966-22.522.405.153.81.268 1.252.382Z"/></svg>