<svg width="90" height="90" viewBox="0 0 90 90" fill="none" xmlns="http://www.w3.org/2000/svg">
<g clip-path="url(#clip0_256_20154)">
<path d="M24.119 32.0407C27.7972 32.0407 30.779 29.0589 30.779 25.3807C30.779 21.7025 27.7972 18.7207 24.119 18.7207C20.4408 18.7207 17.459 21.7025 17.459 25.3807C17.459 29.0589 20.4408 32.0407 24.119 32.0407Z" fill="white"/>
<path d="M42.4791 35.4604V71.1004ZM24.1191 35.4604V71.1004Z" fill="white"/>
<path d="M42.4791 35.4604V71.1004M24.1191 35.4604V71.1004" stroke="white" stroke-width="13"/>
<path d="M48.2383 51.2997C48.2383 47.6997 50.5783 44.0997 54.7183 44.0997C59.0383 44.0997 60.6583 47.3397 60.6583 52.1997V71.0997H72.5383V50.7597C72.5383 39.7797 66.7783 34.7397 58.8583 34.7397C52.7383 34.7397 49.6783 38.1597 48.2383 40.4997" fill="white"/>
</g>
<defs>
<clipPath id="clip0_256_20154">
<rect width="90" height="90" fill="white"/>
</clipPath>
</defs>
</svg>
