<svg xmlns="http://www.w3.org/2000/svg" width="90" height="90" fill="none"><g clip-path="url(#a)"><path fill="#fff" d="M24.119 32.04a6.66 6.66 0 1 0 0-13.32 6.66 6.66 0 0 0 0 13.32ZM42.48 35.46V71.1Zm-18.36 0V71.1Z"/><path stroke="#fff" stroke-width="13" d="M42.48 35.46V71.1M24.12 35.46V71.1"/><path fill="#fff" d="M48.238 51.3c0-3.6 2.34-7.2 6.48-7.2 4.32 0 5.94 3.24 5.94 8.1v18.9h11.88V50.76c0-10.98-5.76-16.02-13.68-16.02-6.12 0-9.18 3.42-10.62 5.76"/></g><defs><clipPath id="a"><path fill="#fff" d="M0 0h90v90H0z"/></clipPath></defs></svg>