<?xml version="1.0" standalone="no"?>
<!DOCTYPE svg PUBLIC "-//W3C//DTD SVG 20010904//EN"
 "http://www.w3.org/TR/2001/REC-SVG-20010904/DTD/svg10.dtd">
<svg version="1.0" xmlns="http://www.w3.org/2000/svg"
 width="642.000000pt" height="675.000000pt" viewBox="0 0 642.000000 675.000000"
 preserveAspectRatio="xMidYMid meet">

<g transform="translate(0.000000,675.000000) scale(0.100000,-0.100000)"
fill="#000000" stroke="none">
<path d="M0 3375 l0 -3375 3210 0 3210 0 0 3375 0 3375 -3210 0 -3210 0 0
-3375z m3625 3265 c210 -15 367 -60 515 -146 106 -62 107 -60 -21 -68 -503
-31 -758 -119 -988 -344 -37 -37 -119 -127 -182 -201 -62 -73 -150 -164 -193
-202 -98 -83 -246 -172 -386 -232 -164 -69 -159 -69 -110 3 89 131 148 272
194 464 14 57 36 129 51 161 42 95 128 216 212 296 93 89 147 127 253 180 126
63 201 78 495 97 11 1 83 -3 160 -8z m-1396 -304 c7 -5 1 -19 -18 -44 -17 -20
-36 -58 -42 -84 -12 -42 -10 -54 14 -135 51 -166 59 -270 32 -398 -25 -117
-88 -268 -105 -248 -3 4 -14 35 -24 68 -25 85 -87 195 -155 278 -133 161 -187
343 -131 435 33 54 150 115 260 136 34 6 155 1 169 -8z m2177 -62 c302 -60
609 -229 833 -458 l55 -56 -53 21 c-83 31 -207 58 -301 65 -133 10 -250 -10
-590 -101 -184 -49 -271 -57 -545 -50 -195 5 -274 3 -360 -9 -165 -23 -336
-69 -464 -127 -35 -16 -65 -29 -67 -29 -3 0 22 23 53 51 96 86 196 198 253
284 149 224 448 387 778 425 103 12 311 4 408 -16z m-2756 -266 c1 -56 43
-138 126 -248 107 -142 157 -242 189 -375 l7 -30 -29 27 c-78 74 -190 121
-388 163 -76 16 -132 34 -155 49 -41 27 -70 79 -70 125 0 102 124 253 249 302
64 25 71 24 71 -13z m3419 -344 c96 -17 228 -57 286 -87 207 -104 419 -316
508 -507 67 -144 67 -143 -30 -49 -109 106 -192 165 -314 223 -152 74 -227 90
-409 90 -133 0 -185 -5 -367 -37 -347 -61 -513 -48 -727 57 -81 39 -276 171
-276 187 0 3 26 2 58 -3 31 -6 127 -8 212 -5 164 5 250 22 378 73 199 80 445
101 681 58z m-1633 -85 c243 -34 423 -216 441 -449 6 -85 -12 -201 -47 -293
-61 -162 -242 -340 -445 -437 -27 -14 -52 -25 -54 -27 -1 -1 6 -30 17 -65 103
-324 109 -559 21 -786 -37 -96 -94 -179 -139 -204 -43 -23 -113 -18 -238 18
-45 13 -84 24 -86 24 -2 0 -6 -75 -9 -167 -7 -192 -21 -260 -78 -378 -61 -127
-130 -188 -339 -301 -275 -148 -387 -195 -785 -326 -148 -49 -286 -99 -305
-112 -50 -34 -95 -81 -142 -147 -40 -57 -41 -58 -65 -42 -13 9 -31 29 -39 45
-18 34 -29 30 -44 -17 -6 -19 -16 -35 -21 -35 -6 0 -44 14 -84 31 -78 32 -125
71 -184 154 l-35 48 55 -43 c52 -41 164 -100 192 -100 7 0 19 16 25 34 24 67
146 154 282 201 25 9 128 38 230 65 284 75 489 150 728 266 270 131 384 219
448 346 65 129 130 358 150 531 4 32 10 60 15 62 4 3 56 -10 116 -29 166 -51
157 -51 198 -15 47 41 112 176 124 258 15 91 -3 266 -57 574 -16 86 -26 159
-24 162 3 3 13 5 22 5 60 0 200 91 297 193 190 200 282 461 210 597 -53 100
-171 210 -284 262 -56 26 -83 33 -156 36 -103 5 -151 -6 -263 -60 -104 -51
-194 -119 -286 -217 l-75 -79 -94 14 c-234 35 -449 37 -617 5 -156 -31 -356
-161 -504 -329 -21 -23 -38 -38 -38 -34 0 4 22 44 49 88 81 131 184 233 316
309 16 10 12 15 -31 46 -112 80 -186 119 -230 119 -50 0 -158 -52 -186 -90
-22 -30 -40 -124 -36 -185 l3 -45 63 40 c57 36 195 110 182 97 -3 -2 -44 -35
-91 -73 -135 -108 -206 -173 -254 -236 -55 -69 -70 -105 -80 -183 -13 -118
-70 -173 -345 -341 -283 -172 -468 -324 -580 -475 -51 -67 -110 -182 -110
-211 0 -15 4 -15 47 -2 67 20 475 19 603 -1 90 -15 140 -34 140 -54 0 -14 -59
-70 -91 -86 -25 -13 -32 -13 -62 1 -27 13 -41 14 -74 5 -40 -11 -72 -38 -180
-152 l-52 -55 58 -134 c80 -186 96 -215 134 -244 53 -40 214 -113 349 -157
168 -55 219 -55 353 -1 109 44 257 113 463 216 72 36 132 64 132 62 0 -3 -44
-37 -97 -76 -219 -162 -416 -278 -554 -326 -67 -24 -84 -26 -179 -21 -135 7
-234 39 -383 123 -61 35 -114 64 -118 64 -11 0 -53 -58 -78 -108 -74 -146
-101 -398 -61 -554 22 -85 78 -119 288 -173 l87 -22 -67 -8 c-116 -13 -256 -3
-308 23 -55 26 -97 90 -134 202 -42 127 -43 171 -6 281 17 52 51 130 75 174
l43 79 -63 68 c-48 51 -68 80 -80 120 -27 89 -46 236 -51 393 -3 83 -7 159 -9
170 -3 11 -23 33 -46 49 -58 41 -99 101 -99 145 1 137 143 345 426 623 120
118 184 174 375 327 27 23 39 43 53 92 23 83 45 104 309 295 l43 31 -8 89 c-4
49 -5 108 -2 131 8 56 56 111 135 153 58 31 66 32 138 27 56 -4 88 -12 122
-31 44 -25 145 -121 165 -159 10 -17 14 -17 90 4 72 21 98 23 314 21 129 -1
280 -5 334 -10 l100 -9 71 62 c160 140 350 234 515 255 30 4 56 8 57 9 1 0 37
-4 79 -10z m11 -299 c58 -26 98 -62 125 -114 30 -59 22 -181 -17 -259 -43 -86
-127 -181 -223 -253 -48 -35 -90 -64 -93 -64 -3 0 -9 31 -12 69 -10 124 -97
274 -232 400 -36 33 -65 64 -65 69 0 5 18 29 39 53 61 69 124 98 271 123 53 9
161 -3 207 -24z m720 -237 c83 -25 99 -27 283 -27 168 0 207 3 284 22 142 36
262 52 381 52 447 0 798 -208 988 -586 123 -245 173 -564 148 -953 -12 -202
-23 -256 -35 -181 -13 80 -78 265 -132 372 -90 181 -164 275 -325 413 -243
207 -498 345 -864 465 -444 146 -527 175 -605 216 -126 65 -229 158 -279 252
l-12 23 40 -20 c22 -12 79 -33 128 -48z m-2188 -166 c-36 -34 -81 -82 -100
-107 -32 -41 -34 -50 -34 -118 0 -69 2 -75 29 -99 29 -24 34 -25 112 -19 71 6
244 -7 265 -19 3 -3 -12 -24 -35 -47 -22 -24 -45 -51 -51 -61 -14 -26 -78 -45
-177 -53 -124 -10 -188 1 -229 37 -18 16 -37 29 -43 29 -6 0 -46 -18 -91 -40
-105 -53 -225 -150 -421 -342 -88 -87 -166 -158 -172 -158 -17 0 -15 93 2 133
18 43 41 61 355 271 358 240 322 210 315 271 -8 64 13 108 87 189 43 48 232
196 249 195 3 0 -25 -28 -61 -62z m2448 -240 c112 -39 270 -133 190 -113 -78
19 -180 26 -254 17 -111 -14 -179 -41 -273 -106 -129 -91 -249 -116 -382 -79
-59 17 -77 34 -35 34 39 0 119 45 222 125 180 139 224 157 365 151 68 -3 116
-11 167 -29z m468 -262 c473 -100 840 -396 986 -795 59 -163 89 -345 89 -543
0 -98 -21 -299 -38 -362 -8 -30 -9 -29 -21 19 -27 108 -108 231 -227 347 -155
148 -349 263 -642 377 -259 102 -367 187 -458 366 -100 195 -209 329 -364 448
-38 28 -67 55 -64 59 10 16 186 72 284 89 127 23 333 21 455 -5z m-1300 -150
c132 -93 234 -229 281 -372 26 -79 29 -101 28 -213 -1 -140 -14 -204 -69 -328
-42 -96 -50 -157 -31 -242 7 -36 13 -66 11 -68 -6 -7 -114 106 -140 148 -91
144 -117 335 -79 585 25 169 1 363 -62 487 -36 72 -37 72 61 3z m397 -83 c242
-129 437 -394 555 -752 102 -310 139 -650 93 -870 -32 -155 -117 -352 -205
-475 -48 -68 -178 -211 -205 -225 -16 -8 -16 -5 -2 43 7 29 16 111 19 182 8
210 -28 370 -137 605 -72 154 -99 242 -107 342 -8 101 6 165 72 336 32 82 59
170 65 211 26 182 -51 391 -212 580 -80 95 -75 97 64 23z m908 -804 c206 -112
395 -276 484 -420 210 -339 131 -737 -231 -1175 -231 -279 -550 -532 -898
-713 -212 -110 -268 -142 -370 -208 -298 -193 -521 -415 -622 -619 l-38 -77
-3 50 c-6 109 54 305 145 474 160 296 497 673 893 999 185 152 321 296 421
442 97 143 175 340 199 501 16 104 8 301 -15 408 -23 105 -87 263 -145 361
-28 45 -50 84 -50 85 0 6 153 -66 230 -108z m-1495 -187 c329 -233 541 -509
620 -806 22 -83 30 -273 16 -365 -53 -345 -293 -676 -674 -932 -200 -134 -303
-266 -373 -478 -26 -80 -28 -96 -28 -266 l-1 -180 -32 40 c-54 68 -103 158
-126 231 -18 57 -22 92 -21 190 0 107 4 130 32 212 59 173 141 318 336 588
235 327 325 482 360 620 96 378 40 826 -140 1123 -25 41 -39 70 -32 66 7 -4
36 -23 63 -43z m-253 -171 c46 -86 110 -256 134 -355 30 -124 27 -399 -4 -515
-50 -183 -146 -343 -469 -779 -107 -145 -218 -318 -263 -413 -67 -140 -85
-210 -83 -333 1 -117 30 -223 88 -319 19 -32 34 -61 31 -63 -2 -2 -32 8 -67
22 -339 142 -578 409 -661 738 -28 112 -22 289 15 392 90 259 285 473 602 662
180 108 299 243 410 463 88 175 155 425 158 591 l2 85 36 -55 c20 -31 52 -85
71 -121z m-597 -629 c-63 -190 -253 -352 -513 -436 -177 -57 -257 -169 -269
-374 l-6 -95 -47 51 c-69 75 -94 132 -98 226 -4 69 -1 84 24 135 35 71 111
153 178 191 68 39 135 63 291 106 72 20 156 46 188 58 81 31 186 105 227 160
40 54 48 47 25 -22z m-1186 -592 c135 -154 215 -309 261 -503 11 -45 33 -160
49 -258 17 -97 40 -205 51 -240 44 -129 123 -258 216 -350 62 -62 40 -61 -64
1 -201 121 -388 314 -539 556 -156 251 -196 472 -122 671 18 48 93 164 106
164 3 0 22 -19 42 -41z"/>
<path d="M315 3438 c2 -13 16 -91 30 -173 36 -215 69 -335 100 -362 27 -23
112 -53 153 -53 23 0 22 2 -16 45 -74 84 -130 226 -172 436 -9 47 -17 61 -56
93 -41 34 -44 36 -39 14z"/>
<path d="M2046 4464 c-10 -14 -32 -34 -50 -45 l-31 -19 45 0 c71 0 113 43 78
78 -16 16 -20 15 -42 -14z"/>
</g>
</svg>
