<svg width="179" height="179" viewBox="0 0 179 179" fill="none" xmlns="http://www.w3.org/2000/svg">
<circle cx="89.0171" cy="89.0171" r="89.0171" transform="matrix(-1 0 0 1 178.89 0)" fill="#151515"/>
<path d="M63.8306 108.627C74.7481 114.086 85.8021 113.813 97.9751 112.202C113.887 110.101 127.616 96.4812 131.192 92.7146C105.535 99.7564 76.1401 101.067 50.2383 99.1832C54.1914 102.472 59.3915 106.031 63.8306 108.627Z" fill="white"/>
<path d="M131.983 91.4591C172.733 77.8122 135.804 77.976 117.381 75.7379C113.942 88.4022 72.8921 89.7396 67.7336 79.6409C61.5106 80.4324 33.3981 84.3082 30.696 90.5584C29.5497 93.2878 31.9515 94.98 35.3087 96.0172C67.4736 100.563 100.207 98.9978 131.792 91.4045C131.864 91.4591 131.928 91.5234 131.983 91.5956V91.4591Z" fill="white"/>
<path fill-rule="evenodd" clip-rule="evenodd" d="M68.9072 79.368L68.9166 79.3821L68.9072 79.5045V79.368Z" fill="black"/>
<path d="M68.9166 79.3821C75.7667 89.6545 115.144 86.1045 116.726 75.0829C108.119 59.3135 70.4602 60.3127 68.9166 79.3821Z" fill="#3B82F6"/>
</svg>
