<svg width="304" height="304" fill="none" xmlns="http://www.w3.org/2000/svg"><path d="M151.744 0a151.745 151.745 0 1 0 0 303.49 151.745 151.745 0 0 0 0-303.49zm0 28.058a123.68 123.68 0 0 1 87.459 36.227 123.697 123.697 0 0 1 36.227 87.459 123.682 123.682 0 0 1-76.356 114.272 123.69 123.69 0 0 1-134.792-26.815 123.685 123.685 0 0 1 87.462-211.143z" fill="#000"/><path d="M151.744 227.33c41.745 0 75.586-33.841 75.586-75.586s-33.841-75.586-75.586-75.586-75.586 33.841-75.586 75.586 33.841 75.586 75.586 75.586zM45.803 79.885c20.574 0 37.253-16.679 37.253-37.253S66.377 5.38 45.803 5.38 8.551 22.058 8.551 42.632s16.678 37.253 37.252 37.253z" fill="#DC7E32"/></svg>