<svg width="304" height="304" viewBox="0 0 304 304" fill="none" xmlns="http://www.w3.org/2000/svg">
<path d="M151.744 0C111.499 0 72.9022 15.9873 44.4447 44.4447C15.9873 72.9022 0 111.499 0 151.744C0 191.989 15.9873 230.585 44.4447 259.043C72.9022 287.5 111.499 303.488 151.744 303.488C191.989 303.488 230.585 287.5 259.043 259.043C287.5 230.585 303.488 191.989 303.488 151.744C303.488 111.499 287.5 72.9022 259.043 44.4447C230.585 15.9873 191.989 0 151.744 0ZM151.744 28.0577C167.987 28.0577 184.07 31.2569 199.076 37.4727C214.083 43.6886 227.718 52.7992 239.203 64.2845C250.688 75.7699 259.799 89.4049 266.015 104.411C272.231 119.417 275.43 135.501 275.43 151.744C275.43 167.987 272.231 184.071 266.015 199.077C259.799 214.084 250.688 227.719 239.202 239.204C227.716 250.69 214.081 259.8 199.074 266.016C184.067 272.232 167.983 275.43 151.74 275.43C135.498 275.429 119.414 272.23 104.408 266.014C89.4017 259.797 75.7669 250.686 64.282 239.201C52.797 227.715 43.6867 214.08 37.4714 199.073C31.256 184.067 28.0572 167.983 28.0577 151.74C28.0596 118.938 41.0917 87.4797 64.2871 64.2856C87.4825 41.0915 118.941 28.0577 151.744 28.0577Z" fill="black"/>
<path d="M151.744 227.33C193.489 227.33 227.33 193.489 227.33 151.744C227.33 109.999 193.489 76.1577 151.744 76.1577C109.999 76.1577 76.1577 109.999 76.1577 151.744C76.1577 193.489 109.999 227.33 151.744 227.33Z" fill="#DC7E32"/>
<path d="M45.8031 79.8849C66.3771 79.8849 83.0556 63.2064 83.0556 42.6324C83.0556 22.0584 66.3771 5.37988 45.8031 5.37988C25.2291 5.37988 8.55054 22.0584 8.55054 42.6324C8.55054 63.2064 25.2291 79.8849 45.8031 79.8849Z" fill="#DC7E32"/>
</svg>
