<svg width="180" height="180" fill="none" xmlns="http://www.w3.org/2000/svg"><path d="M89.337 80.22v21.152l-2.305 1.857V85.633h-4.34l6.645-5.413zm79.953-3.228c1.931 0 3.724.291 5.378.873 1.592.55 2.965 1.169 4.119 1.855l.202.122-2.39 4.55a7.144 7.144 0 0 0-.924-.612l-.226-.128-.244-.133-.261-.138c-.735-.398-1.609-.735-2.62-1.011a10.717 10.717 0 0 0-3.125-.46c-2.881 0-4.321.812-4.321 2.436 0 .95.521 1.624 1.563 2.023l.237.086.252.087.268.09.282.09.297.091.313.093.162.047.334.096.35.096.365.098.38.1.395.1.621.154.432.105c1.808.46 3.371.98 4.688 1.563 1.292.557 2.289 1.298 2.99 2.222l.09.122c.735.95 1.103 2.206 1.103 3.769 0 1.9-.49 3.432-1.471 4.596-.95 1.134-2.206 1.961-3.769 2.482-1.563.49-3.248.735-5.056.735-2.084 0-4.152-.291-6.205-.873-1.955-.554-3.702-1.303-5.24-2.247l-.23-.143 2.482-4.826c.399.398 1.058.843 1.977 1.333.95.49 2.053.904 3.309 1.24a15.38 15.38 0 0 0 3.999.506c2.819 0 4.229-.75 4.229-2.252 0-1.011-.659-1.731-1.977-2.16l-.317-.111-.332-.113-.349-.115-.364-.116-.381-.119-.396-.12a31.82 31.82 0 0 0-.204-.06l-.42-.123-.436-.124-.452-.127-.468-.128-.731-.195-.252-.066c-2.635-.674-4.596-1.532-5.883-2.574-1.256-1.072-1.884-2.604-1.884-4.596 0-1.777.444-3.264 1.332-4.459.92-1.195 2.145-2.099 3.678-2.712 1.562-.612 3.263-.919 5.101-.919zm-42.625.046c1.945 0 3.72.354 5.325 1.063l.192.086c1.654.736 3.064 1.731 4.228 2.988a13.062 13.062 0 0 1 2.757 4.183c.644 1.562.966 3.156.966 4.78 0 1.685-.337 3.31-1.011 4.872a13.505 13.505 0 0 1-2.851 4.137c-1.195 1.195-2.619 2.145-4.273 2.849-1.655.705-3.463 1.058-5.424 1.058-2.022 0-3.861-.353-5.516-1.058-1.654-.735-3.08-1.716-4.275-2.941a13.625 13.625 0 0 1-2.758-4.229A12.59 12.59 0 0 1 113.06 90c0-1.685.337-3.31 1.011-4.872a12.812 12.812 0 0 1 2.685-3.973l.166-.164a13.546 13.546 0 0 1 4.319-2.896c1.655-.704 3.463-1.057 5.424-1.057zm-110.9.138 11.17 25.694H21.05l-2.574-6.022H8.503L5.93 102.87H0l11.215-25.694h4.55zm32.9 0 7.078 9.1 7.079-9.1h6.021L58.685 90.184l9.836 12.686H62.5l-6.757-8.733-6.71 8.733h-6.114l9.883-12.686-10.204-13.008h6.067zm44.888-.118v17.193h4.46l-6.761 5.55V78.66l2.3-1.603zm33.021 4.944c-1.685 0-3.126.399-4.321 1.195a7.913 7.913 0 0 0-2.666 3.034 8.429 8.429 0 0 0-.92 3.815c0 1.379.323 2.696.967 3.953a7.93 7.93 0 0 0 2.71 2.987c1.196.766 2.62 1.15 4.275 1.15 1.685 0 3.11-.399 4.275-1.196 1.165-.827 2.053-1.853 2.666-3.08.612-1.256.92-2.543.92-3.86a8.29 8.29 0 0 0-.965-3.907 7.485 7.485 0 0 0-2.759-2.942c-1.165-.766-2.558-1.149-4.182-1.149zm-113.06 1.93-3.77 8.09h7.4l-3.63-8.09z" fill="#5A29E4"/></svg>