<svg width="89" height="100" fill="none" xmlns="http://www.w3.org/2000/svg"><path d="m88.175 0-8.033 89.99L44.034 100l-36.01-9.996L0 0h88.175z" fill="#264DE4"/><path d="m73.265 84.26 6.864-76.9H44.087v84.989l29.178-8.09z" fill="#2965F1"/><path d="m18.396 40.74.99 11.039h24.702V40.74H18.396zM44.087 18.398H16.409l1.003 11.038h26.676V18.398zM44.087 80.893V69.408l-.048.013-12.294-3.32-.786-8.803H19.878l1.547 17.332 22.612 6.277.05-.014z" fill="#EBEBEB"/><path d="m57.642 51.778-1.281 14.316-12.312 3.323v11.485l22.63-6.272.166-1.865 2.594-29.061.27-2.964L71.7 18.397H44.05v11.04h15.555L58.599 40.74H44.05v11.038h13.593z" fill="#fff"/></svg>