<svg width="50" height="77" fill="none" xmlns="http://www.w3.org/2000/svg"><path d="M12.5 77C19.4 77 25 71.25 25 64.166V51.333H12.5c-6.9 0-12.5 5.75-12.5 12.833C0 71.25 5.6 77 12.5 77z" fill="#0ACF83"/><path d="M0 38.5c0-7.085 5.6-12.834 12.5-12.834H25v25.667H12.5c-6.9 0-12.5-5.75-12.5-12.834z" fill="#A259FF"/><path d="M0 12.833C0 5.75 5.6 0 12.5 0H25v25.667H12.5c-6.9 0-12.5-5.75-12.5-12.834z" fill="#F24E1E"/><path d="M25 0h12.5C44.4 0 50 5.75 50 12.833c0 7.084-5.6 12.834-12.5 12.834H25V0z" fill="#FF7262"/><path d="M50 38.5c0 7.083-5.6 12.833-12.5 12.833S25 45.583 25 38.499s5.6-12.833 12.5-12.833S50 31.416 50 38.499z" fill="#1ABCFE"/></svg>