<svg width="73" height="100" fill="none" xmlns="http://www.w3.org/2000/svg"><path d="m47.405 36.117-10 9.312-9.284-18.733 4.796-10.77c1.212-2.15 3.194-2.178 4.407 0l10.081 20.191z" fill="#FFA000"/><path d="M37.409 45.425 0 80.219l28.126-53.523 9.283 18.729z" fill="#F57F17"/><path d="M58.371 21.877c1.792-1.707 3.636-1.131 4.103 1.293l9.725 56.58-32.257 19.364c-1.13.633-4.13.88-4.13.88s-2.729-.332-3.774-.908L0 80.219l58.371-58.342z" fill="#FFCA28"/><path d="M28.125 26.697 0 80.219 12.534 1.99c.47-2.425 1.845-2.672 3.085-.524l12.506 25.232z" fill="#FFA000"/></svg>