<svg width="250" height="250" fill="none" xmlns="http://www.w3.org/2000/svg"><path fill-rule="evenodd" clip-rule="evenodd" d="M245.285 113.863 136.131 4.715c-6.282-6.287-16.478-6.287-22.767 0L90.698 27.382l28.752 28.753c6.683-2.258 14.344-.744 19.671 4.583 5.351 5.36 6.855 13.088 4.542 19.792l27.711 27.711c6.703-2.31 14.439-.815 19.793 4.548 7.483 7.48 7.483 19.604 0 27.09-7.485 7.486-19.61 7.486-27.098 0-5.629-5.634-7.02-13.902-4.17-20.836L134.057 93.18l-.003 68.007a19.328 19.328 0 0 1 5.067 3.624c7.483 7.48 7.483 19.604 0 27.096-7.486 7.483-19.616 7.483-27.09 0-7.483-7.492-7.483-19.616 0-27.096a19.17 19.17 0 0 1 6.27-4.181V91.99a18.916 18.916 0 0 1-6.27-4.18c-5.67-5.663-7.034-13.982-4.129-20.944l-28.34-28.347-74.845 74.839c-6.29 6.293-6.29 16.489 0 22.776l109.154 109.151c6.284 6.287 16.478 6.287 22.77 0l108.644-108.643c6.287-6.29 6.287-16.492 0-22.779" fill="#DE4C36"/></svg>