<svg width="50" height="50" fill="none" xmlns="http://www.w3.org/2000/svg"><path d="M25 0C11.195 0 0 11.476 0 25.633c0 11.325 7.163 20.933 17.097 24.323 1.249.237 1.708-.556 1.708-1.233 0-.611-.023-2.63-.034-4.773-6.955 1.551-8.423-3.024-8.423-3.024-1.137-2.963-2.776-3.75-2.776-3.75-2.268-1.591.171-1.559.171-1.559 2.51.181 3.833 2.642 3.833 2.642 2.23 3.919 5.848 2.785 7.275 2.13.224-1.656.872-2.787 1.587-3.427-5.553-.648-11.39-2.846-11.39-12.668 0-2.798.976-5.085 2.576-6.88-.26-.646-1.116-3.253.242-6.784 0 0 2.1-.688 6.877 2.628 1.994-.568 4.133-.853 6.257-.862 2.125.01 4.265.294 6.263.862 4.772-3.316 6.868-2.627 6.868-2.627 1.36 3.53.505 6.137.245 6.783 1.603 1.795 2.573 4.082 2.573 6.88 0 9.845-5.848 12.013-11.415 12.648.896.795 1.696 2.355 1.696 4.746 0 3.43-.03 6.19-.03 7.035 0 .682.45 1.481 1.718 1.23C42.846 46.559 50 36.955 50 25.633 50 11.476 38.807 0 25 0z" fill="#161614"/><path d="M9.363 36.515c-.054.127-.25.165-.428.078-.181-.084-.283-.257-.224-.385.053-.131.25-.168.43-.08.182.084.285.259.222.387zm1.23 1.125c-.119.113-.352.06-.51-.119-.164-.178-.194-.417-.074-.532.123-.114.35-.06.513.118.164.18.196.418.071.533zm.844 1.44c-.153.108-.404.006-.559-.222-.153-.228-.153-.501.004-.61.155-.11.402-.012.558.214.153.232.153.506-.003.617zm1.427 1.666c-.138.155-.43.114-.643-.098-.218-.207-.28-.5-.142-.655.139-.155.432-.111.647.098.217.207.284.502.138.655zm1.843.563c-.06.2-.341.292-.624.207-.283-.088-.468-.323-.41-.526.058-.202.34-.297.626-.206.282.088.467.321.409.525zm2.1.239c.006.211-.234.387-.531.39-.3.007-.541-.164-.544-.372 0-.213.235-.387.533-.392.298-.006.541.164.541.374zm2.06-.081c.036.206-.17.418-.465.474-.29.054-.56-.073-.596-.277-.036-.212.174-.423.464-.478.296-.053.56.071.598.28z" fill="#161614"/></svg>