<svg width="56" height="53" fill="none" xmlns="http://www.w3.org/2000/svg"><path d="M28 31.173a4.666 4.666 0 0 0 4.659-4.673 4.666 4.666 0 0 0-4.66-4.672 4.666 4.666 0 0 0-4.658 4.672A4.666 4.666 0 0 0 28 31.173z" fill="#61DAFB"/><path d="M28 36.073c13.807 0 25-4.286 25-9.573 0-5.287-11.193-9.573-25-9.573S3 21.213 3 26.5c0 5.287 11.193 9.573 25 9.573z" stroke="#61DAFB" stroke-width="5"/><path d="M19.733 31.287c6.904 11.992 16.201 19.57 20.767 16.926 4.566-2.643 2.67-14.508-4.233-26.5C29.363 9.721 20.065 2.143 15.5 4.787c-4.566 2.643-2.67 14.508 4.233 26.5z" stroke="#61DAFB" stroke-width="5"/><path d="M19.733 21.713c-6.903 11.992-8.799 23.857-4.233 26.5 4.566 2.644 13.863-4.934 20.767-16.926C43.17 19.295 45.065 7.43 40.5 4.787c-4.566-2.644-13.863 4.935-20.767 16.927z" stroke="#61DAFB" stroke-width="5"/></svg>