<svg width="50" height="50" fill="none" xmlns="http://www.w3.org/2000/svg"><path d="M46.813 6.615c-5.58-6.645-16.6-8.614-24.568-4.39L8.253 9.648a15.988 15.988 0 0 0-2.618 1.708c-.8.643-1.517 1.354-2.139 2.121a12.857 12.857 0 0 0-1.568 2.443 11.743 11.743 0 0 0-1.196 4.975c-.013.777.052 1.553.194 2.32.141.768.359 1.525.65 2.262.29.738.654 1.454 1.087 2.142-.298.377-.573.766-.824 1.166-.252.4-.478.81-.68 1.23a11.857 11.857 0 0 0-.894 2.597c-.4 1.867-.347 3.782.156 5.632.25.922.61 1.822 1.075 2.685a13.842 13.842 0 0 0 1.693 2.456c5.58 6.645 16.6 8.614 24.567 4.39l13.992-7.392a15.98 15.98 0 0 0 2.616-1.71 14.357 14.357 0 0 0 2.138-2.122 12.826 12.826 0 0 0 1.568-2.442c.42-.857.732-1.748.931-2.658a11.78 11.78 0 0 0 .071-4.633 12.119 12.119 0 0 0-.65-2.261 12.996 12.996 0 0 0-1.089-2.14c.298-.377.573-.767.825-1.167.25-.4.478-.81.68-1.23a11.746 11.746 0 0 0 .9-2.597 11.952 11.952 0 0 0-.158-5.631c-.251-.923-.611-1.822-1.076-2.685a13.892 13.892 0 0 0-1.691-2.456" fill="#FF3E00"/><path d="M20.878 44.027a13.264 13.264 0 0 1-6.662-.281 11.93 11.93 0 0 1-2.949-1.365 10.265 10.265 0 0 1-2.32-2.038 8.271 8.271 0 0 1-1.018-1.476 7.598 7.598 0 0 1-.647-1.614 7.169 7.169 0 0 1-.025-3.658c.023-.091.05-.181.077-.27a6.575 6.575 0 0 1 .19-.533l.264-.671.718.446a18.962 18.962 0 0 0 2.613 1.322 20.33 20.33 0 0 0 2.843.938l.537.13-.048.446c-.026.304.012.61.112.903.05.146.114.288.193.425a3.09 3.09 0 0 0 .98 1.005c.268.174.568.312.888.41.32.1.655.156.995.17a3.941 3.941 0 0 0 1.235-.144 3.192 3.192 0 0 0 .634-.255l13.97-7.422c.172-.09.331-.193.477-.31a2.64 2.64 0 0 0 .388-.387 2.19 2.19 0 0 0 .451-.928 2.205 2.205 0 0 0-.032-1.021 2.25 2.25 0 0 0-.197-.487 3.081 3.081 0 0 0-1.008-1.057 3.61 3.61 0 0 0-.888-.41 4.027 4.027 0 0 0-2.007-.084 3.518 3.518 0 0 0-.858.312l-5.365 2.836a11.466 11.466 0 0 1-1.372.608 11.25 11.25 0 0 1-1.466.428 13.25 13.25 0 0 1-6.65-.284 11.914 11.914 0 0 1-2.942-1.363 10.256 10.256 0 0 1-2.319-2.033 8.306 8.306 0 0 1-1.013-1.477 7.586 7.586 0 0 1-.644-1.614 7.176 7.176 0 0 1-.086-3.384 7.358 7.358 0 0 1 1.498-3.077c.75-.927 1.726-1.714 2.863-2.31l14.014-7.422a11.257 11.257 0 0 1 1.364-.608 11.351 11.351 0 0 1 1.458-.429 13.286 13.286 0 0 1 3.355-.285c1.13.048 2.244.239 3.304.567 1.06.327 2.054.788 2.948 1.364a10.266 10.266 0 0 1 2.32 2.04c.397.462.739.956 1.018 1.475.28.519.497 1.059.648 1.614a7.178 7.178 0 0 1 .093 3.386 6.548 6.548 0 0 1-.146.547 6.415 6.415 0 0 1-.187.538l-.267.67-.714-.446a18.8 18.8 0 0 0-2.62-1.333 20.594 20.594 0 0 0-2.852-.945l-.538-.13.05-.446a2.186 2.186 0 0 0-.1-.909 2.546 2.546 0 0 0-.47-.825 3.084 3.084 0 0 0-.7-.6 3.559 3.559 0 0 0-.885-.4 3.97 3.97 0 0 0-2.212-.018 3.828 3.828 0 0 0-.43.156 3.32 3.32 0 0 0-.204.099l-13.997 7.41c-.17.089-.33.193-.474.31a2.67 2.67 0 0 0-.388.385c-.113.14-.208.288-.284.443a2.142 2.142 0 0 0-.168.482c-.036.17-.05.342-.046.514.012.344.105.683.274.997.085.156.188.306.308.446.193.23.428.435.696.607.267.173.564.31.88.41a4.005 4.005 0 0 0 1.992.09 4.18 4.18 0 0 0 .442-.13 3.206 3.206 0 0 0 .416-.183l5.364-2.83a10.46 10.46 0 0 1 1.374-.614 11.259 11.259 0 0 1 1.47-.427 13.276 13.276 0 0 1 3.356-.288c1.13.048 2.243.238 3.303.565 1.06.328 2.055.787 2.948 1.365a10.221 10.221 0 0 1 2.32 2.037c.397.463.738.957 1.018 1.477.28.518.496 1.06.647 1.614a7.16 7.16 0 0 1 .094 3.385 7.05 7.05 0 0 1-.556 1.603 7.66 7.66 0 0 1-.942 1.473 8.576 8.576 0 0 1-1.286 1.28 9.609 9.609 0 0 1-1.577 1.03L23.72 42.986a11.226 11.226 0 0 1-2.843 1.041z" fill="#fff"/></svg>