<svg width="50" height="30" fill="none" xmlns="http://www.w3.org/2000/svg"><path d="M25 0c-6.667 0-10.833 3.333-12.5 10 2.5-3.334 5.417-4.583 8.75-3.75 1.902.475 3.261 1.855 4.766 3.382C28.466 12.12 31.304 15 37.5 15c6.667 0 10.834-3.334 12.5-10-2.5 3.333-5.416 4.583-8.75 3.75-1.901-.475-3.26-1.856-4.766-3.383C34.034 2.88 31.196 0 25 0zM12.5 15C5.833 15 1.666 18.333 0 25c2.5-3.334 5.416-4.584 8.75-3.75 1.902.476 3.26 1.855 4.766 3.382C15.966 27.12 18.804 30 25 30c6.667 0 10.833-3.333 12.5-10-2.5 3.333-5.417 4.583-8.75 3.75-1.902-.475-3.261-1.856-4.766-3.383C21.534 17.88 18.696 15 12.5 15z" fill="#06B6D4"/></svg>