<svg width="50" height="50" fill="none" xmlns="http://www.w3.org/2000/svg"><path d="M49.835 7.4 26.347 49.348a1.277 1.277 0 0 1-2.223.01L.171 7.404c-.536-.939.268-2.076 1.333-1.886l23.513 4.197c.15.027.304.027.454 0l23.02-4.191c1.063-.193 1.87.936 1.344 1.877z" fill="url(#a)"/><path d="M36.217.012 18.836 3.414a.639.639 0 0 0-.514.588l-1.07 18.035a.639.639 0 0 0 .781.659l4.84-1.115a.638.638 0 0 1 .768.748l-1.438 7.032a.638.638 0 0 0 .811.737l2.99-.907a.638.638 0 0 1 .81.74l-2.285 11.044c-.143.691.777 1.068 1.16.475l.257-.395 14.163-28.23a.637.637 0 0 0-.691-.912l-4.981.96a.638.638 0 0 1-.735-.802L36.954.815a.638.638 0 0 0-.737-.803z" fill="url(#b)"/><defs><linearGradient id="a" x1="-.414" y1="8.902" x2="24.876" y2="43.291" gradientUnits="userSpaceOnUse"><stop stop-color="#41D1FF"/><stop offset="1" stop-color="#BD34FE"/></linearGradient><linearGradient id="b" x1="27.196" y1=".936" x2="32.395" y2="36.64" gradientUnits="userSpaceOnUse"><stop stop-color="#FFEA83"/><stop offset=".083" stop-color="#FFDD35"/><stop offset="1" stop-color="#FFA800"/></linearGradient></defs></svg>