<svg width="50" height="50" viewBox="0 0 50 50" fill="none" xmlns="http://www.w3.org/2000/svg">
<path d="M0.475708 17.4355C0.475708 17.4355 -0.742104 16.5482 0.71927 15.3633L4.12407 12.2859C4.12407 12.2859 5.09832 11.2498 6.12839 12.1525L37.548 36.1977V47.7279C37.548 47.7279 37.5327 49.5384 35.2341 49.3384L0.475708 17.4355Z" fill="#2489CA"/>
<path d="M8.57428 24.8677L0.475812 32.31C0.475812 32.31 -0.356361 32.9357 0.475812 34.0539L4.23581 37.5109C4.23581 37.5109 5.12888 38.4803 6.44817 37.3775L15.0338 30.7969L8.57428 24.8677Z" fill="#1070B3"/>
<path d="M22.7922 24.9291L37.6445 13.4655L37.548 1.99688C37.548 1.99688 36.9138 -0.506123 34.7978 0.796668L15.0337 18.9793L22.7922 24.9291Z" fill="#0877B9"/>
<path d="M35.2342 49.3541C36.0969 50.2465 37.1421 49.9542 37.1421 49.9542L48.7164 44.1891C50.1981 43.1684 49.9901 41.9015 49.9901 41.9015V7.47506C49.9901 5.96197 48.4576 5.43881 48.4576 5.43881L38.4259 0.550783C36.2339 -0.818684 34.7979 0.79698 34.7979 0.79698C34.7979 0.79698 36.6449 -0.546842 37.5481 1.99719V47.5179C37.5481 47.8307 37.4821 48.1385 37.3502 48.4155C37.0863 48.954 36.5129 49.4567 35.1378 49.2464L35.2342 49.3541Z" fill="#3C99D4"/>
</svg>
