<svg width="50" height="50" fill="none" xmlns="http://www.w3.org/2000/svg"><path d="M.476 17.436s-1.218-.888.243-2.073l3.405-3.077s.974-1.036 2.004-.133l31.42 24.045v11.53s-.015 1.81-2.314 1.61L.476 17.436z" fill="#2489CA"/><path d="M8.574 24.868.476 32.31s-.832.626 0 1.744l3.76 3.457s.893.97 2.212-.134l8.586-6.58-6.46-5.93z" fill="#1070B3"/><path d="m22.792 24.93 14.852-11.464-.096-11.47s-.634-2.502-2.75-1.2L15.034 18.98l7.758 5.95z" fill="#0877B9"/><path d="M35.234 49.354c.863.892 1.908.6 1.908.6l11.574-5.765c1.482-1.02 1.274-2.288 1.274-2.288V7.475c0-1.513-1.532-2.036-1.532-2.036L38.426.55c-2.192-1.37-3.628.246-3.628.246s1.847-1.344 2.75 1.2v45.52c0 .314-.066.621-.198.898-.264.539-.837 1.042-2.212.831l.096.108z" fill="#3C99D4"/></svg>