<svg xmlns="http://www.w3.org/2000/svg" width="60" height="121" fill="none"><path fill="#fff" fill-rule="evenodd" d="M22.442 3.456c-.314 1.055-.43 1.327-.712 2.432-.142.525-.277 1.09-.401 1.607-.03.252-.16.68-.2.977l-.04.11c-.015.102-.037.22-.067.32l-.003-.006c-.018.153-.062.322-.07.398l-.003-.007c-.011.061-.026.122-.033.184l-.004-.033c-.033.268-.084.54-.117.784l.022-.017c-.05.261-.062.428-.087.598-.018.168-.044.33-.099.557l-.003-.007c-.059.588-.216.908-.3 1.514.011-.076-.018.03-.022.022-.055.276-.117.57-.08.581-.044.2-.047.16-.07.184.019.002-.014.177-.05.333l.01-.073-.094.449.05-.082c-.061.236-.05.053-.094.282l.025.002a4.822 4.822 0 0 1-.116.42c-.04.128-.073.264-.106.42a73.446 73.446 0 0 1-.34 2.033c-.12.68-.237 1.349-.361 1.967l-.03.052c-.032.02-.01.35-.047.392l-.007.147c-.015.04-.033.125-.026.052-.022.134-.018.137-.025.235l-.04.141c-.095.526-.128.98-.216 1.536-.066.33-.142.808-.222 1.293-.084.484-.172.976-.241 1.335-.18 1.012-.58 2.153-.727 3.203a.465.465 0 0 0-.014.123c-.062.316-.113.635-.161.955l-.026.193c-.014.12-.04.288-.058.48-.04.383-.07.857-.073 1.221 0 .365.011.616.047.556.015-.03.04-.139.07-.35l.135-.96.004.023c.036-.26.058-.473.08-.664.025-.192.04-.365.047-.546.048-.052.073-.426.106-.546v.012c.015-.16.051-.321.084-.481.037-.16.077-.318.095-.472 0 .013.011.021-.004.09.037-.221.099-.524.125-.536.105-.528.288-1.26.328-1.605l.004.024c.018-.198.05-.25.087-.468a.08.08 0 0 1 .011-.024c.026-.214.128-.615.154-.787l.018-.008.08-.421-.033.156c-.033-.062.091-.313.117-.624a2.94 2.94 0 0 0 .037-.441c.003-.15.01-.301.043-.449.004-.144.011.13.03-.085.021-.004-.004.101.021.05.026-.212.073-.34.099-.6l.015-.008c.018-.34.116-.63.12-.858.04-.347.088-.224.11-.589l.043-.136c.03-.154-.007-.114.03-.284.01.013.047-.213.043-.111.084-.383.099-.788.227-1.289-.008-.114.055-.367.05-.452.015-.011.1-.51.07-.22 0 .026-.01.069-.014.065l.01.037c.085-.283.085-.527.143-.813-.022.084-.04.197-.037.12l.052-.266.003.058.084-.396-.03.052c.045-.193.088-.257.1-.481.003-.102-.055.181-.026-.026.03-.129.062-.292.091-.463.018-.086.033-.174.048-.262.014-.086.032-.164.05-.247-.025.027-.01-.06.008-.152l.018-.007c.051-.352.062-.12.12-.469l.004.033-.01-.098c.036-.32.069-.162.105-.518-.029.138-.05.058-.007-.11l.007.046c.018-.094.018-.126.037-.188-.004.058.014.034.044-.103v.096l.029-.266c.062-.197.11-.52.15-.598 0 0 .105-.43.098-.535 0 .09.055-.148.058-.076.004-.116.059-.45.103-.581l-.004.025a5.79 5.79 0 0 0 .113-.666c.03-.206.044-.417.088-.63-.022.017.022-.213-.011-.159.022-.229.076-.434.11-.604.04-.17.065-.304.047-.393.036-.207.066-.241.095-.346l-.008.05c.08-.387.103-.5.172-.785.03-.144 0-.174.066-.428-.004.086.018-.02.04-.115-.011.061-.011.081.029-.042 0-.018.004-.046.007-.072.004-.001.004-.006.004-.003.036-.16.026-.134.004-.06 0-.005-.004.001-.015.023.062-.16.117-.46.142-.475.12-.48.183-.828.281-1.227.026-.041.011.054-.014.17l.07-.282c.017.007-.034.164-.052.252.117-.329.157-.698.292-1.084l.011-.085.007-.023a.526.526 0 0 1 .022-.15c.033-.051.033.013.088-.18.058-.15.117-.439.168-.641-.033.107-.033.07-.026.022.03-.097.062-.148.077-.225l.022-.004c-.03.033.055-.258.058-.296.03-.051-.033.154-.029.18.113-.387.058-.193.172-.58.047-.212-.03.031-.019-.072.051-.184.091-.366.168-.571l-.04.06c.095-.346.16-.55.252-.774.168-.645.266-1.002.303-1.179.033-.176.01-.17-.04-.085a4.42 4.42 0 0 0-.18.398c-.058.146-.105.27-.105.27-.372.99-.478 1.526-.818 2.73ZM36.998 54.88l-.03 1.036c.008-.017.016-.278.03-1.035ZM41.913 35.753v-.163c-.008.003-.015.044 0 .163Z" clip-rule="evenodd"/><mask id="a" width="17" height="40" x="27" y="5" maskUnits="userSpaceOnUse" style="mask-type:alpha"><path fill="#fff" d="M27.178 5.332h16.1v39.502h-16.1V5.332Z"/></mask><g fill="#fff" fill-rule="evenodd" clip-rule="evenodd" mask="url(#a)"><path d="M41.557 29.42v.008c0 .013.007.028.007.04l-.007-.049Z"/><path d="M42.617 37.67c-.215-2.168-.2-2.751-.526-4.992-.141-1.07-.326-2.209-.534-3.25a12.08 12.08 0 0 1-.222-.938c-.074-.348-.149-.708-.238-.993l-.014-.23a5.999 5.999 0 0 1-.141-.632l.015.01c-.09-.293-.141-.632-.186-.778l.015.011-.081-.362.03.06a19.614 19.614 0 0 1-.342-1.527l-.03.046c-.177-1.019-.34-1.372-.51-2.291l.007.01c-.386-1.127-.423-1.827-.853-2.968.052.142 0-.067.008-.058-.163-.535-.326-1.108-.408-1.098-.111-.393-.067-.326-.052-.384-.03.01-.14-.328-.222-.634l.052.138-.252-.876-.015.187c-.111-.471.044-.136-.089-.58l-.052.017c-.156-.649-.178-1.045-.296-1.68-.312-1.306-.645-2.657-.942-3.994a77.5 77.5 0 0 1-.763-3.893l.015-.115c.052-.058-.23-.661-.193-.764l-.089-.28c-.007-.082-.037-.253.007-.114-.051-.264-.066-.268-.126-.454l-.03-.29c-.222-1.044-.51-1.909-.807-2.99-.29-1.318-1.142-3.718-1.668-5.086-.756-1.917-1.364-4.23-2.186-6.177a.915.915 0 0 0-.097-.224l-.652-1.812s-.778-2.196-1.282-3.552c-.252-.678-.445-1.143-.467-1.01-.022.132.104.87.563 2.582l-.022-.042c.311 1.006.534 1.634.837 2.3-.037.131.29.817.349 1.056l-.015-.02c.274.587.408 1.26.675 1.825-.015-.02-.045-.027-.09-.16.164.422.393.996.356 1.041.386 1.009.882 2.43 1.179 3.058l-.03-.04c.185.356.178.477.348.885 0 .025.008.055.008.05.185.39.415 1.18.541 1.502l-.015.03.274.806-.096-.305c.119.082.148.627.393 1.2.163.554.519 1.073.645 1.66.118.265-.126-.226.022.177-.037.025-.081-.184-.089-.07.133.398.156.67.319 1.162l-.03.029c.237.636.29 1.238.445 1.662.185.67.015.47.237 1.163l.015.284c.066.303.104.206.156.546-.03-.016.066.427 0 .236.118.767.378 1.533.504 2.552.096.208.163.72.237.876-.015.032.207 1.015.037.456a.4.4 0 0 1-.023-.13l-.044-.062c.052.584.245 1.036.363 1.604-.03-.17-.081-.393-.022-.247l.104.527-.052-.104.163.787.007-.115c.075.386.045.533.193.955.074.19-.044-.371.067.03.096.516.252 1.288.407 1.94.023-.068.06.107.119.285l-.03.028c.23.678-.007.269.208.944l-.037-.055.118.165c.23.6.023.348.297 1.01-.082-.269.037-.144.111.192l-.052-.076c.06.181.09.24.119.364-.052-.106-.067-.047.015.221l-.09-.171.2.496c.075.404.305 1.016.305 1.188 0 0 .222.853.326 1.033-.074-.16.044.304-.03.182.104.206.304.847.326 1.114l-.014-.048c.207.967.444 1.637.592 2.516.03-.047.104.416.134.293.237.893.244 1.665.46 1.964.096.41.066.494.103.708l-.03-.097c.178.769.223.993.349 1.565.074.28.155.313.237.826-.06-.161-.015.047.022.24-.03-.123-.044-.159-.022.096.015.034.03.087.044.138v.008c.067.319.067.261.038.112.007.007.014-.006.014-.053.023.336.156.927.112.974.163.963.31 1.65.437 2.456-.015.094-.06-.092-.104-.326l.082.572c-.037 0-.06-.327-.09-.502.03.688.238 1.4.275 2.207l.044.163.008.049c.015-.005.052.174.067.292-.015.117-.067 0-.023.396.008.316.111.89.17 1.3-.014-.223.008-.152.03-.058.023.199 0 .316.03.468l-.037.023c.03-.082.096.515.119.587-.015.116-.06-.306-.09-.353l.134 1.195c.074.422.03-.081.089.118.044.376.111.74.126 1.173l.022-.14c.104.703.141 1.126.149 1.604.83 5.23.526 1.072.526 1.072-.119-2.076-.326-3.136-.608-5.597ZM34.648 27.1c.008.015.008.03.015.044-.007-.031-.007-.041-.015-.044Z"/><path d="M29.394-21.232c.096.108.155.236.23.346.037.08.066.163.066.283a3.29 3.29 0 0 1-.037.666 8.96 8.96 0 0 1-.26 1.182c-.051.188-.103.377-.17.57l-.207.614c-.074.226-.17.464-.237.731-.067.268-.141.558-.215.88-.274 1.228-.363 2.567-.334 3.782.067.575.06 1.595.2 2.267l-.007.265c.037.232.096.501.111.737l-.015-.013c.074.344.126.734.17.903l-.014-.013.081.419-.03-.07c.142.595.268 1.21.379 1.752l.03-.053c.214 1.162.4 1.564.615 2.608l-.008-.013c.111.322.193.61.252.878.06.276.104.535.141.8.089.525.156 1.06.326 1.732-.044-.168-.015.075-.022.063.111.626.23 1.295.304 1.295.074.458.037.376.015.44.03-.008.104.389.163.746l-.037-.163.163 1.024.037-.21c.06.547-.06.149.03.667l.051-.013c.097.755.082 1.206.141 1.94l.29 2.304c.096.772.17 1.555.251 2.334.17 1.554.356 3.079.497 4.498l-.022.13c-.045.061.192.77.155.884l.074.324c0 .094.023.29-.014.128.037.304.051.31.103.527l.008.33c.155 1.202.385 2.21.57 3.467.17 1.52.69 4.35.957 5.985.422 2.293.467 5.009.867 7.368 0 .078.044.276.052.273l.26 2.166.518 4.25c.111.813.2 1.376.252 1.233.052-.143.074-.992-.022-3.004l.022.052c-.104-1.19-.185-1.939-.348-2.75.059-.137-.112-.975-.126-1.256l.014.026c-.148-.717-.14-1.494-.274-2.186.008.027.03.04.052.2-.074-.507-.17-1.2-.126-1.242-.156-1.21-.334-2.913-.511-3.68l.022.052c-.104-.438-.09-.573-.178-1.065V27.1c-.111-.477-.208-1.405-.282-1.793l.023-.029-.149-.957.045.359c-.104-.113-.052-.732-.223-1.419-.089-.651-.378-1.293-.444-1.974-.09-.315.11.275 0-.201.044-.022.066.22.081.091-.096-.469-.081-.78-.2-1.358l.03-.028c-.186-.75-.186-1.438-.319-1.936-.148-.78.022-.538-.163-1.346l-.007-.323c-.037-.35-.09-.243-.119-.633.03.02-.044-.493.015-.269-.074-.881-.304-1.774-.356-2.939-.089-.246-.111-.832-.178-1.016.022-.033-.118-1.169.008-.519.007.056.014.156.007.15l.044.075c-.014-.665-.148-1.198-.2-1.853.008.195.03.453-.007.282l-.052-.61.044.126a36.908 36.908 0 0 0-.081-.915l-.015.129c-.03-.447.007-.61-.104-1.106-.051-.224.008.426-.066-.042a47.329 47.329 0 0 0-.223-2.244c-.03.076-.052-.128-.089-.336l.03-.028c-.163-.796.03-.303-.126-1.093l.037.067-.104-.201c-.17-.71.015-.397-.192-1.181.052.314-.052.158-.097-.231l.045.094c-.037-.214-.067-.284-.082-.427.037.125.06.061.008-.253l.074.205-.156-.587c-.037-.465-.208-1.187-.193-1.383 0 0-.148-.992-.244-1.21.066.194-.023-.354.037-.204a10.884 10.884 0 0 1-.17-.635 8.067 8.067 0 0 1-.149-.677l.015.055c-.245-1.105-.526-1.867-.704-2.865-.03.053-.126-.474-.149-.336-.266-1.017-.259-1.888-.474-2.24-.074-.469-.044-.562-.074-.805l.03.11a18.851 18.851 0 0 1-.193-1.796c-.037-.327-.104-.377-.104-.968.037.19.015-.05.015-.27.008.14.015.183.037-.106-.007-.04-.007-.103-.015-.162 0-.003.008-.014.008-.008 0-.368-.015-.305-.023-.134 0-.009-.007.006-.014.058.03-.38.044-1.063.096-1.106.007-.277.044-.53.067-.773a9.57 9.57 0 0 1 .081-.697c.037-.222.067-.44.104-.659.052-.217.096-.433.148-.659.052-.094.023.12-.037.382.052-.212.096-.425.156-.635.03.012-.074.368-.119.564l.727-2.447.014-.195.015-.053c-.015 0 .015-.21.03-.345.052-.127.081.023.148-.44.037-.183.067-.446.045-.737-.015-.147-.03-.299-.112-.46-.037-.087-.074-.136-.118-.194a5.587 5.587 0 0 0-.111-.161c.14.23.081.165.007.073-.06-.104-.126-.178-.17-.254a1.038 1.038 0 0 0-.186-.202l.015-.045c.022.049-.096-.067-.267-.173-.074-.06-.185-.097-.26-.138-.08-.035-.155-.047-.177-.053-.074-.037.03-.014.163.028.126.055.267.13.296.145-.103-.082-.214-.122-.296-.168-.089-.03-.163-.053-.222-.072-.126-.017-.2-.031-.274-.027l-.12.009a.51.51 0 0 0-.155.029c-.067.017-.14.036-.23.083a1.49 1.49 0 0 0-.289.192c-.37.428.097-.047-.059.17-.311.367-.408.814-.474 1.308.015-.052.03-.104.052-.155-.037.41-.015.735 0 1.026.022.291.052.548.089.822.2.738.46 1.28.704 1.66.244.382.467.606.63.73.318.248.348.197.2.022a4.876 4.876 0 0 1-.504-.766c-.156-.294-.252-.562-.252-.562a6.952 6.952 0 0 1-.386-1.48 5.5 5.5 0 0 1-.066-1.343c.03-.218.052-.433.133-.627.082-.197.2-.384.363-.508.082-.067.17-.1.267-.13.096-.008.2-.019.319.024.222.066.467.254.667.51Z"/></g><path fill="#fff" fill-rule="evenodd" d="m16.793 58.536.022.25c.008-.004 0-.069-.022-.25ZM33.403 45.175ZM20.07 67.492l-.015-.005-.067-.026.082.031Z" clip-rule="evenodd"/><path fill="#fff" fill-rule="evenodd" d="M15.882 55.561c.207 1.678.34 2.739.496 3.813.148 1.075.311 2.165.637 3.89.127.724.297 1.486.66 2.211.178.36.408.711.704 1.013.297.301.667.546 1.06.706l-.03-.015c.23.119.438.213.645.308.393.15.92.373 1.475.584.556.211 1.142.407 1.616.533l.363.138c.326.085.72.173 1.045.278l-.022.003c.245.05.512.109.749.163.23.049.437.09.556.111l-.023.005c.208.043.408.077.616.112l-.112-.007c.882.141 1.794.252 2.602.324l-.067-.042.6.055.527.02c.326.016.615.01.897.004l.43-.008.444-.022.482-.018.549-.037-.023.011c.49-.06.927-.144 1.342-.198.408-.07.793-.135 1.186-.208.763-.167 1.549-.343 2.475-.746-.23.098.112-.019.097-.004l.326-.123c.111-.047.215-.094.319-.139.2-.093.392-.18.563-.257.326-.157.534-.299.526-.33.6-.3.504-.226.593-.24-.015-.024.474-.329.927-.591l-.2.13c.222-.121.43-.26.63-.4l.622-.417-.282.113c.334-.204.386-.242.438-.258.037-.026.104-.033.348-.346l-.052-.02c.349-.445.504-.85.66-1.236.14-.395.274-.765.437-1.247.6-2.013 1.045-4.143 1.357-6.25.163-1.054.274-2.103.378-3.13.096-1.028.17-2.033.222-3.003l.052-.17c.06-.074-.067-1.074-.015-1.22l-.03-.453c.015-.127.023-.394.037-.17 0-.417-.007-.428-.037-.728l.023-.45c0-.411-.023-.808-.045-1.198a5.532 5.532 0 0 0-.044-.592 2.11 2.11 0 0 0-.178-.636 1.33 1.33 0 0 0-.512-.528 1.944 1.944 0 0 0-.696-.224c-.467-.068-.934-.023-1.386.005-1.112.043-2.706.148-4.329.214-1.623.07-3.269.124-4.477.138-3.387.094-7.315-.306-10.77-.523-.051-.009-.155-.013-.244-.018a1.105 1.105 0 0 0-.155-.003l-1.58-.16-1.57-.181-.63-.08c-.4-.05-.95-.115-1.572-.203l-.978-.133c-.341-.047-.72-.093-1.112-.04-.193.03-.4.082-.578.2-.09.057-.17.128-.237.21-.037.038-.06.087-.09.131-.022.046-.051.088-.059.14-.081.197-.052.395-.014.562.051.165.118.312.185.44.14.26.282.476.385.67.097.193.156.36.17.49.008.066 0 .122.008.17-.015.045-.015.083-.022.111 0 .058 0 .08.037.042.022-.037.089-.123.119-.297.014-.174-.03-.429-.17-.733-.068-.152-.15-.32-.23-.505-.082-.185-.171-.395-.179-.613a.566.566 0 0 1 .09-.306.548.548 0 0 1 .266-.23c.23-.11.549-.12.897-.08l-.082.007c.408.033.801.114 1.164.163.363.054.697.105 1.016.147.637.077 1.208.14 1.808.18.178.09 1.423.171 1.824.23l-.038.002c1.06.053 2.172.254 3.202.283-.044.002-.066.023-.303.005.748.045 1.77.1 1.823.145 1.779.107 4.27.21 5.41.159l-.074.01c.653-.037.838.009 1.572-.01.037.006.089.009.081.01.356-.021.875-.022 1.371-.02.505-.006.986-.008 1.275-.02l.037.027c.467-.006.942-.026 1.409-.04l-.527.009c.178-.085 1.068.026 2.09-.07.482-.013.964-.077 1.453-.142.49-.064.979-.122 1.475-.14.467-.068-.415.088.297.012.022.039-.334.048-.148.067.348-.032.63-.042.94-.054.297-.01.623-.03 1.024.002l.022.035c.26.023.496.094.66.228.17.128.259.311.303.507.052.197.06.4.067.6.007.2.022.387.045.559.044.535.022.716.007.901-.015.186-.022.377.015.934l-.037.434c-.008.478.06.342.022.871-.022-.032-.03.67-.052.359-.074 1.194-.03 2.434-.267 3.998.03.346-.103 1.132-.096 1.39-.022.041-.23 1.578-.156.688.008-.077.03-.211.037-.2l-.014-.11c-.193.882-.215 1.622-.393 2.497.066-.258.126-.605.103-.37l-.163.814.008-.174c-.082.403-.178.803-.274 1.205l.074-.16c-.141.589-.26.782-.37 1.455-.045.306.184-.547.044.076-.223.779-.593 1.94-.897 2.928.066-.081-.008.182-.104.44l-.044.018c-.178.487-.275.537-.334.606-.037.031-.074.06-.133.13-.067.065-.156.171-.349.32.022-.025.037-.048.052-.07-.037.067-.126.142-.193.214-.808.605-.474.267-1.408.905.386-.23.222-.047-.267.219l.104-.097c-.26.16-.348.205-.534.295.156-.096.067-.082-.333.124l.244-.169c-.244.14-.481.297-.733.42-.616.247-1.587.641-1.86.681l-.72.214c-.385.11-.808.21-.963.275.133-.049.015-.029-.119-.008-.133.018-.274.03-.17-.006-.178.049-.534.137-.897.206-.37.057-.749.114-.971.119l.081-.012c-1.615.13-2.772.212-4.224.063.03.02-.149.013-.304.005-.163-.012-.312-.021-.215.012-1.52-.109-2.706-.516-3.269-.501-.674-.148-.778-.234-1.127-.33l.164.036a25.735 25.735 0 0 1-1.372-.402 24.538 24.538 0 0 1-1.112-.397c-.444-.162-.555-.117-1.319-.476.26.089-.06-.046-.348-.182.185.081.244.101-.119-.094a2.027 2.027 0 0 1-.207-.087l-.008-.002-.014-.01c-.008-.003-.015-.009-.008-.008-.111-.05-.193-.085-.244-.109-.052-.028-.075-.041-.082-.043-.015-.005.044.047.156.094-.015-.001 0 .011.059.05a2.954 2.954 0 0 1-.734-.532c-.215-.211-.348-.416-.348-.452-.415-.606-.608-1.228-.771-1.814-.156-.591-.26-1.174-.385-1.794.007-.143.074.145.148.505l-.163-.883c.037.002.11.505.163.776-.126-1.06-.43-2.161-.563-3.406l-.067-.252-.008-.074c-.015.005-.081-.27-.11-.452.007-.18.073.002-.016-.61-.044-.489-.215-1.376-.31-2.01.036.344.006.235-.03.089-.038-.307-.03-.487-.075-.723l.037-.034c-.022.125-.14-.798-.178-.91.015-.178.09.474.127.548-.156-1.232-.082-.616-.23-1.848-.112-.655-.03.124-.104-.187-.074-.58-.163-1.145-.208-1.815l-.014.215c-.141-1.091-.2-1.747-.23-2.487-.252-2.033-.386-3.159-.482-3.7-.089-.542-.126-.5-.14-.202-.016.297-.008.85.014 1.329.022.48.044.883.044.883.082 1.613.208 2.831.356 4.125.156 1.292.349 2.659.616 4.563ZM10.671 43.222l-.089.105c.007.001.037-.024.089-.105ZM9.04 48.2v-.008c-.007-.011-.007-.025-.015-.035l.015.043Z" clip-rule="evenodd"/><path fill="#fff" fill-rule="evenodd" d="M11.51 41.698a4.738 4.738 0 0 0-.957.844 8.67 8.67 0 0 0-.578.785c-.319.527-.6 1.102-.808 2.06-.208.914-.23 1.911-.126 2.805.081.418.163 1.175.326 1.642l.007.194c.052.163.112.357.134.527l-.015-.01c.082.244.133.526.178.647l-.015-.008.082.3-.03-.05c.133.426.245.87.341 1.26l.03-.04c.178.843.34 1.128.496 1.889l-.007-.008c.363.921.356 1.51.726 2.459-.044-.118 0 .056-.015.049.141.445.282.921.364.91.088.326.051.27.037.32.03-.01.126.27.2.525l-.045-.114.215.727.022-.159c.09.392-.051.117.067.484l.052-.017c.14.539.148.872.245 1.4.556 2.16 1.215 4.478 1.378 6.543l-.03.094c-.044.045.164.556.112.64l.052.235c0 .069 0 .211-.023.094.023.22.03.224.06.382l-.015.24c.052.873.14 1.612.133 2.532a25.84 25.84 0 0 0-.052.98c-.03.367-.03.767-.074 1.168l-.044.601-.067.583c-.03.378-.096.727-.14 1.024-.023.21-.068.42-.112.633-.052.213-.096.43-.163.645-.126.43-.267.868-.437 1.294-.319.86-.749 1.698-1.008 2.545a.588.588 0 0 0-.052.2 9.48 9.48 0 0 0-.46 1.565s-.03.123-.052.328c-.037.204-.059.493-.059.821.008.328.045.696.126 1.054.082.357.215.7.37.98.156.28.334.492.46.617.134.124.208.168.2.109-.007-.062-.11-.22-.266-.538a4.07 4.07 0 0 1-.378-1.512l.022.035a5.919 5.919 0 0 1-.03-1.065c.015-.309.045-.584.074-.877.082-.077.17-.68.26-.866v.02c.104-.518.415-1.008.556-1.501 0 .02.014.038-.03.148.133-.35.311-.834.363-.846.089-.21.178-.443.26-.683.081-.242.17-.491.244-.73.082-.237.133-.473.193-.68.044-.208.096-.39.104-.535v.041c.03-.33.096-.416.155-.779.008-.019.015-.043.015-.04.022-.36.193-1.025.208-1.316l.03-.015c.029-.235.066-.47.088-.706l-.044.263c-.06-.099.11-.53.11-1.047.038-.483-.11-.983-.066-1.479-.037-.237.06.211.037-.145.045-.01.022.167.06.076-.008-.35.051-.574.014-1.006l.037-.018c-.037-.28-.037-.546-.037-.788s0-.462-.044-.646c-.074-.577.074-.396-.045-.994l.015-.238c-.015-.258-.074-.18-.081-.466.03.014-.023-.363.03-.2-.045-.65-.245-1.3-.32-2.153-.096-.174-.133-.604-.207-.733.022-.027-.17-.847-.022-.382.015.04.03.112.022.11l.045.05c-.037-.49-.215-.864-.32-1.336.023.142.068.327.016.207l-.09-.439.045.086-.14-.654-.008.097c-.06-.322-.03-.447-.17-.795-.067-.155.03.311-.067-.021a33.517 33.517 0 0 0-.349-1.613c-.022.06-.066-.086-.11-.233l.029-.025c-.208-.56.015-.227-.178-.785l.037.044-.111-.132c-.215-.495-.015-.292-.26-.837.067.222-.044.123-.11-.156l.051.062c-.052-.151-.074-.199-.096-.302.037.087.06.037-.015-.186l.082.14-.178-.409c-.06-.336-.252-.843-.245-.988 0 0-.185-.708-.274-.857.067.133-.03-.257.037-.155-.09-.174-.267-.704-.297-.93l.023.04c-.186-.805-.438-1.35-.579-2.078-.03.042-.103-.342-.133-.236-.237-.733-.237-1.377-.452-1.615-.089-.339-.06-.41-.089-.587l.022.08c-.148-.634-.2-.822-.281-1.29-.045-.232-.134-.26-.164-.688.045.135.023-.038.008-.197.015.101.022.132.03-.078-.015-.029-.023-.074-.03-.116.007-.002.007-.01.007-.006-.022-.265-.03-.22-.03-.095 0-.006-.007.004-.014.043.015-.277-.015-.77.037-.803.022-.795.067-1.37.245-2.016.051-.065.014.088-.015.278.03-.154.081-.304.126-.454.037.014-.074.26-.097.404.2-.52.312-1.12.704-1.668l.052-.128.023-.031a.915.915 0 0 1 .103-.227c.09-.059.06.044.26-.22.17-.19.474-.55.748-.76-.148.104-.11.056-.052 0 .134-.1.23-.127.334-.204l.037.026c-.081-.005.363-.246.415-.278.104-.012-.222.129-.244.174.296-.153.378-.177.452-.207.081-.026.155-.068.482-.142.348-.093-.075-.025.088-.09.32-.064.645-.092 1.008 0l-.11-.059c.614.088.948.307 1.23.584.444.342.711.704.882.99.17.289.252.51.311.657.104.295.133.261.148.102.015-.181-.044-.507-.148-.77-.096-.267-.23-.474-.23-.474-.474-.832-1.208-1.34-2.06-1.467-.853-.118-1.78.086-2.728.736ZM26.458 41.443c-.022-.012-.037-.026-.052-.036 0 .006.008.016.052.036ZM22.892 54.228l-.007.016c.007-.01.007-.014.007-.016ZM23.826 41.11v-.003l.022-.014-.022.017Z" clip-rule="evenodd"/><path fill="#fff" fill-rule="evenodd" d="M27.408 41.543a2.026 2.026 0 0 0-.497-.417 2.213 2.213 0 0 0-.467-.224c-.31-.106-.645-.17-1.148-.134-.245.01-.49.038-.72.084-.214.033-.526.116-.748.255a2.378 2.378 0 0 1-.163.138c-.06.048-.126.102-.185.161a1.243 1.243 0 0 0-.275.369c-.03.022-.051.046-.081.07a.843.843 0 0 1-.126.253v-.01c-.037.129-.104.258-.111.323l-.008-.008-.044.148v-.029c-.045.23-.082.439-.119.635l.037-.011c-.081.418.008.573-.015.948l-.014-.004c.163.454.051.75.274 1.19-.03-.054-.015.03-.023.027.067.208.141.428.223.411.044.15.007.129-.015.156.037-.01.09.118.126.234l-.03-.05.112.331.044-.082c.03.182-.067.064 0 .23l.052-.015c.06.25.015.411.037.657.104.495.215 1.007.274 1.517.052.509.045 1.017-.074 1.47l-.044.035c-.06.008.044.265-.023.292l.008.111c-.022.028-.045.09-.045.034-.022.098-.014.101-.014.176l-.06.097c-.126.378-.163.721-.318 1.12-.238.46-.542 1.388-.69 1.936-.089.387-.26.789-.4 1.207-.133.417-.245.855-.23 1.274-.007.026.008.097.015.097a6.562 6.562 0 0 0-.007.764s.014.233.081.534c.052.302.178.668.334.923.148.258.296.407.326.336.044-.076-.074-.359-.141-1.015l.022.014c-.074-.378-.096-.615-.178-.878.075-.045 0-.318.023-.41l.007.009c-.052-.24.074-.484.052-.716.007.01.03.017.022.07.008-.167.03-.397.082-.401.052-.398.222-.935.237-1.201l.007.02c0-.155.052-.184.082-.35.007-.007.015-.018.022-.016 0-.167.148-.451.178-.581h.03l.11-.308-.051.113c-.06-.066.14-.215.178-.455.089-.205-.008-.477.11-.682 0-.116.03.11.06-.054.037.008 0 .08.045.05.037-.158.133-.238.17-.437l.03.002c.03-.266.2-.463.185-.647.045-.268.148-.155.148-.446l.075-.1c.03-.119-.037-.095.007-.225.03.013.052-.166.067-.083.096-.3.022-.628.11-1.03-.051-.09-.021-.293-.066-.358.022-.012-.015-.407.045-.18.007.018.007.053 0 .051l.037.026c.052-.235-.067-.418-.082-.645 0 .068.008.158-.022.1l-.015-.21.03.04c-.008-.105-.015-.21-.03-.315l-.022.048c-.008-.154.037-.217-.045-.38-.037-.073-.014.15-.059-.008a5.376 5.376 0 0 0-.104-.769c-.03.033-.044-.035-.074-.104l.037-.016c-.118-.257.045-.115-.066-.372l.03.017-.09-.052c-.14-.22.03-.146-.14-.384.037.101-.06.067-.082-.063l.044.024c-.03-.069-.052-.089-.059-.136.03.037.052.01.015-.092l.06.059-.112-.18c-.015-.157-.126-.382-.089-.454 0 0-.06-.322-.126-.386.044.058.022-.12.067-.076-.052-.075-.126-.315-.097-.416l.008.018c-.008-.358-.097-.61-.015-.922-.037.01.007-.154-.052-.12.007-.344.245-.556.148-.714.052-.142.111-.15.156-.214l-.015.034c.126-.247.178-.309.326-.45.06-.078.023-.144.193-.233-.037.053.022.011.082-.024-.037.028-.045.038.044.015a.145.145 0 0 1 .037-.034c0 .001.008.001.008.005.096-.052.08-.053.029-.036 0-.005-.007-.008-.03-.009.067-.012.149-.026.215-.046.075-.014.141-.022.156-.001.378-.076.652-.152.971-.162.037.023-.037.045-.133.054.081-.003.155-.008.23-.004-.008.032-.134.012-.2.022.259.054.555-.03.837.11l.066-.006.015.01c.008-.016.074-.006.119.007.022.047-.03.055.096.122.09.072.274.158.393.257-.052-.06-.022-.054.008-.036.051.051.059.1.103.137l-.03.029c.015-.048.141.126.171.144-.007.048-.081-.081-.111-.083.081.116.089.149.111.18.015.03.037.061.096.193.082.134.03-.04.09.018.059.127.125.255.133.418l.03-.057c.08.258.088.424.059.606.104.498.133.789.185.924.044.138.089.13.126.058.037-.07.067-.206.089-.327.022-.121.03-.225.03-.225a2.63 2.63 0 0 0-.075-1.091 3.07 3.07 0 0 0-.2-.537 2.402 2.402 0 0 0-.422-.601ZM33.01 42.72l.037-.021c-.008-.004-.015 0-.037.021ZM34.552 42.357l-.015.006.015-.006Z" clip-rule="evenodd"/><path fill="#fff" fill-rule="evenodd" d="M33.137 43.36a1.63 1.63 0 0 1 .193-.24c.059-.067.118-.116.178-.164.059-.048.11-.105.177-.152.075-.05.141-.123.237-.182.052-.028.097-.057.149-.088l.155-.07c.097-.056.215-.075.327-.106a.228.228 0 0 1 .081-.043c.037-.006.074-.007.119-.01a.678.678 0 0 0 .222-.032l.052.035a.237.237 0 0 1 .148.005l-.007.008c.074-.016.148.005.185-.003l-.007.008c.03 0 .052.005.081.01l-.015.01a.768.768 0 0 1 .163.018c.045.018.097.04.141.06l.008-.035c.17.132.281.114.4.285l-.015.005c.067.023.111.06.148.101.037.041.067.082.09.13.044.091.08.184.192.277-.03-.023-.008.022-.015.024.067.103.133.219.2.194.037.086.008.078-.015.1.03-.013.082.054.104.123l-.022-.028.081.192.045-.057c.022.11-.067.048-.015.145l.045-.015c.037.15-.015.256-.023.405.112.59.252 1.252.112 1.828l-.045.023c-.06.006.074.166.015.184l.022.07c-.015.018-.03.056-.037.022-.007.062 0 .064.015.111l-.045.063c-.059.243-.014.461-.066.723-.112.306-.119.915-.09 1.27.038.247 0 .513-.014.788-.015.272-.008.556.096.802 0 .017.023.056.03.055.037.155.081.31.133.461l.037.092c.023.055.06.134.104.22.09.173.222.378.356.511.14.133.26.201.289.139.037-.064-.037-.25-.133-.647l.014.004c-.088-.22-.14-.353-.252-.489.06-.046-.059-.185-.044-.246l.007.003c-.103-.126-.03-.297-.103-.424.007.004.03.003.037.035-.03-.097-.067-.235-.023-.246-.044-.24-.037-.58-.11-.737l.014.01c-.044-.09-.007-.116-.03-.217.008-.006.008-.012.015-.011-.052-.1.008-.288-.007-.369l.03-.004.007-.196-.015.073c-.082-.033.067-.145.03-.293.022-.133-.141-.29-.082-.427-.03-.071.052.066.037-.037.045.001.023.05.06.027-.008-.1.066-.156.051-.28l.03-.002c-.037-.164.09-.294.037-.406-.007-.167.119-.1.067-.279l.052-.063c.014-.073-.045-.057-.015-.137.022.007.03-.102.052-.052.06-.185-.03-.383.052-.63-.052-.054-.023-.18-.067-.221.03-.006 0-.252.06-.111 0 .012 0 .034-.008.032l.03.017c.066-.147-.037-.261-.037-.404-.015.043-.008.1-.03.063l-.008-.132.03.025v-.198l-.037.03c.007-.098.06-.14-.008-.241-.03-.045-.03.097-.059-.002.008-.13 0-.328-.03-.492-.037.024-.044-.02-.066-.063l.037-.013c-.104-.159.052-.081-.037-.241l.022.008-.081-.025c-.119-.13.044-.104-.111-.241.03.063-.06.054-.082-.029l.044.009c-.03-.042-.044-.051-.052-.083.03.02.052-.004.015-.066l.06.028a6.266 6.266 0 0 0-.112-.1c-.014-.108-.14-.234-.126-.291 0 0-.022-.053-.059-.106s-.089-.108-.126-.115c.06.021-.007-.09.045-.081a.594.594 0 0 1-.245-.225l.015.007a.833.833 0 0 0-.297-.24c-.096-.063-.215-.104-.318-.184-.008.038-.126-.03-.119.024-.26-.057-.46-.213-.563-.076-.111-.003-.134-.047-.193-.06l.03-.005-.134-.005a3.03 3.03 0 0 0-.103.008l-.2.01c-.082.025-.09.076-.23.095.044-.037-.015-.02-.067-.008.03-.012.044-.024-.03-.026a.106.106 0 0 1-.037.027c0-.002-.007-.004-.007-.007-.082.03-.067.034-.023.028 0 .005 0 .009.015.013a.478.478 0 0 0-.163.022c-.052.02-.096.033-.11.014-.253.104-.386.25-.55.384-.029-.001-.007-.054.038-.094-.045.027-.074.067-.111.1-.023-.027.051-.073.089-.105-.186.073-.267.275-.438.398l-.007.049-.015.006c.015.009-.008.053-.015.08-.044.005-.06-.043-.119.04-.074.048-.133.19-.17.288.037-.045.044-.02.037.005-.022.043-.067.052-.074.09l-.044-.015c.044.002-.03.13-.023.155-.037.011.015-.08 0-.1-.089.176-.044.088-.14.264-.015.107.051 0 .059.06-.03.085-.045.177-.111.262l.044-.016a.697.697 0 0 1-.163.35c-.052.319-.052.492-.082.61-.014.113.023.123.082.111a.455.455 0 0 0 .111-.09c.045-.044.06-.071.09-.11.058-.073.088-.127.088-.127.282-.439.245-.7.519-1.195ZM50.531 41.492l.09.227c.007-.006-.016-.064-.09-.227ZM46.945 77.733l-.008-.021c0 .005 0 .012.008.021ZM46.842 76.978h.007-.007ZM47.212 81.574l-.023.005c.008.003.015.003.023-.005ZM48.568 79.998l.015.018c0-.007 0-.014-.015-.018ZM49.101 80.572l-.007.004.007-.004ZM49.59 97.254l-.022-.016c0 .007.008.014.023.016ZM46.174 93.846h-.008.008ZM49.049 96.6l.007-.002-.007.002ZM50.873 105.005l.022.005c0-.006-.007-.009-.022-.005ZM53.652 102.989c0-.002 0-.003-.008-.004 0 .002 0 .003.008.004ZM51.636 105.146l-.007.005.008-.005ZM50.443 92.42l.023.006c0-.005-.008-.008-.023-.005ZM53.222 90.405s0-.002-.007-.004c0 .002.007.003.007.004ZM47.16 107.418l-.008-.001v.001h.008ZM51.606 52.587l-.014.03c.007-.002.014-.01.014-.03ZM54.098 59.397c.007.001.007.004.007.005 0-.004-.007-.005-.007-.005ZM51.437 53.788v-.001l-.007-.006.007.007ZM50.177 62.65l-.023.016c.008.002.015-.001.023-.016ZM50.746 66.818l.008.021c0-.006 0-.013-.008-.021ZM53.467 69.66h.007-.007ZM50.918 67.579v-.001h-.008.008ZM52.045 79.111c.022.027.044.043.037.02-.008-.01-.015-.015-.037-.02Z" clip-rule="evenodd"/><path fill="#fff" fill-rule="evenodd" d="M30.024 42.706c-.852-.479-1.734-.925-2.698-1.147-1.17-.269-2.498-.164-3.431.545.548.281 1.104.562 1.652.844.163.084.334.173.43.32.097.148.082.372-.074.462l-2.535-.703c-.237-.066-.489-.133-.733-.084-.238.05-.468.258-.43.488.03.173.192.297.348.404.408.288.815.578 1.223.867-.845.167-1.683.378-2.513.628-.333.102-.748.323-.674.648.044.22.311.358.348.58.067.358-.482.673-.326 1.008.17.367.786.09 1.193.22.764.243.245 1.592.964 1.93.474.225.978-.231 1.341-.599.304-.304.66-.586 1.09-.688.43-.103.949.023 1.171.38.104.165.14.363.267.515.252.314.793.295 1.149.081.356-.213.585-.563.845-.877.26-.314.593-.618 1.008-.663.6-.065 1.208.414 1.771.206.23-.536.69-.983 1.245-1.223.245-.104.512-.173.72-.33.652-.49.355-1.488-.178-2.082-.808-.89-1.957-1.392-3.173-1.73ZM8.647 54.95c0 .306-.11.772.215.787.274-.361.556-.723.83-1.083.09-.114.178-.232.312-.293.385-.176.785.188 1.2.294.541.142 1.112-.203 1.409-.65.303-.446.393-.979.54-1.487.09-.305.238-.64.55-.76.444-.172.955.189 1.422.077.6-.144.697-.915.527-1.47-.178-.553-.497-1.139-.267-1.676.148-.345.489-.58.74-.869.253-.289.401-.737.134-1.016-.14-.15-.363-.206-.533-.333-.63-.486-.052-1.551-.534-2.176-.082-.48-1.393-1.028-1.912-1.006-.52.022-.993.275-1.446.52-.926.506-1.845 1.012-2.772 1.518-.103.057-.222.117-.34.098-.334-.053-.253-.514-.082-.78 1.104-1.714 2.587-3.26 3.202-5.173.178-.548.244-1.23-.215-1.61-.563-.462-1.468-.12-1.994.375-.526.496-.941 1.148-1.63 1.408-.408.152-.905.166-1.201.463-.23.228-.282.572-.497.814-.363.411-1.023.397-1.556.585-.63.223-1.105.784-1.186 1.407-.06.398.037.818-.111 1.196-.238.623-1.001.898-1.49 1.378-.312.306-.512.762-.341 1.153.163.377.778.542 1.06.247l.044.015a.65.65 0 0 1-.037.427c-.096.045-.2.084-.296.118a2.295 2.295 0 0 0-1.15.884c-.155.243-.266.54-.177.813.111.36.578.579.956.446.326-.115.63-.452.949-.32.192.08.26.293.26.496-.2.297-.512.565-.816.779-.563.402-1.208.962-1.038 1.605.06.208.2.394.215.608.037.45-.467.753-.882.987-.415.234-.86.657-.66 1.071.408.382 1.068.326 1.646.275.57-.052 1.267-.021 1.571.437.186.287.163.668.363.95.312.444 1.06.431 1.527.13.467-.302.734-.798 1.03-1.256.282-.458.653-.925 1.194-1.088.54-.164 1.267.154 1.267.686ZM5.372 35.025c.415.169.889.03 1.319-.106.422-.137.904-.268 1.32-.088.273.122.459.365.689.559.57.497 1.46.661 2.194.408.844-.287 1.504-1.06 2.4-1.053 1.098.009 1.987 1.214 3.047.949.83-.207 1.238-1.232 2.083-1.327.385-.044.756.124 1.127.227a3.57 3.57 0 0 0 2.045-.043c.097-.031.2-.072.26-.152.074-.102.052-.239.03-.36-.379-1.623-2.306-2.78-4.048-2.426-.74.15-1.4.522-2.112.748-.667.213-1.579.316-2.142-.158.252-.86 2.098-1.663.133-2.224-1.393-.4-2.15 1.46-3.32 1.078-.17-.058-.319-.175-.504-.22-.734-.18-1.112.837-1.786 1.15-.356.165-.8.127-1.134.333-.608.381-.564 1.413-1.268 1.603-.17.046-.356.029-.519.105-.4.192-.23.828.186.997ZM22.397 41.341c.46.085.927-.117 1.26-.422-.548-1.175-1.72-1.99-2.935-2.597-.986-.498-2.038-.9-3.002-1.443-.074-.174-.274-.286-.482-.294-.044-.03-.088-.057-.133-.088l.119.087a.479.479 0 0 0-.29.083c-.274.206-.2.692.134.813.215.078.49.025.652.178.245.234-.06.614-.37.772-.304.158-.697.364-.653.688.015.08.06.154.082.232.104.295-.03.61-.09.914-.066.304-.014.687.282.82.4.18.86-.244 1.298-.149.326.071.526.414.852.477.549.105.89-.58 1.423-.715.652-.167 1.194.521 1.853.644ZM15.889 78.044c-.245-.181-.512-.373-.823-.355-.119.007-.237.044-.348.025-.215-.034-.356-.243-.571-.266-.163-.019-.326.087-.408.222-.104.167-.066.35-.23.444-.126.074-.422-.027-.6.06-.215.11-.319.425-.133.572.11.086.296.104.333.23.052.15-.155.307-.089.453.052.105.2.118.319.128.46.04.904.28 1.164.637.044.065.089.139.17.174.06.026.126.027.185.035.223.03.43.164.534.349.119-.258.222-.605-.007-.786-.075-.053-.17-.108-.149-.188.275 0 .534-.175.682-.397.149-.222.2-.486.238-.745a.624.624 0 0 0-.023-.33c-.044-.109-.148-.188-.244-.262ZM12.797 82.169c-.103-.1-.177-.225-.266-.332-.052-.057-.119-.113-.193-.115-.104-.002-.185.084-.282.108-.192.05-.4-.152-.585-.076-.126.054-.163.212-.141.342.015.131.067.263.03.39-.03.129-.208.233-.312.15-.022.157-.126.368-.074.48-.03.028-.066.054-.096.082-.03.027-.06.053-.074.087a.268.268 0 0 0-.023.17c.008.059.015.118.052.17a.155.155 0 0 0 .082.073c.052.041.119.072.185.054.17-.049.297-.192.43-.308.126-.117.319-.216.49-.15.044.017.08.047.133.058.059.015.118.002.17-.013.297-.083.593-.287.741-.547.26-.47.015-.338-.267-.623ZM13.398 67.684c-.334.308-.549.708-.838 1.049-.274.318-.719.656-1.178.58-.178-.529.504-1.522-.727-1.207-.874.224-.607 1.433-1.356 1.596-.111.024-.23.01-.34.042-.453.134-.283.784-.527 1.16-.134.196-.378.315-.474.525-.186.388.207.916-.097 1.233-.074.078-.178.128-.23.217-.148.226.17.507.452.467.275-.041.475-.261.653-.466.178-.204.378-.423.66-.455.185-.022.37.047.563.079.482.081 1-.108 1.297-.469.333-.412.407-1.024.882-1.298.578-.336 1.475.019 1.934-.45.364-.364.208-1.028.623-1.342.185-.142.437-.17.667-.23.415-.11.793-.343 1.06-.658a.339.339 0 0 0 .081-.16c0-.077-.059-.144-.118-.198-.778-.734-2.202-.742-2.987-.015ZM12.657 76.612c.178-.075.245-.294.423-.372.237-.105.556.083.763-.067.149-.112.126-.335.052-.502-.081-.166-.192-.33-.178-.51 0-.048.015-.095.015-.142-.015-.19-.267-.263-.467-.317-.193-.054-.422-.235-.311-.397.074-.106.237-.109.348-.179.17-.107.149-.393-.037-.478a.266.266 0 0 0-.17-.014l.052-.064-.067.066c-.111.029-.215.117-.237.224-.467.422-1.016.775-1.512 1.175-.615.488-1.171 1.09-1.327 1.825.23.135.526.195.778.094.356-.148.571-.603.971-.584.319.015.608.365.904.242ZM18.469 63.02c-.074-.26-.43-.345-.719-.347-.289-.001-.622.017-.815-.177-.082-.077-.126-.177-.185-.266-.164-.234-.416-.393-.66-.544-.067-.04-.141-.08-.208-.118a.857.857 0 0 1 .134-.38c.318-.429 1.208-.295 1.386-.791.089-.257-.09-.53-.304-.714-.208-.185-.467-.337-.6-.577-.127-.214-.149-.494-.356-.633-.275-.18-.704-.01-.964-.202-.385-.28-.148-.81-.712-.921-.148-.03-.296.028-.452-.008-.133-.033-.237-.142-.378-.177-.192-.05-.333-.06-.511.03-.363.177-.556.589-.927.785-.563.302-1.111.526-1.608.937-.178.15-.363.372-.267.576.06.12.2.185.29.288.207.232.11.571.066.868-.044.297.067.692.393.71.222.013.393-.172.593-.266.37-.18.897.024 1.023.398.066.199.037.413.066.62.03.205.156.43.378.457.445.054.742-.62 1.246-.66a.773.773 0 0 1 .355.054c.119.061.186.196.297.264.111.185.148.429.118.671-.037.232-.133.468-.059.69.067.176.237.307.29.484.133.423-.401.76-.534 1.184-.03.107-.038.228.03.322.207.315.792-.005 1.118.204.341.214.126.768.408 1.043.096.094.267.135.378.061.104-.067.134-.195.193-.298.126-.214.437-.318.682-.227.163.06.304.198.482.183.266-.024.34-.367.274-.608-.074-.242-.223-.493-.134-.73.126-.318.616-.437.675-.77.06-.362-.452-.605-.497-.969-.015-.148.052-.3.015-.445ZM48.45 39.49c.296.18.518.447.71.702.193.259.364.522.505.759.289.48.489.927.645 1.392.081.23.14.47.215.715.051.25.118.508.163.79.096.563.17 1.208.2 2.01.044 1.53-.067 3.186-.17 4.706.007.723-.142 1.992-.157 2.847l-.051.328c-.008.295-.023.64-.06.934l-.007-.02c-.008.442-.06.936-.06 1.154l-.007-.019-.037.534-.007-.093a40.784 40.784 0 0 1-.141 2.25l.044-.056c-.148 1.483-.11 2.032-.259 3.37l-.007-.02c-.023 1.701-.245 2.676-.304 4.426.007-.218-.03.092-.037.073-.06.803-.149 1.658-.075 1.678-.066.582-.074.472-.11.544.029 0-.015.508-.075.961l.015-.21c-.06.434-.119.867-.185 1.298l.103-.245c-.133.685-.103.164-.2.822h.052c-.185.946-.4 1.48-.66 2.377-.481 1.878-1.037 3.848-1.2 5.853-.09 1-.052 2.003.066 2.966.127.965.327 1.894.534 2.782l.008.164c-.045.084.355.948.348 1.094l.148.398c.023.116.09.359.015.161.111.375.126.38.222.645l.097.41c.222.734.43 1.412.645 2.1.207.688.4 1.39.54 2.176.156.949.327 2.322.408 3.727a78.53 78.53 0 0 1 .111 3.888c.052 2.953-.296 6.372-.585 9.364-.008.048-.015.136-.022.211-.008.075-.008.139-.008.138-.059.456-.133.909-.207 1.363-.082.452-.163.905-.252 1.356l-.119.542c-.066.339-.178.808-.311 1.339-.274 1.061-.652 2.364-1.023 3.339-.037.123-.081.242-.119.354-.044.112-.081.217-.118.316-.082.198-.14.37-.185.507-.097.275-.126.411-.06.342.104-.147.72-1.073 1.601-3.506l-.007.07c.111-.366.215-.699.311-1.007.074-.312.148-.599.222-.873a18.34 18.34 0 0 0 .297-1.564c.104-.151.237-1.229.304-1.58v.035c.022-.232.052-.466.089-.7.037-.233.074-.469.104-.704.081-.467.14-.934.155-1.381.008.035.03.056.008.261.059-.65.11-1.538.163-1.584.11-1.551.215-3.718.155-4.714l.015.069c-.037-.568.008-.733-.007-1.367.007-.034.007-.079.015-.072-.037-.617.007-1.8-.015-2.3l.03-.033c-.008-.41-.015-.821-.03-1.231l.007.46c-.089-.157.03-.933-.081-1.824-.045-.838-.312-1.677-.408-2.538-.104-.404.126.352-.007-.256.037-.026.074.282.081.12-.118-.599-.133-.994-.333-1.723l.03-.037c-.297-.942-.453-1.8-.697-2.41-.327-.96-.112-.675-.49-1.661l-.074-.402c-.126-.43-.148-.293-.267-.776.037.023-.148-.608-.044-.335-.126-.545-.29-1.09-.43-1.684-.14-.592-.26-1.236-.296-1.964-.097-.31-.09-1.043-.126-1.279.014-.019.014-.386.037-.645.022-.259.037-.409.044.002 0 .071-.015.196-.022.187.007.033.022.066.03.1.096-.822.088-1.504.237-2.32-.052.24-.097.563-.09.345.045-.253.097-.504.142-.757v.162c.074-.374.163-.747.252-1.12l-.067.147c.14-.546.252-.726.356-1.355.044-.286-.178.51-.037-.072.207-.73.54-1.82.763-2.773-.06.082 0-.174.052-.44l.037-.024c.156-1.023.156-.36.296-1.377l.008.093-.022-.277c.074-.922.148-.485.192-1.513-.044.403-.096.181-.022-.311l.015.129c.03-.275.022-.368.052-.55 0 .165.037.091.074-.312l.015.274.022-.767c.096-.585.133-1.521.2-1.76 0 0 .03-.315.06-.667.022-.352.044-.742.029-.889.015.257.074-.44.096-.239-.007-.33.03-1.299.097-1.684v.074c.14-1.431.118-2.454.26-3.737-.045.056.029-.622-.038-.458.044-1.332.274-2.419.156-2.908.037-.605.089-.715.118-1.027v.144c.067-1.134.09-1.463.148-2.305.015-.421-.051-.492.023-1.244.007.245.03-.062.044-.345-.007.181 0 .237.045-.132v-.208c0-.004 0-.018.007-.01.022-.471.008-.39-.015-.172 0-.011-.007.007-.022.075.074-.487.096-1.362.14-1.42.06-1.42.03-2.444-.095-3.626.007-.136.066.14.096.484-.015-.28-.052-.562-.082-.841.037.002.067.482.097.74-.015-1.01-.29-2.068-.667-3.205a2.62 2.62 0 0 0-.119-.222l-.022-.067c-.015.01-.141-.233-.223-.389-.059-.162.075-.022-.222-.545a6.361 6.361 0 0 0-.519-.775c-.222-.285-.489-.572-.77-.769.14.113.177.16.17.162-.008.002-.06-.038-.126-.083-.245-.196-.415-.311-.682-.372l-.015-.047c.067.034-.185-.017-.407-.012a87.926 87.926 0 0 1-.349-.013c-.104 0-.185.004-.215.008-.089-.016.03-.02.186-.026.155.004.348.013.385.004l-.393-.024c-.111 0-.193 0-.26-.002-.14.002-.222-.003-.303.003-.156.016-.319 0-.949.092-.667.159.126.014-.185.11-.586.122-1.127.33-1.727.631l.207-.067c-.481.263-.822.53-1.119.781-.289.252-.519.501-.756.771-.578.808-.837 1.519-1.03 2.055-.178.54-.267.92-.341 1.176-.022.065-.037.12-.067.175-.022.045-.037.083-.052.115a.291.291 0 0 0-.037.109c.008.028.067-.028.163-.136.126-.17.2-.348.29-.557.08-.204.177-.425.259-.63.17-.408.34-.736.34-.736.675-1.306 1.446-2.155 2.476-2.738a5.43 5.43 0 0 1 1.816-.605c.178-.027.356-.052.549-.06.185-.02.378-.02.578-.02.207-.007.415.018.63.026.193.01.348.058.526.16Z" clip-rule="evenodd"/><path fill="#fff" fill-rule="evenodd" d="M47.412 77.513c-.14-.145-.133-.232-.319-.348-.074-.07-.17-.128-.252-.186-.074.01-.096-.084-.17-.086v-.037c-.022 0-.052-.008-.052-.032l.008-.006c-.038 0-.052-.032-.075-.033l.008-.006-.03-.02.015-.005a.249.249 0 0 1-.126-.083l-.022.03c-.045-.095-.126-.06-.156-.153l.008-.006c-.156 0-.09-.162-.245-.168.022.001.015-.018.022-.023-.052-.026-.096-.059-.148-.006-.03-.025-.008-.036.007-.06-.022.023-.059.011-.081-.007h.015l-.074-.047-.03.055c-.022-.042.044-.062 0-.079l-.03.038c-.044-.048-.022-.128-.037-.195-.178-.179-.482-.26-.6-.477l.022-.035c.037-.043-.111.018-.081-.024h-.038c0-.012-.007-.03.015-.03-.014-.019-.022-.013-.052-.012l.008-.043c-.06-.083-.17-.09-.245-.168-.044-.132-.274-.239-.407-.3-.104-.034-.141-.118-.23-.225-.082-.098-.185-.19-.326-.193 0-.01-.03-.001-.03.004a1.05 1.05 0 0 0-.23-.069s-.074-.018-.185-.007c-.119.004-.29.084-.348.196-.06.108-.03.182.037.188.03.005.081-.003.133-.01.06-.003.126.009.17.058v.01c.038.022.067.028.127-.022-.008.073.059.02.074.05l-.008.005c.074-.04.074.077.141.052 0 .004-.015.02-.022.017.037.006.081.017.066.054.075.03.141.11.245.11l-.007.005c.059-.01.037.026.089.036 0 .005 0 .009-.008.01.067-.007.097.07.134.078l-.015.022.067.047-.023-.024c.067-.05.015.075.097.076.03.042.2-.05.215.016.044-.01-.06.028-.008.033-.03.03-.037.007-.052.038.045.01.023.072.082.083l-.022.024c.089-.001.059.109.133.096.067.023-.037.097.06.096l-.008.048c.015.024.052-.025.06.011-.016.019.021.042-.016.05.03.078.156.051.178.166.06-.025.074.03.111.01-.014.019.075.066-.007.068 0 0-.007-.006 0-.013l-.03.019c0 .08.097.04.134.083 0-.019-.022-.03.007-.037l.03.036-.022.013.044.06.015-.031c.015.036-.015.085.052.078.037-.007.007-.055.044-.038.022.049.052.12.097.169.022-.031.03-.02.052-.013l-.023.025c.082.01-.03.067.045.083l-.022.013.066-.038c.09-.007-.03.07.09.05-.03-.014.036-.06.051-.029l-.03.017c.023.007.037.002.037.014-.014.005-.037.03-.007.042l-.044.018.081-.01c.008.049.082.057.06.1 0 0 .051.069.096.046-.03.01-.008.049-.037.065.037-.01.104.01.096.054v-.001c.045.088.156.067.185.153.03-.03.045.014.075-.027.096.021.051.172.177.085.037.02.015.056.023.074h-.015a.614.614 0 0 1 .126.09c.03.007.081-.04.11.003-.036.01-.014.02 0 .032-.014-.005-.021 0-.014.029a.051.051 0 0 1 .022-.005c0 .002-.007.004-.007.006.03.012.03.003.022-.01.008-.001.008-.006.008-.014 0 .046.074.055.044.092.074.051.163.059.237.096-.015.022-.044.027-.066.019l.044.029c-.022.025-.037-.006-.052-.012.008.083.141.046.163.132l.03-.01v.007c.015-.01.037-.014.052-.01-.015.028-.052.05-.023.073.008.04.082.044.12.058-.016-.018.006-.026.021-.027.015.01 0 .04.023.04l-.03.03c.022-.032.067.002.081-.005-.007.029-.037 0-.059.013.06.046.03.023.096.07.052.003.015-.034.06-.047.03.017.081.019.096.063l.015-.034c.067.022.096.05.104.107.593.107.363-.226.363-.226-.089-.185-.245-.174-.445-.303ZM46.93 81.154a.77.77 0 0 1-.178.154.708.708 0 0 0-.17.166c-.075.07-.141.152-.208.225 0 .073-.104.084-.119.154l-.037-.01c-.007.024-.015.046-.044.045v-.007c-.008.036-.052.044-.052.061l-.007-.007-.023.022-.007-.013a.21.21 0 0 1-.119.097l.03.028c-.111.02-.096.1-.208.106v-.008c-.051.14-.192.024-.259.158.015-.016-.015-.015-.015-.024-.044.03-.096.057-.067.124-.037.015-.037-.008-.059-.032.015.029-.007.055-.037.068l.008-.016-.082.037.037.052c-.052-.003-.037-.065-.074-.038l.015.047c-.067.01-.126-.047-.193-.072-.252.044-.49.168-.756.04l-.007-.039c0-.055-.09.07-.09.02l-.036.02c-.008-.01-.023-.023-.008-.034-.022-.005-.03.004-.052.017l-.022-.038c-.111-.04-.222.013-.348-.01-.141-.084-.46-.025-.623.044-.118.058-.252.06-.4.086-.141.025-.29.078-.363.199-.015 0-.015.028-.015.032-.06.05-.119.109-.178.172 0 0-.052.058-.089.151a.525.525 0 0 0-.052.316c.015.096.067.152.134.133.066-.014.14-.115.304-.2l.007.006c.052-.06.081-.09.067-.17.066.037.052-.048.089-.046v.005c0-.078.118-.035.125-.103 0 .006.015.022 0 .03.03-.028.067-.068.09-.034.074-.055.192-.079.23-.157v.012c.021-.053.044-.016.073-.047.008.005.008.007.008.01.03-.052.118-.024.148-.045l.007.028.082-.011-.03-.005c0-.078.06.046.119-.005.06.01.126-.158.185-.116.037-.035-.03.056.015.031 0 .041-.022.025-.007.058.044-.017.066.046.118.024v.031c.074-.05.126.055.178.006.082-.016.037.1.119.048l.03.046c.029.011.029-.049.059-.023 0 .026.044.027.022.05.074.051.178-.038.282.044.03-.05.096-.018.118-.056 0 .023.133.005.06.054-.008.004-.023.003-.023-.006l-.007.03c.074.061.14-.028.207-.028-.022-.009-.044-.003-.03-.026l.067-.003-.014.027.103.005-.022-.031c.052.011.082.066.126.007.015-.03-.052-.033-.007-.053.066.008.17.022.244.01-.015-.032.008-.038.023-.051l.014.029c.067-.066.052.057.119-.001v.022-.069c.044-.082.067.052.111-.06-.03.018-.044-.058 0-.06v.032c.015-.014.022-.029.037-.028-.007.02.008.044.037.026v.044l.03-.075c.06.012.111-.052.14-.024 0 0 .104-.025.104-.077-.007.034.052.02.052.057.008-.041.06-.097.104-.084v.007c.119-.027.14-.138.252-.155-.03-.028.03-.04-.015-.072.06-.094.223-.028.156-.165.03-.034.067-.006.089-.015v.013c.06-.063.074-.079.126-.116.022-.03-.03-.084.03-.11 0 .033.014.014.037 0-.008.012-.008.022.03.017-.008-.01-.008-.017 0-.024v.004c.022-.03.014-.032-.008-.024 0-.003 0-.006-.015-.008.052 0 .074-.07.111-.04.074-.08.09-.17.134-.243.03.01.03.038.022.062l.037-.05c.022.022-.015.038-.022.057.103-.017.059-.152.163-.185l-.015-.03.007-.002c-.014-.01-.015-.035-.015-.048.038.008.06.042.09.006.044-.011.044-.089.051-.134-.014.018-.022.002-.03-.012.016-.018.045-.013.045-.033l.037.02c-.037-.014 0-.068-.015-.084.03.005.008.042.023.058.044-.077.022-.04.059-.117 0-.055-.037-.01-.06-.046.015-.04.008-.084.052-.114l-.044-.003c.007-.079.022-.116.082-.15a.492.492 0 0 0-.12-.275c-.044-.042-.088-.047-.125-.033a.269.269 0 0 0-.126.09c-.06.066-.089.123-.089.195-.022.07-.022.156-.074.255ZM48.25 80.388c.215.08.26.16.504.171.111.022.237.017.348.013.052-.052.149.004.208-.043l.03.03c.014-.015.044-.027.066-.012v.01c.03-.026.067-.014.082-.026v.009l.037-.007-.008.013a.283.283 0 0 1 .163-.032l-.007-.036c.111.026.133-.055.237-.025l.008.009c.089-.118.2.024.296-.097-.015.015.007.017.007.026.052-.025.112-.047.09-.117.036-.01.036.013.051.038-.015-.03.015-.053.045-.063l-.008.015.082-.036-.037-.052c.044.002.037.066.074.038l-.022-.046c.066-.01.126.05.2.064.252-.06.46-.265.704-.234l.022.035c.015.052.037-.094.06-.046l.014-.03c.015.009.03.016.023.03.022-.003.022-.012.037-.031l.03.028c.096.01.155-.067.251-.06.111.058.319.003.445-.01.096-.027.185.03.252.09.074.06.133.12.222.12 0 .01.023.002.023-.003.044.026.074.058.11.088l.067.063c.037.036.082.081.134.115.044.035.104.057.163.028.052-.029.126-.115.118-.338l.015-.002c-.044-.11-.104-.172-.2-.18.037-.063-.074-.065-.081-.1l.007-.002c-.089.007-.096-.121-.185-.107.007-.004.015-.02.03-.015-.045-.015-.112-.03-.097-.069-.118-.04-.267-.106-.363-.055l.007-.01c-.051.034-.052-.007-.103.008v-.012c-.052.035-.134-.014-.17.002v-.028c-.03-.002-.06-.004-.09-.002l.037.008c-.022.076-.066-.052-.133-.006-.067-.01-.119.16-.178.125-.03.038.022-.06-.022-.03 0-.04.022-.027.007-.058-.044.022-.074-.038-.126-.005l-.007-.03c-.06.064-.134-.026-.17.037-.068.038-.068-.083-.127-.008l-.037-.036c-.037 0-.015.055-.052.044 0-.027-.044-.01-.03-.04-.096-.023-.14.096-.259.055-.007.056-.067.041-.067.083-.007-.02-.096.027-.059-.037 0-.005.008-.007.015.002l-.007-.032c-.075-.039-.09.061-.141.07.015.004.037-.005.03.02l-.052.012v-.028l-.075.01.023.026c-.045-.004-.075-.052-.097.005-.015.03.045.03.015.052-.06-.005-.14-.013-.2-.004.015.034 0 .037-.015.05l-.015-.03c-.044.062-.044-.058-.096-.006v-.022l.007.068c-.037.076-.052-.053-.089.047.023-.013.038.063 0 .059v-.032c-.014.011-.014.025-.03.023.008-.02-.007-.044-.029-.032v-.041l-.022.067c-.052-.022-.089.033-.119-.005 0 0-.081-.001-.089.05.008-.033-.037-.034-.03-.07-.014.036-.066.076-.096.046l.008-.005c-.09-.019-.134.075-.223.041.015.037-.03.022-.014.067-.075.055-.156-.082-.17.064-.038.01-.045-.031-.068-.038l.008-.008a.433.433 0 0 1-.141.01c-.022.014-.03.081-.074.064.015-.027-.008-.022-.022-.022.007-.005.014-.014-.008-.033 0 .008-.007.013-.014.017v-.007c-.03.007-.023.016-.008.021v.017c-.03-.037-.081-.004-.081-.05-.09.003-.156.042-.238.048 0-.025.023-.043.045-.05l-.052.001c0-.033.03-.014.044-.018-.044-.063-.133.031-.192-.033l-.023.023v-.006a.088.088 0 0 1-.037.031c0-.03.015-.065-.014-.072-.023-.033-.082-.007-.126-.002.022.01.007.025 0 .032-.023-.005-.023-.034-.038-.027l.008-.038c0 .038-.052.023-.067.037 0-.031.037-.016.045-.035-.067-.02-.03-.01-.104-.03-.045.015-.008.039-.037.065-.037-.005-.074.009-.104-.028l-.007.038c-.067-.001-.104-.02-.126-.07-.29.021-.378.08-.378.155 0 .072.081.148.081.148.163.166.319.12.57.17ZM49.828 96.798c-.23-.014-.281-.086-.496-.106-.097-.03-.208-.054-.282-.093-.067.024-.081-.056-.163-.07l.007-.038c-.03-.004-.051-.014-.051-.04l.007-.005c-.045-.006-.052-.043-.074-.047l.007-.005-.03-.026.015-.003a.255.255 0 0 1-.11-.12l-.03.025c-.03-.112-.119-.107-.126-.22l.007-.003c-.163-.064-.044-.208-.193-.287.015.01.015-.015.023-.018-.045-.051-.082-.11-.149-.079-.022-.042 0-.044.03-.062-.037.014-.067-.016-.089-.048l.022.01-.06-.09-.051.045c-.007-.057.067-.046.03-.087l-.052.023c-.03-.073.022-.149.015-.234-.149-.298-.467-.51-.593-.796l.022-.033c.044-.04-.119-.013-.089-.054l-.044-.01c0-.014 0-.037.022-.031-.023-.026-.03-.02-.06-.028v-.049c-.066-.112-.2-.149-.289-.252-.066-.166-.355-.325-.526-.401-.252-.088-.37-.428-.66-.48-.007-.011-.03-.007-.037-.002-.066-.043-.14-.08-.207-.12 0 0-.26-.137-.452-.156-.2-.022-.29.054-.008.423l-.007.008c.096.076.163.114.267.1-.023.071.089.053.103.087l-.007.004c.096-.012.104.114.193.107 0 .003-.015.02-.03.012.052.018.119.043.096.08.112.054.245.167.356.158l-.015.007c.067-.01.052.029.112.04-.008.007-.008.01-.008.012.074-.006.119.081.163.092l-.015.023.082.056-.022-.027c.06-.05.022.081.111.092.044.05.222-.03.244.047.052-.003-.066.021-.007.036-.03.03-.037.002-.052.033.052.02.03.085.09.106l-.023.024c.104.013.074.132.148.131.082.041-.037.1.067.12l-.008.052c.015.03.06-.015.067.028-.022.015.015.05-.022.049.022.09.163.1.178.231.06-.01.067.055.111.046-.015.016.067.096-.015.072-.007-.002-.015-.01-.007-.015l-.03.011c-.015.085.096.077.126.136 0-.021-.015-.04.015-.038l.03.051-.038.005.038.081.022-.027c.015.045-.03.086.037.104.037.006.015-.057.052-.023.007.061.022.15.052.22.03-.023.037-.005.059.01l-.03.016c.082.05-.052.058.015.112l-.022.004.074-.011c.096.036-.044.063.074.097-.015-.026.06-.045.067-.003l-.037.004c.022.017.037.018.037.034-.022-.004-.045.013-.022.04l-.052-.003.081.03c-.007.056.067.105.037.143 0 0 .03.101.09.1-.038-.004-.023.052-.06.054.044.009.111.066.096.112l-.007-.004c.03.125.156.156.185.272.03-.024.045.036.082-.004.104.066.06.23.207.17.037.033.015.069.03.094l-.015-.004c.082.066.096.082.17.14.045.015.09-.03.141.02-.037.01-.007.022.015.036-.015-.006-.022 0 0 .033a.044.044 0 0 1 .023-.004v.006c.044.015.044.003.03-.01v-.019c.021.055.118.054.103.099.133.043.244.022.348.028.008.025-.022.043-.052.043.023.004.052.004.075.007-.008.033-.045.011-.075.012.082.075.2-.018.304.042l.022-.025.008.005c0-.014.03-.032.044-.037.015.03-.007.069.052.07.037.032.119-.016.178-.031-.037-.005-.022-.022-.015-.032.03-.002.045.025.067.01l.007.04c-.014-.036.067-.047.075-.063.014.027-.038.029-.045.051.111-.014.052-.006.163-.027.052-.04-.015-.036 0-.075.052-.014.09-.057.148-.047l-.03-.03c.082-.052.134-.064.2-.059.127-.138.134-.246.12-.301-.015-.058-.045-.087-.09-.09a.25.25 0 0 0-.096-.008.273.273 0 0 0-.044.005c-.163.007-.223.13-.475.184ZM50.992 105.478c.171-.081.26-.049.408-.172.082-.042.163-.107.237-.16 0-.067.097-.062.119-.126l.037.016c0-.022.015-.042.037-.037l.008.008c.007-.033.044-.036.044-.053l.007.008.023-.019.007.013a.156.156 0 0 1 .104-.081l-.023-.029c.097-.011.082-.092.178-.092l.008.008c.03-.134.178-.025.215-.158-.008.017.015.013.022.021.03-.034.074-.066.03-.127.037-.018.044.004.059.024-.015-.026 0-.053.022-.07v.017l.06-.052-.045-.04c.044-.009.052.054.074.02l-.03-.04c.06-.022.134.02.2.018.216-.116.342-.364.571-.441l.037.021c.045.038-.007-.099.03-.067v-.036c.015.002.037 0 .037.017.015-.015.007-.022.015-.045l.044.007c.09-.045.097-.149.178-.212.148-.04.245-.265.29-.392.007-.102.096-.164.17-.247.081-.075.148-.171.133-.279.015-.004 0-.024-.007-.026l.052-.176s.007-.054.014-.127a.484.484 0 0 0-.044-.228c-.03-.066-.074-.106-.133-.089-.067.015-.156.091-.275.213l-.014-.003c-.038.072-.045.114.007.175-.082-.005-.022.059-.052.071l-.007-.003c.052.06-.074.077-.037.133 0-.004-.023-.011-.023-.02 0 .032 0 .08-.044.066-.022.074-.082.161-.052.237l-.007-.009c.022.048-.015.036-.015.077l-.008-.003c.023.053-.051.082-.051.114l-.023-.014-.037.057.022-.017c.06.054-.074.012-.066.078-.037.027.074.173.007.187.015.041-.03-.054-.037-.01-.03-.026-.007-.028-.037-.044-.007.037-.074.012-.081.06l-.023-.02c0 .078-.103.043-.096.105-.022.057-.096-.042-.089.042l-.052-.016c-.022.011.022.05-.015.053-.015-.02-.037.006-.044-.023-.082.007-.06.128-.17.123.022.052-.038.053-.023.092-.015-.016-.067.048-.067-.019 0-.006.008-.01.015-.002l-.015-.028c-.074-.017-.052.077-.096.097.022 0 .037-.013.037.012l-.037.022-.007-.026-.067.025.03.021c-.038.005-.082-.032-.082.025 0 .03.052.018.03.045-.052.007-.126.015-.178.038.022.027.015.035 0 .049l-.015-.025c-.03.067-.067-.046-.089.014l-.015-.021.03.063c-.008.081-.067-.039-.06.063.015-.016.045.053.015.057l-.015-.03c-.007.014-.007.027-.014.028-.008-.019-.023-.04-.045-.024l-.007-.04-.008.071c-.044-.01-.066.053-.103.024 0 0-.082.021-.067.069 0-.032-.044-.021-.052-.055 0 .038-.037.09-.074.072v-.005c-.096.013-.096.117-.193.118.03.03-.022.034.015.068-.037.08-.178-.007-.118.131-.03.025-.06-.007-.082-.004l.007-.011a.452.452 0 0 1-.11.079c-.016.025.014.084-.03.093 0-.03-.015-.016-.03-.008.007-.009 0-.019-.03-.023.008.009.008.015 0 .022v-.006c-.022.023-.015.027 0 .024 0 .004.008.007.015.011-.044-.014-.067.044-.096.007-.067.052-.097.123-.141.174-.022-.015-.022-.042-.008-.06l-.037.033c-.022-.029.008-.031.023-.044-.082-.017-.075.108-.163.101v.031l-.008-.002c.008.012.008.036 0 .045-.022-.02-.037-.058-.066-.039-.038-.01-.06.052-.082.083.022-.005.022.012.022.025-.015.01-.037-.01-.044.008l-.023-.033c.03.028-.014.057-.014.074-.023-.02.014-.035 0-.056-.052.038-.03.019-.082.058-.015.044.022.028.03.067-.023.023-.037.062-.082.062l.03.024c-.037.054-.067.07-.126.06-.23.477.148.383.148.383.2-.026.215-.161.386-.293ZM50.563 92.894c.17-.081.26-.048.407-.172.082-.042.164-.106.238-.16.007-.067.096-.061.118-.126l.037.016c0-.022.015-.041.037-.036l.008.008c.007-.033.044-.037.044-.053l.008.008.022-.02.007.014a.157.157 0 0 1 .104-.082l-.022-.029c.096-.01.081-.091.178-.091l.007.008c.03-.134.178-.025.215-.16-.007.017.015.014.022.022.037-.034.075-.066.037-.127.03-.017.038.004.052.025-.014-.026 0-.054.03-.07l-.008.017.06-.052-.045-.041c.045-.008.052.054.075.021l-.03-.04c.06-.023.133.02.2.017.215-.115.34-.363.57-.44l.038.02c.044.038-.008-.099.03-.067v-.036c.014.002.036 0 .036.018.015-.016.015-.022.015-.046l.045.007c.089-.044.096-.15.178-.212.148-.04.244-.264.281-.392.015-.101.104-.164.178-.246.082-.077.148-.172.134-.28.014-.003 0-.024-.008-.026l.052-.175s.015-.055.015-.127a.483.483 0 0 0-.045-.228c-.03-.067-.074-.107-.14-.09-.06.016-.149.092-.267.214l-.015-.004c-.037.073-.045.115.007.176-.081-.006-.022.058-.052.071l-.007-.003c.052.06-.074.076-.037.133 0-.004-.022-.012-.022-.021 0 .033 0 .08-.045.067-.022.073-.081.16-.052.237l-.007-.01c.022.048-.015.037-.015.076-.007 0-.007 0-.007-.002.022.053-.052.083-.052.115l-.022-.015-.038.057.023-.016c.06.053-.074.011-.067.077-.037.028.074.174.008.187.014.041-.03-.054-.03-.01-.037-.026-.015-.028-.045-.044-.007.038-.074.012-.081.06l-.022-.02c.007.08-.104.043-.09.106-.029.057-.103-.042-.096.042l-.052-.016c-.022.01.03.05-.007.052-.022-.02-.044.007-.052-.023-.081.008-.06.128-.17.123.022.052-.037.054-.023.092-.014-.016-.066.049-.066-.02.007-.005.007-.008.014 0l-.014-.028c-.074-.017-.052.077-.097.097.023 0 .037-.014.037.01l-.037.023-.014-.026-.06.026.03.02c-.037.005-.082-.032-.082.025 0 .03.052.018.03.046a.683.683 0 0 0-.178.038c.022.027.015.034 0 .048l-.015-.025c-.03.068-.066-.046-.089.014l-.014-.02.03.062c-.008.081-.068-.039-.06.064.015-.017.044.053.015.056l-.015-.03c-.008.015-.008.028-.015.028-.007-.019-.022-.04-.044-.023l-.008-.04v.07c-.052-.01-.074.053-.111.025 0 0-.074.02-.067.069 0-.033-.044-.021-.052-.055 0 .037-.037.09-.074.071v-.005c-.096.014-.096.117-.192.12.03.028-.023.032.014.066-.037.08-.178-.006-.118.13-.03.026-.06-.006-.082-.003l.008-.01a.485.485 0 0 1-.111.079c-.015.025.022.083-.03.092 0-.03-.015-.016-.03-.007.008-.01 0-.02-.03-.023.008.008.008.015 0 .021v-.005c-.022.022-.007.027 0 .023.008.004.008.008.015.012-.044-.014-.066.044-.096.006-.067.053-.096.124-.14.175-.023-.016-.023-.042-.008-.06l-.037.032c-.023-.029.015-.03.022-.044-.081-.016-.074.109-.163.102v.03l-.007-.002c.007.012.007.036 0 .046-.023-.02-.038-.058-.067-.039-.037-.01-.06.051-.082.084.023-.007.03.01.023.024-.015.01-.038-.01-.045.007l-.022-.033c.03.029-.015.058-.015.075-.022-.02.015-.036 0-.057-.052.039-.022.02-.081.058-.015.044.022.029.03.067-.023.023-.038.063-.082.062l.03.024c-.038.055-.067.07-.127.06-.23.478.148.383.148.383.2-.025.215-.16.386-.293ZM46.79 107.032c.089.107.067.181.193.258.052.05.118.088.17.127.067-.017.067.059.134.052l-.015.032c.022-.003.044 0 .037.021l-.008.005c.038-.003.037.022.052.02v.006l.015.013-.007.006a.096.096 0 0 1 .081.057l.03-.028c.015.074.089.034.096.11l-.007.006c.133-.02.044.127.17.113-.015.001-.015.017-.022.022.037.017.067.038.126-.014.015.019-.007.031-.022.053a.05.05 0 0 1 .067-.004l-.015.002.052.031.037-.051c.007.034-.052.058-.023.067l.038-.035c.03.035-.008.107-.008.16.111.132.348.166.415.335l-.022.033c-.037.043.089-.031.06.011l.036-.006c-.007.01-.007.025-.022.029.015.013.022.006.044.002l-.007.038c.037.065.133.051.185.106.03.109.215.158.327.175.163-.003.222.266.415.231 0 .009.022-.003.022-.009.044.017.089.034.14.047 0 0 .045.012.097.018.06.004.133.005.193-.018.059-.022.096-.058.089-.12-.008-.064-.06-.147-.141-.273l.007-.011c-.052-.036-.089-.051-.14-.003.014-.072-.045-.018-.053-.046v-.005c-.051.041-.051-.065-.103-.031 0-.006.015-.024.022-.022-.03-.001-.074.002-.052-.038-.067-.012-.133-.066-.2-.026l.007-.01c-.044.03-.03-.007-.066.001 0-.005 0-.009.007-.011-.052.026-.074-.032-.104-.026l.015-.024-.044-.022.014.016c-.051.061-.007-.062-.066-.04-.023-.026-.163.09-.17.037-.038.019.051-.038.007-.031.03-.032.03-.013.044-.043-.03 0-.007-.057-.052-.054l.023-.026c-.075.02-.038-.079-.097-.054-.052-.007.045-.089-.037-.07l.022-.043c-.014-.017-.052.031-.052.002.023-.019-.007-.033.023-.045-.008-.061-.119-.017-.111-.111-.052.029-.052-.015-.09.008.015-.018-.044-.046.015-.058.008-.001.008.003 0 .009l.03-.02c.015-.066-.074-.02-.096-.051 0 .015.015.022-.008.032l-.022-.026.022-.014-.022-.045-.022.028c-.008-.028.03-.074-.022-.059-.03.009-.015.047-.045.036a.443.443 0 0 0-.044-.132c-.023.029-.03.021-.045.018l.022-.023c-.066.001.038-.062-.022-.066l.022-.014-.059.04c-.081.017.03-.062-.067-.031.015.008-.044.056-.051.032l.03-.019c-.016-.004-.03.003-.03-.007.014-.007.037-.03.014-.037l.037-.02-.066.018c.007-.041-.052-.04-.03-.078 0 0-.022-.052-.067-.027.03-.014.015-.043.045-.061-.037.014-.09.004-.074-.033h.007c-.022-.069-.118-.038-.133-.107-.023.027-.03-.007-.06.031-.081-.005-.007-.14-.133-.05-.022-.013 0-.046 0-.061l.007-.001a.22.22 0 0 1-.081-.062c-.03-.002-.082.044-.089.011.03-.013.015-.018 0-.027.015.003.022-.002.022-.027a.038.038 0 0 1-.022.007c0-.002.007-.003.007-.005-.022-.007-.03.001-.022.01 0 .003-.007.007-.007.015.007-.04-.052-.039-.015-.074-.06-.035-.126-.031-.178-.053a.061.061 0 0 1 .06-.024l-.038-.019c.023-.024.03 0 .045.003.007-.069-.111-.021-.111-.092l-.03.012.007-.005c-.014.01-.037.016-.044.014.015-.026.052-.048.03-.064.007-.034-.052-.029-.09-.035.008.013-.007.022-.014.025-.015-.007 0-.034-.015-.032l.03-.029c-.023.031-.052.007-.067.016.015-.027.03-.005.052-.02l-.067-.047c-.037.003-.022.031-.06.047-.022-.011-.059-.007-.066-.043l-.015.031c-.06-.01-.074-.031-.067-.078-.467-.019-.348.237-.348.237.037.145.163.117.304.204ZM51.075 52.298c.03.374-.045.516.11.934.06.2.186.411.253.554.089.058.089.22.17.302l-.014.048c.03.028.051.064.051.103l-.014.001c.044.042.051.105.074.126h-.015l.03.06-.015-.006c.059.08.089.171.11.255l.03-.019c.023.186.127.224.134.396l-.008.001c.171.163.052.335.23.507-.022-.021-.014.018-.022.02.052.09.104.19.178.161.03.07.007.065-.015.087.03-.014.074.04.104.093l-.022-.019.089.14.044-.056c.022.082-.06.054-.007.117l.044-.024c.052.107.015.202.03.315.2.417.519.835.556 1.274l-.03.028c-.052.023.111.093.067.122l.037.042c0 .016-.008.047-.022.026.007.045.014.044.044.072l-.022.056c.015.185.118.32.148.516-.015.24.148.676.274.92.052.085.082.176.119.272.03.097.052.2.089.299.06.204.163.403.319.54 0 .015.037.03.044.026.074.095.148.194.23.285 0 0 .081.08.185.178.104.103.26.206.378.274.252.14.386.107.067-.462l.015-.003c-.112-.147-.186-.231-.327-.28.052-.062-.089-.119-.096-.166h.008c-.12-.05-.104-.2-.2-.259.007.001.03-.008.044.01-.052-.057-.126-.133-.089-.159-.052-.072-.096-.17-.148-.253-.052-.085-.09-.167-.148-.208l.014.003c-.074-.045-.044-.075-.089-.14.008-.005.008-.01.008-.01-.067-.056-.074-.199-.104-.253l.03-.01-.045-.14.008.054c-.09 0 .014-.117-.06-.211-.015-.1-.215-.165-.2-.276-.044-.042.074.03.03-.037.037-.011.03.029.06.004-.038-.069.021-.128-.03-.212l.03-.01c-.082-.104-.008-.23-.082-.296-.06-.115.074-.104-.023-.215l.03-.06c-.008-.056-.067-.025-.06-.09.023-.004 0-.082.03-.054.008-.148-.148-.256-.133-.456-.067-.022-.074-.118-.126-.133.022-.013-.067-.177.022-.096.008.007.015.022.008.024l.037.001c.014-.12-.112-.17-.141-.27 0 .032.022.07-.008.052-.014-.031-.03-.06-.044-.09l.037.008-.052-.14-.022.032c-.015-.071.03-.118-.052-.172-.037-.022-.008.08-.052.016a1.903 1.903 0 0 0-.111-.35c-.03.027-.045-.003-.067-.028l.03-.019c-.111-.093.037-.075-.06-.171h.03l-.081.001c-.119-.072.03-.087-.104-.142.03.034-.06.05-.067-.008h.03c-.015-.025-.037-.03-.037-.05.022.01.044-.01.022-.05l.052.013c-.03-.019-.067-.038-.096-.058.007-.075-.082-.162-.045-.204 0 0-.037-.148-.096-.164.037.019.014-.064.059-.053-.044-.026-.119-.126-.096-.182l.007.007c-.03-.174-.156-.263-.163-.426-.037.02-.044-.065-.089-.03-.104-.14-.007-.312-.17-.32-.037-.068 0-.095 0-.134l.007.015a2.871 2.871 0 0 1-.111-.266c-.03-.044-.104-.028-.119-.121.037.018.015-.016 0-.05.015.02.03.024.03-.026a.056.056 0 0 1-.03-.019s0-.003.008-.003c-.037-.053-.045-.04-.03-.012-.007 0-.015.004-.015.014.008-.073-.074-.154-.03-.176-.081-.146-.163-.242-.222-.37.022-.022.052.004.074.039l-.037-.09c.037-.008.037.048.052.074.022-.12-.119-.216-.089-.359l-.03-.025v-.008c-.014.003-.037-.025-.044-.045.03-.023.067-.007.06-.075.021-.057-.038-.153-.06-.225 0 .04-.022.029-.03.013-.007-.035.023-.06 0-.086l.045-.008c-.037.019-.06-.09-.074-.1.022-.026.037.052.059.058l-.044-.22c-.052-.073-.038.022-.082-.008-.022-.067-.074-.124-.074-.208l-.03.035a.528.528 0 0 1-.104-.276c-.177-.186-.31-.253-.385-.278-.081-.023-.118.003-.126.048a.375.375 0 0 0 .015.154c.022.052.03.089.03.089.088.321.237.401.326.814ZM49.837 62.214c-.134.272-.238.313-.364.617-.074.138-.14.297-.2.444.015.096-.081.175-.081.265l-.045.013c0 .03-.007.064-.037.08l-.007-.006c0 .047-.037.08-.037.104l-.008-.006-.022.045-.007-.014a.517.517 0 0 1-.112.19l.03.015c-.118.097-.089.184-.215.266l-.007-.007c-.015.195-.223.182-.252.383 0-.025-.022-.003-.03-.009-.044.075-.089.154-.022.194-.037.052-.052.03-.082.022.03.017.015.069-.014.11l.007-.025-.074.12.074.009c-.06.052-.081-.022-.104.045l.052.024c-.067.081-.163.095-.252.164-.222.35-.274.796-.49 1.122l-.044.003c-.059-.009.045.124-.007.122l.007.049c-.014.009-.03.03-.037.006-.014.039-.007.042.008.075l-.052.032c-.074.147-.037.294-.089.455-.126.182-.119.572-.104.79.052.307-.192.656-.081.974-.008.01.007.036.014.035l.015.288s.023.35.119.554c.096.207.215.251.378-.275l.007.005c.015-.15.008-.24-.059-.338.074-.022 0-.123.022-.159l.008.004c-.075-.088.037-.187-.015-.272.007.003.03.005.03.025-.015-.063-.03-.15.014-.154-.007-.15.023-.358-.044-.459l.015.007c-.045-.058 0-.07-.023-.135.008-.003.015-.007.015-.005-.044-.065.015-.177 0-.227h.03l.007-.12-.007.044c-.082-.026.06-.083.022-.176.03-.078-.14-.193-.081-.271-.03-.048.051.047.037-.019.044.007.022.034.059.025-.007-.062.067-.087.06-.163l.029.003c-.037-.107.089-.165.052-.24 0-.101.118-.037.081-.152l.052-.026c.023-.04-.037-.045 0-.084.023.01.037-.052.06-.018.074-.089.007-.23.14-.338-.044-.048.015-.104-.015-.14.023.004.067-.132.082-.039 0 .008-.007.019-.015.014l.023.021c.096-.05.037-.148.081-.218-.022.018-.037.048-.044.02l.037-.067.014.025.067-.095h-.037c.037-.042.104-.034.089-.11-.015-.036-.067.027-.052-.029.06-.056.14-.138.2-.213-.037-.01-.022-.031-.015-.057l.03.012c.015-.108.082.003.104-.099l.015.019-.045-.056c-.007-.108.082-.006.06-.134-.015.036-.075-.022-.03-.055l.022.026c.007-.026 0-.04.015-.052.007.023.037.031.052-.004l.022.043-.008-.094c.06-.03.082-.127.134-.123 0 0 .096-.09.074-.141.008.038.06-.013.074.023-.007-.045.03-.14.09-.152v.009c.118-.098.11-.233.229-.319-.037-.015.022-.063-.03-.074.037-.14.23-.166.126-.285.03-.059.074-.048.097-.075v.018c.052-.112.066-.145.11-.226.008-.047-.058-.08-.007-.14.015.032.023.002.038-.023-.008.018 0 .027.037.002-.008-.009-.008-.018-.008-.027l.008.003c.007-.047 0-.043-.015-.025-.008-.002-.008-.004-.022 0 .059-.03.059-.124.11-.11.053-.132.053-.244.09-.36.03-.001.037.033.03.068l.036-.08c.03.015-.007.052-.015.079.104-.068.045-.211.149-.3l-.015-.034.007-.005c-.014-.005-.022-.038-.022-.056.037-.003.067.029.089-.027.052-.033.044-.13.052-.195-.015.03-.03.014-.037-.003.015-.029.052-.034.044-.06l.045.01c-.045-.002-.015-.088-.03-.104.037-.007.008.053.03.067.037-.116.022-.058.06-.176-.016-.071-.045 0-.075-.04.015-.055-.008-.116.037-.173l-.044.012c0-.11.014-.168.066-.233-.044-.206-.118-.31-.17-.358-.052-.05-.097-.047-.126-.019a.245.245 0 0 0-.082.11c-.015.037-.022.07-.022.07-.119.247-.037.393-.133.724ZM50.296 67.08c.17.133.17.217.363.323.081.064.178.12.26.175.073-.01.096.082.17.085v.037c.022.002.044.008.052.033l-.008.006c.037.002.052.034.067.034l-.008.006.03.02-.015.005a.197.197 0 0 1 .112.09l.03-.027c.029.094.118.07.133.164l-.008.005c.148.023.045.164.186.198-.015-.005-.015.015-.023.019.037.033.067.074.134.04.022.031-.008.035-.03.052.03-.015.06.005.074.029l-.015-.006.037.065.052-.037c0 .045-.066.037-.037.067l.052-.017c.015.056-.044.124-.052.198.023.066.052.13.09.192.044.06.096.117.14.175.081.12.193.217.23.353l-.023.032c-.037.04.12.003.09.042l.037.007c0 .013.007.033-.015.03.022.023.03.017.051.02v.047c.06.103.193.112.275.2a.541.541 0 0 0 .237.176c.104.04.208.072.29.084.229.017.4.296.63.272.007.01.029-.002.029-.007l.178.064s.044.02.11.038c.03.01.053.022.09.029a.23.23 0 0 0 .074.017c.03.005.089.01.148-.02a.144.144 0 0 0 .06-.108.156.156 0 0 0-.015-.113.445.445 0 0 0-.067-.143l.007-.008c-.103-.09-.17-.114-.267-.088.015-.073-.081-.036-.103-.066l.007-.004c-.081.03-.111-.085-.193-.057.008-.004.015-.024.03-.02-.044-.005-.111-.008-.096-.05-.104-.02-.23-.088-.32-.048l.008-.01c-.052.028-.044-.012-.096-.008v-.011c-.052.024-.111-.04-.148-.039l.015-.026-.075-.031.023.02c-.052.061-.03-.071-.104-.054-.037-.037-.185.074-.215.01-.044.015.06-.034.007-.034.023-.033.03-.01.045-.042-.052-.005-.03-.069-.082-.077l.023-.026c-.09.005-.06-.103-.134-.087-.067-.028.045-.097-.052-.1l.015-.046c-.007-.024-.052.02-.06-.015.023-.016-.007-.04.023-.045-.007-.073-.133-.072-.126-.182-.06.014-.06-.039-.104-.031.023-.015-.037-.08.03-.062.007.001.007.008 0 .012l.037-.01c.03-.073-.081-.063-.096-.111 0 .018.007.034-.015.032l-.023-.043.03-.003-.022-.067-.022.023c0-.038.052-.072-.015-.088-.03-.006-.03.047-.052.018 0-.052.007-.127-.007-.184-.03.018-.037.003-.052-.009l.03-.012c-.075-.049.059-.049-.008-.11l.022-.002-.074.006c-.089-.04.052-.066-.067-.099.015.025-.059.044-.066.006l.037-.006c-.023-.015-.037-.015-.037-.03.022.003.044-.015.022-.04h.052l-.082-.023c.008-.058-.074-.09-.044-.13 0 0-.037-.091-.09-.08.038-.002.008-.05.053-.057-.045 0-.119-.04-.104-.084l.007.002c-.044-.105-.163-.104-.192-.2-.03.027-.045-.021-.075.02-.103-.035-.051-.191-.192-.11-.037-.023-.008-.058-.022-.078l.014.001c-.066-.047-.089-.06-.133-.1-.03-.009-.081.038-.111-.008.03-.01.007-.02-.008-.032.015.005.023 0 .015-.03a.044.044 0 0 1-.022.004c0-.002 0-.004.007-.006-.037-.013-.037-.003-.03.01 0 .002-.007.007-.007.015 0-.047-.074-.057-.044-.095-.09-.054-.178-.058-.26-.094.008-.024.038-.029.067-.022l-.052-.028c.023-.026.037.005.06.01-.023-.086-.156-.04-.193-.128l-.03.012v-.007c-.007.011-.037.017-.052.014.008-.03.045-.054.008-.076-.008-.041-.082-.04-.126-.05.014.016 0 .026-.015.029-.022-.01-.008-.04-.03-.039l.023-.034c-.015.035-.075.004-.09.014.008-.031.045-.004.06-.02-.067-.04-.03-.02-.104-.061-.052.001-.015.035-.052.053-.037-.014-.089-.01-.11-.054l-.008.037c-.082-.015-.112-.04-.134-.096-.311-.016-.393.056-.393.128 0 .073.067.147.067.147.133.171.282.139.497.248Z" clip-rule="evenodd"/><path fill="#fff" fill-rule="evenodd" d="M38.333 77.275c-.082.063-.186.099-.245.176-.163.194.096.489.363.48.26-.007.474-.191.66-.362.192-.171.407-.351.674-.352.178 0 .341.084.512.133.43.126.94.007 1.26-.297.363-.347.504-.907.978-1.111.578-.251 1.364.174 1.853-.212.378-.3.319-.933.734-1.18.192-.112.43-.11.652-.143.4-.057.778-.234 1.06-.498.044-.04.089-.085.096-.14.015-.071-.03-.139-.081-.195-.63-.765-1.95-.924-2.772-.333-.349.25-.593.6-.905.885-.296.266-.748.533-1.163.413-.104-.51.652-1.36-.526-1.198-.845.116-.742 1.266-1.453 1.339-.111.01-.223-.017-.326.002-.438.076-.364.697-.63 1.02-.149.169-.386.252-.504.437-.223.342.081.872-.237 1.136ZM41.179 83.966c.274-.116.378-.458.66-.58.363-.164.86.129 1.178-.103.244-.174.2-.522.081-.782-.118-.259-.296-.514-.274-.796.008-.073.03-.146.023-.22-.023-.297-.416-.408-.72-.493-.303-.085-.66-.366-.489-.62.111-.165.37-.168.541-.276.267-.168.238-.614-.052-.746a.443.443 0 0 0-.274-.022l.09-.1c-.03.036-.067.068-.104.104-.178.044-.334.18-.371.349-.734.657-1.586 1.206-2.365 1.829-.948.761-1.815 1.698-2.06 2.843.356.21.823.304 1.208.146.563-.23.897-.94 1.512-.911.504.024.949.57 1.416.378ZM50.578 81.396a.75.75 0 0 0-.467-.305c-.156-.026-.311.015-.467.04-.37.056-.838-.202-1.03.102-.193.32-.134.95-.119 1.052-1.134-1.224-1.668.327-1.378 1.407l.022.008a.6.6 0 0 0 .2.308c.155.144.348.25.556.302.096.024.2.039.281.095.067.048.126.128.208.121.089-.007.133-.107.215-.152.096-.061.23-.019.333.032.111.05.23.11.341.078.037-.01.074-.033.119-.04.104-.016.2.072.274.142.074.064.163.12.252.163.03.013.06.025.09.023.051-.003.08-.044.125-.076.074-.06.17-.089.252-.138.082-.049.156-.133.141-.224l.06-.007c.007-.019.007-.038.014-.058l.015-.001a.868.868 0 0 0-.037-.959c-.074-.099-.178-.201-.156-.32.015-.074.074-.132.119-.192.333-.394.348-.992.037-1.4ZM41.549 39.182c.17.42-.082.872-.223 1.301-.14.43-.074 1.03.393 1.146.363.091.763-.186 1.104-.047.245.096.356.357.423.595.104.396.178.811.4 1.16.23.35.667.622 1.097.517.319-.08.637-.358.934-.219.096.05.17.142.237.231.208.283.423.566.638.85.252-.01.17-.373.17-.61.008-.413.57-.654.993-.522.423.132.697.498.92.855.222.359.422.747.785.986.363.238.941.254 1.186-.088.163-.218.14-.514.296-.736.238-.353.779-.37 1.223-.326.445.046.964.094 1.283-.2.155-.319-.186-.652-.504-.837-.32-.186-.705-.425-.675-.776.015-.165.126-.308.17-.47.142-.497-.355-.939-.785-1.255-.237-.17-.474-.38-.63-.613.007-.158.06-.323.207-.383.252-.1.482.164.734.257.29.106.66-.06.749-.339.067-.212-.008-.443-.134-.633a1.773 1.773 0 0 0-.882-.697 2.449 2.449 0 0 1-.23-.095.51.51 0 0 1-.021-.331l.029-.012c.222.232.697.11.83-.183.134-.302-.015-.657-.26-.899-.37-.377-.963-.597-1.14-1.083-.112-.295-.03-.62-.067-.93-.06-.485-.423-.926-.912-1.104-.415-.152-.926-.145-1.208-.468-.163-.19-.2-.457-.378-.637-.23-.233-.608-.249-.927-.37-.533-.207-.852-.719-1.252-1.108-.408-.39-1.105-.663-1.55-.308-.363.29-.318.822-.185 1.25.467 1.49 1.601 2.705 2.446 4.046.126.208.186.567-.074.606-.089.014-.185-.034-.267-.08l-2.134-1.202c-.349-.196-.712-.396-1.12-.417-.407-.022-1.43.393-1.497.766-.378.48.06 1.313-.437 1.685-.133.098-.304.14-.415.255-.208.214-.097.564.096.79.193.228.452.412.564.682ZM45.292 70.532c.119.01.215-.081.326-.121.163-.06.37.008.452.151.037.069.06.154.126.198.082.05.193.023.252-.041.193-.182.052-.55.274-.694.215-.14.608.074.75-.136a.27.27 0 0 0 .014-.215c-.089-.281-.445-.506-.356-.788.037-.118.148-.206.193-.322.052-.147-.015-.306-.037-.46a.745.745 0 0 1 .074-.447c.081-.045.126-.135.2-.176a.517.517 0 0 1 .237-.035c.341.026.534.475.83.439.149-.018.237-.168.252-.305.023-.137 0-.28.045-.412.081-.25.43-.385.682-.266.133.064.244.187.393.178.215-.013.289-.275.266-.473-.03-.198-.096-.424.037-.579.06-.067.156-.11.193-.191.067-.135-.052-.284-.178-.383-.326-.275-.689-.423-1.067-.624-.245-.132-.378-.406-.615-.524-.126-.06-.215-.053-.341-.02-.097.024-.163.097-.252.118-.104.024-.208-.014-.304.006-.37.074-.215.427-.474.612-.171.129-.46.016-.638.136-.14.093-.155.279-.237.421-.089.16-.26.26-.408.384-.14.123-.26.305-.2.476.119.33.712.242.927.527a.6.6 0 0 1 .089.253c-.045.025-.097.052-.141.078-.163.101-.334.208-.438.362-.037.06-.066.127-.118.178-.133.13-.356.117-.549.118-.192.002-.43.057-.474.231-.03.097.015.199 0 .298-.022.241-.363.403-.326.644.037.222.37.302.452.513.06.158-.045.325-.089.486-.044.162 0 .39.178.405ZM56.358 69.45c-.052-.403-.415-.703-.756-.955-.26-.191-.526-.383-.845-.465-.585-.152-.711.246-.808.776-.096.504-.645.816-1.163.652-.423-.134-.845-.285-1.12-.202-.815.25-1.104 1.12-.17 1.495.4.16.852.13 1.29.095.088-.007.192-.013.266.036.149.095.104.324.23.442.156.138.4.035.608.033.267-.002.497.173.667.365.163.19.304.412.511.562.215.15.534.207.734.045.17-.137.2-.378.156-.585-.045-.207-.134-.406-.141-.616-.022-.59.608-1.09.541-1.677ZM58.664 84.028c-.185-.095-.415-.22-.407-.42.007-.094.06-.18.081-.271.067-.288-.23-.524-.489-.691a1.56 1.56 0 0 1-.378-.33c0-.089.022-.184.104-.223.14-.064.281.08.43.124.17.052.37-.053.415-.214.03-.122-.022-.25-.096-.356a1.046 1.046 0 0 0-.527-.37 1.265 1.265 0 0 1-.133-.046.276.276 0 0 1-.023-.188l.015-.008c.134.126.4.042.46-.128.067-.175-.03-.373-.17-.503-.223-.203-.571-.311-.69-.581-.067-.165-.037-.352-.067-.527a.811.811 0 0 0-.556-.6c-.237-.074-.533-.055-.704-.23-.096-.104-.126-.254-.237-.352-.133-.126-.348-.123-.533-.182-.312-.102-.512-.383-.749-.593-.245-.21-.652-.344-.89-.13-.2.176-.155.476-.066.716.319.833 1 1.49 1.527 2.227.081.114.126.317-.023.346-.051.01-.103-.014-.155-.038-.415-.206-.838-.413-1.253-.62-.207-.1-.422-.204-.652-.204-.23 0-.793.265-.823.478-.2.285.082.745-.193.97-.066.06-.163.09-.222.158-.111.127-.037.323.082.446.11.123.267.22.34.37.112.234-.014.498-.08.746-.068.248-.008.587.258.64.208.04.43-.129.63-.06.141.047.208.193.252.326.082.221.134.455.275.647.14.192.4.334.637.261.178-.054.349-.222.519-.151.067.025.104.075.148.124.126.154.26.309.386.463.148-.012.089-.216.081-.35-.015-.236.304-.389.549-.327.237.063.407.263.548.46.134.197.267.41.482.536.207.125.541.117.667-.085.082-.128.067-.295.14-.426.127-.208.43-.234.69-.222.252.014.549.026.72-.15.08-.186-.127-.365-.32-.462ZM45.285 107.918c.17-.102.281-.269.4-.418.126-.149.282-.294.482-.315.289-.031.57.197.845.098.103-.255.319-.468.585-.582.119-.049.245-.082.349-.157.303-.233.163-.707-.09-.99-.385-.422-.933-.661-1.504-.821-.408-.228-.83-.441-1.29-.547-.555-.127-1.185-.078-1.63.259.267.134.526.268.785.402a.48.48 0 0 1 .208.152c.044.07.037.177-.037.219l-1.208-.334c-.111-.031-.23-.063-.341-.039-.119.023-.223.123-.208.231.015.082.09.142.163.192.193.138.386.276.586.413-.408.079-.808.179-1.194.298-.163.049-.355.154-.325.309.022.104.148.17.17.275.03.17-.23.32-.156.479.082.175.37.043.563.105.364.116.12.757.46.918.222.107.467-.11.638-.285.14-.144.31-.278.518-.327.208-.049.453.011.556.181.052.078.067.172.126.244.119.15.378.141.549.04ZM42.038 94.422c.186.013.371.083.564.085.415.005.748-.303 1.112-.492a2.12 2.12 0 0 1 1.267-.214c.2.028.415.087.608.022.185-.062.318-.223.489-.309.356-.175.778-.006 1.164.108.266.08.57.131.837.028.26-.104.445-.41.311-.646-.133-.233-.533-.379-.444-.63.052-.145.244-.19.385-.274.274-.169.348-.547.208-.827-.141-.28-.445-.463-.764-.546-.482-.123-.993-.049-1.445.136a2.098 2.098 0 0 0-.334.176c-.452.16-1.845 1.186-2.194 1.3-.94.308-1.704 1.172-2.609 1.565-.274.12-.57.222-.793.416-.215.194-.348.515-.207.766.667-.081 1.178-.71 1.845-.664ZM52.208 49.912c-.578.183-1.193-.166-1.297-.727-.104-.592-.252-1.036-.904-.866-.348.091-.652.305-.941.518-.378.282-.786.616-.838 1.067-.074.655.623 1.211.6 1.87-.007.234-.11.456-.155.687-.045.23-.022.5.17.652.223.18.578.117.816-.05.237-.168.392-.414.578-.627.185-.214.444-.41.741-.407.23.002.511.117.675-.037.14-.132.096-.386.259-.492.089-.055.2-.048.296-.04.49.037.994.072 1.438-.107 1.045-.419.72-1.388-.185-1.667-.304-.093-.778.076-1.253.226ZM53.29 58.404c-.705.07-1.364-.39-1.764-.815-.423-.456-.727-.983-1.216-1.398-1.164-.98-3.335-1.053-4.558-.153-.097.068-.186.15-.186.248 0 .078.06.148.119.211.385.42.949.743 1.571.907.349.092.734.142 1.008.336.608.427.341 1.272.867 1.763.675.63 2.069.224 2.928.69.704.38.779 1.172 1.275 1.72.43.484 1.216.756 1.95.679.288-.03.57-.109.86-.07.422.058.726.351.978.624.259.274.548.57.97.636.423.068.92-.274.72-.573-.082-.118-.245-.189-.349-.293-.445-.426.185-1.082-.074-1.593-.133-.276-.504-.442-.69-.702-.348-.498-.059-1.326-.74-1.523-.164-.049-.349-.036-.52-.074-1.133-.254-.651-1.794-1.978-2.133-1.853-.475-.875.841-1.171 1.513ZM50.362 116.112c-.615-.291-.986-.38-1.483.188-1.66 1.91 2.669 1.713 2.639 2.046.119-1.164.052-1.659-1.156-2.234ZM48.072 118.694c-.563-.306-.822-.136-1.208.258-.756.777-.645 1.177-.192 2.048-.126-.25 3.29-1.281 1.4-2.306ZM47.307 114.959c.097.035.178.093.275.117.111.028.23.004.34-.027.594-.165 1.187-.573 1.476-1.091.518-.937.037-.674-.541-1.243-.2-.201-.341-.449-.527-.662-.096-.114-.23-.226-.385-.229-.208-.005-.356.167-.556.216-.385.1-.8-.303-1.171-.151-.252.106-.319.422-.282.682.03.26.134.524.067.778s-.415.463-.63.298c-.044.313-.245.734-.148.959-.06.053-.126.106-.186.161a.663.663 0 0 0-.148.175c-.06.103-.052.224-.044.339a.884.884 0 0 0 .096.337.409.409 0 0 0 .17.147c.104.081.238.143.364.107.348-.096.593-.382.852-.614.267-.232.645-.431.978-.299ZM58.344 104.1c-.407-.231-.081-.814-.37-1.137-.156-.175-.46-.23-.638-.385-.356-.298-.319-.946-.845-.97-.126-.006-.26.036-.385.038-.875.016-.838-1.179-1.86-1.193-1.431-.018-.46.76-.542 1.296-.496.175-1.06-.043-1.43-.279-.4-.254-.727-.581-1.164-.795-1.03-.505-2.616-.178-3.32.687-.052.064-.097.139-.082.21.015.056.074.097.126.132.363.236.838.371 1.32.38.266.004.555-.027.792.065.527.201.504.859.979 1.121.615.335 1.541-.201 2.253-.015.586.151.8.708 1.26 1.019.415.272 1.03.332 1.55.147.2-.071.392-.178.607-.2.311-.032.593.126.83.279.237.152.512.314.83.289.311-.024.608-.359.4-.539-.081-.071-.215-.094-.31-.15ZM57.812 89.14c-.06-.516-.527-.898-.956-1.22-.334-.243-.675-.487-1.075-.592-.749-.194-.92.313-1.038.989-.119.643-.815 1.041-1.482.832-.534-.17-1.082-.364-1.423-.257-1.046.318-1.409 1.426-.215 1.905.504.204 1.082.164 1.638.122.118-.01.244-.016.34.045.186.122.134.413.297.564.193.175.504.044.77.041.342-.002.631.221.846.466.215.244.393.526.66.716.274.192.681.265.94.058.216-.174.245-.482.194-.746-.052-.263-.17-.517-.178-.785-.03-.753.77-1.39.682-2.138ZM37.657 42.66c.192-.005.4.074.563-.01.26-.13.178-.5-.007-.711-.178-.212-.438-.402-.46-.672-.022-.364.415-.677.319-1.03-.111-.38-.72-.421-.927-.765-.089-.14-.089-.317-.2-.444-.185-.231-.57-.176-.86-.063-.289.113-.607.262-.896.148-.112-.045-.2-.126-.304-.191-.26-.17-.586-.227-.897-.28a4.7 4.7 0 0 0-.26-.035c-.044-.143-.074-.287-.037-.43.119-.551 1.06-.77 1.008-1.33-.022-.292-.326-.49-.622-.59-.297-.1-.623-.148-.86-.332-.222-.164-.37-.432-.645-.487-.348-.07-.697.267-1.045.18-.504-.126-.511-.744-1.12-.634-.155.029-.28.146-.451.17-.148.022-.304-.045-.452-.025-.223.027-.356.071-.497.232-.274.318-.282.803-.563 1.144-.423.522-.867.96-1.164 1.564-.111.22-.193.512 0 .675.111.096.274.106.415.172.304.15.363.524.46.835.089.31.378.657.704.55.23-.076.318-.326.467-.499.296-.325.904-.33 1.2-.01.156.17.223.396.341.588.126.193.356.364.586.304.467-.122.452-.906.934-1.145a.811.811 0 0 1 .378-.087c.148.014.274.121.415.144.2.14.348.366.422.62.075.24.082.517.26.704.14.15.37.213.504.367.326.366-.052.912.015 1.383a.429.429 0 0 0 .17.31c.348.228.786-.318 1.2-.24.43.08.475.713.875.873.141.055.327.03.408-.09.074-.107.045-.245.052-.37.03-.263.289-.487.57-.494Z" clip-rule="evenodd"/></svg>