<svg width="16" height="16" viewBox="0 0 16 16" fill="none" xmlns="http://www.w3.org/2000/svg">
<path d="M8 16C5.87827 16 3.84344 15.1571 2.34315 13.6569C0.842857 12.1566 2.83502e-06 10.1217 2.84047e-06 8C2.84592e-06 5.87827 0.842857 3.84344 2.34315 2.34315C3.84344 0.842855 5.87827 -2.60064e-08 8 -2.05549e-08C10.1217 -1.51034e-08 12.1566 0.842855 13.6569 2.34315C15.1571 3.84344 16 5.87827 16 8C16 10.1217 15.1571 12.1566 13.6569 13.6569C12.1566 15.1571 10.1217 16 8 16ZM11.5 8.5C11.6326 8.5 11.7598 8.44732 11.8536 8.35355C11.9473 8.25978 12 8.13261 12 8C12 7.86739 11.9473 7.74021 11.8536 7.64645C11.7598 7.55268 11.6326 7.5 11.5 7.5L5.707 7.5L7.854 5.354C7.94789 5.26011 8.00063 5.13277 8.00063 5C8.00063 4.86722 7.94789 4.73989 7.854 4.646C7.76011 4.55211 7.63278 4.49937 7.5 4.49937C7.36723 4.49937 7.23989 4.55211 7.146 4.646L4.146 7.646C4.09944 7.69244 4.0625 7.74762 4.03729 7.80836C4.01208 7.86911 3.99911 7.93423 3.99911 8C3.99911 8.06577 4.01208 8.13089 4.03729 8.19163C4.0625 8.25238 4.09944 8.30755 4.146 8.354L7.146 11.354C7.23989 11.4479 7.36723 11.5006 7.5 11.5006C7.63278 11.5006 7.76011 11.4479 7.854 11.354C7.94789 11.2601 8.00063 11.1328 8.00063 11C8.00063 10.8672 7.94789 10.7399 7.854 10.646L5.707 8.5L11.5 8.5Z" fill="#fff"/>
<path d="M11.5 8.5C11.6326 8.5 11.7598 8.44732 11.8536 8.35355C11.9473 8.25978 12 8.13261 12 8C12 7.86739 11.9473 7.74021 11.8536 7.64645C11.7598 7.55268 11.6326 7.5 11.5 7.5L5.707 7.5L7.854 5.354C7.94789 5.26011 8.00063 5.13277 8.00063 5C8.00063 4.86722 7.94789 4.73989 7.854 4.646C7.76011 4.55211 7.63278 4.49937 7.5 4.49937C7.36723 4.49937 7.23989 4.55211 7.146 4.646L4.146 7.646C4.09944 7.69244 4.0625 7.74762 4.03729 7.80836C4.01208 7.86911 3.99911 7.93423 3.99911 8C3.99911 8.06577 4.01208 8.13089 4.03729 8.19163C4.0625 8.25238 4.09944 8.30755 4.146 8.354L7.146 11.354C7.23989 11.4479 7.36723 11.5006 7.5 11.5006C7.63278 11.5006 7.76011 11.4479 7.854 11.354C7.94789 11.2601 8.00063 11.1328 8.00063 11C8.00063 10.8672 7.94789 10.7399 7.854 10.646L5.707 8.5L11.5 8.5Z" fill="#151515"/>
</svg>
