<svg width="35" height="35" fill="none" xmlns="http://www.w3.org/2000/svg"><path d="M32.41 0H2.583C1.155 0 0 1.128 0 2.522v29.949C0 33.865 1.155 35 2.584 35h29.825C33.838 35 35 33.865 35 32.477V2.523C35 1.128 33.838 0 32.41 0zM10.383 29.825H5.188V13.118h5.196v16.707zM7.786 10.842a3.01 3.01 0 0 1-3.015-3.008 3.01 3.01 0 0 1 3.015-3.008 3.008 3.008 0 0 1 0 6.016zm22.04 18.983h-5.19v-8.12c0-1.935-.034-4.43-2.7-4.43-2.7 0-3.11 2.112-3.11 4.292v8.258h-5.181V13.118h4.976v2.283h.069c.69-1.312 2.385-2.7 4.908-2.7 5.257 0 6.227 3.46 6.227 7.957v9.167z" fill="#151515"/></svg>