<svg width="624" height="682" viewBox="0 0 624 682" fill="none" xmlns="http://www.w3.org/2000/svg">
<path d="M297.141 346.815C298.554 347.246 300.078 347.129 301.408 346.487C302.739 345.845 303.778 344.725 304.319 343.35C304.86 341.975 304.863 340.447 304.327 339.071C303.792 337.694 302.757 336.57 301.429 335.922C300.234 335.452 298.943 335.277 297.665 335.411C296.388 335.546 295.161 335.986 294.09 336.695C293.278 337.442 292.693 338.402 292.401 339.466C292.11 340.531 292.124 341.655 292.443 342.712C292.761 343.768 293.371 344.713 294.202 345.439C295.033 346.165 296.052 346.642 297.141 346.815ZM294.94 340.867C294.94 337.622 301.39 337.236 302.008 340.867C303.206 345.927 294.747 345.618 294.94 340.867ZM292.622 99.6051C286.674 106.597 288.103 115.597 297.451 120C299.566 119.455 301.724 119.093 303.901 118.918C306.383 119.081 308.849 119.43 311.279 119.961C313.856 118.412 315.86 116.068 316.988 113.281C318.117 110.494 318.309 107.416 317.536 104.511C316.817 101.984 315.413 99.7049 313.48 97.9257C311.547 96.1466 309.159 94.9364 306.581 94.4288C304.004 93.9212 301.336 94.136 298.872 95.0495C296.409 95.963 294.246 97.5396 292.622 99.6051ZM290.459 166.661C290.414 166.433 290.291 166.228 290.111 166.08C289.932 165.933 289.706 165.853 289.474 165.853C289.242 165.853 289.017 165.933 288.837 166.08C288.657 166.228 288.534 166.433 288.489 166.661C288.202 168.813 288.035 170.979 287.987 173.15C288.089 173.459 288.285 173.728 288.549 173.919C288.812 174.11 289.129 174.213 289.455 174.213C289.78 174.213 290.097 174.11 290.361 173.919C290.624 173.728 290.821 173.459 290.923 173.15C291.116 172.493 290.459 167.317 290.459 166.661ZM320.935 167.356C320.89 167.128 320.767 166.923 320.588 166.776C320.408 166.628 320.183 166.548 319.95 166.548C319.718 166.548 319.493 166.628 319.313 166.776C319.134 166.923 319.011 167.128 318.965 167.356C318.965 167.897 318.309 173.111 318.502 173.845C318.604 174.154 318.8 174.424 319.064 174.614C319.327 174.805 319.644 174.908 319.97 174.908C320.295 174.908 320.612 174.805 320.876 174.614C321.139 174.424 321.336 174.154 321.438 173.845C321.631 173.111 320.935 167.936 320.935 167.356ZM290.73 153.953C286.094 153.566 283.97 160.751 283.893 161.06C283.826 161.28 283.85 161.518 283.958 161.721C284.067 161.924 284.252 162.075 284.472 162.142C284.692 162.208 284.93 162.184 285.133 162.076C285.336 161.967 285.487 161.782 285.554 161.562C285.785 160.983 288.257 156.772 291.154 156.927C292.622 157.043 293.356 154.146 290.73 153.953ZM322.094 162.103C322.023 160.742 321.537 159.435 320.701 158.358C319.866 157.281 318.721 156.485 317.42 156.077C317.031 155.975 316.617 156.031 316.269 156.234C315.922 156.437 315.669 156.769 315.566 157.159C315.464 157.548 315.52 157.962 315.723 158.31C315.926 158.657 316.259 158.91 316.648 159.013C317.597 159.35 318.448 159.919 319.122 160.668C319.796 161.416 320.274 162.321 320.511 163.3C320.572 163.51 320.714 163.687 320.906 163.792C321.098 163.897 321.324 163.922 321.534 163.86C321.744 163.799 321.921 163.657 322.026 163.465C322.131 163.273 322.156 163.047 322.094 162.837C322.094 162.837 322.171 162.412 322.094 162.103ZM304.21 182.614C304.365 182.563 304.499 182.464 304.595 182.333C304.69 182.201 304.741 182.042 304.741 181.88C304.741 181.717 304.69 181.558 304.595 181.427C304.499 181.295 304.365 181.197 304.21 181.146C302.433 180.798 300.347 180.682 300.347 178.944C300.551 176.776 300.887 174.621 301.352 172.493C301.373 172.301 301.326 172.108 301.217 171.948C301.109 171.788 300.947 171.672 300.761 171.621C300.574 171.57 300.376 171.587 300.201 171.669C300.026 171.751 299.886 171.893 299.807 172.069C298.846 174.559 298.172 177.151 297.798 179.794C297.875 182.111 300.348 183.85 304.21 182.614ZM309.038 187.674C308.188 188.594 307.144 189.314 305.982 189.781C304.82 190.249 303.568 190.453 302.317 190.378C301.46 190.234 300.643 189.912 299.918 189.433C299.192 188.954 298.576 188.328 298.107 187.596C298 187.397 297.817 187.248 297.6 187.183C297.382 187.117 297.148 187.141 296.948 187.249C296.749 187.356 296.6 187.539 296.535 187.756C296.469 187.973 296.493 188.208 296.601 188.408C297.219 189.747 298.187 190.894 299.403 191.729C300.619 192.564 302.037 193.054 303.509 193.149C304.981 193.244 306.451 192.94 307.764 192.268C309.078 191.597 310.185 190.583 310.97 189.335C311.472 188.06 310.081 186.747 309.038 187.674ZM308.614 417.193C308.71 417.259 308.825 417.295 308.942 417.295C309.059 417.295 309.174 417.259 309.27 417.193C313.403 414.605 344.498 389.884 347.047 387.682C347.132 387.603 347.191 387.501 347.218 387.388C347.244 387.275 347.235 387.157 347.194 387.049C347.152 386.941 347.079 386.848 346.984 386.782C346.889 386.715 346.777 386.679 346.661 386.678C346.661 386.678 282.927 385.442 271.687 385.055C271.03 385.055 270.914 385.751 271.262 386.06C273.309 388.068 297.991 409.042 308.614 417.193Z" fill="black"/>
<path d="M182.922 35.3298C183.81 36.8748 192.849 37.377 193.66 37.0679C194.193 36.8809 194.653 36.5292 194.973 36.0637C198.037 38.6192 201.249 40.9924 204.591 43.1709C205.068 43.5563 205.62 43.8378 206.212 43.9974C206.804 44.1571 207.423 44.1913 208.029 44.098C209.651 43.6345 240.128 25.48 240.591 25.171C242.6 23.9349 242.638 22.6989 242.368 21.8877C241.789 20.304 210.656 5.70319 205.673 0.256849C205.528 0.152331 205.365 0.0773907 205.191 0.0363423C205.018 -0.0047062 204.838 -0.0110534 204.662 0.0176658C204.486 0.0463851 204.318 0.109603 204.166 0.203684C204.015 0.297765 203.884 0.420852 203.78 0.565862C199.917 5.00791 196.48 9.56585 192.965 14.0852C189.425 13.9761 185.889 14.3662 182.458 15.244C182.08 21.9409 182.235 28.6574 182.922 35.3298ZM209.458 23.7418C209.064 24.8205 208.315 25.7332 207.334 26.3298C205.402 26.9864 203.471 25.171 202.814 24.3598C200.69 21.8877 205.518 16.6345 208.724 20.7675C209.125 21.1858 209.404 21.7048 209.534 22.2693C209.663 22.8337 209.637 23.4227 209.458 23.9736V23.7418ZM206.677 16.5959C205.521 16.3928 204.331 16.5148 203.241 16.9484C202.15 17.382 201.201 18.1101 200.5 19.0515C199.799 19.9929 199.373 21.1105 199.27 22.2798C199.168 23.449 199.392 24.6238 199.917 25.6731C200.706 26.9704 201.859 28.0067 203.233 28.6524C204.607 29.2982 206.141 29.5248 207.643 29.304C208.68 28.9256 209.602 28.2859 210.319 27.4468C211.036 26.6077 211.525 25.5976 211.737 24.5143C215.986 24.5143 230.587 24.5143 236.419 24.2439L207.643 41.0079C206.02 40.3126 196.518 33.2825 195.359 32.3555C195.359 30.2311 195.359 17.5229 195.089 15.4757C198.334 11.6131 201.656 7.48001 204.823 3.34697C209.535 7.20963 231.282 18.7976 237.656 22.1581H211.853C211.685 20.8285 211.089 19.5897 210.155 18.6282C209.222 17.6668 208.001 17.0348 206.677 16.8276V16.5959ZM185.046 17.2912L192.192 17.0208C192.192 18.2182 192.656 32.4714 192.462 34.48C190.024 34.6407 187.575 34.5241 185.162 34.1323C185.394 31.4671 185.201 20.5358 185.046 17.5229V17.2912ZM64.1065 220.351C64.5116 220.585 64.9712 220.708 65.4391 220.708C65.9069 220.708 66.3665 220.585 66.7717 220.351C69.8232 218.844 75.8876 213.553 93.5785 201.849C94.0977 201.567 94.5453 201.169 94.8868 200.687C95.2283 200.205 95.4547 199.651 95.5485 199.068C95.5485 199.068 96.2051 182.574 95.2781 182.033C92.3038 180.179 83.6901 174.308 81.218 174.694C80.909 174.694 48.3082 195.012 48.2309 195.978C47.9081 200.193 47.8436 204.424 48.0378 208.647C53.1332 212.894 58.5009 216.804 64.1065 220.351ZM50.394 198.643C53.3683 200.651 61.673 206.368 63.952 207.527V216.334C49.5056 206.677 50.4327 208.299 50.5486 205.441C50.5872 203.857 50.4713 200.149 50.394 198.643ZM65.5356 204.321C65.2897 204.503 64.9918 204.601 64.6859 204.601C64.3799 204.601 64.0821 204.503 63.8361 204.321C63.2181 203.935 54.5657 197.754 52.2481 196.093C82.6086 176.78 81.527 176.548 83.1494 177.128C83.9219 177.437 87.5528 179.754 92.4584 182.999C86.6644 187.943 66.115 203.935 65.5356 204.321ZM92.5742 199.184C91.7631 199.956 70.8661 213.823 66.2309 216.836V207.179C68.9734 205.093 87.0893 190.879 92.7287 186.051C92.8832 198.797 93.115 198.797 92.7674 199.184H92.5742ZM492.243 222.707C499.457 222.539 506.475 220.329 512.483 216.334C515.481 214.445 517.738 211.584 518.877 208.23C520.016 204.876 519.968 201.232 518.741 197.909C521.29 195.978 529.44 189.063 531.024 187.557C534.307 187.75 538.131 181.917 540.179 178.75C541.028 177.437 542.149 176.085 541.569 174.578C536.355 169.059 530.835 163.837 525.037 158.935C524.649 158.525 524.146 158.242 523.594 158.125C523.042 158.008 522.468 158.061 521.947 158.278C518.1 162.008 514.633 166.109 511.595 170.523C511.462 171.095 511.53 171.695 511.788 172.222C511.788 172.493 506.419 188.059 505.762 189.952C502.872 190.244 500.187 191.583 498.216 193.718C496.245 195.853 495.124 198.635 495.063 201.54C494.599 212.819 503.522 216.45 491.895 220.621C491.734 220.76 491.611 220.938 491.539 221.137C491.466 221.337 491.447 221.552 491.482 221.762C491.517 221.972 491.605 222.169 491.738 222.335C491.872 222.5 492.046 222.628 492.243 222.707ZM514.569 171.218C517.079 167.531 520.038 164.171 523.376 161.214C525.462 162.875 537.513 173.999 538.827 175.814C537.861 177.475 532.453 184.505 531.101 184.66C530.986 184.544 515.071 171.681 514.569 171.218ZM517.35 195.398C515.381 192.512 512.357 190.514 508.93 189.836C509.702 187.248 512.522 177.784 513.488 173.96C516.423 176.471 523.685 182.574 528.127 186.089C526.389 187.827 519.822 193.428 517.35 195.398ZM498.423 219.656C501.436 216.913 500.702 213.321 499.312 209.883C496.84 202.158 497.574 197.175 501.707 194.432C502.773 193.756 503.964 193.299 505.21 193.088C506.455 192.877 507.73 192.917 508.96 193.204C510.191 193.492 511.351 194.022 512.374 194.764C513.396 195.505 514.261 196.443 514.917 197.523C521.02 207.141 509.586 217.454 498.423 219.656ZM250.75 23.7418C252.334 23.7418 261.604 22.5444 270.063 21.656C270.36 21.656 270.645 21.5379 270.855 21.3279C271.065 21.1178 271.183 20.8329 271.183 20.5358C271.183 20.2387 271.065 19.9538 270.855 19.7437C270.645 19.5336 270.36 19.4156 270.063 19.4156C266.896 19.7246 252.025 20.613 250.402 20.9607C250.089 21.0652 249.821 21.2751 249.645 21.5545C249.469 21.834 249.395 22.1659 249.436 22.4937C249.477 22.8215 249.631 23.125 249.87 23.3525C250.11 23.5801 250.42 23.7176 250.75 23.7418ZM281.033 21.2697C282.076 21.2697 302.587 19.5701 307.106 19.8019C308.613 19.8019 308.728 17.6002 307.106 17.4843C298.278 17.0538 289.429 17.338 280.647 18.3341C280.313 18.4435 280.028 18.6661 279.841 18.9633C279.654 19.2606 279.577 19.6139 279.623 19.9621C279.668 20.3103 279.834 20.6315 280.092 20.8703C280.35 21.1091 280.682 21.2503 281.033 21.2697ZM318.733 19.068L335.381 18.6045C335.657 18.5543 335.906 18.4089 336.086 18.1936C336.265 17.9783 336.364 17.7068 336.364 17.4263C336.364 17.1459 336.265 16.8744 336.086 16.6591C335.906 16.4438 335.657 16.2984 335.381 16.2482L318.81 15.7847C318.416 15.8352 318.053 16.0252 317.787 16.3203C317.521 16.6154 317.37 16.996 317.36 17.3932C317.351 17.7903 317.484 18.1776 317.736 18.4849C317.988 18.7922 318.341 18.9991 318.733 19.068ZM348.63 19.6087C355.737 19.6087 381.385 20.8062 387.642 21.8877C389.187 22.1967 389.728 19.8019 388.183 19.5315C375.08 17.5389 361.845 16.5317 348.591 16.5186C348.181 16.5237 347.79 16.6914 347.504 16.9848C347.218 17.2782 347.06 17.6732 347.065 18.083C347.07 18.4928 347.238 18.8837 347.531 19.1699C347.825 19.456 348.22 19.6139 348.63 19.6087ZM400.119 26.2911C410.345 29.3156 419.793 34.521 427.814 41.5486C429.05 42.6688 430.788 40.8534 429.591 39.7332C421.489 31.9717 411.629 26.2863 400.853 23.1624C400.463 23.1264 400.073 23.2325 399.755 23.4613C399.438 23.6902 399.213 24.0261 399.124 24.4073C399.035 24.7885 399.086 25.1892 399.269 25.5354C399.452 25.8816 399.754 26.15 400.119 26.2911ZM434.381 77.819C434.06 77.8971 433.78 78.0896 433.592 78.3601C433.403 78.6306 433.32 78.9606 433.358 79.288C433.396 79.6154 433.552 79.9177 433.798 80.1379C434.043 80.3582 434.36 80.4814 434.69 80.4842C439.788 80.4842 445.775 74.5357 446.278 66.3083C446.78 58.0808 441.14 51.4757 435.732 45.9521C435.502 45.7164 435.187 45.582 434.858 45.5784C434.528 45.5748 434.211 45.7022 433.975 45.9327C433.739 46.1632 433.605 46.4779 433.601 46.8075C433.598 47.1371 433.725 47.4546 433.956 47.6903C440.059 54.025 443.033 59.819 443.072 65.4585C443.174 68.1857 442.38 70.8714 440.81 73.104C439.24 75.3366 436.982 76.9928 434.381 77.819ZM392.239 90.3726C396.102 90.3726 421.557 84.54 425.767 83.5357C426.062 83.4384 426.309 83.2338 426.46 82.9624C426.611 82.6911 426.654 82.3729 426.581 82.0712C426.508 81.7695 426.324 81.5062 426.066 81.3339C425.808 81.1615 425.494 81.0926 425.187 81.1408C419.432 82.4541 399.115 86.0078 391.969 87.2438C391.593 87.3265 391.261 87.5428 391.033 87.8524C390.806 88.1621 390.698 88.5439 390.731 88.9268C390.765 89.3097 390.936 89.6675 391.213 89.9335C391.49 90.1995 391.855 90.3555 392.239 90.3726ZM381.771 87.8232C373.544 88.7116 364.93 89.4842 356.625 90.7202C356.276 90.8247 355.974 91.0465 355.769 91.348C355.565 91.6495 355.47 92.0124 355.502 92.3754C355.534 92.7384 355.69 93.0794 355.944 93.3408C356.197 93.6022 356.534 93.768 356.896 93.8103C359.252 93.8103 378.102 91.3382 381.887 90.8747C383.857 90.6043 383.741 87.5528 381.771 87.8232ZM323.522 97.7116C325.763 97.7116 341.213 95.2009 344.806 94.6988C345.107 94.6229 345.37 94.4395 345.546 94.1833C345.721 93.927 345.797 93.6154 345.759 93.307C345.721 92.9986 345.572 92.7148 345.34 92.5087C345.107 92.3027 344.807 92.1886 344.497 92.188C339.784 92.7288 327.849 93.7717 323.213 94.5829C322.836 94.6673 322.502 94.8869 322.276 95.2003C322.049 95.5137 321.945 95.8992 321.983 96.284C322.021 96.6689 322.199 97.0265 322.482 97.2895C322.766 97.5525 323.136 97.7027 323.522 97.7116ZM259.055 103.274C267.321 103.274 275.78 101.806 283.969 101.034C285.668 101.034 285.668 98.2138 283.969 98.3683C275.741 99.0249 267.128 99.3726 258.823 100.531C257.162 100.724 257.355 103.274 259.055 103.274ZM218.342 106.827C218.003 106.908 217.705 107.109 217.504 107.394C217.303 107.679 217.213 108.027 217.251 108.374C217.289 108.72 217.452 109.041 217.71 109.276C217.968 109.51 218.303 109.642 218.651 109.647C221.278 109.647 242.484 106.518 245.69 106.094C246.028 106.014 246.323 105.811 246.519 105.525C246.715 105.239 246.797 104.89 246.748 104.546C246.7 104.203 246.525 103.89 246.258 103.669C245.99 103.447 245.65 103.334 245.304 103.351C240.244 103.969 222.63 105.939 218.342 106.827ZM159.514 117.875C174.504 114.729 189.656 112.408 204.9 110.922C206.909 110.922 206.832 107.639 204.9 107.832C189.465 108.751 174.152 111.131 159.166 114.939C158.834 115.046 158.55 115.266 158.361 115.559C158.173 115.853 158.092 116.203 158.133 116.55C158.174 116.896 158.334 117.218 158.586 117.46C158.838 117.701 159.166 117.848 159.514 117.875ZM107.832 137.806C118.132 131.635 129.383 127.21 141.128 124.712C143.175 124.287 142.364 121.197 140.355 121.621C128.26 124.023 116.67 128.492 106.094 134.832C105.762 135.091 105.536 135.461 105.457 135.874C105.378 136.287 105.451 136.715 105.663 137.078C105.876 137.441 106.212 137.715 106.611 137.849C107.01 137.983 107.443 137.968 107.832 137.806ZM75.1923 168.862C79.4556 157.379 87.6728 147.793 98.3682 141.823C99.7974 141.051 98.6 138.926 97.1322 139.66C85.4871 145.449 76.542 155.529 72.1794 167.78C71.4455 169.943 74.4584 170.793 75.1923 168.862ZM83.6129 215.059C82.4541 213.746 80.6 215.561 81.6815 216.836C84.3854 219.965 98.6386 230.935 101.536 230.935C101.84 230.932 102.134 230.83 102.375 230.644C102.615 230.458 102.788 230.198 102.867 229.905C102.946 229.611 102.926 229.3 102.811 229.019C102.697 228.737 102.493 228.501 102.231 228.347C95.6788 224.424 89.4528 219.98 83.6129 215.059ZM137.458 239.819C128.739 238.957 120.205 236.755 112.158 233.291C110.381 232.518 108.913 235.145 110.729 235.995C119.092 239.956 128.114 242.34 137.342 243.025C139.467 243.141 139.467 240.05 137.458 239.819ZM145.84 245.111C150.321 245.767 168.591 248.741 173.226 248.973C173.61 248.985 173.985 248.853 174.277 248.603C174.569 248.353 174.757 248.004 174.805 247.623C174.853 247.242 174.758 246.856 174.538 246.542C174.317 246.227 173.987 246.006 173.613 245.922C169.171 244.995 151.055 242.832 146.574 242.059C144.759 242.02 144.025 244.802 145.84 245.111ZM205.364 249.823C197.87 250.488 190.318 249.861 183.038 247.969C182.735 247.935 182.429 248.01 182.177 248.181C181.925 248.353 181.743 248.609 181.663 248.903C181.584 249.198 181.612 249.511 181.744 249.786C181.876 250.061 182.102 250.28 182.381 250.402C189.898 252.593 197.753 253.391 205.557 252.759C207.295 252.565 207.256 249.707 205.364 249.823ZM462.076 230.857C470.126 229.975 478.062 228.253 485.754 225.72C487.376 225.179 486.681 222.63 485.02 223.132C477.517 225.313 469.82 226.762 462.037 227.458C459.797 227.69 459.835 231.05 462.076 230.857ZM426.23 233.793C425.919 233.892 425.651 234.095 425.472 234.368C425.292 234.641 425.211 234.967 425.243 235.293C425.274 235.618 425.416 235.922 425.645 236.156C425.874 236.389 426.176 236.536 426.501 236.574C429.321 236.574 448.595 233.175 451.878 232.711C453.771 232.364 453.037 229.621 451.222 229.892C441.256 231.321 433.84 232.325 426.23 233.793ZM416.226 234.99C406.608 236.69 396.913 237.694 387.72 238.583C385.711 238.814 385.788 241.905 387.72 241.75C397.45 240.966 407.132 239.677 416.728 237.887C416.918 237.854 417.1 237.784 417.263 237.681C417.427 237.578 417.568 237.443 417.679 237.286C417.79 237.128 417.869 236.95 417.911 236.761C417.954 236.573 417.959 236.378 417.926 236.188C417.893 235.998 417.823 235.816 417.719 235.653C417.616 235.489 417.482 235.348 417.324 235.237C417.166 235.126 416.988 235.047 416.799 235.005C416.611 234.962 416.416 234.957 416.226 234.99ZM134.021 372.655C135.72 372.655 135.797 370.261 134.021 370.029C126.184 368.861 118.218 368.861 110.381 370.029C110.01 370.11 109.683 370.329 109.467 370.642C109.25 370.954 109.16 371.337 109.214 371.713C109.267 372.089 109.461 372.431 109.757 372.67C110.052 372.91 110.427 373.028 110.806 373.003C118.518 372.198 126.287 372.082 134.021 372.655ZM476.986 370.608C476.665 370.709 476.389 370.917 476.203 371.197C476.017 371.477 475.932 371.812 475.964 372.147C475.996 372.481 476.141 372.795 476.377 373.035C476.612 373.275 476.922 373.428 477.256 373.467C477.642 373.467 497.998 372.887 502.904 373.467C504.217 373.66 504.642 371.651 503.329 371.458C494.587 370.437 485.775 370.153 476.986 370.608ZM466.441 373.66C466.748 373.66 467.043 373.538 467.26 373.32C467.477 373.103 467.599 372.808 467.599 372.501C467.599 372.194 467.477 371.899 467.26 371.681C467.043 371.464 466.748 371.342 466.441 371.342C460.747 370.973 455.03 371.375 449.445 372.54C447.784 372.887 448.247 375.321 449.831 375.321C455.279 374.093 460.857 373.535 466.441 373.66ZM554.355 421.595C554.046 423.14 556.286 424.106 556.943 422.6C560.264 415.106 561.925 403.634 557.754 395.561C556.943 394.016 554.625 395.329 555.398 396.874C560.071 406.145 555.591 415.608 554.355 421.595ZM87.9004 537.475C82.4658 541.99 77.9204 547.479 74.497 553.659C74.4209 553.786 74.3705 553.927 74.3488 554.073C74.327 554.219 74.3343 554.368 74.3701 554.512C74.4426 554.802 74.6272 555.051 74.8833 555.204C75.1394 555.358 75.446 555.404 75.7358 555.331C76.0256 555.259 76.2747 555.074 76.4283 554.818C79.9625 548.994 84.4851 543.831 89.7931 539.561C91.3382 538.44 89.4455 536.432 87.9004 537.475ZM113.703 514.801C108.41 518.76 103.378 523.057 98.6386 527.664C98.4081 527.899 98.2806 528.217 98.2843 528.547C98.2879 528.876 98.4223 529.191 98.6579 529.421C98.8935 529.652 99.2111 529.779 99.5407 529.776C99.8703 529.772 100.185 529.638 100.415 529.402C102.579 527.123 114.205 518.046 115.364 517.08C116.523 516.114 115.132 514.299 113.703 514.801ZM125.291 507.771C126.102 507.771 123.707 508.544 138.115 499.041C138.415 498.834 138.628 498.521 138.71 498.165C138.792 497.809 138.739 497.435 138.56 497.116C138.382 496.798 138.091 496.557 137.744 496.442C137.397 496.326 137.02 496.344 136.686 496.492C132.429 499.393 128.365 502.567 124.518 505.994C124.389 506.148 124.305 506.335 124.275 506.535C124.246 506.734 124.274 506.937 124.354 507.122C124.434 507.307 124.564 507.465 124.73 507.58C124.896 507.695 125.09 507.761 125.291 507.771Z" fill="black"/>
<path d="M145.029 492.475C146.034 492.9 145.377 492.475 157.544 484.75C156.761 494.45 156.903 504.202 157.969 513.875C151.943 510.599 146.159 506.895 140.665 502.789C139.622 501.978 138.231 503.445 139.313 504.334C145.315 509.477 151.781 514.055 158.626 518.008C163.689 556.46 183.306 591.506 213.437 615.926C199.609 619.171 190.879 620.986 187.48 621.334C186.012 621.334 186.012 623.728 187.48 623.728C190.84 623.728 212.24 619.557 216.759 618.63C272.227 662.78 345.154 658.454 398.304 617.78C408.944 620.593 419.757 622.709 430.673 624.115C431.011 624.089 431.331 623.947 431.576 623.713C431.822 623.478 431.979 623.165 432.02 622.828C432.061 622.491 431.984 622.15 431.801 621.863C431.619 621.577 431.343 621.362 431.02 621.256C426.231 620.445 412.789 617.896 401.201 615.501C430.261 592.486 449.628 559.404 455.471 522.797C456.939 521.87 458.368 520.866 459.759 519.823C461.149 518.78 459.759 516.347 458.252 517.312L456.05 518.664C460.763 477.643 446.316 436.776 420.784 406.068C428.046 398.072 433.106 388.609 430.132 378.102C433.792 376.987 437.521 376.109 441.295 375.476C442.995 375.244 442.377 372.733 440.754 372.965C436.842 373.465 432.97 374.239 429.166 375.283C426.345 368.288 421.499 362.294 415.251 358.069C409.003 353.844 401.636 351.579 394.093 351.566C400.264 345.079 404.791 337.209 407.298 328.614C409.804 320.019 410.217 310.949 408.501 302.162C401.355 269.33 375.823 238.12 343.686 220.158C344.473 215.812 344.235 211.341 342.99 207.103C342.141 203.24 339.591 201.927 336.617 199.995C335.072 198.991 333.604 198.064 331.982 197.137C336.244 190.505 338.473 182.771 338.394 174.888C347.085 174.038 347.394 161.369 337.853 159.437C347.548 113.935 263.381 106.21 268.325 160.905C266.611 161.395 265.075 162.37 263.903 163.713C262.731 165.057 261.973 166.711 261.72 168.476C261.491 169.686 261.564 170.934 261.933 172.109C262.301 173.284 262.953 174.35 263.831 175.213C264.71 176.076 265.787 176.709 266.968 177.057C268.15 177.405 269.399 177.456 270.604 177.206C270.25 182.207 271.293 187.209 273.617 191.652C271.685 192.096 269.886 192.993 268.368 194.269C266.85 195.545 265.657 197.164 264.888 198.991C263.175 203.866 262.841 209.119 263.922 214.171C233.214 228.181 208.661 252.898 194.858 283.699C183.926 308.613 189.257 326.845 208.57 345.849C199.921 343.06 190.573 343.346 182.111 346.66C176.804 348.943 172.057 352.354 168.202 356.657C164.346 360.959 161.474 366.05 159.785 371.574C156.069 370.98 152.296 370.825 148.544 371.111C148.288 371.159 148.056 371.296 147.889 371.497C147.723 371.698 147.631 371.951 147.631 372.212C147.631 372.473 147.723 372.726 147.889 372.927C148.056 373.128 148.288 373.264 148.544 373.313C152.103 373.161 155.663 373.578 159.089 374.549C156.424 390.81 170.214 404.561 183.617 414.218C169.232 433.762 160.373 456.817 157.969 480.965C153.437 483.727 149.065 486.745 144.875 490.003C144.654 490.134 144.474 490.323 144.354 490.549C144.234 490.776 144.179 491.031 144.195 491.287C144.211 491.542 144.298 491.789 144.445 491.999C144.592 492.208 144.794 492.373 145.029 492.475ZM315.797 207.605L317.42 207.103C318.308 208.03 320.703 210.115 322.171 211.351C310.699 217.377 296.484 216.875 281.652 209.652C283.312 208.145 286.016 205.403 287.021 204.244C289.677 205.261 292.384 206.138 295.132 206.871C296.26 208.542 297.767 209.924 299.53 210.902C301.293 211.88 303.263 212.427 305.278 212.499C307.293 212.57 309.297 212.164 311.125 211.314C312.953 210.463 314.554 209.192 315.797 207.605ZM284.896 203.163C283.583 204.63 280.647 207.759 279.682 208.57C278.6 207.978 277.518 207.36 276.437 206.716C276.227 206.588 275.975 206.549 275.736 206.607C275.497 206.665 275.29 206.815 275.162 207.025C275.034 207.235 274.995 207.488 275.053 207.727C275.111 207.966 275.261 208.172 275.471 208.3C284.857 214.326 294.012 218.884 305.098 218.884C309.589 219.097 314.071 218.302 318.215 216.557C322.359 214.813 326.06 212.163 329.046 208.802C329.205 208.638 329.292 208.418 329.289 208.19C329.285 207.962 329.191 207.744 329.027 207.585C328.863 207.427 328.643 207.339 328.415 207.343C328.186 207.347 327.969 207.441 327.81 207.605C326.764 208.468 325.668 209.267 324.527 210C323.484 209.111 321.089 207.18 319.93 206.137C323.86 204.653 327.429 202.349 330.398 199.377C334.261 201.016 337.725 203.466 340.557 206.562C341.976 210.77 342.204 215.288 341.214 219.618C337.66 230.587 308.922 241.442 279.411 226.03C269.021 220.815 264.656 216.527 266.51 203.549C266.648 201.254 267.529 199.067 269.021 197.318C270.512 195.569 272.532 194.353 274.776 193.854C277.321 197.752 280.8 200.952 284.896 203.163ZM316.338 236.188C322.634 235.416 337.583 232.557 342.875 222.785C373.583 239.781 405.604 277.789 406.338 312.437C406.603 320.052 405.081 327.624 401.895 334.546C398.709 341.468 393.947 347.548 387.99 352.3C382.527 353.305 377.292 355.294 372.54 358.171C375.939 305.678 376.055 308.845 375.668 308.459C375.282 308.072 369.411 308.034 359.832 307.802C361.029 306.296 364.235 302.047 364.969 301.197C365.148 301.007 365.245 300.754 365.238 300.494C365.23 300.233 365.12 299.986 364.93 299.806C364.741 299.627 364.488 299.53 364.227 299.538C363.966 299.545 363.719 299.655 363.54 299.845C361.101 302.552 358.522 305.131 355.814 307.57H355.003C355.989 295.855 356.247 284.09 355.776 272.343C355.776 271.416 354.154 271.416 354.231 272.343C354.617 277.866 352.029 302.626 351.72 307.377C322.943 306.798 274.969 306.296 245.999 306.025C242.449 294.015 240.947 281.492 241.557 268.982C241.557 267.669 239.703 267.669 239.587 268.982C238.338 281.425 239.372 293.992 242.639 306.064H241.828C237.957 302.194 234.283 298.134 230.819 293.896C230.678 293.703 230.471 293.569 230.237 293.519C230.003 293.47 229.759 293.509 229.553 293.63C229.346 293.75 229.191 293.942 229.118 294.17C229.045 294.398 229.06 294.644 229.158 294.862C229.583 295.673 234.218 302.587 237.27 306.218H222.282C221.162 306.218 221.51 306.218 221.433 307.107C221.046 311.471 222.437 335.574 223.519 352.725C221.189 351.272 218.763 349.982 216.257 348.862C196.364 329.317 185.78 314.098 196.596 287.987C209.508 256.538 233.834 231.135 264.694 216.875C269.021 226.107 290.999 239.201 316.338 236.188ZM223.905 308.961C228.308 308.961 363.81 310.158 373.274 311.008C371.458 326.227 368.098 371.188 366.939 386.291H358.48C353.69 390.424 318.154 419.935 315.604 422.098C314.716 422.793 316.338 423.373 320.162 426.81C322.568 428.576 324.584 430.818 326.086 433.396C327.588 435.974 328.543 438.834 328.892 441.797C328.902 441.934 328.963 442.062 329.063 442.155C329.164 442.248 329.296 442.3 329.433 442.3C343.184 442.879 354.81 455.124 345.269 462.694C336.501 469.647 322.943 462.694 316.222 456.282C322.287 448.364 325.84 441.45 319.042 434.304C318.231 433.454 309.501 426.347 298.415 417.308C256.428 383.046 259.789 384.978 259.248 384.978C257.085 384.978 234.141 383.394 230.008 383.162C226.956 358.441 224.716 322.326 223.905 308.961ZM264.308 461.304C258.63 461.729 249.089 462.463 244.995 456.707C242.33 452.845 246.308 448.325 250.596 447.089C259.982 450.488 274.737 455.239 279.527 456.746C274.762 459.148 269.61 460.691 264.308 461.304ZM244.222 460.531C248.085 464.394 254.652 464.857 259.905 464.78C268.476 464.738 276.884 462.433 284.278 458.098C292.737 460.57 301.119 462.694 309.849 464.548C309.953 464.584 310.067 464.585 310.171 464.55C310.276 464.515 310.366 464.447 310.428 464.355C311.896 462.54 313.325 460.493 314.639 458.755C323.523 467.021 338.355 472.467 347.471 465.437C354.192 460.222 353.149 451.3 346.428 445.776C378.411 436.39 403.866 422.909 418.158 408.733C431.496 424.027 441.368 442.027 447.095 461.496C452.823 480.964 454.27 501.442 451.338 521.523C443.178 526.861 434.732 531.748 426.037 536.162C425.828 536.27 425.661 536.446 425.564 536.661C425.467 536.877 425.446 537.118 425.504 537.347C425.562 537.576 425.697 537.778 425.885 537.921C426.073 538.063 426.304 538.138 426.54 538.132C427.042 538.132 442.492 530.677 450.643 525.849C443.972 560.754 425.24 592.202 397.724 614.69C391.505 613.377 386.136 612.141 383.587 611.368C382.196 610.904 381.578 612.99 382.93 613.492C385.286 614.342 389.69 615.54 394.943 616.892C370.028 635.877 339.596 646.21 308.272 646.322C276.948 646.433 246.444 636.317 221.394 617.51C226.024 616.542 230.58 615.251 235.029 613.647C236.729 612.913 235.686 610.402 233.948 610.789L217.879 614.651C188.44 591.022 168.713 557.397 162.45 520.171L163.223 520.518C164.999 521.291 166.39 518.857 164.729 517.892L161.871 516.231C156.763 480.976 165.361 445.104 185.896 415.995C205.132 428.302 225.745 438.31 247.312 445.815C241.209 448.905 239.162 455.549 244.222 460.531ZM336.385 173.884C335.574 181.609 334.415 189.334 329.626 195.283C326.999 198.566 321.398 203.433 316.802 203.549C313.75 203.549 312.669 201.772 310.699 199.686C308.111 196.673 306.836 195.09 305.445 195.321C302.355 195.708 302.896 201.54 297.952 204.437C296.445 205.287 291.192 203.781 287.175 201.849C282.466 199.514 278.584 195.794 276.05 191.189C273.516 186.583 272.452 181.313 272.999 176.085C272.999 175.158 271.647 174.579 271.106 174.849C270.267 175.14 269.367 175.211 268.493 175.056C267.618 174.901 266.797 174.525 266.109 173.964C265.42 173.403 264.886 172.676 264.557 171.85C264.229 171.025 264.116 170.129 264.231 169.249C265.699 161.523 274.351 163.455 276.63 167.935C276.706 168.048 276.82 168.131 276.951 168.169C277.082 168.206 277.222 168.197 277.346 168.141C277.471 168.086 277.572 167.988 277.631 167.866C277.691 167.744 277.706 167.604 277.673 167.472C276.117 163.411 275.923 158.954 277.122 154.773C278.32 150.593 280.845 146.915 284.317 144.296C289.834 148.127 296.391 150.18 303.109 150.18C309.826 150.18 316.383 148.127 321.9 144.296C329.355 150.09 329.626 162.141 329.085 166.352C329.079 166.453 329.097 166.555 329.137 166.649C329.177 166.743 329.239 166.826 329.317 166.892C329.973 167.394 331.055 166.081 331.596 165.463C332.29 164.385 333.287 163.535 334.462 163.02C335.636 162.504 336.937 162.347 338.201 162.566C339.463 162.751 340.614 163.391 341.436 164.367C342.258 165.343 342.693 166.587 342.66 167.862C342.626 169.137 342.127 170.356 341.255 171.288C340.384 172.22 339.201 172.8 337.93 172.918C337.66 172.686 336.463 173.073 336.385 173.884Z" fill="black"/>
<path d="M281.034 597.539C281.421 598.466 281.034 598.041 281.034 597.539C270.123 601.953 258.837 605.379 247.313 607.775C245.923 608.045 246.386 610.093 247.777 609.938C259.708 608.596 271.337 605.294 282.193 600.166C283.777 599.277 282.734 596.921 281.034 597.539ZM335.112 581.123C336.039 581.123 367.326 568.84 370.378 566.87C371.884 565.865 370.841 563.277 369.064 563.934C365.936 565.093 341.06 576.835 334.841 579.037C334.614 579.124 334.423 579.284 334.298 579.493C334.174 579.701 334.123 579.946 334.154 580.186C334.185 580.427 334.297 580.651 334.471 580.821C334.644 580.99 334.87 581.097 335.112 581.123ZM382.931 560.651C383.936 560.651 409.97 548.792 412.403 546.938C413.601 546.011 412.79 543.81 411.206 544.428C408.85 545.316 387.489 556.016 382.584 558.063C382.309 558.178 382.08 558.38 381.932 558.638C381.784 558.896 381.726 559.195 381.765 559.49C381.805 559.785 381.941 560.058 382.151 560.268C382.362 560.478 382.636 560.612 382.931 560.651ZM458.717 483.011C460.88 484.402 468.914 490.737 471.077 492.127C471.408 492.319 471.797 492.384 472.172 492.311C472.547 492.239 472.883 492.033 473.118 491.732C473.354 491.431 473.472 491.054 473.452 490.673C473.432 490.291 473.274 489.93 473.008 489.655C470.961 487.917 462.116 482.393 459.914 481.08C459.658 480.921 459.349 480.871 459.056 480.94C458.762 481.008 458.508 481.191 458.35 481.447C458.191 481.703 458.14 482.012 458.209 482.305C458.278 482.599 458.46 482.853 458.717 483.011ZM507.193 515.071C505.995 514.106 504.373 515.844 505.609 516.848C508.352 519.127 519.244 528.784 522.257 530.831C522.577 530.989 522.941 531.032 523.289 530.952C523.636 530.871 523.945 530.674 524.163 530.392C524.382 530.11 524.496 529.761 524.486 529.405C524.477 529.048 524.344 528.706 524.111 528.436C521.639 525.887 510.399 517.621 507.193 515.071ZM532.107 537.243C531.876 537.018 531.566 536.893 531.243 536.897C530.921 536.9 530.613 537.032 530.388 537.262C530.163 537.493 530.038 537.803 530.042 538.126C530.045 538.448 530.177 538.756 530.407 538.981C535.258 543.888 539.617 549.257 543.424 555.011C544.661 556.749 547.48 555.011 546.283 553.234C542.249 547.329 537.486 541.956 532.107 537.243ZM478.03 626.316C472.854 626.316 450.566 624.848 445.081 623.728C444.83 623.666 444.565 623.707 444.344 623.841C444.123 623.975 443.965 624.191 443.903 624.442C443.842 624.693 443.883 624.959 444.017 625.18C444.151 625.4 444.367 625.559 444.618 625.621C455.65 627.695 466.815 628.985 478.03 629.483C478.45 629.483 478.853 629.316 479.15 629.019C479.447 628.722 479.613 628.32 479.613 627.9C479.613 627.48 479.447 627.077 479.15 626.78C478.853 626.483 478.45 626.316 478.03 626.316ZM339.979 598.543C338.627 597.887 337.506 599.895 338.897 600.591C348.627 605.505 359.046 608.917 369.798 610.711C371.884 611.097 372.695 607.891 370.571 607.543C360.004 605.984 349.707 602.955 339.979 598.543ZM294.708 595.878C299.537 594.835 309.386 592.015 310.931 591.784C312.399 592.363 321.824 595.917 326.845 597.114C327.222 597.198 327.616 597.134 327.946 596.936C328.277 596.738 328.519 596.421 328.623 596.05C328.727 595.679 328.684 595.282 328.505 594.941C328.325 594.6 328.022 594.341 327.657 594.217C323.794 592.827 319.931 591.668 315.644 590.355C318.758 589.319 321.782 588.027 324.682 586.492C324.893 586.266 325.034 585.984 325.086 585.68C325.139 585.375 325.101 585.062 324.978 584.779C324.855 584.496 324.651 584.255 324.393 584.085C324.135 583.916 323.832 583.826 323.524 583.827C319.197 585.294 314.949 587.149 310.738 588.771C305.949 587.071 301.545 585.333 297.335 583.479C295.944 582.861 294.824 584.908 296.253 585.565C299.768 587.226 303.283 588.809 306.76 590.239C302.654 591.664 298.476 592.876 294.245 593.87C294.067 593.999 293.931 594.178 293.855 594.383C293.778 594.589 293.763 594.813 293.812 595.027C293.862 595.241 293.973 595.436 294.132 595.587C294.292 595.739 294.492 595.84 294.708 595.878ZM121.816 488.187C117.953 485.174 103.468 472.737 100.262 469.338C99.2192 468.217 97.4811 469.878 98.524 470.999C104.828 478.414 112.029 485.019 119.962 490.659C121.507 491.702 123.284 489.346 121.816 488.187ZM75.9274 670.968C73.517 649.644 69.1729 628.583 62.9489 608.046C66.4726 613.374 71.9058 617.148 78.1292 618.591C78.3955 618.703 78.6957 618.706 78.9637 618.597C79.2318 618.488 79.4456 618.278 79.5583 618.011C79.671 617.745 79.6733 617.445 79.5646 617.177C79.456 616.909 79.2453 616.695 78.9789 616.582C74.0347 613.608 66.4253 610.595 64.0691 603.372C65.3581 601.019 65.6757 598.255 64.9539 595.671C64.2321 593.087 62.5282 590.888 60.2064 589.543C61.5962 581.34 64.5324 573.475 68.8588 566.367C69.3609 565.402 68.0476 564.398 67.3137 565.247C61.8016 572.12 58.4302 580.461 57.6185 589.234C56.6128 589.307 55.6235 589.528 54.6828 589.891C44.449 563.439 29.9093 538.863 11.6529 517.157C12.3557 515.959 12.6288 514.557 12.427 513.183C12.2252 511.808 11.5606 510.544 10.543 509.599C9.52544 508.653 8.21577 508.083 6.83035 507.982C5.44494 507.882 4.06668 508.257 2.92327 509.046C1.61856 509.933 0.670129 511.254 0.245943 512.774C-0.178244 514.294 -0.0508114 515.915 0.605679 517.35C1.04316 518.116 1.63114 518.785 2.33415 519.316C3.03716 519.848 3.84062 520.232 4.69609 520.445C5.55156 520.658 6.4413 520.696 7.31165 520.556C8.18199 520.415 9.01492 520.1 9.76017 519.629C27.6598 541.09 42.0047 565.281 52.2494 591.282C45.9532 596.844 51.4382 607.273 59.3567 606.423C65.8854 627.679 70.4369 649.493 72.9532 671.586C71.7944 672.201 70.8963 673.212 70.4238 674.436C69.9513 675.659 69.9361 677.012 70.3812 678.246C70.8262 679.48 71.7015 680.512 72.8463 681.152C73.991 681.792 75.3283 681.997 76.6124 681.73C77.8966 681.464 79.0413 680.742 79.8362 679.699C80.6312 678.656 81.0231 677.361 80.9397 676.052C80.8564 674.743 80.3036 673.508 79.3828 672.574C78.462 671.64 77.235 671.07 75.9274 670.968ZM9.56704 514.299C9.70269 514.808 9.71949 515.342 9.61615 515.858C9.5128 516.375 9.29209 516.861 8.97103 517.279C8.64998 517.696 8.23719 518.035 7.76454 518.268C7.2919 518.501 6.77206 518.622 6.24516 518.622C5.71826 518.622 5.19841 518.501 4.72577 518.268C4.25312 518.035 3.84034 517.696 3.51928 517.279C3.19823 516.861 2.9775 516.375 2.87416 515.858C2.77082 515.342 2.78762 514.808 2.92327 514.299C2.78762 513.79 2.77082 513.256 2.87416 512.74C2.9775 512.223 3.19823 511.737 3.51928 511.319C3.84034 510.901 4.25312 510.563 4.72577 510.33C5.19841 510.097 5.71826 509.976 6.24516 509.976C6.77206 509.976 7.2919 510.097 7.76454 510.33C8.23719 510.563 8.64998 510.901 8.97103 511.319C9.29209 511.737 9.5128 512.223 9.61615 512.74C9.71949 513.256 9.70269 513.79 9.56704 514.299ZM79.0948 676.183C79.0948 680.045 72.7214 680.045 72.7214 676.183C72.7214 672.32 78.9403 672.668 78.9403 676.53L79.0948 676.183ZM62.1764 600.475C60.0906 606.925 52.3266 602.406 52.4425 597.153C52.4425 592.518 58.8931 589.428 61.3266 593.87C61.9501 594.869 62.3369 595.997 62.4574 597.169C62.5779 598.34 62.4289 599.524 62.0219 600.629L62.1764 600.475ZM623.961 445.119C623.941 444.003 623.612 442.914 623.011 441.975C622.409 441.035 621.558 440.28 620.553 439.796C619.547 439.311 618.427 439.115 617.317 439.23C616.207 439.345 615.151 439.765 614.266 440.445C592.529 427.718 573.835 410.396 559.493 389.69C560.541 388.486 561.262 387.033 561.587 385.471C561.911 383.908 561.829 382.288 561.347 380.767C560.978 379.586 560.309 378.522 559.405 377.677C558.501 376.833 557.394 376.237 556.191 375.949C554.988 375.661 553.731 375.69 552.543 376.034C551.354 376.377 550.275 377.023 549.412 377.909C530.822 352.762 517.537 324.101 510.36 293.664C511.085 292.843 511.528 291.812 511.626 290.721C511.723 289.63 511.469 288.536 510.901 287.6C510.474 286.633 509.744 285.831 508.821 285.315C507.898 284.8 506.833 284.599 505.785 284.743C504.738 284.887 503.766 285.368 503.017 286.113C502.267 286.859 501.781 287.828 501.631 288.874C501.385 289.754 501.382 290.683 501.622 291.564C501.862 292.444 502.336 293.244 502.993 293.877C503.65 294.511 504.467 294.955 505.356 295.162C506.245 295.369 507.173 295.332 508.043 295.055C515.159 325.842 528.661 354.793 547.673 380.033C547.267 380.69 546.968 381.407 546.785 382.157C541.879 379.801 517.506 372.076 514.957 372.771C513.875 373.08 514.377 374.394 514.957 374.548C525.622 377.495 536.097 381.094 546.321 385.325C546.538 386.507 547.02 387.625 547.733 388.594C548.445 389.562 549.368 390.356 550.433 390.914C551.498 391.472 552.676 391.781 553.877 391.817C555.079 391.852 556.273 391.613 557.369 391.119C574.982 416.149 593.021 433.029 612.489 442.724C612.072 443.661 611.895 444.688 611.974 445.71C612.053 446.733 612.385 447.72 612.941 448.583C613.497 449.445 614.258 450.155 615.157 450.65C616.056 451.144 617.064 451.407 618.09 451.415C618.908 451.454 619.725 451.315 620.484 451.006C621.243 450.698 621.926 450.227 622.485 449.628C623.044 449.029 623.465 448.315 623.72 447.536C623.975 446.757 624.057 445.932 623.961 445.119ZM615.386 447.05C615.054 446.56 614.856 445.992 614.811 445.402C614.766 444.813 614.875 444.221 615.129 443.687C615.383 443.152 615.771 442.693 616.257 442.355C616.742 442.017 617.307 441.811 617.897 441.758C618.822 441.788 619.701 442.174 620.349 442.837C620.996 443.499 621.363 444.386 621.373 445.312C621.374 446.015 621.146 446.7 620.724 447.263C620.302 447.826 619.708 448.236 619.033 448.432C618.357 448.628 617.636 448.6 616.978 448.35C616.321 448.101 615.762 447.645 615.386 447.05ZM556.21 388.878C555.016 389.263 553.728 389.237 552.551 388.803C551.375 388.368 550.378 387.552 549.721 386.484C549.359 385.625 549.21 384.691 549.287 383.763C549.363 382.834 549.662 381.937 550.158 381.149C550.655 380.36 551.334 379.703 552.139 379.233C552.944 378.763 553.85 378.494 554.781 378.449C559.725 378.449 560.575 387.063 556.21 388.878ZM509.124 290.265C509.169 290.629 509.136 290.998 509.027 291.348C508.918 291.698 508.737 292.021 508.494 292.295C508.251 292.57 507.953 292.79 507.618 292.94C507.284 293.091 506.922 293.168 506.555 293.168C506.189 293.168 505.827 293.091 505.492 292.94C505.158 292.79 504.86 292.57 504.617 292.295C504.374 292.021 504.193 291.698 504.084 291.348C503.975 290.998 503.942 290.629 503.987 290.265C503.942 289.901 503.975 289.532 504.084 289.182C504.193 288.832 504.374 288.509 504.617 288.235C504.86 287.96 505.158 287.74 505.492 287.59C505.827 287.439 506.189 287.361 506.555 287.361C506.922 287.361 507.284 287.439 507.618 287.59C507.953 287.74 508.251 287.96 508.494 288.235C508.737 288.509 508.918 288.832 509.027 289.182C509.136 289.532 509.169 289.901 509.124 290.265ZM570.733 604.569C570.84 604.299 570.848 604 570.756 603.725C570.664 603.449 570.479 603.215 570.231 603.063C568.3 601.865 565.133 603.874 564.592 606.153C565.905 606.269 569.922 606.114 570.733 604.569Z" fill="black"/>
<path d="M561.541 579.037C559.031 573.724 556.206 568.564 553.082 563.587C552.91 563.333 552.647 563.155 552.347 563.09C552.048 563.024 551.735 563.076 551.473 563.235C551.21 563.393 551.019 563.646 550.937 563.941C550.856 564.237 550.891 564.552 551.035 564.823C553.639 569.399 555.898 574.164 557.794 579.076C553.485 579.545 549.387 581.192 545.952 583.836C542.516 586.48 539.876 590.02 538.319 594.066C536.763 598.113 536.351 602.509 537.129 606.774C537.907 611.039 539.845 615.007 542.73 618.243C529.364 623.445 515.228 626.395 500.898 626.973C500.641 627.021 500.409 627.158 500.242 627.359C500.076 627.56 499.984 627.813 499.984 628.074C499.984 628.335 500.076 628.588 500.242 628.789C500.409 628.99 500.641 629.126 500.898 629.175C516.178 629.499 531.362 626.686 545.511 620.909C548.406 623.205 551.8 624.787 555.42 625.527C559.04 626.267 562.783 626.144 566.347 625.168C569.91 624.191 573.194 622.389 575.931 619.908C578.668 617.426 580.783 614.335 582.103 610.884C583.423 607.433 583.911 603.72 583.528 600.045C583.146 596.37 581.903 592.837 579.901 589.732C577.898 586.626 575.193 584.037 572.003 582.172C568.813 580.307 565.229 579.22 561.541 578.999V579.037Z" fill="black"/>
<path d="M486.912 498.927L484.054 497.614C482.779 497.034 481.736 498.927 483.049 499.545C483.645 499.823 484.225 500.132 484.788 500.472L486.912 498.927Z" fill="black"/>
<path d="M487.53 502.133C491.056 504.585 494.341 507.365 497.341 510.438C497.644 510.675 498.023 510.794 498.407 510.773C498.791 510.751 499.154 510.591 499.429 510.321C499.703 510.051 499.87 509.691 499.898 509.307C499.926 508.924 499.814 508.543 499.581 508.236C496.57 505.396 493.327 502.812 489.886 500.51L487.53 502.133Z" fill="black"/>
<path fill-rule="evenodd" clip-rule="evenodd" d="M283.312 577.377C272.635 573.467 262.189 568.953 252.024 563.858C254.053 559.711 255.246 555.205 255.533 550.598C255.821 545.99 255.198 541.371 253.701 537.004C252.203 532.637 249.86 528.608 246.806 525.147C243.751 521.685 240.045 518.859 235.898 516.83C231.751 514.801 227.245 513.609 222.638 513.321C218.03 513.034 213.411 513.656 209.044 515.154C204.677 516.651 200.648 518.994 197.186 522.049C193.725 525.103 190.899 528.81 188.87 532.957C184.197 530.469 179.658 527.736 175.274 524.768C174.076 523.995 172.956 525.811 174.076 526.622C179.291 530.485 183.655 533.189 187.711 535.661C173.844 576.141 227.728 602.06 250.673 566.214C260.742 571.932 271.522 576.295 282.733 579.193C282.959 579.226 283.19 579.178 283.384 579.057C283.578 578.935 283.723 578.749 283.793 578.531C283.862 578.313 283.852 578.077 283.764 577.866C283.676 577.655 283.516 577.481 283.312 577.377Z" fill="black"/>
<path d="M138.116 628.016C134.871 629.947 137.537 635.201 141.979 633.231C141.979 630.681 141.747 628.789 141.67 627.9C141.111 627.634 140.497 627.505 139.879 627.525C139.26 627.545 138.656 627.714 138.116 628.016Z" fill="black"/>
<path d="M175.43 623.11C169.037 624.111 162.586 624.705 156.117 624.887C154.379 594.488 110.885 594.45 109.108 624.887C102.398 624.239 95.7937 622.76 89.4476 620.484C89.3284 620.423 89.1983 620.386 89.0649 620.376C88.9315 620.365 88.7973 620.381 88.67 620.422C88.5426 620.463 88.4247 620.529 88.3228 620.616C88.221 620.703 88.1372 620.809 88.0763 620.928C88.0155 621.047 87.9787 621.177 87.9681 621.311C87.9574 621.444 87.9732 621.578 88.0144 621.706C88.0557 621.833 88.1216 621.951 88.2085 622.053C88.2953 622.155 88.4013 622.238 88.5205 622.299C94.9569 625.707 102.009 627.795 109.263 628.441C109.994 634.112 112.766 639.322 117.06 643.098C121.354 646.874 126.876 648.956 132.593 648.956C138.311 648.956 143.833 646.874 148.127 643.098C152.421 639.322 155.193 634.112 155.924 628.441C162.649 627.755 169.33 626.685 175.932 625.235C176.16 625.123 176.342 624.937 176.45 624.708C176.558 624.478 176.585 624.219 176.526 623.973C176.468 623.726 176.328 623.507 176.129 623.35C175.93 623.194 175.684 623.109 175.43 623.11ZM129.078 635.432C129.026 635.693 128.919 635.941 128.764 636.158C128.61 636.374 128.411 636.556 128.181 636.691C127.952 636.826 127.696 636.911 127.431 636.94C127.167 636.97 126.899 636.943 126.645 636.861C125.486 636.514 125.679 635.857 123.825 633.231C123.246 634.196 122.666 635.201 122.126 636.205C121.914 636.551 121.578 636.802 121.186 636.907C120.794 637.012 120.377 636.963 120.021 636.77C119.664 636.577 119.396 636.255 119.27 635.869C119.144 635.484 119.171 635.065 119.345 634.698C120.078 633.308 120.812 631.879 121.623 630.488C120.671 629.495 119.608 628.614 118.456 627.862C118.078 627.596 117.816 627.197 117.722 626.745C117.629 626.292 117.711 625.822 117.952 625.428C118.193 625.034 118.575 624.747 119.02 624.625C119.466 624.503 119.941 624.556 120.349 624.771C125.177 627.746 122.203 628.093 125.872 623.535C127.379 621.681 130.237 623.96 129.001 625.853C128.151 627.166 127.07 628.518 126.143 629.716C128.036 632.149 129.272 634.042 129.04 635.432H129.078ZM145.533 635.896C144.711 636.638 143.739 637.194 142.683 637.527C141.627 637.86 140.512 637.962 139.413 637.827C138.314 637.691 137.257 637.321 136.314 636.741C135.37 636.162 134.563 635.386 133.945 634.467C133.159 633.306 132.742 631.935 132.749 630.532C132.756 629.13 133.186 627.763 133.984 626.61C134.782 625.457 135.91 624.573 137.219 624.072C138.529 623.572 139.96 623.479 141.323 623.806C140.989 619.63 140.873 615.44 140.975 611.252C140.981 610.805 141.152 610.376 141.455 610.047C141.757 609.718 142.171 609.512 142.616 609.469C143.061 609.426 143.506 609.549 143.866 609.814C144.226 610.078 144.476 610.467 144.568 610.904C145.379 615.965 145.997 630.797 146.074 632.497C146.151 633.385 146.538 634.853 145.495 635.896H145.533Z" fill="#3B82F6"/>
<path d="M129.078 635.432C129.026 635.693 128.919 635.941 128.764 636.158C128.61 636.374 128.411 636.556 128.181 636.691C127.952 636.826 127.696 636.911 127.431 636.94C127.167 636.97 126.899 636.943 126.645 636.861C125.486 636.514 125.679 635.857 123.825 633.231C123.246 634.196 122.666 635.201 122.126 636.205C121.914 636.551 121.578 636.802 121.186 636.907C120.794 637.012 120.377 636.963 120.021 636.77C119.664 636.577 119.396 636.255 119.27 635.869C119.144 635.484 119.171 635.065 119.345 634.698C120.078 633.308 120.812 631.879 121.623 630.488C120.671 629.495 119.608 628.614 118.456 627.862C118.078 627.596 117.816 627.197 117.722 626.745C117.629 626.292 117.711 625.822 117.952 625.428C118.193 625.034 118.575 624.747 119.02 624.625C119.466 624.503 119.941 624.556 120.349 624.771C125.177 627.746 122.203 628.093 125.872 623.535C127.379 621.681 130.237 623.96 129.001 625.853C128.151 627.166 127.07 628.518 126.143 629.716C128.036 632.149 129.272 634.042 129.04 635.432H129.078Z" fill="#3B82F6"/>
<path d="M145.533 635.896C144.711 636.638 143.739 637.194 142.683 637.527C141.627 637.86 140.512 637.962 139.413 637.827C138.314 637.691 137.257 637.321 136.314 636.741C135.37 636.162 134.563 635.386 133.945 634.467C133.159 633.306 132.742 631.935 132.749 630.532C132.756 629.13 133.186 627.763 133.984 626.61C134.782 625.457 135.91 624.573 137.219 624.072C138.529 623.572 139.96 623.479 141.323 623.806C140.989 619.63 140.873 615.44 140.975 611.252C140.981 610.805 141.152 610.376 141.455 610.047C141.757 609.718 142.171 609.512 142.616 609.469C143.061 609.426 143.506 609.549 143.866 609.814C144.226 610.078 144.476 610.467 144.568 610.904C145.379 615.965 145.997 630.797 146.074 632.497C146.151 633.385 146.538 634.853 145.495 635.896H145.533Z" fill="#3B82F6"/>
<path fill-rule="evenodd" clip-rule="evenodd" d="M87.052 373.583C91.5295 372.436 96.0691 371.546 100.649 370.918C102.194 370.609 102.85 373.043 100.996 373.352C97.2184 374.07 93.6622 375.009 89.6773 376.062L89.4082 376.133C93.0786 380.657 95.4165 386.114 96.1596 391.893C96.9027 397.671 96.0217 403.542 93.6155 408.848C91.2093 414.153 87.3728 418.684 82.5362 421.932C77.6996 425.18 72.054 427.016 66.2323 427.236C71.1077 438.315 77.8788 448.458 86.2408 457.21C86.3321 457.299 86.4051 457.405 86.4555 457.522C86.5058 457.639 86.5327 457.764 86.5345 457.892C86.5363 458.019 86.513 458.145 86.4659 458.264C86.4188 458.382 86.3489 458.49 86.2602 458.581C86.1714 458.672 86.0655 458.745 85.9485 458.796C85.8316 458.846 85.7059 458.873 85.5785 458.875C85.4512 458.877 85.3248 458.853 85.2064 458.806C85.0881 458.759 84.9802 458.689 84.8889 458.601C74.8627 450.292 67.2686 439.429 62.9104 427.159C57.9055 426.778 53.066 425.197 48.8013 422.55C44.5366 419.903 40.9723 416.268 38.41 411.952C35.8476 407.636 34.3626 402.766 34.0807 397.755C33.7988 392.743 34.7282 387.738 36.7903 383.162C38.8524 378.585 41.9865 374.573 45.9273 371.465C49.8682 368.356 54.4999 366.243 59.4306 365.303C64.3612 364.364 69.4455 364.625 74.2535 366.067C79.0614 367.508 83.4514 370.086 87.052 373.583Z" fill="black"/>
<path d="M546.949 433.315C545.697 436.172 544.265 438.946 542.661 441.62C539.635 437.414 535.716 433.93 531.185 431.415C526.655 428.901 521.624 427.42 516.454 427.077C511.284 426.734 506.102 427.539 501.28 429.433C496.457 431.327 492.112 434.264 488.557 438.034C485.002 441.803 482.325 446.312 480.716 451.238C479.108 456.163 478.608 461.383 479.252 466.524C479.897 471.665 481.671 476.601 484.446 480.976C487.221 485.352 490.929 489.06 495.305 491.835C491.442 495.272 483.159 501.802 481.537 503.077C481.537 503.077 481.542 503.077 479.7 504.195C474.837 507.722 469.796 510.997 464.597 514.006C464.325 514.16 464.126 514.415 464.043 514.716C463.959 515.016 463.999 515.338 464.153 515.609C464.306 515.881 464.561 516.08 464.862 516.163C465.163 516.247 465.484 516.207 465.756 516.054C472.129 512.5 477.614 509.139 482.442 505.856C484.799 504.157 494.687 496.933 498.472 493.611C505.227 496.936 512.869 498.006 520.277 496.665C527.685 495.324 534.468 491.643 539.628 486.162C544.789 480.682 548.056 473.69 548.95 466.215C549.843 458.74 548.316 451.176 544.592 444.633C546.58 441.315 548.236 437.808 549.537 434.165C550.193 432.504 547.605 431.693 546.949 433.315Z" fill="#3B82F6"/>
<path d="M546.53 600.98C547.292 599.802 567.214 588.26 567.486 588.096C569.99 587.191 568.793 592.921 568.085 595.141C567.377 597.362 563.785 610.849 562.642 615.18C562.583 615.389 562.466 615.576 562.305 615.719C562.144 615.863 561.944 615.956 561.732 615.988C561.519 616.02 561.301 615.989 561.105 615.899C560.91 615.809 560.744 615.665 560.628 615.482C559.539 614.002 558.967 606.545 558.45 604.708C558.124 604.325 554.994 603.639 546.829 603.119C545.795 603.036 545.767 602.159 546.53 600.98Z" fill="white"/>
<path d="M71.9824 403.731C72.0602 404.179 71.8658 405.331 71.1012 404.909L70.966 404.811C68.7307 403.206 66.5097 401.612 64.4009 399.931C61.9644 401.441 59.5279 402.976 57.0525 404.435C56.586 404.717 56.0028 404.192 56.0935 403.719C56.586 401.211 57.1173 398.69 57.6876 396.207L52.1407 391.243C51.7649 390.859 52.2185 390.091 52.6073 389.963C54.3569 389.669 59.5279 389.503 61.6793 389.387C62.2884 387.34 63.5844 383.207 64.362 381.365C64.4128 381.256 64.4941 381.164 64.5963 381.099C64.6985 381.034 64.8173 381 64.9387 381C65.0601 381 65.1789 381.034 65.2811 381.099C65.3833 381.164 65.4646 381.256 65.5154 381.365C66.6798 384.154 67.6667 387.013 68.4703 389.925C71.1401 390.321 73.8228 390.667 76.4796 391.128C77.5293 391.307 76.7776 392.407 76.0908 392.842L70.3106 396.463L71.9824 403.731Z" fill="white"/>
<path d="M234.427 542.97C234.414 543.021 234.386 543.066 234.346 543.099C232.36 544.571 214.01 558.255 206.439 562.837C206.174 563 205.892 562.613 206.157 562.451C206.235 562.353 216.103 550.968 221.202 545.715C218.799 545.76 216.421 546.2 214.164 547.017C214.115 547.043 214.057 547.049 214.003 547.032C213.95 547.016 213.905 546.979 213.879 546.929C213.853 546.88 213.847 546.822 213.863 546.768C213.88 546.715 213.917 546.67 213.966 546.644L232.587 534.449C232.754 534.342 233.066 534.538 232.922 534.718C231.235 537.727 229.05 540.419 227.314 543.389C229.559 542.848 231.866 542.601 234.177 542.656C234.229 542.655 234.28 542.67 234.324 542.699C234.367 542.728 234.4 542.77 234.418 542.818C234.437 542.867 234.44 542.92 234.427 542.97Z" fill="white"/>
</svg>
