<svg width="624" height="682" fill="none" xmlns="http://www.w3.org/2000/svg"><path d="M297.141 346.815a5.874 5.874 0 0 0 7.178-3.465 5.869 5.869 0 0 0-2.89-7.428 8.003 8.003 0 0 0-7.339.773 5.873 5.873 0 0 0 3.051 10.12zm-2.201-5.948c0-3.245 6.45-3.631 7.068 0 1.198 5.06-7.261 4.751-7.068 0zm-2.318-241.262c-5.948 6.992-4.519 15.992 4.829 20.395a38.075 38.075 0 0 1 6.45-1.082c2.482.163 4.948.512 7.378 1.043a13.862 13.862 0 0 0 6.257-15.45 14.252 14.252 0 0 0-24.914-4.906zm-2.163 67.056a1.004 1.004 0 0 0-1.97 0 58.938 58.938 0 0 0-.502 6.489 1.546 1.546 0 0 0 2.936 0c.193-.657-.464-5.833-.464-6.489zm30.476.695a1.002 1.002 0 0 0-1.622-.58 1.009 1.009 0 0 0-.348.58c0 .541-.656 5.755-.463 6.489a1.542 1.542 0 0 0 1.468 1.063 1.546 1.546 0 0 0 1.468-1.063c.193-.734-.503-5.909-.503-6.489zm-30.205-13.403c-4.636-.387-6.76 6.798-6.837 7.107a.87.87 0 0 0 .579 1.082.871.871 0 0 0 1.082-.58c.231-.579 2.703-4.79 5.6-4.635 1.468.116 2.202-2.781-.424-2.974zm31.364 8.15a6.681 6.681 0 0 0-4.674-6.026 1.52 1.52 0 0 0-1.697 2.233c.203.347.536.6.925.703a6.065 6.065 0 0 1 3.863 4.287.822.822 0 0 0 1.023.56.822.822 0 0 0 .56-1.023s.077-.425 0-.734zm-17.884 20.511a.777.777 0 0 0 .385-1.187.774.774 0 0 0-.385-.281c-1.777-.348-3.863-.464-3.863-2.202a53.86 53.86 0 0 1 1.005-6.451.81.81 0 0 0-1.545-.424 35.123 35.123 0 0 0-2.009 7.725c.077 2.317 2.55 4.056 6.412 2.82zm4.828 5.06a8.453 8.453 0 0 1-6.721 2.704 6.222 6.222 0 0 1-4.21-2.782.855.855 0 0 0-1.506.812 8.194 8.194 0 0 0 6.908 4.741 8.187 8.187 0 0 0 7.461-3.814c.502-1.275-.889-2.588-1.932-1.661zm-.424 229.519a.58.58 0 0 0 .656 0c4.133-2.588 35.228-27.309 37.777-29.511a.586.586 0 0 0 .171-.294.586.586 0 0 0-.234-.606.567.567 0 0 0-.323-.104s-63.734-1.236-74.974-1.623c-.657 0-.773.696-.425 1.005 2.047 2.008 26.729 22.982 37.352 31.133zM182.922 35.33c.888 1.545 9.927 2.047 10.738 1.738a2.663 2.663 0 0 0 1.313-1.004 101.862 101.862 0 0 0 9.618 7.107 4.403 4.403 0 0 0 3.438.927c1.622-.463 32.099-18.618 32.562-18.927 2.009-1.236 2.047-2.472 1.777-3.283-.579-1.584-31.712-16.185-36.695-21.631a1.355 1.355 0 0 0-1.893.309c-3.863 4.442-7.3 9-10.815 13.52a37.7 37.7 0 0 0-10.507 1.158 126.506 126.506 0 0 0 .464 20.086zm26.536-11.588a5.061 5.061 0 0 1-2.124 2.588c-1.932.656-3.863-1.159-4.52-1.97-2.124-2.472 2.704-7.726 5.91-3.593a3.21 3.21 0 0 1 .734 3.207v-.232zm-2.781-7.146a6.333 6.333 0 0 0-7.407 5.684 6.35 6.35 0 0 0 .647 3.393 7.729 7.729 0 0 0 7.726 3.631 6.41 6.41 0 0 0 4.094-4.79c4.249 0 18.85 0 24.682-.27l-28.776 16.764c-1.623-.695-11.125-7.726-12.284-8.653 0-2.124 0-14.832-.27-16.88a350.382 350.382 0 0 0 9.734-12.128c4.712 3.863 26.459 15.45 32.833 18.811h-25.803a6.177 6.177 0 0 0-5.176-5.33v-.232zm-21.631.695 7.146-.27c0 1.197.464 15.45.27 17.459-2.438.16-4.887.044-7.3-.348.232-2.665.039-13.596-.116-16.61v-.23zm-120.94 203.06a2.664 2.664 0 0 0 2.666 0c3.051-1.507 9.116-6.798 26.806-18.502a3.865 3.865 0 0 0 1.97-2.781s.657-16.494-.27-17.035c-2.974-1.854-11.588-7.725-14.06-7.339-.309 0-32.91 20.318-32.987 21.284a103.593 103.593 0 0 0-.193 12.669 152.239 152.239 0 0 0 16.069 11.704zm-13.712-21.708c2.974 2.008 11.279 7.725 13.558 8.884v8.807c-14.446-9.657-13.52-8.035-13.403-10.893.038-1.584-.078-5.292-.155-6.798zm15.142 5.678a1.428 1.428 0 0 1-1.7 0c-.618-.386-9.27-6.567-11.588-8.228 30.36-19.313 29.279-19.545 30.901-18.965.773.309 4.404 2.626 9.31 5.871-5.795 4.944-26.344 20.936-26.923 21.322zm27.038-5.137c-.81.772-21.708 14.639-26.343 17.652v-9.657c2.742-2.086 20.858-16.3 26.498-21.128.154 12.746.386 12.746.038 13.133h-.193zm399.669 23.523a38.158 38.158 0 0 0 20.24-6.373 15.45 15.45 0 0 0 6.258-18.425c2.549-1.931 10.699-8.846 12.283-10.352 3.283.193 7.107-5.64 9.155-8.807.849-1.313 1.97-2.665 1.39-4.172a203.407 203.407 0 0 0-16.532-15.643 2.781 2.781 0 0 0-3.09-.657 81.094 81.094 0 0 0-10.352 12.245 2.55 2.55 0 0 0 .193 1.699c0 .271-5.369 15.837-6.026 17.73a11.898 11.898 0 0 0-10.699 11.588c-.464 11.279 8.459 14.91-3.168 19.081a1.24 1.24 0 0 0-.157 1.714c.134.165.308.293.505.372zm22.326-51.489a53.85 53.85 0 0 1 8.807-10.004c2.086 1.661 14.137 12.785 15.451 14.6-.966 1.661-6.374 8.691-7.726 8.846-.115-.116-16.03-12.979-16.532-13.442zm2.781 24.18a13.325 13.325 0 0 0-8.42-5.562c.772-2.588 3.592-12.052 4.558-15.876 2.935 2.511 10.197 8.614 14.639 12.129-1.738 1.738-8.305 7.339-10.777 9.309zm-18.927 24.258c3.013-2.743 2.279-6.335.889-9.773-2.472-7.725-1.738-12.708 2.395-15.451a9.504 9.504 0 0 1 13.21 3.091c6.103 9.618-5.331 19.931-16.494 22.133zM250.75 23.742c1.584 0 10.854-1.198 19.313-2.086a1.12 1.12 0 0 0 0-2.24c-3.167.309-18.038 1.197-19.661 1.545a1.43 1.43 0 0 0 .348 2.78zm30.283-2.472c1.043 0 21.554-1.7 26.073-1.468 1.507 0 1.622-2.202 0-2.318a163.929 163.929 0 0 0-26.459.85 1.506 1.506 0 0 0 .386 2.936zm37.7-2.202 16.648-.463a1.198 1.198 0 0 0 0-2.357l-16.571-.463a1.662 1.662 0 0 0-.077 3.283zm29.897.54c7.107 0 32.755 1.198 39.012 2.28 1.545.309 2.086-2.086.541-2.357a265.092 265.092 0 0 0-39.592-3.012 1.545 1.545 0 1 0 .039 3.09zm51.489 6.683a73.779 73.779 0 0 1 27.695 15.258c1.236 1.12 2.974-.696 1.777-1.816a69.526 69.526 0 0 0-28.738-16.57 1.624 1.624 0 0 0-1.729 1.244 1.624 1.624 0 0 0 .995 1.884zm34.262 51.528a1.348 1.348 0 0 0-.583 2.319c.245.22.562.343.892.346 5.098 0 11.085-5.948 11.588-14.176.502-8.227-5.138-14.832-10.546-20.356a1.24 1.24 0 0 0-1.757-.02 1.243 1.243 0 0 0-.019 1.758c6.103 6.335 9.077 12.129 9.116 17.769a12.48 12.48 0 0 1-8.691 12.36zm-42.142 12.554c3.863 0 29.318-5.833 33.528-6.837a1.236 1.236 0 0 0-.58-2.395c-5.755 1.313-26.072 4.867-33.218 6.103a1.585 1.585 0 0 0 .27 3.129zm-10.468-2.55c-8.227.889-16.841 1.661-25.146 2.897a1.585 1.585 0 0 0 .271 3.09c2.356 0 21.206-2.472 24.991-2.935 1.97-.27 1.854-3.322-.116-3.052zm-58.249 9.889c2.241 0 17.691-2.511 21.284-3.013a1.277 1.277 0 0 0 .953-1.392 1.277 1.277 0 0 0-1.262-1.119c-4.713.54-16.648 1.584-21.284 2.395a1.582 1.582 0 0 0-1.23 1.701 1.586 1.586 0 0 0 1.539 1.428zm-64.467 5.562c8.266 0 16.725-1.468 24.914-2.24 1.699 0 1.699-2.82 0-2.666-8.228.657-16.841 1.005-25.146 2.163-1.661.193-1.468 2.743.232 2.743zm-40.713 3.553a1.432 1.432 0 0 0-.632 2.449c.258.234.593.366.941.371 2.627 0 23.833-3.129 27.039-3.553a1.394 1.394 0 0 0 1.058-1.548 1.389 1.389 0 0 0-1.444-1.195c-5.06.618-22.674 2.588-26.962 3.476zm-58.828 11.048a418.784 418.784 0 0 1 45.386-6.953c2.009 0 1.932-3.283 0-3.09a244.773 244.773 0 0 0-45.734 7.107 1.51 1.51 0 0 0-1.033 1.611 1.508 1.508 0 0 0 1.381 1.325zm-51.682 19.931a108.845 108.845 0 0 1 33.296-13.094c2.047-.425 1.236-3.515-.773-3.091a107.276 107.276 0 0 0-34.261 13.211 1.734 1.734 0 0 0-.431 2.246 1.742 1.742 0 0 0 2.169.728zm-32.64 31.056a51.49 51.49 0 0 1 23.176-27.039c1.43-.772.232-2.897-1.236-2.163a50.215 50.215 0 0 0-24.953 28.12c-.734 2.163 2.28 3.013 3.013 1.082zm8.42 46.197c-1.158-1.313-3.012.502-1.93 1.777 2.703 3.129 16.957 14.099 19.854 14.099a1.394 1.394 0 0 0 1.331-1.03 1.388 1.388 0 0 0-.636-1.558 142.468 142.468 0 0 1-18.618-13.288zm53.846 24.76a85.184 85.184 0 0 1-25.3-6.528c-1.777-.773-3.245 1.854-1.429 2.704a75.174 75.174 0 0 0 26.613 7.03c2.125.116 2.125-2.975.116-3.206zm8.382 5.292c4.481.656 22.751 3.63 27.386 3.862a1.542 1.542 0 0 0 1.579-1.35 1.548 1.548 0 0 0-1.192-1.701c-4.442-.927-22.558-3.09-27.039-3.863-1.815-.039-2.549 2.743-.734 3.052zm59.524 4.712a65.68 65.68 0 0 1-22.326-1.854 1.28 1.28 0 0 0-.861.212 1.276 1.276 0 0 0 .204 2.221 64.282 64.282 0 0 0 23.176 2.357c1.738-.194 1.699-3.052-.193-2.936zm256.712-18.966a116.146 116.146 0 0 0 23.678-5.137c1.622-.541.927-3.09-.734-2.588a120.926 120.926 0 0 1-22.983 4.326c-2.24.232-2.202 3.592.039 3.399zm-35.846 2.936a1.426 1.426 0 0 0-.585 2.363c.229.233.531.38.856.418 2.82 0 22.094-3.399 25.377-3.863 1.893-.347 1.159-3.09-.656-2.819-9.966 1.429-17.382 2.433-24.992 3.901zm-10.004 1.197c-9.618 1.7-19.313 2.704-28.506 3.593-2.009.231-1.932 3.322 0 3.167a281.466 281.466 0 0 0 29.008-3.863 1.474 1.474 0 0 0 1.183-1.126 1.455 1.455 0 0 0-.192-1.108 1.45 1.45 0 0 0-.92-.648 1.455 1.455 0 0 0-.573-.015zM134.021 372.655c1.699 0 1.776-2.394 0-2.626a80.183 80.183 0 0 0-23.64 0 1.502 1.502 0 0 0-.624 2.641c.295.24.67.358 1.049.333a130.638 130.638 0 0 1 23.215-.348zm342.965-2.047a1.47 1.47 0 0 0 .27 2.859c.386 0 20.742-.58 25.648 0 1.313.193 1.738-1.816.425-2.009a157.08 157.08 0 0 0-26.343-.85zm-10.545 3.052a1.156 1.156 0 0 0 1.158-1.159 1.159 1.159 0 0 0-1.158-1.159 63.21 63.21 0 0 0-16.996 1.198c-1.661.347-1.198 2.781.386 2.781a68.56 68.56 0 0 1 16.61-1.661zm87.914 47.935c-.309 1.545 1.931 2.511 2.588 1.005 3.321-7.494 4.982-18.966.811-27.039-.811-1.545-3.129-.232-2.356 1.313 4.673 9.271.193 18.734-1.043 24.721zM87.9 537.475a56.864 56.864 0 0 0-13.403 16.184 1.13 1.13 0 0 0 .386 1.545 1.122 1.122 0 0 0 1.545-.386 58.592 58.592 0 0 1 13.365-15.257c1.545-1.121-.348-3.129-1.893-2.086zm25.803-22.674a153.628 153.628 0 0 0-15.064 12.863 1.241 1.241 0 0 0 .902 2.112c.33-.004.644-.138.874-.374 2.164-2.279 13.79-11.356 14.949-12.322 1.159-.966-.232-2.781-1.661-2.279zm11.588-7.03c.811 0-1.584.773 12.824-8.73a1.465 1.465 0 0 0 .445-1.925 1.464 1.464 0 0 0-1.874-.624 119.255 119.255 0 0 0-12.168 9.502 1.085 1.085 0 0 0 .773 1.777z" fill="#000"/><path d="M145.029 492.475c1.005.425.348 0 12.515-7.725-.783 9.7-.641 19.452.425 29.125a142.98 142.98 0 0 1-17.304-11.086c-1.043-.811-2.434.656-1.352 1.545a128.266 128.266 0 0 0 19.313 13.674 151.494 151.494 0 0 0 54.811 97.918c-13.828 3.245-22.558 5.06-25.957 5.408-1.468 0-1.468 2.394 0 2.394 3.36 0 24.76-4.171 29.279-5.098 55.468 44.15 128.395 39.824 181.545-.85a253.18 253.18 0 0 0 32.369 6.335 1.472 1.472 0 0 0 1.347-1.287 1.465 1.465 0 0 0-1-1.572c-4.789-.811-18.231-3.36-29.819-5.755a148.018 148.018 0 0 0 54.27-92.704 65.235 65.235 0 0 0 4.288-2.974c1.39-1.043 0-3.476-1.507-2.511l-2.202 1.352c4.713-41.021-9.734-81.888-35.266-112.596 7.262-7.996 12.322-17.459 9.348-27.966a88.598 88.598 0 0 1 11.163-2.626c1.7-.232 1.082-2.743-.541-2.511a84.039 84.039 0 0 0-11.588 2.318 37.889 37.889 0 0 0-35.073-23.717 56.084 56.084 0 0 0 14.408-49.404c-7.146-32.832-32.678-64.042-64.815-82.004a28.38 28.38 0 0 0-.696-13.055c-.849-3.863-3.399-5.176-6.373-7.108-1.545-1.004-3.013-1.931-4.635-2.858a40.405 40.405 0 0 0 6.412-22.249c8.691-.85 9-13.519-.541-15.451 9.695-45.502-74.472-53.227-69.528 1.468a9.24 9.24 0 0 0-6.605 7.571 7.492 7.492 0 0 0 8.884 8.73 27.048 27.048 0 0 0 3.013 14.446 12.513 12.513 0 0 0-8.729 7.339 28.072 28.072 0 0 0-.966 15.18 138.826 138.826 0 0 0-69.064 69.528c-10.932 24.914-5.601 43.146 13.712 62.15a39.4 39.4 0 0 0-26.459.811 39.78 39.78 0 0 0-22.326 24.914 48.07 48.07 0 0 0-11.241-.463 1.122 1.122 0 0 0-.655 1.816c.167.201.399.337.655.386a33.44 33.44 0 0 1 10.545 1.236c-2.665 16.261 11.125 30.012 24.528 39.669a135.192 135.192 0 0 0-25.648 66.747 140.167 140.167 0 0 0-13.094 9.038 1.395 1.395 0 0 0-.68 1.284 1.396 1.396 0 0 0 .834 1.188zm170.768-284.87 1.623-.502c.888.927 3.283 3.012 4.751 4.248-11.472 6.026-25.687 5.524-40.519-1.699 1.66-1.507 4.364-4.249 5.369-5.408a81.22 81.22 0 0 0 8.111 2.627 12.798 12.798 0 0 0 10.146 5.628 12.793 12.793 0 0 0 10.519-4.894zm-30.901-4.442c-1.313 1.467-4.249 4.596-5.214 5.407a102.003 102.003 0 0 1-3.245-1.854.926.926 0 0 0-.966 1.584c9.386 6.026 18.541 10.584 29.627 10.584a30.122 30.122 0 0 0 23.948-10.082.862.862 0 0 0-.019-1.217.861.861 0 0 0-1.217.02 34.218 34.218 0 0 1-3.283 2.395c-1.043-.889-3.438-2.82-4.597-3.863a29.552 29.552 0 0 0 10.468-6.76 29.25 29.25 0 0 1 10.159 7.185 24.068 24.068 0 0 1 .657 13.056c-3.554 10.969-32.292 21.824-61.803 6.412-10.39-5.215-14.755-9.503-12.901-22.481a10.578 10.578 0 0 1 8.266-9.695 27.931 27.931 0 0 0 10.12 9.309zm31.442 33.025c6.296-.772 21.245-3.631 26.537-13.403 30.708 16.996 62.729 55.004 63.463 89.652A48.82 48.82 0 0 1 387.99 352.3a45.848 45.848 0 0 0-15.45 5.871c3.399-52.493 3.515-49.326 3.128-49.712-.386-.387-6.257-.425-15.836-.657 1.197-1.506 4.403-5.755 5.137-6.605a.988.988 0 0 0 .269-.703.988.988 0 0 0-.308-.688.98.98 0 0 0-.703-.268.979.979 0 0 0-.687.307 104.857 104.857 0 0 1-7.726 7.725h-.811a284.245 284.245 0 0 0 .773-35.227c0-.927-1.622-.927-1.545 0 .386 5.523-2.202 30.283-2.511 35.034-28.777-.579-76.751-1.081-105.721-1.352a111.52 111.52 0 0 1-4.442-37.043c0-1.313-1.854-1.313-1.97 0a102.69 102.69 0 0 0 3.052 37.082h-.811a163.676 163.676 0 0 1-11.009-12.168.961.961 0 0 0-1.266-.266.964.964 0 0 0-.395 1.232c.425.811 5.06 7.725 8.112 11.356h-14.988c-1.12 0-.772 0-.849.889-.387 4.364 1.004 28.467 2.086 45.618a59.95 59.95 0 0 0-7.262-3.863c-19.893-19.545-30.477-34.764-19.661-60.875a134.69 134.69 0 0 1 68.098-71.112c4.327 9.232 26.305 22.326 51.644 19.313zm-92.433 72.773c4.403 0 139.905 1.197 149.369 2.047-1.816 15.219-5.176 60.18-6.335 75.283h-8.459c-4.79 4.133-40.326 33.644-42.876 35.807-.888.695.734 1.275 4.558 4.712a21.753 21.753 0 0 1 8.73 14.987.543.543 0 0 0 .541.503c13.751.579 25.377 12.824 15.836 20.394-8.768 6.953-22.326 0-29.047-6.412 6.065-7.918 9.618-14.832 2.82-21.978-.811-.85-9.541-7.957-20.627-16.996-41.987-34.262-38.626-32.33-39.167-32.33-2.163 0-25.107-1.584-29.24-1.816-3.052-24.721-5.292-60.836-6.103-74.201zm40.403 152.343c-5.678.425-15.219 1.159-19.313-4.597-2.665-3.862 1.313-8.382 5.601-9.618 9.386 3.399 24.141 8.15 28.931 9.657a45.392 45.392 0 0 1-15.219 4.558zm-20.086-.773c3.863 3.863 10.43 4.326 15.683 4.249a48.661 48.661 0 0 0 24.373-6.682 348.464 348.464 0 0 0 25.571 6.45.5.5 0 0 0 .579-.193c1.468-1.815 2.897-3.862 4.211-5.6 8.884 8.266 23.716 13.712 32.832 6.682 6.721-5.215 5.678-14.137-1.043-19.661 31.983-9.386 57.438-22.867 71.73-37.043a140.68 140.68 0 0 1 33.18 112.79 266.953 266.953 0 0 1-25.301 14.639 1.046 1.046 0 0 0-.533 1.185 1.044 1.044 0 0 0 1.036.785c.502 0 15.952-7.455 24.103-12.283a151.455 151.455 0 0 1-52.919 88.841c-6.219-1.313-11.588-2.549-14.137-3.322-1.391-.464-2.009 1.622-.657 2.124 2.356.85 6.76 2.048 12.013 3.4a143.85 143.85 0 0 1-173.549.618c4.63-.968 9.186-2.259 13.635-3.863 1.7-.734.657-3.245-1.081-2.858l-16.069 3.862a153.888 153.888 0 0 1-55.429-94.48l.773.347c1.776.773 3.167-1.661 1.506-2.626l-2.858-1.661a139.248 139.248 0 0 1 24.025-100.236 292.076 292.076 0 0 0 61.416 29.82c-6.103 3.09-8.15 9.734-3.09 14.716zm92.163-286.647c-.811 7.725-1.97 15.45-6.759 21.399-2.627 3.283-8.228 8.15-12.824 8.266-3.052 0-4.133-1.777-6.103-3.863-2.588-3.013-3.863-4.596-5.254-4.365-3.09.387-2.549 6.219-7.493 9.116-1.507.85-6.76-.656-10.777-2.588a25.76 25.76 0 0 1-14.176-25.764c0-.927-1.352-1.506-1.893-1.236a5.203 5.203 0 0 1-4.997-.885 5.212 5.212 0 0 1-1.878-4.715c1.468-7.726 10.12-5.794 12.399-1.314a.583.583 0 0 0 .716.206.577.577 0 0 0 .327-.669 20.047 20.047 0 0 1 6.644-23.176 32.947 32.947 0 0 0 37.583 0c7.455 5.794 7.726 17.845 7.185 22.056a.66.66 0 0 0 .232.54c.656.502 1.738-.811 2.279-1.429a6.523 6.523 0 0 1 6.605-2.897 5.218 5.218 0 0 1 4.459 5.296 5.217 5.217 0 0 1-4.73 5.056c-.27-.232-1.467.155-1.545.966z" fill="#000"/><path d="M281.034 597.539c.387.927 0 .502 0 0a196.674 196.674 0 0 1-33.721 10.236c-1.39.27-.927 2.318.464 2.163a109.144 109.144 0 0 0 34.416-9.772c1.584-.889.541-3.245-1.159-2.627zm54.078-16.416c.927 0 32.214-12.283 35.266-14.253 1.506-1.005.463-3.593-1.314-2.936-3.128 1.159-28.004 12.901-34.223 15.103a1.084 1.084 0 0 0-.687 1.149 1.082 1.082 0 0 0 .958.937zm47.819-20.472c1.005 0 27.039-11.859 29.472-13.713 1.198-.927.387-3.128-1.197-2.51-2.356.888-23.717 11.588-28.622 13.635a1.353 1.353 0 0 0 .347 2.588zm75.786-77.64c2.163 1.391 10.197 7.726 12.36 9.116a1.58 1.58 0 0 0 2.041-.395 1.583 1.583 0 0 0-.11-2.077c-2.047-1.738-10.892-7.262-13.094-8.575a1.134 1.134 0 0 0-1.564.367 1.134 1.134 0 0 0 .367 1.564zm48.476 32.06c-1.198-.965-2.82.773-1.584 1.777 2.743 2.279 13.635 11.936 16.648 13.983a1.547 1.547 0 0 0 1.906-.439 1.543 1.543 0 0 0-.052-1.956c-2.472-2.549-13.712-10.815-16.918-13.365zm24.914 22.172a1.216 1.216 0 0 0-1.7 1.738 105.977 105.977 0 0 1 13.017 16.03c1.237 1.738 4.056 0 2.859-1.777a85.038 85.038 0 0 0-14.176-15.991zm-54.077 89.073c-5.176 0-27.464-1.468-32.949-2.588a.972.972 0 0 0-1.178.714.98.98 0 0 0 .715 1.179 237.972 237.972 0 0 0 33.412 3.862 1.584 1.584 0 0 0 0-3.167zm-138.051-27.773c-1.352-.656-2.473 1.352-1.082 2.048a107.961 107.961 0 0 0 30.901 10.12c2.086.386 2.897-2.82.773-3.168a114.538 114.538 0 0 1-30.592-9zm-45.271-2.665c4.829-1.043 14.678-3.863 16.223-4.094 1.468.579 10.893 4.133 15.914 5.33a1.504 1.504 0 0 0 1.778-1.064 1.51 1.51 0 0 0-.966-1.833c-3.863-1.39-7.726-2.549-12.013-3.862a59.412 59.412 0 0 0 9.038-3.863 1.581 1.581 0 0 0-.289-2.407 1.579 1.579 0 0 0-.869-.258c-4.327 1.467-8.575 3.322-12.786 4.944-4.789-1.7-9.193-3.438-13.403-5.292-1.391-.618-2.511 1.429-1.082 2.086 3.515 1.661 7.03 3.244 10.507 4.674a126.216 126.216 0 0 1-12.515 3.631 1.124 1.124 0 0 0-.113 1.717c.16.152.36.253.576.291zM121.816 488.187c-3.863-3.013-18.348-15.45-21.554-18.849-1.043-1.121-2.78.54-1.738 1.661a117.517 117.517 0 0 0 21.438 19.66c1.545 1.043 3.322-1.313 1.854-2.472zM75.927 670.968a354.065 354.065 0 0 0-12.978-62.922 24.958 24.958 0 0 0 15.18 10.545 1.092 1.092 0 0 0 .85-2.009c-4.944-2.974-12.554-5.987-14.91-13.21a10.275 10.275 0 0 0-3.863-13.829 65.677 65.677 0 0 1 8.653-23.176c.502-.965-.811-1.969-1.545-1.12a44.96 44.96 0 0 0-9.695 23.987 10.206 10.206 0 0 0-2.936.657 257.142 257.142 0 0 0-43.03-72.734 6.102 6.102 0 0 0-8.73-8.111 6.679 6.679 0 0 0-2.317 8.304 6.528 6.528 0 0 0 9.154 2.279 261.575 261.575 0 0 1 42.49 71.653c-6.297 5.562-.812 15.991 7.107 15.141a361.127 361.127 0 0 1 13.596 65.163 5.447 5.447 0 1 0 2.974-.618zM9.567 514.299a3.437 3.437 0 1 1-6.644 0 3.437 3.437 0 1 1 6.644 0zm69.528 161.884c0 3.862-6.374 3.862-6.374 0 0-3.863 6.22-3.515 6.22.347l.154-.347zm-16.919-75.708c-2.085 6.45-9.85 1.931-9.733-3.322 0-4.635 6.45-7.725 8.884-3.283a7.721 7.721 0 0 1 .695 6.759l.154-.154zm561.785-155.356a6.034 6.034 0 0 0-3.408-5.323 6.022 6.022 0 0 0-6.287.649 172.895 172.895 0 0 1-54.773-50.755 9.314 9.314 0 0 0 1.854-8.923 7.146 7.146 0 0 0-11.935-2.858 230.835 230.835 0 0 1-39.052-84.245 5.14 5.14 0 0 0 .541-6.064 4.869 4.869 0 0 0-9.27 1.274 5.054 5.054 0 0 0 1.362 5.003 5.054 5.054 0 0 0 5.05 1.178 225.733 225.733 0 0 0 39.63 84.978 7.357 7.357 0 0 0-.888 2.124c-4.906-2.356-29.279-10.081-31.828-9.386-1.082.309-.58 1.623 0 1.777a270.296 270.296 0 0 1 31.364 10.777 7.931 7.931 0 0 0 4.112 5.589 7.935 7.935 0 0 0 3.444.903 7.936 7.936 0 0 0 3.492-.698c17.613 25.03 35.652 41.91 55.12 51.605a6.176 6.176 0 0 0 .452 5.859 6.188 6.188 0 0 0 5.149 2.832 5.637 5.637 0 0 0 5.63-3.879 5.643 5.643 0 0 0 .241-2.417zm-8.575 1.931a3.398 3.398 0 0 1 2.511-5.292 3.592 3.592 0 0 1 3.476 3.554 3.246 3.246 0 0 1-4.395 3.038 3.243 3.243 0 0 1-1.592-1.3zm-59.176-58.172a5.604 5.604 0 0 1-3.659-.075 5.605 5.605 0 0 1-2.83-2.319 5.795 5.795 0 0 1 5.06-8.035c4.944 0 5.794 8.614 1.429 10.429zm-47.086-98.613a2.578 2.578 0 0 1-.63 2.03 2.578 2.578 0 0 1-3.002.645 2.577 2.577 0 0 1-1.408-1.592 2.578 2.578 0 0 1-.097-1.083 2.578 2.578 0 0 1 .63-2.03 2.577 2.577 0 0 1 1.938-.874c.367 0 .729.078 1.063.229a2.584 2.584 0 0 1 1.506 2.675zm61.609 314.304a1.231 1.231 0 0 0-.502-1.506c-1.931-1.198-5.098.811-5.639 3.09 1.313.116 5.33-.039 6.141-1.584z" fill="#000"/><path d="M561.541 579.037a147.889 147.889 0 0 0-8.459-15.45 1.192 1.192 0 0 0-1.609-.352 1.196 1.196 0 0 0-.438 1.588 105.986 105.986 0 0 1 6.759 14.253 23.603 23.603 0 0 0-20.665 27.698 23.598 23.598 0 0 0 5.601 11.469 129.756 129.756 0 0 1-41.832 8.73 1.121 1.121 0 0 0 0 2.202 111.755 111.755 0 0 0 44.613-8.266 23.53 23.53 0 0 0 30.42-1.001 23.515 23.515 0 0 0 7.597-19.863 23.52 23.52 0 0 0-21.987-21.046v.038zM486.912 498.927l-2.858-1.313c-1.275-.58-2.318 1.313-1.005 1.931.596.278 1.176.587 1.739.927l2.124-1.545zM487.53 502.133a67.828 67.828 0 0 1 9.811 8.305 1.587 1.587 0 0 0 2.557-1.131 1.58 1.58 0 0 0-.317-1.071 74.51 74.51 0 0 0-9.695-7.726l-2.356 1.623z" fill="#000"/><path fill-rule="evenodd" clip-rule="evenodd" d="M283.312 577.377a300.22 300.22 0 0 1-31.288-13.519 35.146 35.146 0 0 0 1.677-26.854 35.166 35.166 0 0 0-17.803-20.174 35.164 35.164 0 0 0-26.854-1.676 35.147 35.147 0 0 0-20.174 17.803 149.975 149.975 0 0 1-13.596-8.189c-1.198-.773-2.318 1.043-1.198 1.854 5.215 3.863 9.579 6.567 13.635 9.039-13.867 40.48 40.017 66.399 62.962 30.553a131.637 131.637 0 0 0 32.06 12.979.967.967 0 0 0 .579-1.816z" fill="#000"/><path d="M138.116 628.016c-3.245 1.931-.579 7.185 3.863 5.215 0-2.55-.232-4.442-.309-5.331a3.867 3.867 0 0 0-3.554.116z" fill="#000"/><path d="M175.43 623.11a152.592 152.592 0 0 1-19.313 1.777c-1.738-30.399-45.232-30.437-47.009 0a81.423 81.423 0 0 1-19.66-4.403 1.016 1.016 0 0 0-1.48.827 1.021 1.021 0 0 0 .552.988 54.695 54.695 0 0 0 20.743 6.142 23.523 23.523 0 0 0 46.661 0 177.012 177.012 0 0 0 20.008-3.206 1.117 1.117 0 0 0 .594-1.262 1.119 1.119 0 0 0-1.096-.863zm-46.352 12.322a1.883 1.883 0 0 1-.897 1.259 1.88 1.88 0 0 1-1.536.17c-1.159-.347-.966-1.004-2.82-3.63a73.5 73.5 0 0 0-1.699 2.974 1.582 1.582 0 0 1-2.105.565 1.58 1.58 0 0 1-.676-2.072c.733-1.39 1.467-2.819 2.278-4.21a18.074 18.074 0 0 0-3.167-2.626 1.818 1.818 0 0 1 .564-3.237 1.82 1.82 0 0 1 1.329.146c4.828 2.975 1.854 3.322 5.523-1.236 1.507-1.854 4.365.425 3.129 2.318-.85 1.313-1.931 2.665-2.858 3.863 1.893 2.433 3.129 4.326 2.897 5.716h.038zm16.455.464a7.716 7.716 0 0 1-6.12 1.931 7.726 7.726 0 0 1-5.468-3.36 6.956 6.956 0 0 1 3.274-10.395 6.959 6.959 0 0 1 4.104-.266 120.62 120.62 0 0 1-.348-12.554 1.815 1.815 0 0 1 3.593-.348c.811 5.061 1.429 19.893 1.506 21.593.077.888.464 2.356-.579 3.399h.038z" fill="#3B82F6"/><path d="M129.078 635.432a1.883 1.883 0 0 1-.897 1.259 1.88 1.88 0 0 1-1.536.17c-1.159-.347-.966-1.004-2.82-3.63a73.5 73.5 0 0 0-1.699 2.974 1.582 1.582 0 0 1-2.105.565 1.58 1.58 0 0 1-.676-2.072c.733-1.39 1.467-2.819 2.278-4.21a18.074 18.074 0 0 0-3.167-2.626 1.818 1.818 0 0 1 .564-3.237 1.82 1.82 0 0 1 1.329.146c4.828 2.975 1.854 3.322 5.523-1.236 1.507-1.854 4.365.425 3.129 2.318-.85 1.313-1.931 2.665-2.858 3.863 1.893 2.433 3.129 4.326 2.897 5.716h.038zM145.533 635.896a7.716 7.716 0 0 1-6.12 1.931 7.726 7.726 0 0 1-5.468-3.36 6.956 6.956 0 0 1 3.274-10.395 6.959 6.959 0 0 1 4.104-.266 120.62 120.62 0 0 1-.348-12.554 1.815 1.815 0 0 1 3.593-.348c.811 5.061 1.429 19.893 1.506 21.593.077.888.464 2.356-.579 3.399h.038z" fill="#3B82F6"/><path fill-rule="evenodd" clip-rule="evenodd" d="M87.052 373.583a121.069 121.069 0 0 1 13.597-2.665c1.545-.309 2.201 2.125.347 2.434-3.778.718-7.334 1.657-11.319 2.71l-.269.071a31.362 31.362 0 0 1-6.872 45.799 31.369 31.369 0 0 1-16.304 5.304 104.065 104.065 0 0 0 20.009 29.974.974.974 0 0 1 .225 1.054.97.97 0 0 1-1.577.337 72.238 72.238 0 0 1-21.979-31.442 31.253 31.253 0 0 1-28.83-29.404 31.247 31.247 0 0 1 25.35-32.452 31.248 31.248 0 0 1 27.622 8.28z" fill="#000"/><path d="M546.949 433.315a73.475 73.475 0 0 1-4.288 8.305 35.152 35.152 0 0 0-61.945 9.618 35.154 35.154 0 0 0 14.589 40.597c-3.863 3.437-12.146 9.967-13.768 11.242 0 0 .005 0-1.837 1.118a175.227 175.227 0 0 1-15.103 9.811 1.174 1.174 0 0 0-.444 1.603 1.177 1.177 0 0 0 1.603.445c6.373-3.554 11.858-6.915 16.686-10.198 2.357-1.699 12.245-8.923 16.03-12.245a35.182 35.182 0 0 0 41.156-7.449 35.19 35.19 0 0 0 4.964-41.529 58.929 58.929 0 0 0 4.945-10.468c.656-1.661-1.932-2.472-2.588-.85z" fill="#3B82F6"/><path d="M546.53 600.98c.762-1.178 20.684-12.72 20.956-12.884 2.504-.905 1.307 4.825.599 7.045-.708 2.221-4.3 15.708-5.443 20.039a1.132 1.132 0 0 1-.337.539 1.108 1.108 0 0 1-1.677-.237c-1.089-1.48-1.661-8.937-2.178-10.774-.326-.383-3.456-1.069-11.621-1.589-1.034-.083-1.062-.96-.299-2.139zM71.982 403.731c.078.448-.116 1.6-.88 1.178l-.136-.098c-2.235-1.605-4.456-3.199-6.565-4.88-2.437 1.51-4.873 3.045-7.348 4.504-.467.282-1.05-.243-.96-.716a241.815 241.815 0 0 1 1.595-7.512l-5.547-4.964c-.376-.384.078-1.152.466-1.28 1.75-.294 6.92-.46 9.072-.576.61-2.047 1.905-6.18 2.683-8.022a.632.632 0 0 1 .577-.365.638.638 0 0 1 .576.365 71.782 71.782 0 0 1 2.955 8.56c2.67.396 5.353.742 8.01 1.203 1.05.179.298 1.279-.39 1.714l-5.78 3.621 1.672 7.268zM234.427 542.97a.245.245 0 0 1-.081.129c-1.986 1.472-20.336 15.156-27.907 19.738-.265.163-.547-.224-.282-.386.078-.098 9.946-11.483 15.045-16.736a21.882 21.882 0 0 0-7.038 1.302.21.21 0 0 1-.285-.088.214.214 0 0 1-.016-.161.215.215 0 0 1 .103-.124l18.621-12.195c.167-.107.479.089.335.269-1.687 3.009-3.872 5.701-5.608 8.671a26.594 26.594 0 0 1 6.863-.733.25.25 0 0 1 .25.314z" fill="#fff"/></svg>