<svg width="659" height="565" fill="none" xmlns="http://www.w3.org/2000/svg"><path d="M295.913 519.872a93.916 93.916 0 0 0-15.278 44.429c0 .509-.866.535-.841 0a87.582 87.582 0 0 1 15.508-44.785c.255-.382.841-.025.611.356zm-74.332-4.506c8.531 10.439 7.054 25.002-.203 35.645-.382.534-1.274 0-.917-.535 6.544-10.719 8.887-24.188.662-34.754-.255-.229.204-.687.458-.356zm-107.054-75.567a164.42 164.42 0 0 0-9.702 53.467.457.457 0 0 1-.783.324.461.461 0 0 1-.134-.324 153.154 153.154 0 0 1 10.008-53.62c.127-.382.738-.229.611.153zm-50.319 33.684c15.025 18.943 16.17 43.767 15.712 66.911a.459.459 0 0 1-.916 0c-.179-22.915-.56-47.561-15.28-66.427-.28-.356.204-.866.485-.484zm40.413-234.16a2.17 2.17 0 0 1 1.897-.903 2.17 2.17 0 0 1 1.77 1.132c.153.229-.229.535-.407.306a1.994 1.994 0 0 0-1.42-.748 1.979 1.979 0 0 0-1.509.544.251.251 0 0 1-.274-.056.253.253 0 0 1-.057-.275zm-4.914.891a1.585 1.585 0 0 0-1.605-.204c-.51.23-.662.662-.942 1.146a.353.353 0 0 1-.398.161.356.356 0 0 1-.264-.339 2.012 2.012 0 0 1 3.489-1.197c.356.204-.026.637-.28.433zm1.96 6.493c.484-.179 2.267-.153 2.547-.408.28-.254-.841-3.641-.968-4.837 0-.306.433-.331.509 0 .294.929.541 1.872.739 2.826.433 1.884 1.4 3.335-2.547 3.004a.323.323 0 0 1-.432-.153.323.323 0 0 1 .152-.432zm-2.928 5.805a2.19 2.19 0 0 1-3.565.382 4.279 4.279 0 0 1 .458-4.558c.178-.255.739-.229.662.178a2.977 2.977 0 0 0 2.89 3.448c.57.01 1.132-.144 1.618-.443a.21.21 0 0 1 .076-.031.21.21 0 0 1 .159.035.213.213 0 0 1 .053.295.213.213 0 0 1-.059.057 3.546 3.546 0 0 1-2.292.637zm-3.081-2.699c-1.044 3.055 1.451 3.819 2.393 2.546a3.495 3.495 0 0 1-2.393-2.546zm141.584 91.658a3.84 3.84 0 0 1 3.209 1.629c.229.255-.153.662-.382.382a4.739 4.739 0 0 0-2.903-1.553.232.232 0 1 1 .076-.458zm-8.912-1.63c-1.248-1.044-2.038.204-2.343.484a.282.282 0 0 1-.382 0c-.229-.255.229-1.299 1.197-1.502a2.059 2.059 0 0 1 1.935.611.287.287 0 0 1 0 .407.288.288 0 0 1-.407 0zm2.113 4.659c.363.052.732.052 1.095 0 .255 0 .535.306.28.51a2.158 2.158 0 0 1-2.113.305.456.456 0 0 1-.28-.509 45.517 45.517 0 0 1 2.546-4.048.24.24 0 0 1 .438.073.244.244 0 0 1-.03.181 33.13 33.13 0 0 1-1.936 3.488zm2.318 6.264c-.943.178-1.859-.79-1.63-1.528a3.882 3.882 0 0 1-1.986-.815.258.258 0 0 1-.077-.356.257.257 0 0 1 .357-.076 4.156 4.156 0 0 0 4.762-.23.306.306 0 0 1 .42-.114c.071.04.123.107.144.186a.304.304 0 0 1-.03.234c-.254 1.069-.662 2.444-1.96 2.699zm-1.146-1.502c.407 1.273 1.655 1.094 2.215-.561a4.417 4.417 0 0 1-2.19.561h-.025z" fill="#000"/><path d="M250.707 491.163h36.899c.351-.014.693.161.949.486.256.326.405.775.416 1.25.01.474-.12.935-.361 1.28-.241.346-.575.548-.926.561l-280.503-.297-.024-3.175h241.339l2.211-.105zM358.842 390.84a305.358 305.358 0 0 1-.992-32.141c0-.891-1.301-1.131-1.403 0a141.655 141.655 0 0 0 .342 32.312 1.028 1.028 0 0 0 1.112.942 1.027 1.027 0 0 0 .941-1.113zm-15.502-4.009a.788.788 0 0 0 1.437 0c-.479-10.794-.924-21.621-1.403-32.449a.684.684 0 1 0-1.368 0 183.449 183.449 0 0 0 .273 24.534 32.098 32.098 0 0 0 1.061 7.915zm89.692 1.37a45.609 45.609 0 0 1-1.746 15.694c0 .788 2.293 5.14 3.73-7.367a40.782 40.782 0 0 0-5.03-24.363c-.445-.822-1.608 0-1.232.72a42.89 42.89 0 0 1 4.278 15.316zm-41.475-247.702a11.145 11.145 0 0 0 2.463 7.093c2.054 1.851 5.236-5.345 14.784-6.476v-9.251a25.307 25.307 0 0 0-17.247 8.634zm89.965 247.497c0-7.059-.616-14.083-.753-21.142 0-.959-1.472-.754-1.472.206 0 7.298 0 14.665.308 21.998.137 4.831 2.019 3.05 1.917-1.062zm-66.319-256.303.205 9.252c11.806.411 15.228 9.32 16.494 6.545.548-1.268 2.772-7.607 1.574-8.704a27.663 27.663 0 0 0-18.273-7.093z" fill="#000"/><path d="M249.53 339.929c1.409 1.05 5.125-.922 2.562-5.121a24.747 24.747 0 0 0-16.835-11.471c-3.613-.717-9.481-1.255-12.223 1.767a6.882 6.882 0 0 0-1.435 6.759c6.586-2.56 14.657-3.149 20.679.615a49.183 49.183 0 0 1 7.252 7.451z" fill="#3B82F6"/><path d="M243.098 317.115c-6.509-3.226-12.94-.307-16.605 5.479a25.93 25.93 0 0 1 13.033 1.021 25.904 25.904 0 0 1 10.875 7.25c.102.129.215.269.336.419.334.415.729.905 1.125 1.45 2.87-6.401-3.178-12.828-8.764-15.619z" fill="#3B82F6"/><path fill-rule="evenodd" clip-rule="evenodd" d="M167.414 330.58a.918.918 0 0 0-.497.464c-.743 1.562 2.665 4.276 4.176 5.121a3.919 3.919 0 0 0-1.153 1.639c-.461 1.408 1.128 3.021 2.563 3.969-2.185 3.208-.645 7.076.821 10.759.219.55.436 1.095.639 1.634a90.814 90.814 0 0 0 33.312 41.608c-.205 8.937-.205 17.924.308 26.86.256 4.353.922 12.624 3.818 14.237-1.922 4.609 2.562 4.763 2.562 4.763s-10.096 38.152-4.33 48.88c3.946 7.298 45.304 30.931 49.48 33.287l1.999-1.997c.304.304.599.602.889.894.567.572 1.114 1.125 1.674 1.667-.137 1.175-.579 2.566-1.003 3.897-.609 1.915-1.178 3.706-.74 4.552a1.434 1.434 0 0 0 1.538.538c.563-.128 9.814-7.912 9.609-9.756a32.934 32.934 0 0 0-4.075-4.839c-.462-.644-.989-1.257-1.518-1.871-.291-.338-.583-.677-.865-1.022a95.013 95.013 0 0 0 2.307-2.868 657.022 657.022 0 0 0-27.291-32.698 36.833 36.833 0 0 1-6.098 5.121c-.359.256-.743-.359-.359-.615a54.14 54.14 0 0 0 11.275-12.546 33.304 33.304 0 0 0 2.87-6.222c-.871-1.837-1.852-3.617-2.83-5.393-1.9-3.45-3.792-6.885-4.858-10.688a.31.31 0 0 1 .228-.333.313.313 0 0 1 .215.022.31.31 0 0 1 .147.158 123.01 123.01 0 0 0 7.38 15.363s11.454 26.834 21.909 30.726a18.168 18.168 0 0 0 9.429.743c11.865-1.741 34.03-32.749 41.179-52.645a30.96 30.96 0 0 0-1.896-2.279c.314-.641.612-1.293.909-1.944.331-.726.661-1.45 1.013-2.152 2.922.533 5.874.892 8.84 1.075.589-.102 1.179-.743.974-1.306a45.923 45.923 0 0 0-8.559-8.322 3.02 3.02 0 0 0-2.306-.742c-.487.128-4.612 3.687-4.459 4.686a98.537 98.537 0 0 1-3.459 3.047 28.328 28.328 0 0 0-2.896-1.537 221.34 221.34 0 0 1-26.905 22.61 113.025 113.025 0 0 0 0 16.925c.025.358-.59.358-.59 0a131.178 131.178 0 0 1-.333-20.484 53.312 53.312 0 0 0-10.941-30.368c1.435-1.741 1.87-3.585-.846-5.121a11.184 11.184 0 0 0 1.589-10.908 182.005 182.005 0 0 1-5.715-17.924c18.245-7.682 24.677-27.526 24.241-47.216-.015-.814-.019-1.753-.023-2.777-.023-5.74-.057-14.139-2.232-17.964a4.783 4.783 0 0 0-1.537-4.378 14.936 14.936 0 0 0 1.614-5.121l.065-.339c.169-.862.407-2.07-.065-2.452-.538-.435-1.102.256-1.384.666.103-1.306-.179-2.766-.871-2.894-.692-.128-1.153.64-1.46 1.562-.257-2.023-1.666-2.688-2.153-.333-.205-.486-.487-1.024-1.076-1.101-.589-.077-1.153 2.51-1.153 4.353 0 .576-.415.376-.95.118-.513-.247-1.136-.547-1.613-.271-1.357.809.988 3.113 2.515 4.613.261.256.498.489.688.687-.23.051-2.562.794-2.562 2.125a6.323 6.323 0 0 0-3.049 3.892c-2.424 6.414-3.887 11.541-5.086 15.743-2.362 8.279-3.698 12.963-9.341 16.802a36.2 36.2 0 0 1-18.962 6.631c-.256-1.229-1.819-1.895-2.562-1.229-.462-1.229-1.538-5.531-1.538-5.531 3.716-.358 7.252-2.381 7.508-6.273 0 0 1.896.922 3.844-1.792a5.118 5.118 0 0 0 0-5.301 3.92 3.92 0 0 0 4.535-2.56c.641-1.613-.512-3.79-1.742-5.582 3.459-6.837-2.665-13.801-8.636-16.823a13.565 13.565 0 0 0-17.732 6.299 6.332 6.332 0 0 0-3.613 2.125 9.446 9.446 0 0 0-1.307 6.965c.013.035.024.08.036.13.058.242.142.59.631.357a23.13 23.13 0 0 0 .871 4.122 25.582 25.582 0 0 0-.231 14.134 5.513 5.513 0 0 0 2.947 3.047c.839.442 1.178.576 1.316.822.093.168.093.387.093.791a32.376 32.376 0 0 1-.666 5.864 1.878 1.878 0 0 0-1.45.677 1.866 1.866 0 0 0-.395 1.551c-11.48 1.638-24.266-1.306-31.313-11.369-1.397-1.996-2.602-3.787-3.669-5.372-4.312-6.41-6.363-9.46-9.733-9.07-.076-1.101-.435-3.072-1.563-3.661-.003-.007.028-.117.081-.307.364-1.314 1.778-6.409.278-6.991-.897-.358-2.947.999-3.69 1.588-.542.429-.893-.312-1.272-1.113-.141-.297-.285-.602-.445-.859-.092-.148-.19-.318-.294-.5-.558-.973-1.298-2.265-2.422-2.265-.538.026-.487 1.485-.333 2.023a1.052 1.052 0 0 0-1.332-.128c-.539.409-.359 1.28 0 2.125a.88.88 0 0 0-.872 0c-.619.419.101 1.958.448 2.701.099.211.167.358.167.397a.921.921 0 0 0-.681-.003zm154.069 106.342a53.545 53.545 0 0 0-2.255 3.841 30.255 30.255 0 0 0-5.201-4.174 46.169 46.169 0 0 0 3.382-3.328 3.453 3.453 0 0 1 3.775 1.992c.209.468.311.977.299 1.49v.179zm-54.642 85.54a4.128 4.128 0 0 1-2.782 1.032c0 .096-.007.088-.141-.062-.223-.249-.801-.896-2.293-2.115.717-.716 3.561-3.866 4.228-4.634.242.32.489.635.735.95.563.718 1.123 1.434 1.622 2.199a4.118 4.118 0 0 1-1.369 2.63zm-40.348-199.868c3.665-5.786 10.096-8.705 16.605-5.479 5.586 2.791 11.634 9.218 8.764 15.619-.396-.545-.791-1.035-1.125-1.45-.121-.15-.234-.29-.336-.419a25.904 25.904 0 0 0-10.875-7.25 25.93 25.93 0 0 0-13.033-1.021zm25.599 12.214c2.563 4.199-1.153 6.171-2.562 5.121a49.183 49.183 0 0 0-7.252-7.451c-6.022-3.764-14.093-3.175-20.679-.615a6.879 6.879 0 0 1 1.435-6.759c2.742-3.022 8.61-2.484 12.223-1.767a24.747 24.747 0 0 1 16.835 11.471zm-14.324 19.614c-.179.025-.179.333-.179.333a43.465 43.465 0 0 0 1.46 6.145 8.708 8.708 0 0 1-8.046 3.021c-1.113-.243-2.253-1.104-3.123-1.76-.593-.447-1.061-.8-1.31-.8.424-2.382.579-4.804.462-7.221a.283.283 0 0 0-.231-.307c-6.278-1.562-5.048-11.087-3.716-17.13a33.69 33.69 0 0 0 9.123-2.049 14.605 14.605 0 0 0 5.842-3.277 11.014 11.014 0 0 0 6.867 9.832v.031c0 .522-.002 2.709 1.102 2.709 1.128 0 2.076-.973 2.358-2.56a3.854 3.854 0 0 1 .455 4.594 3.858 3.858 0 0 1-1.122 1.192c-.831.354-1.687.645-2.562.871a7.945 7.945 0 0 1-7.38 6.376zm-9.506 9.013c3.561 2.432 8.02.819 11.249-2.125h-.077c1.742-1.614 1.973 1.562 1.691 2.663a6.43 6.43 0 0 1-4.561 3.584c-4.049 1.255-10.378 1.46-11.736-3.38-.385-1.433.41-2.176.871-2.355.354-.138 1.147.494 1.901 1.097.229.182.453.361.662.516zm58.808-51.492c.692-2.459 1.46-3.176 1.127-.897h.026a16.384 16.384 0 0 1-1.589 5.48 6.61 6.61 0 0 0-4.612-.307l-1.461-1.639c-.109-.126-.344-.325-.615-.556-.559-.474-1.272-1.079-1.358-1.441-.323-1.123.478-.8 1.268-.48.651.263 1.294.523 1.294-.032-.054-1.14.015-2.281.205-3.406.948-1.767 1.128 1.306 1.128 2.279 0 .384.666.486.666 0a8.237 8.237 0 0 1 .461-2.689c.884-1.162.776 2.023.748 2.831a6.522 6.522 0 0 0-.005.165.309.309 0 0 0 .443.311.312.312 0 0 0 .147-.157c.044-.143.098-.387.163-.68.24-1.077.625-2.808 1.169-2.546.515.247.349 1.769.23 2.86-.041.376-.076.7-.076.904a.336.336 0 0 0 .32.241.337.337 0 0 0 .321-.241zm-7.688 6.324c.667-1.255 3.613-1.434 4.792-1.434h.026a3.678 3.678 0 0 1 2.698.998c.359.34.646.749.843 1.202.197.453.3.942.302 1.436a9.841 9.841 0 0 0-8.661-2.202zm-20.627 111.947c-16.041 6.503-31.416 10.6-40.359 11.164h.026c-1.666.102-8.328.358-6.534-3.79 5.304 2.689 23.6-2.817 30.108-4.814a131.03 131.03 0 0 0 16.272-6.171 34.85 34.85 0 0 0 12.043-8.014c4.664 2.663-2.895 8.142-11.556 11.625zm-51.608-34.824c-20.192-15.645-28.648-29.19-34.106-45.296h.025c-1.229-3.661-1.434-6.939 1.897-9.55a11.703 11.703 0 0 1 3.792-2.1c3.626-1.109 9.793 8.34 11.552 11.035l.184.283a29.733 29.733 0 0 0 8.661 9.294 35.561 35.561 0 0 0 25.01 4.891c.768 4.942 6.585 5.377 10.864 4.609 3.05-.563 7.688-2.637 7.15-6.529 5.176-.026 18.167-1.614 25.214-12.521 1.512-2.349 2.349-5.439 3.506-9.705 1.177-4.341 2.683-9.899 5.565-17.13a6.533 6.533 0 0 1 9.122-3.098c3.229 1.485 3.69 5.249 3.921 8.398.41 5.275.666 10.627.666 15.927.051 17.309-7.098 38.382-23.805 44.886a57.649 57.649 0 0 1-9.968 1.997.313.313 0 0 0-.159.111.311.311 0 0 0 0 .367c.04.054.096.092.159.111a29.754 29.754 0 0 0 9.763-1.971 165.29 165.29 0 0 0 5.432 17.309c2.05 5.659 1.512 10.268-7.021 15.722-12.607 8.04-45.15 16.874-51.607 14.313-5.396-2.161-5.219-17.567-5.14-24.435.008-.7.015-1.311.015-1.81-.117-10.054.214-20.107.546-30.16l.094-2.871c.026-.461-.666-.436-.666 0a850.897 850.897 0 0 0-.666 17.923zm-34.542-53.771c-.999-.563-2.485-2.228-1.819-3.866h.026a7.028 7.028 0 0 1 2.333-2.256 7.072 7.072 0 0 1 3.099-.971c1.87 0 2.562 1.434 2.562 3.099a11.097 11.097 0 0 0-6.201 3.994zm-1.319-5.594a8.842 8.842 0 0 1 5.88-2.369c0-.759.221-1.632.441-2.499.21-.829.418-1.653.431-2.366 0-2.122-1.553-1.162-2.859-.354-.79.489-1.49.922-1.703.584a12 12 0 0 0-1.921-3.508l-.06-.065c-.322-.355-.879-.968-1.119.065a14.872 14.872 0 0 0 1.204 2.971.263.263 0 1 1-.461.256s-1.102-2.126-1.281-2.561c-.743-1.05-1.358-.358-.82.973a21.37 21.37 0 0 0 1.127 2.561.263.263 0 1 1-.461.256c-.179-.282-1.64-2.561-1.999-1.844-.298.597.859 2.382 1.418 3.244.112.174.201.31.248.392.282.487 0 .359-.256.179a2.224 2.224 0 0 1-.208-.188c-.423-.409-1.233-1.191-1.381-.093-.15 1.116 2.294 3.133 3.359 4.012.194.16.342.282.421.354zM17.031 259.942a4.718 4.718 0 0 0 2.75 1.507c1.486 6.375 7.175 10.011 12.735 7.502-.41 5.787 4.971 10.089 10.096 6.581 4.331 6.862 12.684 10.395 14.068 2.227.75.642 1.4 1.156 1.96 1.599 2.392 1.891 3.165 2.502 3.165 6.339-.042 1.39-.08 2.779-.11 4.169l.648.696c0-.257.011-.751.026-1.367.042-1.839.109-4.767-.026-5.726a5.53 5.53 0 0 0-2.255-3.661h.128c-1.028-.908-2.086-1.808-3.166-2.727-8.667-7.37-18.746-15.941-25.969-39.573-.174-.591-.386-1.287-.624-2.064-2.039-6.662-5.913-19.322-2.86-23.542.91-1.228 3.903-1.022 6.357-.852l.894.059c4.075.128 5.407 1.792 7.38 5.121 5.156 8.633 7.4 14.352 9.026 18.493 1.639 4.173 2.648 6.745 5.375 9.084a86.65 86.65 0 0 0 17.655 11.701l6.663 2.919c.219.096.43.133.642.171.186.032.37.065.562.137 3.69 13.263 16.886 22.174 22.242 9.781l-.461-.282a35.942 35.942 0 0 1-4.715-10.396 10.94 10.94 0 0 0 6.995-3.636 20.885 20.885 0 0 0 2.563-18.538c10.019-9.013-4.382-27.398-15.913-18.641-3.639-3.303-7.56-2.202-11.582.666a24.95 24.95 0 0 0-9.994 27.091c-3.46-.845-6.893.947-6.201 4.276l-.899-.605c-3.629-2.438-7.506-5.042-9.35-7.973-1.001-1.541-1.708-3.396-2.643-5.849-1.628-4.271-3.947-10.356-9.709-19.756a9.56 9.56 0 0 0-5.509-4.533c.718-2.842-.41-4.096-1.973-4.352.743-1.281 4.356-7.861.922-6.223-.467.219-.818.713-1.08 1.083-.199.279-.347.487-.457.454-.06-.018-.133-.359-.244-.878-.37-1.722-1.16-5.406-3.267-5.78a.335.335 0 0 0-.384.154 4.352 4.352 0 0 0-.256 2.561c-.794-1.562-1.82-3.047-2.793-2.74-.974.307-.718 1.92-.23 3.508-.77-1.101-1.769-1.972-2.563-1.665-1.205.487-.487 2.382.384 3.995-.794-.41-1.589-.64-2.075 0-.95 1.365 2.975 5.196 4.667 6.848.181.177.336.328.457.449a1.897 1.897 0 0 0-.358 3.073c-1.666 1.127-1.922 3.585-1.922 5.684-.084 4.995 1.432 10.058 2.885 14.908.32 1.068.637 2.126.933 3.17a95.113 95.113 0 0 0 11.377 26.476 7.075 7.075 0 0 0-6.611-.564 6.975 6.975 0 0 0-3.413-4.472 6.98 6.98 0 0 0-5.607-.495 4.319 4.319 0 0 0-1.465-2.98 4.334 4.334 0 0 0-3.147-1.066c1.153-5.966-.026-8.706-1.41-10.088-1.377-1.415-3.135-1.68-4.927-1.95-1.777-.268-3.587-.54-5.092-1.942-2.613-2.407-2.665-6.581-2.306-9.781-12.377 10.626-7.739 34.055 8.815 29.318a4.708 4.708 0 0 0 1.196 2.897zm95.28 12.645c8.998 6.627 12.595 10.254 15.859 13.544 1.579 1.592 3.08 3.105 5.076 4.841 3.436 2.974 8.989-.509 13.273-3.196 1.212-.76 2.323-1.457 3.255-1.925a23.99 23.99 0 0 1 11.761-2.996 10.996 10.996 0 0 1 5.125 1.101 3.588 3.588 0 0 1 4.075-2.202c.179-5.121.205-5.761.717-6.171a.355.355 0 0 1 .384 0c.857.346 1.276 1.634 1.63 2.726.091.28.178.547.267.782a54.753 54.753 0 0 0 1.827-1.775c1.28-1.286 1.963-1.972 2.606-1.605.897.512.41 1.562-.154 2.56 1.435-1.075 3.177-2.074 3.972-1.152.794.922-.385 1.997-1.615 2.996 1.384-.461 2.794-.64 3.075.307.282.948-.922 1.767-2.203 2.382 1.153 0 2.127.179 1.896 1.152-.195.823-1.582 1.389-2.454 1.746-.159.065-.301.123-.416.174a14.076 14.076 0 0 1-4.997 1.153 2.562 2.562 0 0 1 .016 2.813 2.56 2.56 0 0 1-2.578 1.13 6.573 6.573 0 0 1-1.205 4.762c-4.886 7.084-16.408 13.799-22.408 17.295-.701.409-1.327.774-1.858 1.09a26.737 26.737 0 0 1-15.375 2.381 39.092 39.092 0 0 1-11.838-2.56l-.154-.615c14.709 4.174 23.062 2.561 26.393.717 2.136-1.152 4.271-2.482 6.406-3.812l1.282-.797a104.128 104.128 0 0 0 14.862-11.266c7.175-6.862 1.435-14.16-7.149-14.467-5.835-.232-11.276 2.79-16.048 5.441-4.177 2.32-7.841 4.356-10.807 3.674-1.966-.464-5.093-3.907-7.56-6.625-1.07-1.178-2.016-2.219-2.69-2.823-3.766-3.38-11.736-9.653-11.736-9.653l-.512-1.127zM48.608 444.399c-2.307.205-4.594.59-6.841 1.152a23.379 23.379 0 0 1-4.023 6.504 1.076 1.076 0 0 1-1.282.154c-.87-.666-1.255-12.803-.486-13.418a18.036 18.036 0 0 1 4.356 0 23.05 23.05 0 0 0 4.382-3.123l.282.947v.026a17.032 17.032 0 0 1-4.639 3.303 4.068 4.068 0 0 0 1.18 4.865 43.038 43.038 0 0 1 6.533-1.229l.538.819zm36.634-66.388.096-.215.067-.15c-.051.1-.105.222-.163.365zm-62.975-31.399-.872.512a41.84 41.84 0 0 0-3.28-4.737v.026a3.566 3.566 0 0 0-4.535 1.229s1.384 4.609 1.794 6.811l-.897.384c-.462-2.33-1-4.635-1.666-6.913a34.061 34.061 0 0 1-6.457-4.046.97.97 0 0 1 .063-1.417.972.972 0 0 1 .475-.222 47.307 47.307 0 0 1 12.812 0 15.895 15.895 0 0 1 0 4.481 43.972 43.972 0 0 0 2.563 3.892zm-5.791-89.106c-.026-1.716 3.69-4.609 4.227-4.789h-.05c.42-.195.886-.273 1.348-.225a2.563 2.563 0 0 1 2.265 2.939 13.442 13.442 0 0 1-4.664 4.635 2.838 2.838 0 0 1-1.115-.097 2.825 2.825 0 0 1-2.011-2.463zm164.995 27.448a29.105 29.105 0 0 1-6.585 1.614 15.316 15.316 0 0 0-1.358-2.305 5.892 5.892 0 0 0-2.127-1.92 17.255 17.255 0 0 1 .231-4.865c.394-.274.673.493.983 1.346.154.423.316.866.503 1.214.332.619 1.02-.159 1.85-1.096.577-.652 1.223-1.383 1.865-1.772.796-.473.761-.35.608.187-.029.102-.062.22-.095.351a5.62 5.62 0 0 1-1.157 2.064c-.275.329-.418.5-.227.727.242.288.386.164.934-.308.379-.327.952-.82 1.885-1.459.135-.084.297-.213.47-.35.616-.489 1.368-1.087 1.528-.187.191 1.073-2.154 2.592-3.138 3.229l-.193.125c-.282.205-.025.743.333.538.359-.205 4.997-2.535 4.562-.794-.282 1.152-3.434 1.92-4.203 2.1-.359.102-.205.588.179.588 1.199-.345 2.444-.5 3.69-.46.385.102.667.845-.538 1.433zm-8.994-.947a7.907 7.907 0 0 1 2.178 5.377 1.97 1.97 0 0 1-2.152 1.152 9.385 9.385 0 0 0-5.458-6.119 3.05 3.05 0 0 1 5.432-.41zM35.074 201.293c.402-.503.762-.955 1.465-.811.88.191.377 1.122-.669 3.058-.356.661-.777 1.439-1.227 2.345a22.331 22.331 0 0 0-5.893 1.332c-.395-.452-.802-.906-1.214-1.365-.872-.971-1.76-1.962-2.579-2.988-2.46-3.099.564-1.537 1.46-.231a.38.38 0 0 0 .234.179.382.382 0 0 0 .471-.271.384.384 0 0 0-.038-.292 57.343 57.343 0 0 1-.602-1.088c-.199-.365-.397-.73-.602-1.088-.08-.14-.191-.304-.308-.477-.481-.713-1.071-1.587-.102-1.649 1.066-.068 2.253 1.892 2.902 2.964.084.139.16.263.224.365.205.359 1.05.435.717-.307l-.103-.226c-.51-1.108-2.08-4.527-1.23-5.023.923-.538 2.973 4.353 3.076 4.762.102.41.615.231.615-.179a18.572 18.572 0 0 0-.18-.665c-.323-1.146-.845-3-.41-3.56.538-.691 1.205.538 1.512 1.127a9.467 9.467 0 0 1 1.435 4.532c-.025.179.333.333.487.179.213-.189.39-.411.559-.623zm-4.864 6.026c3.1-.896 5.51-1.05 6.33.23l-.103-.102c.418.882.482 1.889.18 2.817a30.372 30.372 0 0 0-8.098.179 2.354 2.354 0 0 1 1.691-3.124zm68.206 49.976a.332.332 0 0 0 .007.134 28.507 28.507 0 0 0 5.304 11.266c-1.717 4.737-7.841 7.195-13.966 1.588a24.836 24.836 0 0 1-6.841-11.497 4.157 4.157 0 0 0 4.381-2.151c.008-.065.046-.857.1-1.986.138-2.862.38-7.894.49-8.794a3.64 3.64 0 0 1-2.332-.742c-1.82-1.511-.051-5.762 1.717-6.069a3.63 3.63 0 0 1 2.819.666c.999.409 5.662-5.659 5.124-14.646a23.065 23.065 0 0 0 11.378 6.58c3.971 6.632 4.048 25.017-7.918 25.375a.33.33 0 0 0-.217.15.331.331 0 0 0-.046.126z" fill="#000"/><path fill-rule="evenodd" clip-rule="evenodd" d="M103.932 268.234c.179-1.178 3.664 0 4.125 0 2.204.307 3.562 2.689 4.254 4.353l.512 1.127a192.247 192.247 0 0 1 7.047 39.611l.154.615c.256 3.866.384 7.22.461 9.96l.004.151c1.867 66.623 2.25 80.269-33.623 105.881a123.332 123.332 0 0 1-36.797 17.796l-1.46-3.329-.539-.819c-.999-2.33-2.024-4.661-3.075-6.965l-.281-.947-.872-1.972c11.3-11.266 27.009-22.405 31.98-30.445 5.225-8.433 8.126-22.03 9.42-25.24l.096-.215.067-.15c-.051.1-.105.222-.163.365-5.706 12.693-15.155 25.993-33.302 32.41-5.92 2.099-18.399 4.685-28.033-21.842-4.92-13.545-8.969-25.605-12.3-35.847l2.87-1.895.897-.384 6.021-3.329.872-.512 3.356-1.843c3.742 5.556 17.937 27.525 21.192 32.698 3.46-6.939 14.324-32.058 16.195-36.898a522.657 522.657 0 0 1-1.316-50.703l.65.696c3.894 4.174 10.249 2.202 13.017-3.38.153-3.226-.41-25.605-1.077-31.674l6.663 2.919c1.076 3.227 2.075 8.424 2.741 11.6h-.128a80.078 80.078 0 0 1 1.717 19.127 15.374 15.374 0 0 0 11.787 5.889 15.202 15.202 0 0 0 10.532-4.379c1.204-7.118-3.126-22.123-3.203-22.148l-.461-.282zm9.273 32.321a3.05 3.05 0 0 1-2.022.377 3.406 3.406 0 0 1-1.691-4.89 2.715 2.715 0 0 1 3.767-.717 3.047 3.047 0 0 1-.054 5.23zm-17.55 33.152c-3.203-.947-9.712-7.246-10.045-7.963h.128c-.358-.743-.743-16.08-.41-16.644.334-.563 21.602 1.485 21.679 1.588.077.102-.154 16.49-.462 17.079-.307.589-7.687 6.887-10.89 5.94zm-17.157-37.092a2.558 2.558 0 0 1-1.574-.215l.025-.026c-1.87-.845-2.972-4.173.82-4.685a2.562 2.562 0 0 1 2.127 4.173 2.557 2.557 0 0 1-1.398.753z" fill="#3B82F6"/><path d="M20.703 252.717c-.538.18-4.253 3.073-4.227 4.789a2.813 2.813 0 0 0 2.01 2.463c.362.106.741.139 1.116.097a13.442 13.442 0 0 0 4.663-4.635 2.556 2.556 0 0 0-.992-2.439 2.576 2.576 0 0 0-1.272-.5 2.574 2.574 0 0 0-1.349.225h.051z" fill="#3B82F6"/><path d="M419.133 252.452a1.545 1.545 0 0 0-1.523-1.313 1.54 1.54 0 0 0-1.523 1.313c0 5.174 1.711 69.01 2.669 75.931a1.236 1.236 0 0 0 1.232 1.234 1.231 1.231 0 0 0 1.232-1.234c1.54-21.792-1.369-53.35-2.087-75.931zm75.558 141.652c0 .651 1.266.445 1.403-.206.548-2.33-1.984-28.885-1.574-36.081 0-.925-1.369-.891-1.437 0a188.757 188.757 0 0 0 1.608 36.287zm-78.706 27.857c.684.514 1.745-.308 1.3-1.062-1.3-2.296-3.148-4.078-5.099-7.607a43.247 43.247 0 0 1-1.95-36.663c.376-.857-.993-1.371-1.403-.48a43.528 43.528 0 0 0 3.73 41.563 17.723 17.723 0 0 0 3.422 4.249z" fill="#000"/><path fill-rule="evenodd" clip-rule="evenodd" d="M657.203 491.528h-48.559c4.483-23.985-22.14-40.878-38.703-32.037a34.815 34.815 0 0 0-13.142-20.819 34.73 34.73 0 0 0-23.611-6.902 39.399 39.399 0 0 0-6.503-16.396 39.347 39.347 0 0 0-13.002-11.907c-1.609-19.188-.89-38.719-.856-57.668 2.909.206 9.89.857 8.761-1.919-3.422-8.497-9.274-22.683-13.688-30.838 1.779 0 3.798 0 3.798-1.816.547-32.895 1.608-101.904 1.608-101.904.548-40.844 1.917-87.787-26.726-121.401-.889-1.063-2.121-1.44-2.908-.343a130.67 130.67 0 0 0-22.381 55.509c-1.163-19.531-2.703-41.598-5.714-63.424-5.133-37.04-17.521-61.917-37.643-76.686-1.916-1.404-4.722-3.666-5.988-2.775-31.414 22.272-40.654 61.129-42.844 89.809a412.977 412.977 0 0 0-.719 36.835c-4.209-15.728-18.65-46.43-23.954-39.028-24.707 35.43-22.62 81.208-20.532 121.606 3.422 76.96 4.449 96.799 4.893 101.973 0 1.679 0 2.81 4.723 2.296-9.958 26.418-12.011 30.838-11.122 31.592.862.73 4.195.528 5.958.422l.168-.011c-.24 11.548 2.498 67.674 2.121 70.655a37.703 37.703 0 0 0-5.92 10.074 41.277 41.277 0 0 0-15.859 8.355 41.354 41.354 0 0 0-10.833 14.294 26.145 26.145 0 0 0-13.311 2.193l.445 2.398c17.349-6.03 30.079 3.153 34.562 14.323.787 2.091 5.202.309-1.677-8.292a28.873 28.873 0 0 0-17.384-10.279c16.563-31.935 63.445-26.83 72.547 7.504.479 1.816 3.183.925 2.704-.891a41.701 41.701 0 0 0-18.082-24.412 41.608 41.608 0 0 0-29.827-5.639 39.701 39.701 0 0 1 12.502-14.66 39.63 39.63 0 0 1 17.923-7.039 39.628 39.628 0 0 1 34.936 13.236c3.148 3.426 13.688 23.506 17.11 25.87a39.683 39.683 0 0 0-5.167 15.762 31.341 31.341 0 0 0-11.278 7.174 31.395 31.395 0 0 0-7.269 11.226 1.064 1.064 0 0 0 .547 1.405 1.061 1.061 0 0 0 1.403-.548 30.073 30.073 0 0 1 9.531-12.124 30.006 30.006 0 0 1 29.551-3.748 30.05 30.05 0 0 1 12.249 9.362 1.473 1.473 0 0 0 2.053.342 1.474 1.474 0 0 0 .342-2.056 32.718 32.718 0 0 0-15.55-11.263 32.666 32.666 0 0 0-19.184-.592 41.116 41.116 0 0 1 17.829-26.899 39.215 39.215 0 0 1 53.036 10.12 39.345 39.345 0 0 1 7.124 18.32 1.433 1.433 0 0 0 1.525 1.129 1.433 1.433 0 0 0 1.315-1.368 42.414 42.414 0 0 0-8.439-20.731 42.332 42.332 0 0 0-17.808-13.534 37.679 37.679 0 0 1 11.012-15.524 37.626 37.626 0 0 1 17.185-8.154c19.985-3.083 37.129 12.302 39.662 30.428a35.083 35.083 0 0 0-14.539 5.981 35.128 35.128 0 0 0-10.476 11.734c-.616 1.165 1.266 2.193 1.916 1.062a33.515 33.515 0 0 1 16.244-14.005 33.462 33.462 0 0 1 21.398-1.277 33.122 33.122 0 0 1 16.896 12.317 33.198 33.198 0 0 1 6.169 19.995c0 .925 1.232 2.09 2.156 1.439.376-.24 1.471-1.028.342-7.847h-.034c7.46-6.133 40.448 1.679 35.52 30.119H288.137l.031 3.102 369.137.29a1.746 1.746 0 0 0 1.147-3.019 1.748 1.748 0 0 0-1.249-.476zM453.866 89.531c-33.707-2.501-58.141-1.782-81.616 2.33-2.19 29.605 1.129 71.682 2.327 128.802a165.632 165.632 0 0 0 7.837-35.944c-.377-27.515-1.746-52.322 17.418-72.881 13.825-14.871 26.52-2.193 35.897 15.727a105.928 105.928 0 0 1 12.045 48.862c-.102 14.631 6.571 35.841 13.141 50.37l-.008-.429c-.852-46.679-1.651-90.413-7.041-136.837zm47.942 220.735a24.562 24.562 0 0 1 7.597 0c-.376-45.161 2.19-103.549.822-136.957-13.654-.308-29.875-.514-47.225 0 .788 19.874 1.096 40.022 1.096 59.895 7.254 18.88 29.189 40.056 37.026 46.635a4.081 4.081 0 0 1 1.027 3.426l-.343 27.001zm-150.025 92.34a42.102 42.102 0 0 1 20.946-.681c-.65-6.716-2.464-49.958-2.361-56.914l-38.874.754c.513 14.391 2.019 60.169 2.258 67.536a42.157 42.157 0 0 1 18.031-10.695zm147.39-120.677c-33.193-28.2-44.418-55.92-50.68-81.859.82 41.41-.689 82.833-4.517 124.074 3.696-.309 54.068-.651 54.753-.651-.616-8.909.444-32.312.444-41.564zm-103.448 42.968c-6.057-40.569-10.266-82.338-12.558-124.313a161.953 161.953 0 0 1-42.399 82.065c.136 3.152 1.539 35.498 1.539 41.118 5.715-.274 45.034.925 53.418 1.13zm-15.228 18.195a79.218 79.218 0 0 0-6.262-15.453l21.833.308c.512 3.15.991 6.3 1.47 9.45l.001.007c-3.217 3.427-9.719 23.3-10.608 26.898a1.58 1.58 0 0 0 .273 1.405c.822 1.028 2.978 1.165 5.27 1.165-9.958 15.796-4.551 35.327-.752 44.956a45.46 45.46 0 0 0-16.289-9.183c.787-6.271-2.088-51.946-2.498-57.702h-.035.035c.357 0 .774.013 1.227.026 2.687.08 6.598.196 6.335-1.877zm-7.562 1.851h-.035.035zm22.551 22.1a42.323 42.323 0 0 0-5.065 15.043h.034c-3.114 22.067 9.24 40.158 21.354 58.49a41.558 41.558 0 0 1 28.779-17.818c21.285-29.296 4.141-48.793 2.259-56.228a464.733 464.733 0 0 1-47.361.513zm44.828-31.729c2.533-33.1 4.654-63.356 5.168-97.895h.034c.137-9.971.753-60.684-2.327-78.159a103.46 103.46 0 0 0-11.669-33.031c-9.993-17.784-20.19-24.945-32.783-8.875-8.898 11.41-13.243 26.624-13.688 47.971-.274 12.438.513 25.151 1.3 37.418 2.84 43.276 6.091 80.968 13.688 133.633l40.277-1.062zm4.278 87.102a43.068 43.068 0 0 1 15.262 2.056h.034a34.269 34.269 0 0 1 11.772-16.79c-.855-19.703-2.532-42.557-2.532-62.328-4.586-.103-6.399-.069-6.844-.788-.441-.714-.109-1.595.563-3.379l.019-.048c.924-2.364.342-.651 4.688-14.357-5.167 0-20.396.514-23.578 0 0 0-.821 8.087-1.027 9.903 0 .993 1.711 4.728 3.422 9.046l.28.695c2.583 6.414 5.681 14.107 6.804 17.876.684 2.09-5.236 2.09-7.46 2.09a50.357 50.357 0 0 1-1.403 56.024zm39.957-78.447 25.746 1.727a400.123 400.123 0 0 0 .205 56.024 37.093 37.093 0 0 0-36.41 3.735c-.719-20.045-1.266-40.639-2.738-60.136l13.197-1.35zM413.486 3.149c-29.601 21.313-38.703 58.422-41.065 86.142h.035c22.619-4.454 56.771-4.694 81.033-2.912-3.764-30.256-11.532-63.665-40.003-83.23zM370.71 177.352c-6.844.035-36.513.446-44.486.446 0 27.686 4.209 87.273 5.578 133.393 2.327-.342 4.825-.582 7.323-.822-.171-3.975-1.061-26.041-.376-29.468 13.311-12.404 27.513-37.691 33.843-54.139a40202.85 40202.85 0 0 1-1.882-49.41z" fill="#000"/><path fill-rule="evenodd" clip-rule="evenodd" d="m510.295 345.696-38.943-.377 13.197-1.35 25.746 1.727z" fill="#000"/></svg>