<svg width="499" height="583" fill="none" xmlns="http://www.w3.org/2000/svg"><path fill-rule="evenodd" clip-rule="evenodd" d="M259.807 242.245c.467 2.25.28 4.585-.541 6.739a12.435 12.435 0 0 1-4.108 5.463 13.055 13.055 0 0 1-6.456 2.564 13.196 13.196 0 0 1-6.884-1.097 12.717 12.717 0 0 1-5.268-4.433 12.13 12.13 0 0 1-2.085-6.45 12.112 12.112 0 0 1 1.717-6.553 12.635 12.635 0 0 1 5.008-4.704 13.128 13.128 0 0 1 5.716-1.462c1.997-.052 3.978.35 5.786 1.174a12.763 12.763 0 0 1 4.627 3.563 12.261 12.261 0 0 1 2.488 5.196zm-14.626.519c-.454-.683-.913-1.376.103-2.218a34.887 34.887 0 0 1 7.208-2.627l.04-.008h.004c.418-.083.703-.211.931-.315.161-.073.294-.133.423-.154.273-.061.523.04.99.54 1.366 1.52 3.402 4.568 1.427 5.172-7.075 2.166-7.074 2.169-6.462 3.088.172.257.392.59.516 1.062.101.358.092.735-.026 1.088-.118.351-.34.662-.638.894a31.668 31.668 0 0 1-6.636 3.172 4.599 4.599 0 0 1-.283.061c-1.788.351-3.66-.294-5.101-4.143-.307-.816.113-.91 1.352-1.186l.011-.002.052-.012 4.612-1.496.044-.02c2.591-1.153 2.017-2.019 1.433-2.896z" fill="#3B82F6"/><path d="M141.213 275.251c2.421-1.167 6.798-3.275 18.767-1.799 1.067.04 1.821.176 2.413.283 1.187.216 1.723.312 2.825-.72 1.536-1.404 12.13-14.972 12.28-15.181.881-1.18 2.27-2.673 3.682-4.19m-39.967 21.607-.009.005m.009-.005-.009.005m40.023-21.663.011-.011m-.011.011-.047.051m.047-.051.011-.011m-.011.011a2.18 2.18 0 0 1-.047.051m-12.754 80.137a4516.433 4516.433 0 0 0-43.464 52.531 586.208 586.208 0 0 0-3.102 3.84m46.566-56.371.024-.028m-.024.028.024-.028m-46.79 56.648-.01.012m.01-.012.2-.249m-.2.249.2-.249m-.2.249-.01.012m27.345 1.836c2.41-1.443 8.338-4.994 9.428-7.72.42-1.059.152-1.417-.892-1.455-8.638-.297-16.329 3.825-17.418 5.72-1.671 2.368-4.093-.1-1.758-2.868 5.907-6.99 27.575-10.455 24.016-.847-1.761 4.753-9.145 8.598-11.361 9.753h-.001l-.003.002c-.319.165-.53.274-.601.323.292.279.899.644 1.646 1.092m-3.056-4-.105.063m.105-.063a7.284 7.284 0 0 1-.105.063m.906 6.846c1.936 1.312 3.585 2.43 3.483 3.177-.198 1.448-5.668 3.649-15.697 7.21-1.659.589-1.41 2.573 2.524 2.573 4.31-.292 8.482-1.6 12.151-3.811 10.499-5.652 3.517-9.83-.17-12.036m-2.291 2.887-.102-.07m.102.07-.102-.07m2.393-2.817-.036-.022m.036.022-.036-.022m9.858-84.884c4.906-6.785 8.513-11.772 8.576-11.966.091-.29.077-.604-.041-.887a1.342 1.342 0 0 0-.607-.662 1.42 1.42 0 0 0-.903-.147c-.309.053-.59.208-.796.437-4.47 3.446-33.835 45.707-35.094 50.728-.398 1.609 1.167 1.909 1.78.809 2.247-3.97 17.179-24.616 26.996-38.189m.089-.123-.089.123m.089-.123-.089.123m127.458-77.714c.553.021.978.039.981 1.12-9.242 20.966-21.528 40.547-36.485 58.148-13.045 15.356-13.451 15.363-14.762 14.633-17.971-9.855-43.359-29.067-53.806-46.488-.722-1.2-.751-1.306 2.825-5.517 18.066-20.83 39.6-38.588 63.712-52.535l.085-.061c.429-.309.707-.509.972-.496.485.025.932.761 2.193 2.839.492.81 1.107 1.824 1.897 3.08a76.643 76.643 0 0 0 18.367 18.247 70.314 70.314 0 0 0 13.173 6.878c.289.127.578.14.839.151m.009.001-.009-.001m.009.001-.009-.001m-54.935 80.125.213-.224c.797-.854.265-1.142-2.391-2.578l-.004-.003c-3.276-1.774-9.778-5.295-20.996-13.774-18.01-13.604-25.001-23.607-28.443-28.532m51.621 45.111-.012.012m.012-.012-.012.012m-51.613-45.13c-2.211-3.165-2.956-4.231-4.221-2.809-.056.051-7.04 8.335-10.314 12.602-.354.463-.23.741.38 2.107l.001.003.104.234.119.267a35.307 35.307 0 0 0 6.104 10.576c8.366 11.449 32.927 32.01 45.784 34.06 3.161-.862 11.524-9.666 13.656-11.91m-51.613-45.13.004.007m-.004-.007.004.007m108.12-41.299c-.529-.225-1.135-.485-1.83-.777-14.837-6.251-21.867-15.009-29.051-25.396-1.684-2.438-1.734-2.791-.768-3.276 17.657-8.807 26.822-11.399 39.362-12.803a3.604 3.604 0 0 1 2.848.643c.398.3.724.679.958 1.112.235.433.367.91.394 1.398.85 7.136-1.57 28.7-7.947 40.077-.329.57-.575.465-3.96-.976m-.006-.002.006.002m-.006-.002.006.002M233.9 324.423a58.045 58.045 0 0 0 2.159-2.112c7.423-7.717 7.295-7.579 7.187-7.462l-.003.004a.666.666 0 0 0 .029-.028c2.131-2.216 3.874-4.342 5.318-6.104 2.324-2.838 3.873-4.728 5.015-4.513 4.19.786 5.827 31.103-13.892 46.061l-.224.168m-5.589-26.014-.037.035m.037-.035-.037.035m-3.506 8.401.002.006m-.002-.006-.001-.002c-.708-1.847-1.26-3.288-.093-4.635 1.579-1.859 2.55-2.774 3.6-3.764m-3.506 8.401.002.006m1.678 6.137c-.17-.734-.41-1.771-.75-3.275-.239-1.062-.6-2.005-.928-2.862m1.678 6.137.005.022m-.005-.022a.142.142 0 0 0 .005.022m.414 2.35c.005.506.015 1.446.294 4.324.053 3.514-.725 5.348-1.219 6.51l-.001.003c-.454 1.069-.666 1.567.242 2.281 1.153.912 1.261.83 7.709-4.048m-7.025-9.07v-.018m0 .018v-.018m7.033 9.081-.008.007m.008-.007-.008.007m13.011-112.525a34.887 34.887 0 0 0-7.208 2.627c-1.016.842-.557 1.535-.103 2.218.584.877 1.158 1.743-1.433 2.896m8.744-7.741a.566.566 0 0 0 .04-.008m-.04.008.044-.008m-.044.008.04-.008m-13.503 9.279c-1.239.276-1.659.37-1.352 1.186 1.441 3.849 3.313 4.494 5.101 4.143m-3.749-5.329.011-.002m-.011.002a.036.036 0 0 1 .011-.002m4.708-1.528-.044.02m.044-.02-.044.02m-102.5 29.576c-.763.367-1.332.641-1.883.676a1.394 1.394 0 0 1-.698-.124 1.336 1.336 0 0 1-.536-.451 1.285 1.285 0 0 1-.226-.651 1.288 1.288 0 0 1 .148-.674c1.411-2.758 2.874-5.485 4.565-8.094 4.953-7.011 11.636-12.712 19.442-16.584a47.88 47.88 0 0 1 10.304-2.917 40.386 40.386 0 0 1 13.128 0c2.242.213-1.023 3.721-4.21 7.145M121.65 390.413c-3.114 3.887-3.439 4.292-4.208 3.832-.246-.154-.498-.468-.28-1.17 2.19-6.955 63.173-80.576 65.431-80.576.249-.023.499.026.718.143.219.117.397.292.511.508.682 1.459-2.134 4.817-15.372 20.603m-18.756 65.335c-.51-.346-1.039-.704-1.559-1.074a3.145 3.145 0 0 1-1.086-1.083 2.995 2.995 0 0 1-.075-2.929c.24-.454.593-.845 1.028-1.135.091-.076.412-.269.888-.555m83.566-50.956c-.002-.138-.003-.241-.01-.346-.02-.312-.088-.62-.349-1.749m-.055-.237.055.237m-.055-.237.055.237m6.943-92.073.052-.012m-.052.012.052-.012m6.232-6.637a34.89 34.89 0 0 1 7.208-2.628m0 0h.004m-8.748 7.741-.084.028m0 0a22.459 22.459 0 0 1-4.612 1.496m4.612-1.496-4.612 1.496m0 0-.011.004-.013.003c-1.237.276-1.658.369-1.351 1.186 1.431 3.82 3.286 4.483 5.061 4.15m0 0c.081-.016.162-.034.243-.053a31.622 31.622 0 0 0 6.636-3.173c.298-.231.519-.542.638-.893.117-.354.127-.73.026-1.088-.124-.473-.345-.805-.517-1.062-.611-.92-.613-.922 6.463-3.088 1.975-.604-.061-3.652-1.428-5.173-.444-.475-.691-.589-.949-.547m-11.112 15.077c.095-.017.189-.038.283-.061a31.668 31.668 0 0 0 6.636-3.172c.298-.232.52-.543.638-.894.118-.353.127-.73.026-1.088-.124-.472-.344-.805-.516-1.062-.612-.919-.613-.922 6.462-3.088 1.975-.604-.061-3.652-1.427-5.172-.467-.5-.717-.601-.99-.54m0 0a2.015 2.015 0 0 0-.382.147 3.92 3.92 0 0 1-.972.322m1.354-.469a1.777 1.777 0 0 0-.423.154 3.932 3.932 0 0 1-.931.315M100.441 361.054c2.85-10.773 11.495-18.465 16.421-8.762 3.434 6.759.766 15.153-2.229 14.907a1.305 1.305 0 0 1-1.036-.545 2.765 2.765 0 0 1 .15-2.367c2.178-6.23-.983-14.282-3.912-11.765-3.883 3.343-6.945 11.17-5.574 14.195.585 1.294.561 3.21-.838 3.633-1.859.569-2.484-.842-3.03-2.082-1.609-3.609-4.714-4.054-6.52-2.573-2.135 2.138-3.411 4.945-3.601 7.914 0 1.079.803 1.741 1.487 2.304.67.553 1.225 1.011.807 1.673a1.13 1.13 0 0 1-.595.442 1.174 1.174 0 0 1-.75-.014 5.748 5.748 0 0 1-3.366-2.101 5.426 5.426 0 0 1-1.126-3.722 9.537 9.537 0 0 1 .966-4.489c1.553-4.024 3.596-6.052 6.832-6.784a7.459 7.459 0 0 1 5.45.957l.223.098c.064-.311.144-.618.241-.919zm101.162-32.018c-1.249-2.933-3.28-.98-6.236 1.865-1.192 1.149-2.536 2.442-4.039 3.617-4.948 3.857-19.773 17.763-24.333 22.051-15.583 14.649-15.271 15.038-14.798 15.627a.61.61 0 0 0 .225.187c.09.045.189.068.289.066 2.727 0 47.269-40.521 48.841-42.872a.57.57 0 0 0 .051-.541zm45.359-64.256c-7.711-1.01-12.159-2.866-16.54-9.147-10.751-15.44 6.791-36.153 25.432-27.879 17.949 7.968 14.518 35.917-8.892 37.026zm-10.062-6.808a16.195 16.195 0 0 1-4.889-6.171 15.699 15.699 0 0 1-1.047-9.386 16.006 16.006 0 0 1 4.543-8.351 16.847 16.847 0 0 1 8.585-4.471 17.191 17.191 0 0 1 9.697.938c2.5 1.032 4.7 2.641 6.41 4.686a15.896 15.896 0 0 1 3.399 7.046 15.642 15.642 0 0 1-.403 7.77 16.035 16.035 0 0 1-4.112 6.683 16.778 16.778 0 0 1-6.864 4.038 17.154 17.154 0 0 1-8.016.454 16.88 16.88 0 0 1-7.303-3.236zm22.366-8.988a12.039 12.039 0 0 0 .541-6.739 12.261 12.261 0 0 0-2.488-5.196 12.763 12.763 0 0 0-4.627-3.563 13.134 13.134 0 0 0-5.786-1.174 13.128 13.128 0 0 0-5.716 1.462 12.635 12.635 0 0 0-5.008 4.704 12.112 12.112 0 0 0-1.717 6.553 12.13 12.13 0 0 0 2.085 6.45 12.717 12.717 0 0 0 5.268 4.433 13.196 13.196 0 0 0 6.884 1.097 13.055 13.055 0 0 0 6.456-2.564 12.435 12.435 0 0 0 4.108-5.463z" stroke="#151515" stroke-width="2"/><path d="M479.878 41.187c-32.891-44.301-93.202-52.21-139.8-26.877-69.489 37.774-69.638 147.499 14.598 180.655 31.415 12.366 74.678 9.917 103.49-12.251 15.682-12.067 26.303-28.489 32.519-40.329 15.252-34.656 7.636-76.36-10.807-101.198zm15.839 72.435c-.241 9.1-8.167 37.618-30.154 57.975-55.398 51.287-143.114 27.298-166.932-37.559-13.854-37.728-5.235-91.525 46.665-119.094 57.279-30.427 134.845-2.588 148.316 64.516a105.862 105.862 0 0 1 2.105 34.162z" fill="#151515"/><path d="M404.251 131.787c-7.148-2.493-13.972 2.476-17.713 8.153-7.803 11.849-5.12 28.775 9.512 27.919 4.248 0 12.504-6.717 15.129-16.32 2.567-9.383-1.299-17.789-6.928-19.752zm5.965 14.835c-.853 10.059-8.452 18.046-13.195 18.949-3.074.582 4.588-5.264 5.834-17.499 1.5-14.872-8.051-12.708-6.095-14.429a6.116 6.116 0 0 1 3.895-.702c4.082-.856 10.302 4.966 9.561 13.681zM344.084 105.013c-6.279-6.712-18.259-5.816-24.301 9.154-5.533 13.704 7.438 32.986 23.098 16.341 5.395-5.732 6.936-19.356 1.203-25.495zm-4.204-.59a11.328 11.328 0 0 0-4.948 3.306 20.793 20.793 0 0 0-5.118 9.552c-.125.877-.724 1.637-.787 2.543-.178 2.136-.886 7.673.676 10.527.725 1.322 1.191 2.838 2.681 3.642.541.293.408.908 0 .896a10.212 10.212 0 0 1-5.313-.783c-7.817-4.487-7.503-17.485-2.685-23.967 7.107-11.206 17.083-6.675 15.494-5.716zM388.714 48.95c-4.864-2.986-15.939-1.847-21.944.182-14.328 4.833-21.829 15.482-13.261 21.48 7.293 5.107 24.717.407 32.237-4.564 8.727-5.772 8.843-13.492 2.968-17.099zm-33.997 16.735c-.966 1.458-.611 2.29-1.536 1.285-1.751-1.907-.913-4.806 1.77-7.852 9.194-10.436 27.745-11.755 32.975-8.272a6.238 6.238 0 0 1 2.606 3.917 6.098 6.098 0 0 1-.915 4.573c-.382.552-2.128-.863-3.024-1.57-6.344-5.013-26.822.283-31.876 7.92zM431.827 98.416c6.001-1.486 6.431-7.21 6.877-13.178-.63-6.155-1.156-12.001-6.443-15.578-10.369-7.016-15.259 26.162-.434 28.756zm-3.284-27.472c2.347-.947 5.167 1.745 5.981 3.837 5.192 13.334.445 22.224-3.069 21.719-.65-.096-.824-.33-.512-.894 2.318-4.21 3.028-13.875-.824-21.263-.876-1.68-2.277-1.852-2.195-2.973-.004-.421.363-.323.619-.426zM331.78 47.036c.433-4.445-2.741-6.44-6.211-5.547-7.486 1.928-14.897 13.742-14.141 20.353 1.304 11.402 16.959 2.734 20.352-14.806zm-15.047 14.006a9.247 9.247 0 0 0-.425 3.717c-.147.833-1.961.234-2.557-1.205-3.19-7.638 11.137-24.302 15.291-19.82 2.934 3.164-3.516-1.085-11.244 14.18-.36.711-.77 2.4-1.065 3.128zM454.287 128.203c-3.417 4.799-4.747 11.903-.113 14.683 5.578 3.343 14.953-3.692 15.66-13.101.645-8.551-9.521-10.043-15.547-1.582zm10.744 9.031c-3.941 4.533-7.469 5.001-8.008 4.819-1.074-.368-.893-1.03-.241-1.324a14.236 14.236 0 0 0 4.972-5.344c5.151-8.237.512-10.808 2.932-10.894 3.246-.115 4.861 7.568.345 12.743zM479.69 77.736c-4.792.935-10.256 10.833-7.296 19.225 3.944 11.18 15.414 2.784 14.75-9.45-.429-8.089-4.501-10.356-7.454-9.775zm-2.483 22.507c-2.514-.861.519-2.209 1.326-5.147.097-.35 3.318-8.54.046-13.1-1.012-1.404-1.08-1.322 0-1.982a4.308 4.308 0 0 1 3.612.036 4.158 4.158 0 0 1 1.44 1.126c.389.474.661 1.027.801 1.617 3.079 11.573-3.535 18.699-7.225 17.45zM428.144 24.722c-6.479 3.977 12.06 19.05 19.104 14.095 3.296-2.318-.915-7.465-4.803-10.431-3.388-2.587-10.367-6.078-14.301-3.664zm17.298 12.935c-.966.538-1.408.671-3.116-1.619a30.102 30.102 0 0 0-11.9-7.816c-.845-.196-1.978.103-1.69-.992.376-1.453 1.127-1.3 2.697-1.338 6.996-.166 17.95 9.596 14.009 11.765zM423.524 172.795a4.15 4.15 0 0 0-.678 2.039 4.146 4.146 0 0 0 .437 2.099c1.891 2.695 7.46 2.889 11.717 2.255 3.028-.449 3.622-1.144 4.272-2.704 3.265-7.685-11.461-8.536-15.748-3.689zm14.115 1.076c-.403 4.793-2.091-1.521-10.497 1.05-.512.157-1.377.737-1.932.85-1.809.357 0-5.849 9.679-3.961.797.157 2.898 1.282 2.75 2.061zM343.27 162.675c-2.388 3.399 5.84 14.247 11.768 13.353 9.194-1.392-6.477-20.881-11.768-13.353zm9.59 10.642a18.524 18.524 0 0 0-1.275-2.118 19.562 19.562 0 0 0-4.231-4.856c-1.265-1.184-2.444-.833-2.369-2.237.039-.753.179-.914.997-.935 4.535-.143 8.006 4.833 9.947 9.287.749 1.71-2.362 2.805-3.069.859zM389.731 19.517c16.484 1.147 9.314-15.655-4.891-7.28-4.105 2.421-3.871 6.672 4.891 7.28zm7.107-6.316c.891.758.405 1.612-.348 2.34-1.389 1.34-.891-.061-3.55-.298-6.247-.556-5.091 2.429-6.692 1.872-7.179-2.494 6.347-7.54 10.59-3.921v.007zM392.305 94.472c-4.816 2.154-4.934 3.818-5.69 6.3-.42 1.378.507 2.482 1.464 3.469.652.671 1.663.688 2.999.912a9.854 9.854 0 0 0 4.122-.794 9.56 9.56 0 0 0 3.376-2.427c1.751-1.343 2.874-4.707 1.536-6.241a6.48 6.48 0 0 0-3.688-1.913 6.593 6.593 0 0 0-4.119.694zm6.16 3.132c0 2.929-2.482-.051-6.16 2.513-2.041 1.424-2.319 2.807-2.959 2.477-1.207-.603-1.207-4.068 2.959-6.169 3.74-1.888 6.568-.468 6.16 1.18zM221.935 519.103c2.072 1.1 4.409 1.6 6.749 1.444a.436.436 0 0 0 .462-.394c.019-2.734.069-5.465-.818-8.085l-.773.373c1.275 2.451 2.833 4.72 3.667 7.38.049.23.268.381.5.346a27.506 27.506 0 0 1 7.933-.476l-.153-.815c-2.482 1.414-5.182 2.532-7.293 4.504a.443.443 0 0 0-.04.606 61.193 61.193 0 0 1 4.353 7.831l.71-.47a127.988 127.988 0 0 0-5.753-5.566.44.44 0 0 0-.68.043c-1.839 2.472-2.693 5.625-4.135 8.325l.784.274c.108-3.288.385-6.569.832-9.828.102-1 .304-1.478-.392-2.24-1.475-1.613-3.714-2.698-5.473-3.965-.449-.323-.929.389-.48.713.898.645 1.814 1.262 2.725 1.888.721.496 2.124 1.167 2.581 1.929.479.799.162 1.802.061 2.781a82.723 82.723 0 0 0-.71 8.653c.001.383.562.69.784.274 1.443-2.701 2.298-5.855 4.136-8.324l-.68.042a133.153 133.153 0 0 1 5.754 5.567.431.431 0 0 0 .71-.469 62.585 62.585 0 0 0-4.481-8.023l-.04.605c2.052-1.917 4.686-3.001 7.1-4.377a.433.433 0 0 0-.152-.814 28.222 28.222 0 0 0-8.155.487l.499.345c-.859-2.739-2.424-5.072-3.739-7.599a.429.429 0 0 0-.773.373c.833 2.461.752 5.078.735 7.644l.462-.394a11.855 11.855 0 0 1-6.337-1.301c-.472-.284-.955.426-.48.713zM47.611 406.764a12.6 12.6 0 0 0 6.75 1.444.436.436 0 0 0 .461-.394c-.017-3.509-.244-7.362-1.423-10.691l-.773.373a63.072 63.072 0 0 1 4.273 9.987.44.44 0 0 0 .5.345c2.54-.469 4.926-1.541 7.555-1.258l-.152-.814c-2.024 1.25-4.849 2.535-6.14 4.62a.426.426 0 0 0-.03.426c1.636 2.724 2.876 5.714 4.292 8.555l.71-.469c-2.253-2.271-4.827-4.189-7.212-6.314a.45.45 0 0 0-.606-.041c-1.515 1.018-2.668 2.491-4.143 3.576l.688.465c.45-1.083.83-2.197 1.218-3.303.204-.581.85-1.681.738-2.319-.114-.64-1.189-1.303-1.652-1.66-1.479-1.141-3.06-2.147-4.574-3.24-.448-.324-.928.388-.48.712 1.2.867 2.434 1.686 3.636 2.55.603.434 2.065 1.319 2.156 1.838.097.557-.689 1.995-.88 2.533-.312.873-.617 1.75-.973 2.606-.177.428.371.698.688.465 1.475-1.085 2.628-2.558 4.143-3.576l-.606-.041c2.385 2.125 4.96 4.045 7.213 6.314a.431.431 0 0 0 .71-.469c-1.245-2.496-2.414-5.034-3.712-7.503-.092-.174-.474-.702-.45-.885.057-.44 1.268-1.19 1.6-1.439 1.285-.963 2.674-1.785 4.038-2.628a.433.433 0 0 0-.152-.815c-2.711-.292-5.154.785-7.778 1.269l.5.346a64.277 64.277 0 0 0-4.345-10.206.43.43 0 0 0-.773.373c1.121 3.165 1.324 6.918 1.34 10.25l.462-.394a11.856 11.856 0 0 1-6.337-1.301c-.471-.283-.955.427-.48.713z" fill="#151515"/><circle cx="283.665" cy="459.627" r="2.092" transform="rotate(154.257 283.665 459.627)" fill="#151515"/><circle cx="97.073" cy="471.403" r="2.092" transform="rotate(154.257 97.073 471.403)" fill="#151515"/><circle cx="154.849" cy="536.696" r="2.092" transform="rotate(154.257 154.849 536.696)" fill="#151515"/><circle cx="34.374" cy="315.196" r="2.092" transform="rotate(154.257 34.374 315.196)" fill="#151515"/><circle cx="194.494" cy="455.445" r="2.799" transform="rotate(154.257 194.494 455.445)" fill="#151515"/><path d="M434.985 240.633c-2.156-3.612-1.747-2.98-2.23-3.765-.28-.454-.116-.387-2.176 2.46-.501.693-1.135.567-1.302.064-.27-.814.167-1.522.842-2.597.62-.987 1.055-1.251.694-1.321-.033-.006-1.473-.226-3.592-.64-.573-.113-.994-.588-.59-1.009a.95.95 0 0 1 .723-.299c.618.007 1.235.017 1.849.063 1.227.091 1.991.393 1.78 0-1.083-2.023-1.379-2.428-3.08-6.079-.18-.387-.106-.688.145-.9.883-.744 1.407.816 3.245 4.42 1.188 2.329 1.147 2.799 1.542 2.377 2.742-2.917 1.457-1.461 3.171-2.912.05-.042.167-.064.217-.033.255.163-.129.621-1.914 3.528-.458.746.501.058 3.254 1.328.221.102.415.248.364.509-.056.299-.336.34-.585.352-2.32.113-3.807-.737-3.433.06 2.408 5.142 2.645 5.128 2.355 5.357-.241.19-.252.07-1.276-.961l-.003-.002zM345.943 344.884c-1.633-1.745-1.96-2.064-2.442-2.701-.419-.554.185-1.123.715-.932 1.319.474 2.541 2.464 3.434 3.087.351-.693.741-2.472 1.963-5.04.027-.055.122-.094.188-.105.396-.043-.076 2.5-.541 5.495 1.64-.228 2.135-.349 2.724-.201.395.099.656.475.214.669-.536.236-1.849.866-2.499 1.161-.352.161-.322.074.839 1.334 2.351 2.554 2.484 2.562 2.313 2.848-.104.174-.276.277-.47.204-.288-.109-.59-.218-.828-.401-2.234-1.712-2.451-2.169-2.722-2.39-.389-.317-.232-.155-1.005 2.673-.072.263-.4 1.387-.637 1.659-.314.365-.837.297-.991-.158-.313-.922.062-2.039.584-4.418.101-.459-.079-.22-2.096.263-1.977.474-2.102-.965-1.359-1.254.954-.372 1.927-.691 2.893-1.033.291-.102.271-.052-.279-.762l.002.002zM364.86 288.084c1.797 2.006-.012 5.866-3.401 5.606-1.925-.147-3.198-1.763-3.045-3.576.253-2.994 4.41-4.691 6.446-2.03zm-1.252.792c-.159-.124-.312-.254-.478-.37-1.688-1.186-3.813.906-3.103 2.456.309.677.865 1.103 1.645 1.108 1.048.005 1.724-.466 2.108-1.312.28-.619.301-1.28-.171-1.882h-.001zM482.174 241.657c-2.712 1.835-5.742-.171-5.217-2.733.141-.69.515-.953.604-1.531.109-.705 2.726-2.174 4.66-.764 1.907 1.389 1.373 4.068-.047 5.029v-.001zm-3.365-3.383c-.24.196-.494.33-.546.706-.142 1.029.458 1.851 1.503 1.917 1.807.114 2.532-1.593 1.876-2.488a1.693 1.693 0 0 0-2.083-.547c-.259.12-.501.272-.751.412h.001zM406.972 273.236c.604.769.475 1.977-.342 2.578-.905.666-1.934.49-2.584-.31-.608-.75-.438-2.046.292-2.61.826-.64 2.004-.459 2.634.342z" fill="#000"/><path d="M76.26 128.655a12.601 12.601 0 0 0-1.162-6.803.438.438 0 0 0-.537-.283c-2.315.863-4.635 1.378-6.561 3.003l.633.58c1.597-1.853 2.925-3.837 4.85-5.388a.442.442 0 0 0 .135-.592 23.897 23.897 0 0 1-2.984-6.491l-.7.444c1.845 1.469 3.51 3.004 5.672 4.001.211.1.464.018.577-.187a29.672 29.672 0 0 1 6.384-6.472l-.61-.559c-1.193 2.51-2.838 4.775-3.877 7.361a.439.439 0 0 0 .187.578 43.168 43.168 0 0 0 5.806 2.462l-.036-.83c-1.443.491-2.937.81-4.454.951-.52.066-1.785-.049-2.261.261-.617.401-.734 1.581-.866 2.22-.381 1.849-.595 3.725-1.035 5.563-.13.538.71.72.84.181.395-1.652.617-3.332.928-5.001a24.18 24.18 0 0 1 .332-1.538c.272-1.067-.114-.418.394-.643.756-.336 2.126-.229 2.959-.359a17.138 17.138 0 0 0 3.417-.814.434.434 0 0 0-.037-.83 41.49 41.49 0 0 1-5.596-2.388l.187.578c1.038-2.586 2.683-4.852 3.877-7.362.167-.351-.258-.838-.611-.559a30.873 30.873 0 0 0-6.693 6.809l.578-.187a27.643 27.643 0 0 1-5.482-3.869.432.432 0 0 0-.7.443 24.56 24.56 0 0 0 3.077 6.694l.135-.592c-1.986 1.601-3.375 3.619-5.026 5.535a.43.43 0 0 0 .633.58c1.782-1.503 4.05-1.968 6.182-2.762l-.537-.283a11.857 11.857 0 0 1 1.143 6.367c-.089.543.75.729.84.181zM212.419 85.775a12.602 12.602 0 0 0-1.162-6.803.437.437 0 0 0-.537-.283c-2.315.863-4.635 1.378-6.561 3.003l.633.58c1.597-1.853 2.925-3.837 4.849-5.388a.441.441 0 0 0 .136-.592c-1.468-2.41-3.278-4.663-4.014-7.434l-.7.444c2.175 1.735 4.157 3.745 6.701 4.944.212.1.465.018.578-.187a29.693 29.693 0 0 1 6.384-6.472l-.61-.56c-1.193 2.51-2.838 4.776-3.877 7.362a.44.44 0 0 0 .187.578 43.122 43.122 0 0 0 5.806 2.462l-.036-.83a19.41 19.41 0 0 1-4.454.951c-.52.066-1.785-.05-2.261.26-.617.402-.734 1.582-.866 2.22-.381 1.85-.595 3.726-1.035 5.564-.129.538.71.72.839.181.396-1.652.617-3.332.929-5a24.41 24.41 0 0 1 .332-1.539c.272-1.067-.114-.418.394-.643.756-.336 2.126-.229 2.959-.36a17.084 17.084 0 0 0 3.417-.813.433.433 0 0 0-.037-.83 41.588 41.588 0 0 1-5.596-2.388l.187.578c1.038-2.586 2.683-4.852 3.877-7.362.167-.351-.259-.838-.611-.559a30.874 30.874 0 0 0-6.693 6.81l.578-.188c-2.473-1.165-4.399-3.126-6.512-4.813a.434.434 0 0 0-.701.444c.757 2.847 2.598 5.16 4.107 7.637l.136-.592c-1.986 1.601-3.375 3.619-5.026 5.535a.43.43 0 0 0 .633.58c1.782-1.503 4.049-1.968 6.182-2.762l-.537-.283a11.862 11.862 0 0 1 1.143 6.367c-.089.544.75.729.839.181z" fill="#151515"/><circle cx="88.719" cy="180.048" r="2.092" transform="rotate(42.482 88.719 180.048)" fill="#151515"/><circle cx="213.721" cy="158.224" r="2.092" transform="rotate(42.482 213.721 158.224)" fill="#151515"/><circle cx="11.809" cy="136.564" r="2.092" transform="rotate(42.482 11.809 136.564)" fill="#151515"/><circle cx="269.437" cy="117.665" r="2.799" transform="rotate(42.482 269.437 117.665)" fill="#151515"/><circle cx="159.923" cy="95.052" r="2.799" transform="rotate(42.482 159.923 95.052)" fill="#151515"/><circle cx="7.539" cy="196.554" r="2.799" transform="rotate(42.482 7.54 196.554)" fill="#151515"/><circle cx="91.149" cy="72.389" r="2.799" transform="rotate(42.482 91.15 72.389)" fill="#151515"/></svg>