<svg width="499" height="583" viewBox="0 0 499 583" fill="none" xmlns="http://www.w3.org/2000/svg">
<path fill-rule="evenodd" clip-rule="evenodd" d="M259.807 242.245C260.274 244.495 260.087 246.83 259.266 248.984C258.446 251.137 257.023 253.029 255.158 254.447C253.293 255.862 251.058 256.751 248.702 257.011C246.347 257.268 243.963 256.889 241.818 255.914C239.672 254.936 237.849 253.401 236.55 251.481C235.252 249.56 234.53 247.326 234.465 245.031C234.4 242.736 234.995 240.467 236.182 238.478C237.369 236.492 239.103 234.864 241.19 233.774C242.952 232.861 244.909 232.361 246.906 232.312C248.903 232.26 250.884 232.662 252.692 233.486C254.5 234.309 256.084 235.528 257.319 237.049C258.555 238.569 259.406 240.35 259.807 242.245ZM245.181 242.764C244.727 242.081 244.268 241.388 245.284 240.546C247.577 239.409 249.995 238.53 252.492 237.919L252.532 237.911L252.536 237.911C252.954 237.828 253.239 237.7 253.467 237.596C253.628 237.523 253.761 237.463 253.89 237.442C254.163 237.381 254.413 237.482 254.88 237.982C256.246 239.502 258.282 242.55 256.307 243.154C249.232 245.32 249.233 245.323 249.845 246.242C250.017 246.499 250.237 246.832 250.361 247.304C250.462 247.662 250.453 248.039 250.335 248.392C250.217 248.743 249.995 249.054 249.697 249.286C247.623 250.593 245.395 251.66 243.061 252.458C242.967 252.481 242.873 252.502 242.778 252.519C240.99 252.87 239.118 252.225 237.677 248.376C237.37 247.56 237.79 247.466 239.029 247.19L239.04 247.188L239.092 247.176L243.704 245.68L243.748 245.66C246.339 244.507 245.765 243.641 245.181 242.764Z" fill="#3B82F6"/>
<path d="M141.213 275.251C143.634 274.084 148.011 271.976 159.98 273.452C161.047 273.492 161.801 273.628 162.393 273.735C163.58 273.951 164.116 274.047 165.218 273.015C166.754 271.611 177.348 258.043 177.498 257.834C178.379 256.654 179.768 255.161 181.18 253.644M141.213 275.251L141.204 275.256M141.213 275.251C141.21 275.253 141.207 275.254 141.204 275.256M181.227 253.593L181.238 253.582M181.227 253.593L181.18 253.644M181.227 253.593C181.231 253.589 181.234 253.585 181.238 253.582M181.227 253.593C181.212 253.61 181.196 253.627 181.18 253.644M168.426 333.781C159.446 344.488 145.676 360.908 124.962 386.312C123.705 387.853 122.689 389.119 121.86 390.152M168.426 333.781L168.45 333.753M168.426 333.781C168.434 333.771 168.442 333.762 168.45 333.753M121.66 390.401L121.65 390.413M121.66 390.401L121.86 390.152M121.66 390.401C121.725 390.32 121.792 390.236 121.86 390.152M121.66 390.401C121.657 390.405 121.654 390.409 121.65 390.413M148.995 392.249C151.405 390.806 157.333 387.255 158.423 384.529C158.843 383.47 158.575 383.112 157.531 383.074C148.893 382.777 141.202 386.899 140.113 388.794C138.442 391.162 136.02 388.694 138.355 385.926C144.262 378.936 165.93 375.471 162.371 385.079C160.61 389.832 153.226 393.677 151.01 394.832L151.009 394.832L151.006 394.834C150.687 394.999 150.476 395.108 150.405 395.157C150.697 395.436 151.304 395.801 152.051 396.249M148.995 392.249L148.89 392.312M148.995 392.249C148.959 392.271 148.924 392.292 148.89 392.312M149.796 399.158C151.732 400.47 153.381 401.588 153.279 402.335C153.081 403.783 147.611 405.984 137.582 409.545C135.923 410.134 136.172 412.118 140.106 412.118C144.416 411.826 148.588 410.518 152.257 408.307C162.756 402.655 155.774 398.477 152.087 396.271M149.796 399.158L149.694 399.088M149.796 399.158C149.762 399.135 149.728 399.111 149.694 399.088M152.087 396.271L152.051 396.249M152.087 396.271C152.075 396.264 152.063 396.256 152.051 396.249M161.909 311.365C166.815 304.58 170.422 299.593 170.485 299.399C170.576 299.109 170.562 298.795 170.444 298.512C170.326 298.231 170.112 297.997 169.837 297.85C169.562 297.703 169.243 297.651 168.934 297.703C168.625 297.756 168.344 297.911 168.138 298.14C163.668 301.586 134.303 343.847 133.044 348.868C132.646 350.477 134.211 350.777 134.824 349.677C137.071 345.707 152.003 325.061 161.82 311.488M161.909 311.365L161.82 311.488M161.909 311.365C161.879 311.406 161.849 311.447 161.82 311.488M289.278 233.774C289.831 233.795 290.256 233.813 290.259 234.894C281.017 255.86 268.731 275.441 253.774 293.042C240.729 308.398 240.323 308.405 239.012 307.675C221.041 297.82 195.653 278.608 185.206 261.187C184.484 259.987 184.455 259.881 188.031 255.67C206.097 234.84 227.631 217.082 251.743 203.135L251.828 203.074C252.257 202.765 252.535 202.565 252.8 202.578C253.285 202.603 253.732 203.339 254.993 205.417C255.485 206.227 256.1 207.241 256.89 208.497C261.9 215.544 268.111 221.714 275.257 226.744C279.379 229.488 283.796 231.795 288.43 233.622C288.719 233.749 289.008 233.762 289.269 233.773M289.278 233.774L289.269 233.773M289.278 233.774C289.275 233.774 289.272 233.773 289.269 233.773M234.334 313.898L234.547 313.674C235.344 312.82 234.812 312.532 232.156 311.096L232.152 311.093C228.876 309.319 222.374 305.798 211.156 297.319C193.146 283.715 186.155 273.712 182.713 268.787M234.334 313.898L234.322 313.91M234.334 313.898C234.33 313.902 234.326 313.906 234.322 313.91M182.709 268.78C180.498 265.615 179.753 264.549 178.488 265.971C178.432 266.022 171.448 274.306 168.174 278.573C167.82 279.036 167.944 279.314 168.554 280.68L168.555 280.683L168.659 280.917L168.778 281.184C170.174 285.021 172.239 288.6 174.882 291.76C183.248 303.209 207.809 323.77 220.666 325.82C223.827 324.958 232.19 316.154 234.322 313.91M182.709 268.78L182.713 268.787M182.709 268.78C182.71 268.783 182.712 268.785 182.713 268.787M290.833 227.488C290.304 227.263 289.698 227.003 289.003 226.711C274.166 220.46 267.136 211.702 259.952 201.315C258.268 198.877 258.218 198.524 259.184 198.039C276.841 189.232 286.006 186.64 298.546 185.236C299.041 185.138 299.551 185.145 300.041 185.256C300.534 185.367 300.995 185.58 301.394 185.879C301.792 186.179 302.118 186.558 302.352 186.991C302.587 187.424 302.719 187.901 302.746 188.389C303.596 195.525 301.176 217.089 294.799 228.466C294.47 229.036 294.224 228.931 290.839 227.49M290.833 227.488L290.839 227.49M290.833 227.488C290.835 227.489 290.837 227.489 290.839 227.49M233.9 324.423C234.537 323.824 235.205 323.195 236.059 322.311C243.482 314.594 243.354 314.732 243.246 314.849L243.243 314.853C243.219 314.878 243.2 314.899 243.272 314.825C245.403 312.609 247.146 310.483 248.59 308.721C250.914 305.883 252.463 303.993 253.605 304.208C257.795 304.994 259.432 335.311 239.713 350.269L239.489 350.437M233.9 324.423L233.863 324.458M233.9 324.423C233.888 324.435 233.876 324.447 233.863 324.458M230.357 332.859L230.359 332.865M230.357 332.859L230.356 332.857C229.648 331.01 229.096 329.569 230.263 328.222C231.842 326.363 232.813 325.448 233.863 324.458M230.357 332.859C230.357 332.861 230.358 332.863 230.359 332.865M232.037 339.002C231.867 338.268 231.627 337.231 231.287 335.727C231.048 334.665 230.687 333.722 230.359 332.865M232.037 339.002L232.042 339.024M232.037 339.002C232.038 339.01 232.04 339.017 232.042 339.024M232.456 341.374C232.461 341.88 232.471 342.82 232.75 345.698C232.803 349.212 232.025 351.046 231.531 352.208L231.53 352.211C231.076 353.28 230.864 353.778 231.772 354.492C232.925 355.404 233.033 355.322 239.481 350.444M232.456 341.374L232.456 341.356M232.456 341.374C232.456 341.368 232.456 341.362 232.456 341.356M239.489 350.437L239.481 350.444M239.489 350.437C239.487 350.439 239.484 350.442 239.481 350.444M252.492 237.919C249.995 238.53 247.577 239.409 245.284 240.546C244.268 241.388 244.727 242.081 245.181 242.764C245.765 243.641 246.339 244.507 243.748 245.66M252.492 237.919C252.505 237.917 252.519 237.914 252.532 237.911M252.492 237.919C252.507 237.916 252.522 237.914 252.536 237.911M252.492 237.919L252.532 237.911M239.029 247.19C237.79 247.466 237.37 247.56 237.677 248.376C239.118 252.225 240.99 252.87 242.778 252.519M239.029 247.19L239.04 247.188M239.029 247.19C239.032 247.189 239.036 247.188 239.04 247.188M243.748 245.66C243.733 245.667 243.719 245.673 243.704 245.68M243.748 245.66L243.704 245.68M141.204 275.256C140.441 275.623 139.872 275.897 139.321 275.932C139.081 275.951 138.84 275.909 138.623 275.808C138.406 275.707 138.221 275.551 138.087 275.357C137.953 275.162 137.875 274.938 137.861 274.706C137.848 274.472 137.899 274.241 138.009 274.032C139.42 271.274 140.883 268.547 142.574 265.938C147.527 258.927 154.21 253.226 162.016 249.354C165.324 248.002 168.781 247.022 172.32 246.437C176.665 245.721 181.103 245.721 185.448 246.437C187.69 246.65 184.425 250.158 181.238 253.582M121.65 390.413C118.536 394.3 118.211 394.705 117.442 394.245C117.196 394.091 116.944 393.777 117.162 393.075C119.352 386.12 180.335 312.499 182.593 312.499C182.842 312.476 183.092 312.525 183.311 312.642C183.53 312.759 183.708 312.934 183.822 313.15C184.504 314.609 181.688 317.967 168.45 333.753M149.694 399.088C149.184 398.742 148.655 398.384 148.135 398.014C147.686 397.745 147.313 397.373 147.049 396.931C146.786 396.486 146.642 395.985 146.628 395.476C146.615 394.963 146.734 394.458 146.974 394.002C147.214 393.548 147.567 393.157 148.002 392.867C148.093 392.791 148.414 392.598 148.89 392.312M232.456 341.356C232.454 341.218 232.453 341.115 232.446 341.01C232.426 340.698 232.358 340.39 232.097 339.261M232.042 339.024C232.061 339.107 232.079 339.186 232.097 339.261M232.042 339.024L232.097 339.261M239.04 247.188C239.057 247.184 239.075 247.18 239.092 247.176M239.04 247.188L239.092 247.176M245.324 240.539C247.617 239.402 250.035 238.522 252.532 237.911M252.532 237.911L252.536 237.911M243.788 245.652L243.704 245.68M243.704 245.68C241.62 246.607 240.098 246.953 239.092 247.176M243.704 245.68L239.092 247.176M239.092 247.176L239.081 247.18L239.068 247.183C237.831 247.459 237.41 247.552 237.717 248.369C239.148 252.189 241.003 252.852 242.778 252.519M242.778 252.519C242.859 252.503 242.94 252.485 243.021 252.466C245.355 251.668 247.583 250.601 249.657 249.293C249.955 249.062 250.176 248.751 250.295 248.4C250.412 248.046 250.422 247.67 250.321 247.312C250.197 246.839 249.976 246.507 249.804 246.25C249.193 245.33 249.191 245.328 256.267 243.162C258.242 242.558 256.206 239.51 254.839 237.989C254.395 237.514 254.148 237.4 253.89 237.442M242.778 252.519C242.873 252.502 242.967 252.481 243.061 252.458C245.395 251.66 247.623 250.593 249.697 249.286C249.995 249.054 250.217 248.743 250.335 248.392C250.453 248.039 250.462 247.662 250.361 247.304C250.237 246.832 250.017 246.499 249.845 246.242C249.233 245.323 249.232 245.32 256.307 243.154C258.282 242.55 256.246 239.502 254.88 237.982C254.413 237.482 254.163 237.381 253.89 237.442M253.89 237.442C253.773 237.468 253.652 237.523 253.508 237.589C253.272 237.696 252.976 237.829 252.536 237.911M253.89 237.442C253.761 237.463 253.628 237.523 253.467 237.596C253.239 237.7 252.954 237.828 252.536 237.911M100.441 361.054C103.291 350.281 111.936 342.589 116.862 352.292C120.296 359.051 117.628 367.445 114.633 367.199C114.429 367.194 114.228 367.141 114.048 367.047C113.868 366.951 113.714 366.818 113.597 366.654C113.445 366.273 113.38 365.863 113.406 365.454C113.431 365.047 113.548 364.647 113.747 364.287C115.925 358.057 112.764 350.005 109.835 352.522C105.952 355.865 102.89 363.692 104.261 366.717C104.846 368.011 104.822 369.927 103.423 370.35C101.564 370.919 100.939 369.508 100.393 368.268C98.7845 364.659 95.6789 364.214 93.8726 365.695C91.7383 367.833 90.4616 370.64 90.272 373.609C90.272 374.688 91.0749 375.35 91.7593 375.913C92.4283 376.466 92.9839 376.924 92.5661 377.586C92.4251 377.794 92.2153 377.951 91.9709 378.028C91.7265 378.105 91.4621 378.101 91.221 378.014C89.8747 377.729 88.6796 376.983 87.8547 375.913C87.0298 374.844 86.6301 373.523 86.7294 372.191C86.6801 370.643 87.0112 369.103 87.6953 367.702C89.2481 363.678 91.2911 361.65 94.527 360.918C96.4029 360.527 98.3624 360.871 99.9774 361.875L100.2 361.973C100.264 361.662 100.344 361.355 100.441 361.054ZM201.603 329.036C200.354 326.103 198.323 328.056 195.367 330.901C194.175 332.05 192.831 333.343 191.328 334.518C186.38 338.375 171.555 352.281 166.995 356.569C151.412 371.218 151.724 371.607 152.197 372.196C152.255 372.276 152.333 372.339 152.422 372.383C152.512 372.428 152.611 372.451 152.711 372.449C155.438 372.449 199.98 331.928 201.552 329.577C201.606 329.497 201.638 329.406 201.647 329.313C201.656 329.219 201.641 329.123 201.603 329.036ZM246.962 264.78C239.251 263.77 234.803 261.914 230.422 255.633C219.671 240.193 237.213 219.48 255.854 227.754C273.803 235.722 270.372 263.671 246.962 264.78ZM236.9 257.972C234.775 256.333 233.096 254.213 232.011 251.801C230.706 248.844 230.341 245.576 230.964 242.415C231.587 239.255 233.169 236.347 235.507 234.064C237.846 231.778 240.835 230.222 244.092 229.593C247.348 228.964 250.725 229.291 253.789 230.531C256.289 231.563 258.489 233.172 260.199 235.217C261.909 237.262 263.076 239.681 263.598 242.263C264.12 244.846 263.982 247.515 263.195 250.033C262.408 252.552 260.996 254.847 259.083 256.716C257.169 258.583 254.813 259.97 252.219 260.754C249.625 261.538 246.873 261.692 244.203 261.208C241.532 260.724 239.025 259.612 236.9 257.972ZM259.266 248.984C260.087 246.83 260.274 244.495 259.807 242.245C259.406 240.35 258.555 238.569 257.319 237.049C256.084 235.528 254.5 234.309 252.692 233.486C250.884 232.662 248.903 232.26 246.906 232.312C244.909 232.361 242.952 232.861 241.19 233.774C239.103 234.864 237.369 236.492 236.182 238.478C234.995 240.467 234.4 242.736 234.465 245.031C234.53 247.326 235.252 249.56 236.55 251.481C237.849 253.401 239.672 254.936 241.818 255.914C243.963 256.889 246.347 257.268 248.702 257.011C251.058 256.751 253.293 255.862 255.158 254.447C257.023 253.029 258.446 251.137 259.266 248.984Z" stroke="#151515" stroke-width="2"/>
<path d="M479.878 41.1871C446.987 -3.11417 386.676 -11.0237 340.078 14.3097C270.589 52.084 270.44 161.809 354.676 194.965C386.091 207.331 429.354 204.882 458.166 182.714C473.848 170.647 484.469 154.225 490.685 142.385C505.937 107.729 498.321 66.0245 479.878 41.1871ZM495.717 113.622C495.476 122.722 487.55 151.24 465.563 171.597C410.165 222.884 322.449 198.895 298.631 134.038C284.777 96.3104 293.396 42.5135 345.296 14.9437C402.575 -15.4826 480.141 12.3563 493.612 79.4597C496.162 90.6691 496.874 102.198 495.717 113.622Z" fill="#151515"/>
<path d="M404.251 131.787C397.103 129.294 390.279 134.263 386.538 139.94C378.735 151.789 381.418 168.715 396.05 167.859C400.298 167.859 408.554 161.142 411.179 151.539C413.746 142.156 409.88 133.75 404.251 131.787ZM410.216 146.622C409.363 156.681 401.764 164.668 397.021 165.571C393.947 166.153 401.609 160.307 402.855 148.072C404.355 133.2 394.804 135.364 396.76 133.643C397.939 132.985 399.313 132.737 400.655 132.941C404.737 132.085 410.957 137.907 410.216 146.622Z" fill="#151515"/>
<path d="M344.084 105.013C337.805 98.3012 325.825 99.1972 319.783 114.167C314.25 127.871 327.221 147.153 342.881 130.508C348.276 124.776 349.817 111.152 344.084 105.013ZM339.88 104.423C337.953 105.073 336.243 106.215 334.932 107.729C332.398 110.429 330.636 113.72 329.814 117.281C329.689 118.158 329.09 118.918 329.027 119.824C328.849 121.96 328.141 127.497 329.703 130.351C330.428 131.673 330.894 133.189 332.384 133.993C332.925 134.286 332.792 134.901 332.384 134.889C330.573 135.107 328.735 134.835 327.071 134.106C319.254 129.619 319.568 116.621 324.386 110.139C331.493 98.9328 341.469 103.464 339.88 104.423Z" fill="#151515"/>
<path d="M388.714 48.9492C383.85 45.9641 372.775 47.1034 366.77 49.1316C352.442 53.9648 344.941 64.6138 353.509 70.612C360.802 75.7189 378.226 71.0191 385.746 66.0478C394.473 60.2765 394.589 52.5565 388.714 48.9492ZM354.717 65.6852C353.751 67.1427 354.106 67.9755 353.181 66.9696C351.43 65.063 352.268 62.1644 354.951 59.1185C364.145 48.6825 382.696 47.363 387.926 50.8464C389.284 51.778 390.216 53.1809 390.532 54.7626C390.846 56.3442 390.518 57.9828 389.617 59.3361C389.235 59.8882 387.489 58.4729 386.593 57.7664C380.249 52.753 359.771 58.0494 354.717 65.6852Z" fill="#151515"/>
<path d="M431.827 98.4159C437.828 96.9303 438.258 91.2058 438.704 85.238C438.074 79.083 437.548 73.2369 432.261 69.6599C421.892 62.6441 417.002 95.8215 431.827 98.4159ZM428.543 70.9443C430.89 69.9968 433.71 72.6895 434.524 74.7809C439.716 88.1155 434.969 97.0052 431.455 96.4999C430.805 96.404 430.631 96.17 430.943 95.6062C433.261 91.3953 433.971 81.7312 430.119 74.3434C429.243 72.6637 427.842 72.4906 427.924 71.37C427.92 70.9489 428.287 71.0472 428.543 70.9443Z" fill="#151515"/>
<path d="M331.78 47.0356C332.213 42.5907 329.039 40.5952 325.569 41.4889C318.083 43.4165 310.672 55.2305 311.428 61.8417C312.732 73.2439 328.387 64.5764 331.78 47.0356ZM316.733 61.0416C316.339 62.2412 316.195 63.5048 316.308 64.7589C316.161 65.5917 314.347 64.9929 313.751 63.5541C310.561 55.916 324.888 39.2524 329.042 43.7347C331.976 46.8976 325.526 42.6492 317.798 57.9138C317.438 58.625 317.028 60.314 316.733 61.0416Z" fill="#151515"/>
<path d="M454.287 128.203C450.87 133.002 449.54 140.106 454.174 142.886C459.752 146.229 469.127 139.194 469.834 129.785C470.479 121.234 460.313 119.742 454.287 128.203ZM465.031 137.234C461.09 141.767 457.562 142.235 457.023 142.053C455.949 141.685 456.13 141.023 456.782 140.729C458.89 139.395 460.602 137.554 461.754 135.385C466.905 127.148 462.266 124.577 464.686 124.491C467.932 124.376 469.547 132.059 465.031 137.234Z" fill="#151515"/>
<path d="M479.69 77.7355C474.898 78.6713 469.434 88.5693 472.394 96.9607C476.338 108.141 487.808 99.7446 487.144 87.5119C486.715 79.4222 482.643 77.1554 479.69 77.7355ZM477.207 100.243C474.693 99.382 477.726 98.0345 478.533 95.0962C478.63 94.7453 481.851 86.5551 478.579 81.9956C477.567 80.5919 477.499 80.6738 478.579 80.0141C479.146 79.7589 479.765 79.6297 480.39 79.6361C481.013 79.6424 481.629 79.7839 482.191 80.0504C482.752 80.3168 483.244 80.7014 483.631 81.1759C484.02 81.6505 484.292 82.2031 484.432 82.7933C487.511 94.3663 480.897 101.492 477.207 100.243Z" fill="#151515"/>
<path d="M428.144 24.7223C421.665 28.6993 440.204 43.7721 447.248 38.8172C450.544 36.4989 446.333 31.3522 442.445 28.3858C439.057 25.7985 432.078 22.3081 428.144 24.7223ZM445.442 37.6569C444.476 38.195 444.034 38.3283 442.326 36.038C439.071 32.5383 434.988 29.8562 430.426 28.2221C429.581 28.0256 428.448 28.325 428.736 27.2302C429.112 25.7774 429.863 25.9295 431.433 25.892C438.429 25.726 449.383 35.4883 445.442 37.6569Z" fill="#151515"/>
<path d="M423.524 172.795C423.121 173.407 422.889 174.109 422.846 174.834C422.805 175.558 422.955 176.281 423.283 176.933C425.174 179.628 430.743 179.822 435 179.188C438.028 178.739 438.622 178.044 439.272 176.484C442.537 168.799 427.811 167.948 423.524 172.795ZM437.639 173.871C437.236 178.664 435.548 172.35 427.142 174.921C426.63 175.078 425.765 175.658 425.21 175.771C423.401 176.128 425.21 169.922 434.889 171.81C435.686 171.967 437.787 173.092 437.639 173.871Z" fill="#151515"/>
<path d="M343.27 162.675C340.882 166.074 349.11 176.922 355.038 176.028C364.232 174.636 348.561 155.147 343.27 162.675ZM352.86 173.317C352.483 172.585 352.058 171.877 351.585 171.199C350.46 169.366 349.03 167.725 347.354 166.343C346.089 165.159 344.91 165.51 344.985 164.106C345.024 163.353 345.164 163.192 345.982 163.171C350.517 163.028 353.988 168.004 355.929 172.458C356.678 174.168 353.567 175.263 352.86 173.317Z" fill="#151515"/>
<path d="M389.731 19.5174C406.215 20.6637 399.045 3.86202 384.84 12.2372C380.735 14.6585 380.969 18.9092 389.731 19.5174ZM396.838 13.201C397.729 13.959 397.243 14.8129 396.49 15.5404C395.101 16.8809 395.599 15.4796 392.94 15.2433C386.693 14.6865 387.849 17.6716 386.248 17.1148C379.069 14.621 392.595 9.57495 396.838 13.194V13.201Z" fill="#151515"/>
<path d="M392.305 94.4718C387.489 96.6264 387.371 98.2897 386.615 100.772C386.195 102.15 387.122 103.254 388.079 104.241C388.731 104.912 389.742 104.929 391.078 105.153C392.495 105.187 393.903 104.916 395.2 104.359C396.497 103.802 397.651 102.973 398.576 101.932C400.327 100.589 401.45 97.2253 400.112 95.6907C399.139 94.6721 397.84 93.999 396.424 93.778C395.009 93.5571 393.56 93.8014 392.305 94.4718ZM398.465 97.6043C398.465 100.533 395.983 97.5526 392.305 100.117C390.264 101.541 389.986 102.924 389.346 102.594C388.139 101.991 388.139 98.5258 392.305 96.425C396.045 94.5371 398.873 95.9574 398.465 97.6043Z" fill="#151515"/>
<path d="M221.935 519.103C224.007 520.203 226.344 520.703 228.684 520.547C228.919 520.562 229.123 520.388 229.146 520.153C229.165 517.419 229.215 514.688 228.328 512.068L227.555 512.441C228.83 514.892 230.388 517.161 231.222 519.821C231.271 520.051 231.49 520.202 231.722 520.167C234.329 519.625 237.001 519.465 239.655 519.691L239.502 518.876C237.02 520.29 234.32 521.408 232.209 523.38C232.038 523.539 232.02 523.805 232.169 523.986C233.809 526.486 235.264 529.103 236.522 531.817L237.232 531.347C235.372 529.431 233.454 527.576 231.479 525.781C231.39 525.684 231.261 525.632 231.129 525.64C230.997 525.649 230.876 525.716 230.799 525.824C228.96 528.296 228.106 531.449 226.664 534.149L227.448 534.423C227.556 531.135 227.833 527.854 228.28 524.595C228.382 523.595 228.584 523.117 227.888 522.355C226.413 520.742 224.174 519.657 222.415 518.39C221.966 518.067 221.486 518.779 221.935 519.103C222.833 519.748 223.749 520.365 224.66 520.991C225.381 521.487 226.784 522.158 227.241 522.92C227.72 523.719 227.403 524.722 227.302 525.701C226.914 528.571 226.677 531.46 226.592 534.354C226.593 534.737 227.154 535.044 227.376 534.628C228.819 531.927 229.674 528.773 231.512 526.304L230.832 526.346C232.807 528.145 234.724 530 236.586 531.913C236.729 532.067 236.963 532.095 237.139 531.979C237.315 531.863 237.381 531.636 237.296 531.444C236.001 528.663 234.503 525.982 232.815 523.421L232.775 524.026C234.827 522.109 237.461 521.025 239.875 519.649C240.044 519.561 240.136 519.373 240.101 519.186C240.066 518.998 239.912 518.856 239.723 518.835C236.995 518.601 234.248 518.765 231.568 519.322L232.067 519.667C231.208 516.928 229.643 514.595 228.328 512.068C228.22 511.863 227.97 511.781 227.762 511.882C227.554 511.982 227.462 512.229 227.555 512.441C228.388 514.902 228.307 517.519 228.29 520.085L228.752 519.691C226.56 519.853 224.366 519.403 222.415 518.39C221.943 518.106 221.46 518.816 221.935 519.103Z" fill="#151515"/>
<path d="M47.6115 406.764C49.6827 407.864 52.0199 408.364 54.3601 408.208C54.5952 408.223 54.7998 408.049 54.8222 407.814C54.8049 404.305 54.5783 400.452 53.3992 397.123L52.6259 397.496C54.3346 400.696 55.7642 404.037 56.8986 407.483C56.9463 407.712 57.1661 407.865 57.3981 407.828C59.9384 407.359 62.325 406.287 64.9538 406.57L64.8016 405.756C62.7776 407.006 59.953 408.291 58.6628 410.376C58.5771 410.502 58.5654 410.665 58.6323 410.802C60.2683 413.526 61.5081 416.516 62.9244 419.357L63.6344 418.888C61.3808 416.617 58.807 414.699 56.422 412.574C56.2612 412.405 55.998 412.388 55.8161 412.533C54.3012 413.551 53.1478 415.024 51.6731 416.109L52.361 416.574C52.8106 415.491 53.1903 414.377 53.5793 413.271C53.7835 412.69 54.4295 411.59 54.3166 410.952C54.2034 410.312 53.1283 409.649 52.6647 409.292C51.1861 408.151 49.6046 407.145 48.0911 406.052C47.643 405.728 47.1631 406.44 47.6115 406.764C48.8116 407.631 50.0448 408.45 51.2468 409.314C51.8502 409.748 53.3115 410.633 53.4026 411.152C53.5003 411.709 52.714 413.147 52.5222 413.685C52.2115 414.558 51.9057 415.435 51.5504 416.291C51.3726 416.719 51.921 416.989 52.2383 416.756C53.7131 415.671 54.8656 414.198 56.3813 413.18L55.7754 413.139C58.1599 415.264 60.7352 417.184 62.9878 419.453C63.1314 419.608 63.3654 419.636 63.5413 419.519C63.7172 419.403 63.7833 419.177 63.6978 418.984C62.4533 416.488 61.2842 413.95 59.9862 411.481C59.8944 411.307 59.5118 410.779 59.5359 410.596C59.5935 410.156 60.8043 409.406 61.1366 409.157C62.4213 408.194 63.8098 407.372 65.1745 406.529C65.3435 406.441 65.4351 406.253 65.4001 406.065C65.3651 405.878 65.2117 405.735 65.0222 405.714C62.311 405.422 59.8684 406.499 57.2441 406.983L57.7435 407.329C56.5921 403.808 55.1386 400.393 53.3993 397.123C53.2913 396.919 53.041 396.837 52.8329 396.937C52.6247 397.037 52.5333 397.284 52.6259 397.496C53.7471 400.661 53.9498 404.414 53.9663 407.746L54.4285 407.352C52.2363 407.514 50.0422 407.064 48.0911 406.051C47.6196 405.768 47.1363 406.478 47.6115 406.764Z" fill="#151515"/>
<circle cx="283.665" cy="459.627" r="2.09201" transform="rotate(154.257 283.665 459.627)" fill="#151515"/>
<circle cx="97.0732" cy="471.403" r="2.09201" transform="rotate(154.257 97.0732 471.403)" fill="#151515"/>
<circle cx="154.849" cy="536.696" r="2.09201" transform="rotate(154.257 154.849 536.696)" fill="#151515"/>
<circle cx="34.3737" cy="315.196" r="2.09201" transform="rotate(154.257 34.3737 315.196)" fill="#151515"/>
<circle cx="194.494" cy="455.445" r="2.79866" transform="rotate(154.257 194.494 455.445)" fill="#151515"/>
<path d="M434.985 240.633C432.829 237.021 433.238 237.653 432.755 236.868C432.475 236.414 432.639 236.481 430.579 239.328C430.078 240.021 429.444 239.895 429.277 239.392C429.007 238.578 429.444 237.87 430.119 236.795C430.739 235.808 431.174 235.544 430.813 235.474C430.78 235.468 429.34 235.248 427.221 234.834C426.648 234.721 426.227 234.246 426.631 233.825C426.829 233.618 427.078 233.522 427.354 233.526C427.972 233.533 428.589 233.543 429.203 233.589C430.43 233.68 431.194 233.982 430.983 233.589C429.9 231.566 429.604 231.161 427.903 227.51C427.723 227.123 427.797 226.822 428.048 226.61C428.931 225.866 429.455 227.426 431.293 231.03C432.481 233.359 432.44 233.829 432.835 233.407C435.577 230.49 434.292 231.946 436.006 230.495C436.056 230.453 436.173 230.431 436.223 230.462C436.478 230.625 436.094 231.083 434.309 233.99C433.851 234.736 434.81 234.048 437.563 235.318C437.784 235.42 437.978 235.566 437.927 235.827C437.871 236.126 437.591 236.167 437.342 236.179C435.022 236.292 433.535 235.442 433.909 236.239C436.317 241.381 436.554 241.367 436.264 241.596C436.023 241.786 436.012 241.666 434.988 240.635L434.985 240.633Z" fill="black"/>
<path d="M345.943 344.884C344.31 343.139 343.983 342.82 343.501 342.183C343.082 341.629 343.686 341.06 344.216 341.251C345.535 341.725 346.757 343.715 347.65 344.338C348.001 343.645 348.391 341.866 349.613 339.298C349.64 339.243 349.735 339.204 349.801 339.193C350.197 339.15 349.725 341.693 349.26 344.688C350.9 344.46 351.395 344.339 351.984 344.487C352.379 344.586 352.64 344.962 352.198 345.156C351.662 345.392 350.349 346.022 349.699 346.317C349.347 346.478 349.377 346.391 350.538 347.651C352.889 350.205 353.022 350.213 352.851 350.499C352.747 350.673 352.575 350.776 352.381 350.703C352.093 350.594 351.791 350.485 351.553 350.302C349.319 348.59 349.102 348.133 348.831 347.912C348.442 347.595 348.599 347.757 347.826 350.585C347.754 350.848 347.426 351.972 347.189 352.244C346.875 352.609 346.352 352.541 346.198 352.086C345.885 351.164 346.26 350.047 346.782 347.668C346.883 347.209 346.703 347.448 344.686 347.931C342.709 348.405 342.584 346.966 343.327 346.677C344.281 346.305 345.254 345.986 346.22 345.644C346.511 345.542 346.491 345.592 345.941 344.882L345.943 344.884Z" fill="black"/>
<path d="M364.86 288.084C366.657 290.09 364.848 293.95 361.459 293.69C359.534 293.543 358.261 291.927 358.414 290.114C358.667 287.12 362.824 285.423 364.86 288.084ZM363.608 288.876C363.449 288.752 363.296 288.622 363.13 288.506C361.442 287.32 359.317 289.412 360.027 290.962C360.336 291.639 360.892 292.065 361.672 292.07C362.72 292.075 363.396 291.604 363.78 290.758C364.06 290.139 364.081 289.478 363.609 288.876L363.608 288.876Z" fill="black"/>
<path d="M482.174 241.657C479.462 243.492 476.432 241.486 476.957 238.924C477.098 238.234 477.472 237.971 477.561 237.393C477.67 236.688 480.287 235.219 482.221 236.629C484.128 238.018 483.594 240.697 482.174 241.658L482.174 241.657ZM478.809 238.274C478.569 238.47 478.315 238.604 478.263 238.98C478.121 240.009 478.721 240.831 479.766 240.897C481.573 241.011 482.298 239.304 481.642 238.409C481.164 237.756 480.304 237.519 479.559 237.862C479.3 237.982 479.058 238.134 478.808 238.274L478.809 238.274Z" fill="black"/>
<path d="M406.972 273.236C407.576 274.005 407.447 275.213 406.63 275.814C405.725 276.48 404.696 276.304 404.046 275.504C403.438 274.754 403.608 273.458 404.338 272.894C405.164 272.254 406.342 272.435 406.972 273.236Z" fill="black"/>
<path d="M76.2601 128.655C76.5135 126.324 76.1111 123.968 75.0981 121.852C75.0244 121.629 74.787 121.504 74.561 121.569C72.2458 122.432 69.9261 122.947 68 124.572L68.6332 125.152C70.2303 123.299 71.5583 121.315 73.4825 119.764C73.6775 119.634 73.7369 119.374 73.618 119.172C72.3037 117.17 71.2978 114.982 70.634 112.681L69.9339 113.125C71.779 114.594 73.444 116.129 75.6055 117.126C75.8172 117.226 76.0702 117.144 76.1832 116.939C77.9663 114.467 80.1196 112.283 82.5675 110.467L81.9569 109.908C80.7636 112.418 79.1186 114.683 78.0803 117.269C77.9777 117.481 78.0602 117.736 78.2673 117.847C80.1398 118.808 82.0804 119.631 84.0732 120.309L84.0367 119.479C82.5945 119.97 81.0996 120.289 79.5827 120.43C79.0627 120.496 77.7982 120.381 77.3217 120.691C76.7051 121.092 76.5879 122.272 76.4561 122.911C76.0748 124.76 75.8614 126.636 75.4207 128.474C75.2918 129.012 76.131 129.194 76.2601 128.655C76.6564 127.003 76.8775 125.323 77.189 123.654C77.2857 123.136 77.3915 122.626 77.5214 122.116C77.793 121.049 77.4072 121.698 77.9147 121.473C78.6708 121.137 80.0414 121.244 80.874 121.114C82.0379 120.96 83.1828 120.688 84.2908 120.3C84.4721 120.237 84.5907 120.063 84.5823 119.871C84.5739 119.679 84.4404 119.516 84.2543 119.47C82.3331 118.812 80.4626 118.014 78.6581 117.082L78.8451 117.66C79.8834 115.074 81.5284 112.808 82.7216 110.298C82.8887 109.947 82.4635 109.46 82.111 109.739C79.5406 111.648 77.2827 113.945 75.4185 116.548L75.9963 116.361C74.0183 115.299 72.1772 113.999 70.5138 112.492C70.3693 112.367 70.1604 112.352 69.9993 112.454C69.8383 112.556 69.7629 112.751 69.8137 112.935C70.4968 115.308 71.5341 117.565 72.8905 119.629L73.0261 119.037C71.0397 120.638 69.6513 122.656 68 124.572C67.8505 124.748 67.867 125.011 68.0374 125.167C68.2077 125.323 68.471 125.316 68.6332 125.152C70.4151 123.649 72.6823 123.184 74.8151 122.39L74.2779 122.107C75.2416 124.082 75.6373 126.287 75.4208 128.474C75.3321 129.017 76.1708 129.203 76.2601 128.655Z" fill="#151515"/>
<path d="M212.419 85.7754C212.672 83.4438 212.27 81.0878 211.257 78.9725C211.183 78.749 210.946 78.6239 210.72 78.6894C208.405 79.552 206.085 80.0673 204.159 81.6918L204.792 82.2717C206.389 80.4186 207.717 78.4354 209.641 76.8843C209.837 76.7543 209.896 76.4943 209.777 76.2923C208.309 73.8821 206.499 71.629 205.763 68.8579L205.063 69.3015C207.238 71.0375 209.22 73.0469 211.764 74.2459C211.976 74.3461 212.229 74.2642 212.342 74.059C214.125 71.5865 216.279 69.4035 218.726 67.5868L218.116 67.0276C216.923 69.5377 215.278 71.803 214.239 74.3891C214.137 74.6007 214.219 74.8556 214.426 74.9669C216.299 75.9283 218.239 76.7513 220.232 77.4292L220.196 76.5993C218.753 77.0901 217.259 77.4093 215.742 77.5504C215.222 77.6158 213.957 77.5009 213.481 77.8108C212.864 78.2118 212.747 79.3918 212.615 80.0308C212.234 81.8799 212.02 83.7563 211.58 85.5943C211.451 86.1317 212.29 86.3137 212.419 85.7754C212.815 84.1227 213.036 82.443 213.348 80.7741C213.445 80.2562 213.55 79.7465 213.68 79.236C213.952 78.1688 213.566 78.8184 214.074 78.5928C214.83 78.2568 216.2 78.364 217.033 78.2336C218.197 78.0804 219.342 77.8076 220.45 77.4196C220.631 77.357 220.75 77.1827 220.741 76.991C220.733 76.7994 220.599 76.6361 220.413 76.5897C218.492 75.9317 216.622 75.1337 214.817 74.2022L215.004 74.7799C216.042 72.1938 217.687 69.9285 218.881 67.4184C219.048 67.0669 218.622 66.5805 218.27 66.8593C215.699 68.7681 213.442 71.0652 211.577 73.6682L212.155 73.4812C209.682 72.3157 207.756 70.355 205.643 68.6683C205.498 68.5438 205.289 68.5284 205.128 68.6305C204.967 68.7326 204.892 68.9281 204.942 69.1119C205.699 71.9591 207.54 74.2713 209.049 76.7488L209.185 76.1568C207.199 77.7581 205.81 79.7758 204.159 81.6918C204.009 81.8679 204.026 82.1307 204.196 82.2867C204.367 82.4427 204.63 82.4361 204.792 82.2717C206.574 80.7687 208.841 80.3043 210.974 79.5097L210.437 79.2266C211.401 81.2022 211.796 83.4068 211.58 85.5943C211.491 86.1375 212.33 86.3228 212.419 85.7754Z" fill="#151515"/>
<circle cx="88.7186" cy="180.048" r="2.09201" transform="rotate(42.4823 88.7186 180.048)" fill="#151515"/>
<circle cx="213.721" cy="158.224" r="2.09201" transform="rotate(42.4823 213.721 158.224)" fill="#151515"/>
<circle cx="11.8086" cy="136.564" r="2.09201" transform="rotate(42.4823 11.8086 136.564)" fill="#151515"/>
<circle cx="269.437" cy="117.665" r="2.79866" transform="rotate(42.4823 269.437 117.665)" fill="#151515"/>
<circle cx="159.923" cy="95.052" r="2.79866" transform="rotate(42.4823 159.923 95.052)" fill="#151515"/>
<circle cx="7.53946" cy="196.554" r="2.79866" transform="rotate(42.4823 7.53946 196.554)" fill="#151515"/>
<circle cx="91.1492" cy="72.3889" r="2.79866" transform="rotate(42.4823 91.1492 72.3889)" fill="#151515"/>
</svg>
