<svg width="659" height="565" viewBox="0 0 659 565" fill="none" xmlns="http://www.w3.org/2000/svg">
<path d="M295.913 519.872C287.138 533.149 281.881 548.437 280.635 564.301C280.635 564.81 279.769 564.836 279.794 564.301C280.749 548.231 286.115 532.736 295.302 519.516C295.557 519.134 296.143 519.491 295.913 519.872ZM221.581 515.366C230.112 525.805 228.635 540.368 221.378 551.011C220.996 551.545 220.104 551.011 220.461 550.476C227.005 539.757 229.348 526.288 221.123 515.722C220.868 515.493 221.327 515.035 221.581 515.366ZM114.527 439.799C108.35 456.96 105.071 475.029 104.825 493.266C104.825 493.388 104.777 493.504 104.691 493.59C104.605 493.676 104.488 493.724 104.367 493.724C104.245 493.724 104.128 493.676 104.042 493.59C103.957 493.504 103.908 493.388 103.908 493.266C104.009 474.938 107.398 456.777 113.916 439.646C114.043 439.264 114.654 439.417 114.527 439.799ZM64.2085 473.483C79.2327 492.426 80.3786 517.25 79.9203 540.394C79.9203 540.515 79.872 540.632 79.786 540.718C79.7001 540.804 79.5835 540.852 79.462 540.852C79.3404 540.852 79.2238 540.804 79.1378 540.718C79.0519 540.632 79.0035 540.515 79.0035 540.394C78.8253 517.479 78.4433 492.833 63.7246 473.967C63.4445 473.611 63.9284 473.101 64.2085 473.483ZM104.621 239.323C104.835 239.024 105.121 238.784 105.453 238.626C105.785 238.468 106.151 238.397 106.518 238.42C106.885 238.443 107.24 238.559 107.55 238.757C107.86 238.955 108.114 239.229 108.288 239.552C108.441 239.781 108.059 240.087 107.881 239.858C107.709 239.641 107.494 239.463 107.25 239.334C107.006 239.205 106.737 239.129 106.461 239.11C106.186 239.09 105.909 239.129 105.649 239.223C105.39 239.316 105.152 239.463 104.952 239.654C104.906 239.673 104.855 239.677 104.806 239.667C104.758 239.657 104.713 239.633 104.678 239.598C104.642 239.562 104.618 239.518 104.608 239.469C104.598 239.42 104.603 239.369 104.621 239.323ZM99.7065 240.214C99.4823 240.039 99.2148 239.927 98.9324 239.891C98.65 239.856 98.3632 239.897 98.1022 240.01C97.5929 240.24 97.4401 240.672 97.16 241.156C97.1201 241.223 97.0597 241.274 96.9878 241.303C96.9159 241.332 96.8366 241.337 96.7617 241.317C96.6869 241.297 96.6207 241.253 96.5731 241.192C96.5255 241.13 96.4991 241.055 96.4979 240.978C96.5295 240.588 96.6742 240.215 96.9144 239.906C97.1547 239.597 97.4799 239.364 97.8503 239.237C98.2207 239.11 98.6202 239.094 98.9997 239.191C99.3791 239.287 99.7221 239.493 99.9866 239.781C100.343 239.985 99.9612 240.418 99.7065 240.214ZM101.667 246.707C102.151 246.528 103.934 246.554 104.214 246.299C104.494 246.045 103.373 242.658 103.246 241.462C103.246 241.156 103.679 241.131 103.755 241.462C104.049 242.391 104.296 243.334 104.494 244.288C104.927 246.172 105.894 247.623 101.947 247.292C101.87 247.329 101.781 247.334 101.699 247.305C101.618 247.277 101.552 247.217 101.515 247.139C101.477 247.062 101.473 246.973 101.501 246.891C101.53 246.81 101.59 246.744 101.667 246.707ZM98.7389 252.512C98.5687 252.819 98.3269 253.082 98.0339 253.276C97.7409 253.471 97.4053 253.592 97.0556 253.629C96.7059 253.667 96.3523 253.619 96.0247 253.491C95.6972 253.363 95.4053 253.158 95.1738 252.894C94.8102 252.169 94.6602 251.355 94.7414 250.548C94.8225 249.741 95.1315 248.974 95.6321 248.336C95.8104 248.081 96.3706 248.107 96.2942 248.514C96.2043 249.078 96.278 249.655 96.5066 250.177C96.7352 250.7 97.109 251.146 97.5837 251.462C98.0584 251.779 98.614 251.952 99.1844 251.962C99.7548 251.972 100.316 251.818 100.802 251.519C100.825 251.504 100.851 251.493 100.878 251.488C100.906 251.483 100.934 251.484 100.961 251.49C100.988 251.496 101.014 251.507 101.037 251.523C101.06 251.539 101.079 251.559 101.094 251.582C101.109 251.606 101.12 251.632 101.125 251.659C101.13 251.687 101.129 251.715 101.123 251.742C101.117 251.769 101.106 251.795 101.09 251.818C101.074 251.841 101.054 251.86 101.031 251.875C100.363 252.345 99.5534 252.57 98.7389 252.512ZM95.6576 249.813C94.6135 252.868 97.1091 253.632 98.0513 252.359C97.4636 252.182 96.9329 251.854 96.5126 251.407C96.0923 250.96 95.7974 250.41 95.6576 249.813ZM237.242 341.471C237.87 341.46 238.49 341.603 239.049 341.887C239.608 342.171 240.09 342.587 240.451 343.1C240.68 343.355 240.298 343.762 240.069 343.482C239.318 342.634 238.288 342.083 237.166 341.929C237.105 341.919 237.051 341.885 237.015 341.835C236.979 341.785 236.965 341.722 236.975 341.662C236.985 341.601 237.019 341.547 237.069 341.511C237.119 341.475 237.182 341.46 237.242 341.471ZM228.33 339.841C227.082 338.797 226.292 340.045 225.987 340.325C225.935 340.373 225.867 340.4 225.796 340.4C225.725 340.4 225.657 340.373 225.605 340.325C225.376 340.07 225.834 339.026 226.802 338.823C227.15 338.749 227.511 338.767 227.85 338.874C228.189 338.981 228.495 339.174 228.737 339.434C228.791 339.488 228.821 339.561 228.821 339.637C228.821 339.714 228.791 339.787 228.737 339.841C228.683 339.895 228.61 339.926 228.533 339.926C228.457 339.926 228.384 339.895 228.33 339.841ZM230.443 344.5C230.806 344.552 231.175 344.552 231.538 344.5C231.793 344.5 232.073 344.806 231.818 345.01C231.523 345.239 231.172 345.388 230.802 345.441C230.431 345.495 230.053 345.451 229.705 345.315C229.606 345.276 229.525 345.203 229.474 345.111C229.423 345.018 229.405 344.91 229.425 344.806C230.202 343.413 231.052 342.062 231.971 340.758C232.005 340.704 232.059 340.665 232.121 340.651C232.183 340.637 232.248 340.648 232.302 340.681C232.356 340.715 232.395 340.769 232.409 340.831C232.423 340.893 232.412 340.958 232.379 341.012C231.804 342.213 231.158 343.377 230.443 344.5ZM232.761 350.764C231.818 350.942 230.902 349.974 231.131 349.236C230.405 349.156 229.717 348.874 229.145 348.421C229.087 348.384 229.047 348.326 229.032 348.259C229.018 348.192 229.031 348.122 229.068 348.065C229.105 348.007 229.164 347.967 229.231 347.953C229.297 347.939 229.367 347.951 229.425 347.989C230.146 348.444 230.99 348.667 231.842 348.626C232.694 348.585 233.513 348.282 234.187 347.759C234.227 347.688 234.294 347.637 234.373 347.615C234.452 347.594 234.536 347.604 234.607 347.645C234.678 347.685 234.73 347.752 234.751 347.831C234.773 347.91 234.762 347.994 234.721 348.065C234.467 349.134 234.059 350.509 232.761 350.764ZM231.615 349.262C232.022 350.535 233.27 350.356 233.83 348.701C233.161 349.075 232.406 349.268 231.64 349.262H231.615Z" fill="black"/>
<path d="M250.707 491.163H287.606C287.957 491.149 288.299 491.324 288.555 491.649C288.811 491.975 288.96 492.424 288.971 492.899C288.981 493.373 288.851 493.834 288.61 494.179C288.369 494.525 288.035 494.727 287.684 494.74L7.18065 494.443L7.15717 491.268H248.496L250.707 491.163Z" fill="black"/>
<path d="M358.842 390.84C357.947 380.151 357.616 369.423 357.85 358.699C357.85 357.808 356.549 357.568 356.447 358.699C355.328 369.448 355.443 380.289 356.789 391.011C356.811 391.284 356.941 391.536 357.15 391.713C357.359 391.89 357.629 391.976 357.901 391.953C358.173 391.931 358.425 391.801 358.602 391.592C358.778 391.383 358.865 391.112 358.842 390.84ZM343.34 386.831C343.402 386.97 343.503 387.088 343.631 387.171C343.758 387.253 343.907 387.297 344.059 387.297C344.211 387.297 344.36 387.253 344.487 387.171C344.615 387.088 344.715 386.97 344.777 386.831C344.298 376.037 343.853 365.21 343.374 354.382C343.374 354.2 343.302 354.026 343.174 353.897C343.046 353.769 342.872 353.697 342.69 353.697C342.508 353.697 342.334 353.769 342.206 353.897C342.078 354.026 342.006 354.2 342.006 354.382C341.549 362.557 341.641 370.753 342.279 378.916C342.302 381.588 342.658 384.247 343.34 386.831ZM433.032 388.201C433.367 393.494 432.776 398.805 431.286 403.895C431.286 404.683 433.579 409.035 435.016 396.528C435.917 388.08 434.159 379.562 429.986 372.165C429.541 371.343 428.378 372.165 428.754 372.885C431.122 377.678 432.573 382.873 433.032 388.201ZM391.557 140.499C391.533 143.078 392.404 145.585 394.02 147.592C396.074 149.443 399.256 142.247 408.804 141.116V131.865C402.142 132.353 395.943 135.456 391.557 140.499ZM481.522 387.996C481.522 380.937 480.906 373.913 480.769 366.854C480.769 365.895 479.297 366.1 479.297 367.06C479.297 374.358 479.297 381.725 479.605 389.058C479.742 393.889 481.624 392.108 481.522 387.996ZM415.203 131.693L415.408 140.945C427.214 141.356 430.636 150.265 431.902 147.49C432.45 146.222 434.674 139.883 433.476 138.786C428.453 134.27 421.954 131.747 415.203 131.693Z" fill="black"/>
<path d="M249.53 339.929C250.939 340.979 254.655 339.007 252.092 334.808C250.262 331.812 247.813 329.239 244.911 327.261C242.008 325.283 238.717 323.946 235.257 323.337C231.644 322.62 225.776 322.082 223.034 325.104C222.22 326.004 221.659 327.104 221.407 328.291C221.155 329.478 221.221 330.71 221.599 331.863C228.185 329.303 236.256 328.714 242.278 332.478C244.952 334.699 247.383 337.196 249.53 339.929Z" fill="#3B82F6"/>
<path d="M243.098 317.115C236.589 313.889 230.158 316.808 226.493 322.594C230.854 321.816 235.341 322.167 239.526 323.615C243.712 325.063 247.456 327.559 250.401 330.865C250.503 330.994 250.616 331.134 250.737 331.284C251.071 331.699 251.466 332.189 251.862 332.734C254.732 326.333 248.684 319.906 243.098 317.115Z" fill="#3B82F6"/>
<path fill-rule="evenodd" clip-rule="evenodd" d="M167.414 330.58C167.195 330.665 167.017 330.832 166.917 331.044C166.174 332.606 169.582 335.32 171.093 336.165C170.573 336.602 170.176 337.167 169.94 337.804C169.479 339.212 171.068 340.825 172.503 341.773C170.318 344.981 171.858 348.849 173.324 352.532C173.543 353.082 173.76 353.627 173.963 354.166C180.653 371.052 192.257 385.546 207.275 395.774C207.07 404.711 207.07 413.698 207.583 422.634C207.839 426.987 208.505 435.258 211.401 436.871C209.479 441.48 213.963 441.634 213.963 441.634C213.963 441.634 203.867 479.786 209.633 490.514C213.579 497.812 254.937 521.445 259.113 523.801L261.112 521.804C261.416 522.108 261.711 522.406 262.001 522.698C262.568 523.27 263.115 523.823 263.675 524.365C263.538 525.54 263.096 526.931 262.672 528.262C262.063 530.177 261.494 531.968 261.932 532.814C262.104 533.049 262.342 533.226 262.617 533.322C262.892 533.418 263.189 533.429 263.47 533.352C264.033 533.224 273.284 525.44 273.079 523.596C271.879 521.856 270.515 520.236 269.004 518.757C268.542 518.113 268.015 517.5 267.486 516.886C267.195 516.548 266.903 516.209 266.621 515.864C267.441 514.891 268.21 513.918 268.928 512.996C260.266 501.9 251.17 491.001 241.637 480.298C239.796 482.22 237.751 483.937 235.539 485.419C235.18 485.675 234.796 485.06 235.18 484.804C239.571 481.236 243.376 477.003 246.455 472.258C247.623 470.288 248.585 468.203 249.325 466.036C248.454 464.199 247.473 462.419 246.495 460.643C244.595 457.193 242.703 453.758 241.637 449.955C241.629 449.882 241.647 449.807 241.689 449.746C241.731 449.685 241.793 449.641 241.865 449.622C241.937 449.604 242.013 449.611 242.08 449.644C242.146 449.677 242.198 449.733 242.227 449.802C244.329 455.087 246.794 460.22 249.607 465.165C249.607 465.165 261.061 491.999 271.516 495.891C274.538 496.967 277.792 497.223 280.945 496.634C292.81 494.893 314.975 463.885 322.124 443.989C321.611 443.298 320.971 442.53 320.228 441.71C320.542 441.069 320.84 440.417 321.137 439.766C321.468 439.04 321.798 438.316 322.15 437.614C325.072 438.147 328.024 438.506 330.99 438.689C331.579 438.587 332.169 437.946 331.964 437.383C329.486 434.249 326.608 431.451 323.405 429.061C323.093 428.785 322.727 428.577 322.33 428.449C321.933 428.321 321.514 428.277 321.099 428.319C320.612 428.447 316.487 432.006 316.64 433.005C315.513 434.054 314.36 435.053 313.181 436.052C312.246 435.484 311.279 434.971 310.285 434.515C301.931 442.752 292.934 450.313 283.38 457.125C282.957 462.759 282.957 468.416 283.38 474.05C283.405 474.408 282.79 474.408 282.79 474.05C282.145 467.241 282.034 460.392 282.457 453.566C282.036 442.557 278.214 431.948 271.516 423.198C272.951 421.457 273.386 419.613 270.67 418.077C271.854 416.55 272.623 414.743 272.902 412.832C273.18 410.92 272.959 408.969 272.259 407.169C270.046 401.297 268.139 395.314 266.544 389.245C284.789 381.563 291.221 361.719 290.785 342.029C290.77 341.215 290.766 340.276 290.762 339.252C290.739 333.512 290.705 325.113 288.53 321.288C288.666 320.488 288.597 319.667 288.328 318.901C288.059 318.135 287.599 317.45 286.993 316.91C287.836 315.314 288.383 313.579 288.607 311.789C288.626 311.685 288.648 311.571 288.672 311.45C288.841 310.588 289.079 309.38 288.607 308.998C288.069 308.563 287.505 309.254 287.223 309.664C287.326 308.358 287.044 306.898 286.352 306.77C285.66 306.642 285.199 307.41 284.892 308.332C284.635 306.309 283.226 305.644 282.739 307.999C282.534 307.513 282.252 306.975 281.663 306.898C281.074 306.821 280.51 309.408 280.51 311.251C280.51 311.827 280.095 311.627 279.56 311.369C279.047 311.122 278.424 310.822 277.947 311.098C276.59 311.907 278.935 314.211 280.462 315.711C280.723 315.967 280.96 316.2 281.15 316.398C280.92 316.449 278.588 317.192 278.588 318.523C277.844 318.934 277.191 319.49 276.667 320.159C276.143 320.828 275.759 321.595 275.539 322.415C273.115 328.829 271.652 333.956 270.453 338.158C268.091 346.437 266.755 351.121 261.112 354.96C255.545 358.914 248.97 361.214 242.15 361.591C241.894 360.362 240.331 359.696 239.588 360.362C239.126 359.133 238.05 354.831 238.05 354.831C241.766 354.473 245.302 352.45 245.558 348.558C245.558 348.558 247.454 349.48 249.402 346.766C249.886 345.966 250.141 345.05 250.141 344.116C250.141 343.181 249.886 342.265 249.402 341.465C250.34 341.668 251.321 341.519 252.157 341.047C252.993 340.575 253.626 339.813 253.937 338.905C254.578 337.292 253.425 335.115 252.195 333.323C255.654 326.486 249.53 319.522 243.559 316.5C240.363 315.052 236.728 314.899 233.421 316.074C230.114 317.249 227.392 319.66 225.827 322.799C224.416 323.077 223.142 323.826 222.214 324.924C220.891 326.989 220.422 329.486 220.907 331.889C220.92 331.924 220.931 331.969 220.943 332.019C221.001 332.261 221.085 332.609 221.574 332.376C221.738 333.773 222.03 335.153 222.445 336.498C221.042 341.094 220.962 345.993 222.214 350.632C222.48 351.309 222.877 351.927 223.382 352.45C223.888 352.973 224.493 353.391 225.161 353.679C226 354.121 226.339 354.255 226.477 354.501C226.57 354.669 226.57 354.888 226.57 355.292C226.527 357.263 226.304 359.226 225.904 361.156C225.627 361.155 225.354 361.215 225.103 361.332C224.852 361.449 224.63 361.62 224.454 361.833C224.277 362.047 224.15 362.296 224.082 362.564C224.014 362.832 224.006 363.112 224.059 363.384C212.579 365.022 199.793 362.078 192.746 352.015C191.349 350.019 190.144 348.228 189.077 346.643C184.765 340.233 182.714 337.183 179.344 337.573C179.268 336.472 178.909 334.501 177.781 333.912C177.778 333.905 177.809 333.795 177.862 333.605C178.226 332.291 179.64 327.196 178.14 326.614C177.243 326.256 175.193 327.613 174.45 328.202C173.908 328.631 173.557 327.89 173.178 327.089C173.037 326.792 172.893 326.487 172.733 326.23C172.641 326.082 172.543 325.912 172.439 325.73C171.881 324.757 171.141 323.465 170.017 323.465C169.479 323.491 169.53 324.95 169.684 325.488C169.511 325.315 169.284 325.208 169.041 325.184C168.798 325.161 168.554 325.223 168.352 325.36C167.813 325.769 167.993 326.64 168.352 327.485C168.219 327.409 168.069 327.368 167.916 327.368C167.763 327.368 167.613 327.409 167.48 327.485C166.861 327.904 167.581 329.443 167.928 330.186C168.027 330.397 168.095 330.544 168.095 330.583C167.877 330.495 167.634 330.494 167.414 330.58ZM321.483 436.922C320.663 438.202 319.92 439.457 319.228 440.763C317.654 439.184 315.909 437.785 314.027 436.589C315.21 435.539 316.339 434.428 317.409 433.261C317.914 433.169 318.433 433.191 318.929 433.325C319.424 433.459 319.883 433.702 320.273 434.035C320.664 434.369 320.974 434.785 321.184 435.253C321.393 435.721 321.495 436.23 321.483 436.743V436.922ZM266.841 522.462C266.073 523.139 265.082 523.507 264.059 523.494C264.059 523.59 264.052 523.582 263.918 523.432C263.695 523.183 263.117 522.536 261.625 521.317C262.342 520.601 265.186 517.451 265.853 516.683C266.095 517.003 266.342 517.318 266.588 517.633C267.151 518.351 267.711 519.067 268.21 519.832C268.096 520.848 267.608 521.786 266.841 522.462ZM226.493 322.594C230.158 316.808 236.589 313.889 243.098 317.115C248.684 319.906 254.732 326.333 251.862 332.734C251.466 332.189 251.071 331.699 250.737 331.284C250.616 331.134 250.503 330.994 250.401 330.865C247.456 327.559 243.712 325.063 239.526 323.615C235.341 322.167 230.854 321.816 226.493 322.594ZM252.092 334.808C254.655 339.007 250.939 340.979 249.53 339.929C247.383 337.196 244.952 334.699 242.278 332.478C236.256 328.714 228.185 329.303 221.599 331.863C221.221 330.71 221.155 329.478 221.407 328.291C221.659 327.104 222.22 326.004 223.034 325.104C225.776 322.082 231.644 322.62 235.257 323.337C238.717 323.946 242.008 325.283 244.911 327.261C247.813 329.239 250.262 331.812 252.092 334.808ZM237.768 354.422C237.589 354.447 237.589 354.755 237.589 354.755C237.926 356.836 238.414 358.89 239.049 360.9C238.084 362.056 236.835 362.942 235.425 363.471C234.015 364.001 232.491 364.156 231.003 363.921C229.89 363.678 228.75 362.817 227.88 362.161C227.287 361.714 226.819 361.361 226.57 361.361C226.994 358.979 227.149 356.557 227.032 354.14C227.039 354.069 227.02 353.998 226.977 353.941C226.934 353.884 226.871 353.845 226.801 353.833C220.523 352.271 221.753 342.746 223.085 336.703C226.207 336.447 229.277 335.758 232.208 334.654C234.383 334.029 236.383 332.907 238.05 331.377C238.121 333.504 238.808 335.564 240.027 337.309C241.246 339.054 242.944 340.409 244.917 341.209L244.917 341.24C244.917 341.762 244.915 343.949 246.019 343.949C247.147 343.949 248.095 342.976 248.377 341.389C248.748 341.797 249.028 342.28 249.198 342.805C249.367 343.33 249.423 343.885 249.359 344.433C249.296 344.981 249.116 345.51 248.832 345.983C248.548 346.456 248.165 346.862 247.71 347.175C246.879 347.529 246.023 347.82 245.148 348.046C244.803 349.778 243.89 351.345 242.553 352.499C241.216 353.654 239.533 354.331 237.768 354.422ZM228.262 363.435C231.823 365.867 236.282 364.254 239.511 361.31H239.434C241.176 359.696 241.407 362.872 241.125 363.973C240.699 364.885 240.064 365.686 239.272 366.308C238.48 366.931 237.552 367.359 236.564 367.557C232.515 368.812 226.186 369.017 224.828 364.177C224.443 362.744 225.238 362.001 225.699 361.822C226.053 361.684 226.846 362.316 227.6 362.919C227.829 363.101 228.053 363.28 228.262 363.435ZM287.07 311.943C287.762 309.484 288.53 308.767 288.197 311.046H288.223C288.018 312.952 287.48 314.806 286.634 316.526C285.184 315.872 283.546 315.763 282.022 316.219L280.561 314.58C280.452 314.454 280.217 314.255 279.946 314.024C279.387 313.55 278.674 312.945 278.588 312.583C278.265 311.46 279.066 311.783 279.856 312.103C280.507 312.366 281.15 312.626 281.15 312.071C281.096 310.931 281.165 309.79 281.355 308.665C282.303 306.898 282.483 309.971 282.483 310.944C282.483 311.328 283.149 311.43 283.149 310.944C283.152 310.028 283.308 309.12 283.61 308.255C284.494 307.093 284.386 310.278 284.358 311.086C284.355 311.168 284.353 311.225 284.353 311.251C284.345 311.325 284.363 311.399 284.405 311.46C284.447 311.521 284.509 311.565 284.581 311.584C284.653 311.603 284.729 311.595 284.796 311.562C284.862 311.529 284.914 311.473 284.943 311.405C284.987 311.262 285.041 311.018 285.106 310.725C285.346 309.648 285.731 307.917 286.275 308.179C286.79 308.426 286.624 309.948 286.505 311.039C286.464 311.415 286.429 311.739 286.429 311.943C286.449 312.012 286.491 312.073 286.549 312.117C286.607 312.16 286.677 312.184 286.749 312.184C286.822 312.184 286.892 312.16 286.95 312.117C287.008 312.073 287.05 312.012 287.07 311.943ZM279.382 318.267C280.049 317.012 282.995 316.833 284.174 316.833H284.2C284.694 316.809 285.187 316.885 285.651 317.056C286.115 317.228 286.539 317.492 286.898 317.831C287.257 318.171 287.544 318.58 287.741 319.033C287.938 319.486 288.041 319.975 288.043 320.469C286.876 319.445 285.483 318.712 283.977 318.329C282.472 317.946 280.897 317.925 279.382 318.267ZM258.755 430.214C242.714 436.717 227.339 440.814 218.396 441.378H218.422C216.756 441.48 210.094 441.736 211.888 437.588C217.192 440.277 235.488 434.771 241.996 432.774C247.551 431.08 252.987 429.018 258.268 426.603C262.799 424.803 266.902 422.073 270.311 418.589C274.975 421.252 267.416 426.731 258.755 430.214ZM207.147 395.39C186.955 379.745 178.499 366.2 173.041 350.094H173.066C171.837 346.433 171.632 343.155 174.963 340.544C176.085 339.614 177.371 338.902 178.755 338.444C182.381 337.335 188.548 346.784 190.307 349.479C190.375 349.584 190.437 349.678 190.491 349.762C192.674 353.447 195.629 356.618 199.152 359.056C206.597 363.72 215.507 365.462 224.162 363.947C224.93 368.889 230.747 369.324 235.026 368.556C238.076 367.993 242.714 365.919 242.176 362.027C247.352 362.001 260.343 360.413 267.39 349.506C268.902 347.157 269.739 344.067 270.896 339.801C272.073 335.46 273.579 329.902 276.461 322.671C276.826 321.842 277.359 321.098 278.027 320.486C278.694 319.874 279.482 319.408 280.34 319.117C281.198 318.825 282.107 318.715 283.01 318.794C283.912 318.872 284.789 319.138 285.583 319.573C288.812 321.058 289.273 324.822 289.504 327.971C289.914 333.246 290.17 338.598 290.17 343.898C290.221 361.207 283.072 382.28 266.365 388.784C263.108 389.742 259.772 390.41 256.397 390.781C256.334 390.8 256.278 390.839 256.238 390.892C256.199 390.945 256.178 391.01 256.178 391.076C256.178 391.142 256.199 391.206 256.238 391.259C256.278 391.313 256.334 391.351 256.397 391.37C259.739 391.266 263.04 390.6 266.16 389.399C267.652 395.263 269.466 401.042 271.592 406.708C273.642 412.367 273.104 416.976 264.571 422.43C251.964 430.47 219.421 439.304 212.964 436.743C207.568 434.582 207.745 419.176 207.824 412.308C207.832 411.608 207.839 410.997 207.839 410.498C207.722 400.444 208.053 390.391 208.385 380.338C208.417 379.381 208.448 378.424 208.479 377.467C208.505 377.006 207.813 377.031 207.813 377.467C207.531 383.509 207.301 389.399 207.147 395.39ZM172.605 341.619C171.606 341.056 170.12 339.391 170.786 337.753H170.812C171.403 336.829 172.202 336.057 173.145 335.497C174.089 334.937 175.15 334.605 176.244 334.526C178.114 334.526 178.806 335.96 178.806 337.625C176.344 338.21 174.156 339.62 172.605 341.619ZM171.286 336.025C172.885 334.536 174.98 333.692 177.166 333.656C177.166 332.897 177.387 332.024 177.607 331.157C177.817 330.328 178.025 329.504 178.038 328.791C178.038 326.669 176.485 327.629 175.179 328.437C174.389 328.926 173.689 329.359 173.476 329.021C173.037 327.753 172.387 326.567 171.555 325.513C171.536 325.493 171.516 325.471 171.495 325.448C171.173 325.093 170.616 324.48 170.376 325.513C170.669 326.544 171.073 327.54 171.58 328.484C171.614 328.545 171.623 328.617 171.603 328.684C171.584 328.751 171.539 328.808 171.478 328.842C171.417 328.876 171.344 328.884 171.277 328.865C171.21 328.846 171.153 328.801 171.119 328.74C171.119 328.74 170.017 326.614 169.838 326.179C169.095 325.129 168.48 325.821 169.018 327.152C169.337 328.029 169.714 328.885 170.145 329.713C170.179 329.774 170.188 329.846 170.168 329.913C170.149 329.98 170.104 330.037 170.043 330.071C169.982 330.105 169.909 330.113 169.842 330.094C169.775 330.075 169.718 330.03 169.684 329.969C169.505 329.687 168.044 327.408 167.685 328.125C167.387 328.722 168.544 330.507 169.103 331.369C169.215 331.543 169.304 331.679 169.351 331.761C169.633 332.248 169.351 332.12 169.095 331.94C169.05 331.909 168.977 331.839 168.887 331.752C168.464 331.343 167.654 330.561 167.506 331.659C167.356 332.775 169.8 334.792 170.865 335.671C171.059 335.831 171.207 335.953 171.286 336.025ZM17.0307 259.942C17.7486 260.743 18.7191 261.275 19.781 261.449C21.2673 267.824 26.9559 271.46 32.5164 268.951C32.1064 274.738 37.4875 279.04 42.6124 275.532C46.943 282.394 55.2965 285.927 56.6802 277.759C57.4299 278.401 58.0797 278.915 58.6405 279.358C61.0317 281.249 61.8051 281.86 61.8051 285.697C61.7626 287.087 61.7256 288.476 61.6942 289.866L62.3432 290.562C62.3432 290.305 62.3545 289.811 62.3686 289.195C62.4107 287.356 62.4776 284.428 62.3432 283.469C62.231 282.74 61.9737 282.04 61.5864 281.411C61.1991 280.782 60.6897 280.237 60.0883 279.808H60.2164C59.1883 278.9 58.13 278 57.0497 277.081C48.3833 269.711 38.3041 261.14 31.0814 237.508C30.9075 236.917 30.6947 236.221 30.4569 235.444C28.4181 228.782 24.5444 216.122 27.5965 211.902C28.507 210.674 31.5002 210.88 33.9536 211.05C34.2621 211.071 34.562 211.091 34.8482 211.109C38.9225 211.237 40.255 212.901 42.228 216.23C47.384 224.863 49.6288 230.582 51.2544 234.723C52.8928 238.896 53.9022 241.468 56.629 243.807C62.0127 248.414 67.9421 252.344 74.2842 255.508L80.9466 258.427C81.1656 258.523 81.3773 258.56 81.5894 258.598C81.7745 258.63 81.9599 258.663 82.1509 258.735C85.8409 271.998 99.0374 280.909 104.393 268.516L103.932 268.234C101.816 265.042 100.225 261.532 99.2168 257.838C101.92 257.537 104.414 256.241 106.212 254.202C108.052 251.524 109.242 248.454 109.687 245.236C110.132 242.018 109.819 238.741 108.775 235.664C118.794 226.651 104.393 208.266 92.862 217.023C89.2233 213.72 85.3028 214.821 81.2797 217.689C77.0109 220.614 73.7565 224.792 71.9663 229.644C70.1761 234.497 69.9384 239.786 71.2862 244.78C67.8269 243.935 64.3932 245.727 65.085 249.056C64.788 248.855 64.488 248.654 64.1862 248.451C60.5571 246.013 56.6805 243.409 54.8352 240.478C53.835 238.937 53.128 237.082 52.193 234.629C50.5652 230.358 48.2461 224.273 42.4843 214.873C41.3023 212.708 39.3282 211.084 36.9751 210.34C37.6926 207.498 36.5651 206.244 35.002 205.988C35.7451 204.707 39.3581 198.127 35.9244 199.765C35.4569 199.984 35.106 200.478 34.8432 200.848C34.6451 201.127 34.4971 201.335 34.387 201.302C34.3276 201.284 34.2545 200.943 34.1431 200.424C33.7737 198.702 32.9831 195.018 30.8764 194.644C30.8044 194.623 30.7272 194.626 30.6575 194.654C30.5877 194.682 30.5294 194.733 30.492 194.798C30.1503 195.606 30.0611 196.499 30.2358 197.359C29.4415 195.797 28.4165 194.312 27.4428 194.619C26.469 194.926 26.7252 196.539 27.2121 198.127C26.4434 197.026 25.444 196.155 24.6497 196.462C23.4453 196.949 24.1628 198.844 25.034 200.457C24.2397 200.047 23.4454 199.817 22.9585 200.457C22.0092 201.822 25.934 205.653 27.6263 207.305C27.807 207.482 27.9622 207.633 28.0834 207.754C27.8172 207.9 27.5897 208.106 27.4201 208.358C27.2505 208.609 27.1436 208.897 27.1085 209.198C27.0733 209.499 27.1109 209.804 27.2181 210.087C27.3254 210.371 27.499 210.624 27.7246 210.827C26.059 211.954 25.8028 214.412 25.8028 216.511C25.7188 221.506 27.2355 226.569 28.6883 231.419C29.0081 232.487 29.3249 233.545 29.6208 234.589C32.0462 243.94 35.8826 252.868 40.9981 261.065C40.0262 260.438 38.9153 260.058 37.7627 259.96C36.6101 259.862 35.451 260.048 34.387 260.501C34.1606 259.56 33.7401 258.676 33.1525 257.905C32.5649 257.135 31.823 256.496 30.9741 256.029C30.1253 255.561 29.1883 255.276 28.2228 255.19C27.2574 255.105 26.2848 255.222 25.3671 255.534C25.3313 254.965 25.1835 254.409 24.932 253.898C24.6806 253.386 24.3306 252.93 23.902 252.554C23.4734 252.178 22.9748 251.89 22.4347 251.707C21.8946 251.525 21.3237 251.45 20.7548 251.488C21.9079 245.522 20.7292 242.782 19.3454 241.4C17.9684 239.985 16.21 239.72 14.4177 239.45C12.6412 239.182 10.8314 238.91 9.32627 237.508C6.71257 235.101 6.66134 230.927 7.02008 227.727C-5.35653 238.353 -0.718513 261.782 15.8349 257.045C15.8909 258.119 16.3129 259.141 17.0307 259.942ZM112.311 272.587C121.309 279.214 124.906 282.841 128.17 286.131C129.749 287.723 131.25 289.236 133.246 290.972C136.682 293.946 142.235 290.463 146.519 287.776C147.731 287.016 148.842 286.319 149.774 285.851C153.372 283.861 157.423 282.829 161.535 282.855C163.308 282.804 165.066 283.181 166.66 283.956C166.97 283.167 167.548 282.513 168.294 282.11C169.04 281.707 169.905 281.58 170.735 281.754C170.914 276.633 170.94 275.993 171.452 275.583C171.51 275.546 171.576 275.527 171.644 275.527C171.712 275.527 171.779 275.546 171.836 275.583C172.693 275.929 173.112 277.217 173.466 278.309C173.557 278.589 173.644 278.856 173.733 279.091C174.458 278.424 175.055 277.824 175.56 277.316C176.84 276.03 177.523 275.344 178.166 275.711C179.063 276.223 178.576 277.273 178.012 278.271C179.447 277.196 181.189 276.197 181.984 277.119C182.778 278.041 181.599 279.116 180.369 280.115C181.753 279.654 183.163 279.475 183.444 280.422C183.726 281.37 182.522 282.189 181.241 282.804C182.394 282.804 183.368 282.983 183.137 283.956C182.942 284.779 181.555 285.345 180.683 285.702C180.524 285.767 180.382 285.825 180.267 285.876C178.686 286.563 176.992 286.954 175.27 287.029C175.547 287.445 175.697 287.933 175.7 288.433C175.702 288.933 175.559 289.423 175.286 289.842C175.014 290.261 174.624 290.592 174.166 290.792C173.708 290.993 173.201 291.056 172.708 290.972C172.937 292.655 172.505 294.362 171.503 295.734C166.617 302.818 155.095 309.533 149.095 313.029C148.394 313.438 147.768 313.803 147.237 314.119C142.462 316.419 137.11 317.248 131.862 316.5C127.807 316.267 123.813 315.403 120.024 313.94L119.87 313.325C134.579 317.499 142.932 315.886 146.263 314.042C148.399 312.89 150.534 311.56 152.669 310.23C153.096 309.964 153.524 309.698 153.951 309.433C159.232 306.13 164.206 302.359 168.813 298.167C175.988 291.305 170.248 284.007 161.664 283.7C155.829 283.468 150.388 286.49 145.616 289.141C141.439 291.461 137.775 293.497 134.809 292.815C132.843 292.351 129.716 288.908 127.249 286.19C126.179 285.012 125.233 283.971 124.559 283.367C120.793 279.987 112.823 273.714 112.823 273.714L112.311 272.587ZM48.6085 444.399C46.3013 444.604 44.0138 444.989 41.7668 445.551C40.7921 447.925 39.4329 450.122 37.7438 452.055C37.5755 452.216 37.3597 452.317 37.1288 452.345C36.8978 452.373 36.664 452.325 36.4625 452.209C35.5913 451.543 35.207 439.406 35.9757 438.791C37.4224 438.615 38.8852 438.615 40.3319 438.791C41.9095 437.925 43.38 436.876 44.7136 435.668L44.9955 436.615V436.641C43.6462 437.994 42.0782 439.111 40.3575 439.944C39.9837 440.77 39.8967 441.697 40.1102 442.579C40.3237 443.46 40.8256 444.245 41.5362 444.809C43.6794 444.231 45.8639 443.821 48.0704 443.58L48.6085 444.399ZM85.2421 378.011C85.2743 377.939 85.3065 377.867 85.3385 377.796C85.3608 377.746 85.383 377.696 85.4052 377.646C85.354 377.746 85.2996 377.868 85.2421 378.011ZM22.2666 346.612L21.3954 347.124C20.4125 345.472 19.3166 343.889 18.1155 342.387V342.413C17.339 342.033 16.4506 341.948 15.6161 342.174C14.7815 342.4 14.0578 342.922 13.5799 343.642C13.5799 343.642 14.9636 348.251 15.3736 350.453L14.4768 350.837C14.0155 348.507 13.4774 346.202 12.8112 343.924C10.5141 342.821 8.34812 341.464 6.35381 339.878C6.22971 339.751 6.1429 339.592 6.10277 339.419C6.06264 339.245 6.07071 339.065 6.12617 338.896C6.18162 338.727 6.28235 338.576 6.41735 338.461C6.55234 338.345 6.71647 338.268 6.89195 338.239C11.1429 337.658 15.4532 337.658 19.7042 338.239C19.9158 339.725 19.9158 341.234 19.7042 342.72C20.4891 344.062 21.3444 345.361 22.2666 346.612ZM16.4755 257.506C16.4499 255.79 20.1654 252.897 20.7035 252.717H20.6523C21.0731 252.522 21.5391 252.444 22.0007 252.492C22.4623 252.541 22.902 252.714 23.273 252.992C23.6439 253.271 23.9322 253.645 24.107 254.075C24.2817 254.504 24.3365 254.973 24.2653 255.431C23.1185 257.338 21.516 258.931 19.6016 260.066C19.2272 260.108 18.848 260.075 18.4866 259.969C18.1251 259.862 17.7887 259.684 17.4972 259.446C17.2058 259.207 16.9652 258.912 16.7897 258.579C16.6142 258.246 16.5074 257.881 16.4755 257.506ZM181.471 284.954C179.347 285.747 177.136 286.288 174.886 286.568C174.501 285.761 174.047 284.99 173.528 284.263C172.988 283.458 172.257 282.798 171.401 282.343C171.248 280.718 171.325 279.08 171.632 277.478C172.026 277.204 172.305 277.971 172.615 278.824C172.769 279.247 172.931 279.69 173.118 280.038C173.45 280.657 174.138 279.879 174.968 278.942C175.545 278.29 176.191 277.559 176.833 277.17C177.629 276.697 177.594 276.82 177.441 277.357C177.412 277.459 177.379 277.577 177.346 277.708C176.99 278.815 176.503 279.397 176.189 279.772C175.914 280.101 175.771 280.272 175.962 280.499C176.204 280.787 176.348 280.663 176.896 280.191C177.275 279.864 177.848 279.371 178.781 278.732C178.916 278.648 179.078 278.519 179.251 278.382C179.867 277.893 180.619 277.295 180.779 278.195C180.97 279.268 178.625 280.787 177.641 281.424C177.569 281.47 177.504 281.512 177.448 281.549C177.166 281.754 177.423 282.292 177.781 282.087C178.14 281.882 182.778 279.552 182.343 281.293C182.061 282.445 178.909 283.213 178.14 283.393C177.781 283.495 177.935 283.981 178.319 283.981C179.518 283.636 180.763 283.481 182.009 283.521C182.394 283.623 182.676 284.366 181.471 284.954ZM172.477 284.007C173.858 285.459 174.637 287.381 174.655 289.384C174.478 289.79 174.169 290.124 173.779 290.333C173.388 290.542 172.939 290.614 172.503 290.536C172.116 289.17 171.424 287.909 170.479 286.849C169.533 285.788 168.359 284.957 167.045 284.417C167.26 283.895 167.616 283.443 168.073 283.111C168.531 282.78 169.071 282.582 169.635 282.539C170.198 282.497 170.762 282.611 171.264 282.871C171.766 283.13 172.186 283.523 172.477 284.007ZM35.0737 201.293C35.4756 200.79 35.8363 200.338 36.5394 200.482C37.4181 200.673 36.9156 201.604 35.8704 203.54C35.5135 204.201 35.0933 204.979 34.6432 205.885C32.6274 206.06 30.6447 206.508 28.7496 207.217C28.3551 206.765 27.9475 206.311 27.5359 205.852C26.6643 204.881 25.7753 203.89 24.9572 202.864C22.4972 199.765 25.5209 201.327 26.4178 202.633C26.4687 202.722 26.5527 202.786 26.6512 202.812C26.7497 202.839 26.8547 202.825 26.9431 202.774C27.0314 202.723 27.0959 202.639 27.1223 202.541C27.1488 202.442 27.135 202.337 27.084 202.249C26.879 201.891 26.6804 201.526 26.4818 201.161C26.2832 200.796 26.0846 200.431 25.8797 200.073C25.7995 199.933 25.689 199.769 25.5721 199.596C25.0909 198.883 24.5007 198.009 25.4697 197.947C26.5361 197.879 27.723 199.839 28.3723 200.911C28.4563 201.05 28.5313 201.174 28.5959 201.276C28.8008 201.635 29.6465 201.711 29.3133 200.969C29.2876 200.912 29.2525 200.835 29.21 200.743C28.7007 199.635 27.1295 196.216 27.9809 195.72C28.9033 195.182 30.9533 200.073 31.0558 200.482C31.1583 200.892 31.6708 200.713 31.6708 200.303C31.6318 200.138 31.5669 199.907 31.4911 199.638C31.1679 198.492 30.6456 196.638 31.0814 196.078C31.6195 195.387 32.2858 196.616 32.5933 197.205C33.4493 198.569 33.9431 200.129 34.0282 201.737C34.0026 201.916 34.3613 202.07 34.5151 201.916C34.7277 201.727 34.9044 201.505 35.0737 201.293ZM30.2102 207.319C33.3108 206.423 35.7194 206.269 36.5394 207.549L36.4369 207.447C36.8548 208.329 36.919 209.336 36.6163 210.264C33.9213 209.962 31.198 210.022 28.519 210.443C28.401 210.128 28.3519 209.791 28.3751 209.455C28.3983 209.119 28.4932 208.793 28.6535 208.497C28.8137 208.201 29.0356 207.942 29.3041 207.739C29.5726 207.536 29.8816 207.393 30.2102 207.319ZM98.4157 257.295C98.4088 257.339 98.4111 257.385 98.4225 257.429C99.3387 261.529 101.15 265.376 103.727 268.695C102.01 273.432 95.8856 275.89 89.7614 270.283C86.4716 267.148 84.1052 263.171 82.9197 258.786C83.7838 258.936 84.6732 258.808 85.4604 258.422C86.2476 258.036 86.8921 257.41 87.3014 256.635C87.3087 256.57 87.3467 255.778 87.401 254.649C87.5386 251.787 87.7806 246.755 87.8908 245.855C87.0511 245.884 86.2271 245.622 85.559 245.113C83.7396 243.602 85.5077 239.351 87.2758 239.044C87.7662 238.956 88.2695 238.97 88.7543 239.085C89.2392 239.199 89.6953 239.412 90.0945 239.71C91.0939 240.119 95.7575 234.051 95.2194 225.064C98.2926 228.314 102.246 230.6 106.597 231.644C110.568 238.276 110.645 256.661 98.6787 257.019C98.6344 257.028 98.5923 257.046 98.5552 257.072C98.518 257.097 98.4864 257.13 98.4624 257.169C98.4385 257.207 98.4226 257.25 98.4157 257.295Z" fill="black"/>
<path fill-rule="evenodd" clip-rule="evenodd" d="M103.932 268.234C104.111 267.056 107.596 268.234 108.057 268.234C110.261 268.541 111.619 270.923 112.311 272.587L112.823 273.714C116.551 286.635 118.913 299.912 119.87 313.325L120.024 313.94C120.28 317.806 120.408 321.16 120.485 323.9L120.489 324.051C122.356 390.674 122.739 404.32 86.8658 429.932C75.6769 437.869 63.2404 443.883 50.0692 447.728L48.6085 444.399L48.0704 443.58C47.071 441.25 46.0461 438.919 44.9955 436.615L44.7136 435.668L43.8424 433.696C55.1428 422.43 70.8506 411.291 75.8217 403.251C81.0474 394.818 83.9476 381.221 85.2421 378.011C85.2743 377.939 85.3065 377.867 85.3385 377.796L85.4052 377.646C85.354 377.746 85.2996 377.868 85.2421 378.011C79.5361 390.704 70.0872 404.004 51.9397 410.421C46.0205 412.52 33.5414 415.106 23.9066 388.579C18.9867 375.034 14.938 362.974 11.6068 352.732L14.4768 350.837L15.3736 350.453L21.3954 347.124L22.2666 346.612L25.6234 344.769C29.3646 350.325 43.5605 372.294 46.8148 377.467C50.2741 370.528 61.1389 345.409 63.0095 340.569C61.7507 323.699 61.3119 306.778 61.6942 289.866L62.3432 290.562C66.2382 294.736 72.593 292.764 75.3605 287.182C75.5142 283.956 74.9505 261.577 74.2842 255.508L80.9466 258.427C82.0228 261.654 83.0222 266.851 83.6884 270.027H83.5603C84.8977 276.31 85.4741 282.732 85.2771 289.154C86.6821 290.947 88.4686 292.406 90.5073 293.424C92.5459 294.443 94.7856 294.996 97.0644 295.043C101.011 295.005 104.788 293.435 107.596 290.664C108.8 283.546 104.47 268.541 104.393 268.516L103.932 268.234ZM113.205 300.555C112.595 300.911 111.881 301.044 111.183 300.932C110.726 300.752 110.312 300.475 109.972 300.12C109.631 299.765 109.372 299.341 109.211 298.876C109.051 298.411 108.992 297.917 109.041 297.428C109.089 296.939 109.243 296.466 109.492 296.042C109.897 295.448 110.521 295.04 111.227 294.906C111.933 294.771 112.664 294.922 113.259 295.325C113.862 295.693 114.317 296.259 114.549 296.926C114.78 297.592 114.773 298.319 114.528 298.981C114.283 299.643 113.815 300.199 113.205 300.555ZM95.655 333.707C92.452 332.76 85.9434 326.461 85.6102 325.744H85.7383C85.3796 325.001 84.9953 309.664 85.3284 309.1C85.6615 308.537 106.93 310.585 107.007 310.688C107.084 310.79 106.853 327.178 106.545 327.767C106.238 328.356 98.8581 334.654 95.655 333.707ZM78.4975 296.615C77.9633 296.712 77.4121 296.637 76.9236 296.4L76.9492 296.374C75.0786 295.529 73.9767 292.201 77.7692 291.689C78.2649 291.662 78.7578 291.779 79.1881 292.027C79.6183 292.274 79.9673 292.641 80.1926 293.084C80.4179 293.526 80.5098 294.024 80.4571 294.517C80.4045 295.01 80.2095 295.478 79.896 295.862C79.5214 296.255 79.0317 296.519 78.4975 296.615Z" fill="#3B82F6"/>
<path d="M20.7035 252.717C20.1654 252.897 16.4499 255.79 16.4755 257.506C16.5074 257.881 16.6142 258.246 16.7897 258.579C16.9652 258.912 17.2058 259.207 17.4972 259.446C17.7887 259.684 18.1251 259.862 18.4866 259.969C18.848 260.075 19.2272 260.108 19.6016 260.066C21.516 258.931 23.1185 257.338 24.2653 255.431C24.3365 254.973 24.2817 254.504 24.107 254.075C23.9322 253.645 23.6439 253.271 23.273 252.992C22.902 252.714 22.4623 252.541 22.0007 252.492C21.5391 252.444 21.0731 252.522 20.6523 252.717H20.7035Z" fill="#3B82F6"/>
<path d="M419.133 252.452C419.078 252.087 418.894 251.754 418.615 251.513C418.335 251.272 417.979 251.139 417.61 251.139C417.241 251.139 416.885 251.272 416.605 251.513C416.326 251.754 416.142 252.087 416.087 252.452C416.087 257.626 417.798 321.462 418.756 328.383C418.756 328.711 418.886 329.024 419.117 329.256C419.348 329.487 419.662 329.617 419.988 329.617C420.315 329.617 420.628 329.487 420.859 329.256C421.091 329.024 421.22 328.711 421.22 328.383C422.76 306.591 419.851 275.033 419.133 252.452ZM494.691 394.104C494.691 394.755 495.957 394.549 496.094 393.898C496.642 391.568 494.11 365.013 494.52 357.817C494.52 356.892 493.151 356.926 493.083 357.817C492.451 369.936 492.99 382.088 494.691 394.104ZM415.985 421.961C416.669 422.475 417.73 421.653 417.285 420.899C415.985 418.603 414.137 416.821 412.186 413.292C409.192 407.699 407.465 401.515 407.128 395.178C406.791 388.842 407.852 382.508 410.236 376.629C410.612 375.772 409.243 375.258 408.833 376.149C405.924 382.834 404.741 390.145 405.393 397.408C406.044 404.671 408.51 411.653 412.563 417.712C413.478 419.297 414.632 420.73 415.985 421.961Z" fill="black"/>
<path fill-rule="evenodd" clip-rule="evenodd" d="M657.203 491.528H608.644C613.127 467.543 586.504 450.65 569.941 459.491C568.24 451.179 563.567 443.776 556.799 438.672C550.032 433.567 541.636 431.113 533.188 431.77C532.287 425.882 530.063 420.276 526.685 415.374C523.306 410.471 518.86 406.4 513.683 403.467C512.074 384.279 512.793 364.748 512.827 345.799C515.736 346.005 522.717 346.656 521.588 343.88C518.166 335.383 512.314 321.197 507.9 313.042C509.679 313.042 511.698 313.042 511.698 311.226C512.245 278.331 513.306 209.322 513.306 209.322C513.854 168.478 515.223 121.535 486.58 87.9205C485.691 86.8583 484.459 86.4814 483.672 87.5779C472.019 104.096 464.358 123.098 461.291 143.087C460.128 123.556 458.588 101.489 455.577 79.6626C450.444 42.6221 438.056 17.7457 417.934 2.97748C416.018 1.57262 413.212 -0.688876 411.946 0.202015C380.532 22.4743 371.292 61.3308 369.102 90.0107C368.315 102.209 368.075 114.579 368.383 126.846C364.174 111.118 349.733 80.4165 344.429 87.8177C319.722 123.248 321.809 169.026 323.897 209.424C327.319 286.384 328.346 306.223 328.79 311.397C328.79 313.076 328.79 314.207 333.513 313.693C323.555 340.111 321.502 344.531 322.391 345.285C323.253 346.015 326.586 345.813 328.349 345.707L328.517 345.696C328.277 357.244 331.015 413.37 330.638 416.351C328.154 419.38 326.156 422.779 324.718 426.425C318.885 428.014 313.471 430.866 308.859 434.78C304.247 438.693 300.549 443.573 298.026 449.074C293.474 448.628 288.884 449.384 284.715 451.267L285.16 453.665C302.509 447.635 315.239 456.818 319.722 467.988C320.509 470.079 324.924 468.297 318.045 459.696C313.674 454.287 307.502 450.638 300.661 449.417C317.224 417.482 364.106 422.587 373.208 456.921C373.687 458.737 376.391 457.846 375.912 456.03C373.166 445.905 366.709 437.188 357.83 431.618C348.95 426.049 338.3 424.035 328.003 425.979C330.905 420.139 335.198 415.103 340.505 411.319C345.811 407.534 351.967 405.117 358.428 404.28C364.889 403.444 371.456 404.214 377.55 406.522C383.643 408.83 389.074 412.606 393.364 417.516C396.512 420.942 407.052 441.022 410.474 443.386C407.661 448.216 405.9 453.588 405.307 459.148C401.076 460.7 397.23 463.147 394.029 466.322C390.828 469.498 388.349 473.327 386.76 477.548C386.646 477.807 386.64 478.101 386.743 478.364C386.845 478.628 387.048 478.84 387.307 478.953C387.566 479.067 387.859 479.073 388.122 478.97C388.385 478.867 388.597 478.664 388.71 478.405C390.78 473.603 394.065 469.424 398.241 466.281C402.416 463.138 407.338 461.139 412.52 460.481C417.702 459.824 422.966 460.531 427.792 462.533C432.618 464.534 436.84 467.761 440.041 471.895C440.268 472.213 440.611 472.427 440.996 472.492C441.381 472.556 441.776 472.464 442.094 472.237C442.411 472.01 442.626 471.666 442.69 471.28C442.754 470.895 442.663 470.499 442.436 470.181C438.494 464.955 433.077 461.031 426.886 458.918C420.694 456.804 414.012 456.598 407.702 458.326C408.708 452.87 410.806 447.674 413.87 443.051C416.934 438.429 420.901 434.475 425.531 431.427C431.13 427.833 437.549 425.723 444.185 425.294C450.822 424.865 457.459 426.131 463.473 428.974C469.487 431.817 474.68 436.143 478.567 441.547C482.453 446.951 484.904 453.255 485.691 459.867C485.765 460.209 485.96 460.512 486.241 460.719C486.522 460.927 486.868 461.025 487.216 460.996C487.564 460.967 487.889 460.812 488.131 460.56C488.373 460.308 488.515 459.977 488.531 459.628C487.624 452.085 484.71 444.925 480.092 438.897C475.475 432.869 469.324 428.195 462.284 425.363C464.567 419.329 468.359 413.984 473.296 409.839C478.233 405.693 484.15 402.886 490.481 401.685C510.466 398.602 527.61 413.987 530.143 432.113C524.907 432.981 519.936 435.026 515.604 438.094C511.271 441.162 507.689 445.174 505.128 449.828C504.512 450.993 506.394 452.021 507.044 450.89C510.781 444.566 516.488 439.646 523.288 436.885C530.089 434.124 537.606 433.676 544.686 435.608C551.498 437.78 557.425 442.101 561.582 447.925C565.74 453.749 567.903 460.763 567.751 467.92C567.751 468.845 568.983 470.01 569.907 469.359C570.283 469.119 571.378 468.331 570.249 461.512H570.215C577.675 455.379 610.663 463.191 605.735 491.631H288.137L288.168 494.733L657.305 495.023C657.768 495.01 658.207 494.813 658.524 494.475C658.842 494.138 659.013 493.688 658.999 493.224C658.986 492.761 658.789 492.322 658.452 492.004C658.115 491.686 657.666 491.515 657.203 491.528ZM453.866 89.531C420.159 87.0296 395.725 87.7492 372.25 91.861C370.06 121.466 373.379 163.543 374.577 220.663C378.516 209.011 381.144 196.955 382.414 184.719C382.037 157.204 380.668 132.397 399.832 111.838C413.657 96.9665 426.352 109.645 435.729 127.565C443.61 142.645 447.742 159.407 447.774 176.427C447.672 191.058 454.345 212.268 460.915 226.797L460.907 226.368C460.055 179.689 459.256 135.955 453.866 89.531ZM501.808 310.266C504.325 309.872 506.888 309.872 509.405 310.266C509.029 265.105 511.595 206.717 510.227 173.309C496.573 173.001 480.352 172.795 463.002 173.309C463.79 193.183 464.098 213.331 464.098 233.204C471.352 252.084 493.287 273.26 501.124 279.839C501.544 280.294 501.855 280.84 502.033 281.433C502.21 282.027 502.251 282.654 502.151 283.265L501.808 310.266ZM351.783 402.606C358.597 400.617 365.801 400.383 372.729 401.925C372.079 395.209 370.265 351.967 370.368 345.011L331.494 345.765C332.007 360.156 333.513 405.934 333.752 413.301C338.768 408.273 344.97 404.595 351.783 402.606ZM499.173 281.929C465.98 253.729 454.755 226.009 448.493 200.07C449.313 241.48 447.804 282.903 443.976 324.144C447.672 323.835 498.044 323.493 498.729 323.493C498.113 314.584 499.173 291.181 499.173 281.929ZM395.725 324.897C389.668 284.328 385.459 242.559 383.167 200.584C377.296 231.483 362.563 259.999 340.768 282.649C340.904 285.801 342.307 318.147 342.307 323.767C348.022 323.493 387.341 324.692 395.725 324.897ZM380.497 343.092C378.959 337.735 376.86 332.555 374.235 327.639L396.068 327.947C396.58 331.097 397.059 334.247 397.538 337.397L397.539 337.404C394.322 340.831 387.82 360.704 386.931 364.302C386.862 364.541 386.852 364.793 386.899 365.038C386.947 365.282 387.051 365.511 387.204 365.707C388.026 366.735 390.182 366.872 392.474 366.872C382.516 382.668 387.923 402.199 391.722 411.828C386.986 407.671 381.439 404.543 375.433 402.645C376.22 396.374 373.345 350.699 372.935 344.943C372.923 344.943 372.912 344.943 372.9 344.943H372.935C373.292 344.943 373.709 344.956 374.162 344.969C376.849 345.049 380.76 345.165 380.497 343.092ZM372.935 344.943H372.9C372.912 344.943 372.923 344.943 372.935 344.943ZM395.486 367.043C392.864 371.692 391.146 376.797 390.421 382.086H390.455C387.341 404.153 399.695 422.244 411.809 440.576C415.091 435.752 419.348 431.673 424.306 428.603C429.264 425.534 434.812 423.542 440.588 422.758C461.873 393.462 444.729 373.965 442.847 366.53C427.079 367.506 411.271 367.677 395.486 367.043ZM440.314 335.314C442.847 302.214 444.968 271.958 445.482 237.419H445.516C445.653 227.448 446.269 176.735 443.189 159.26C441.205 147.665 437.258 136.494 431.52 126.229C421.527 108.445 411.33 101.284 398.737 117.354C389.839 128.764 385.494 143.978 385.049 165.325C384.775 177.763 385.562 190.476 386.349 202.743C389.189 246.019 392.44 283.711 400.037 336.376L440.314 335.314ZM444.592 422.416C449.761 422.179 454.931 422.875 459.854 424.472H459.888C462.008 417.803 466.116 411.943 471.66 407.682C470.805 387.979 469.128 365.125 469.128 345.354C464.542 345.251 462.729 345.285 462.284 344.566C461.843 343.852 462.175 342.971 462.847 341.187L462.866 341.139C463.79 338.775 463.208 340.488 467.554 326.782C462.387 326.782 447.158 327.296 443.976 326.782C443.976 326.782 443.155 334.869 442.949 336.685C442.949 337.678 444.66 341.413 446.371 345.731L446.651 346.426C449.234 352.84 452.332 360.533 453.455 364.302C454.139 366.392 448.219 366.392 445.995 366.392C451.337 374.817 454.057 384.642 453.807 394.618C453.557 404.594 450.349 414.27 444.592 422.416ZM484.549 343.969L510.295 345.696C509.054 364.353 509.123 383.073 510.5 401.72C504.626 399.14 498.184 398.128 491.804 398.783C485.423 399.437 479.32 401.736 474.09 405.455C473.371 385.41 472.824 364.816 471.352 345.319L484.549 343.969ZM413.486 3.14881C383.885 24.4617 374.783 61.5707 372.421 89.2911H372.456C395.075 84.8367 429.227 84.5968 453.489 86.3786C449.725 56.1226 441.957 22.7141 413.486 3.14881ZM370.71 177.352C363.866 177.387 334.197 177.798 326.224 177.798C326.224 205.484 330.433 265.071 331.802 311.191C334.129 310.849 336.627 310.609 339.125 310.369C338.954 306.394 338.064 284.328 338.749 280.901C352.06 268.497 366.262 243.21 372.592 226.762C371.954 210.27 371.326 193.799 370.71 177.352Z" fill="black"/>
<path fill-rule="evenodd" clip-rule="evenodd" d="M510.295 345.696L471.352 345.319L484.549 343.969L510.295 345.696Z" fill="black"/>
</svg>
