<svg width="19" height="30" fill="none" xmlns="http://www.w3.org/2000/svg"><path d="M8.256 6.769c0 5.732.249 5.623-.74 5.625-3.927 0-4.912.129-6.378.213-1.466.085-1.332 1.122-.625 1.556a12.345 12.345 0 0 0 6.48 1.774c1.72.167.914-.415 1.782 7.58.494 4.572.917 6.392 1.801 5.756 1.624-1.168 1.332-8.925 1.591-12.533.06-.868-.125-.95 4.237-.942.846 0 1.99.101 2.238-.93.38-1.578.112-2.35-3.003-2.457-3.594-.131-3.723.123-3.758-.677a94.55 94.55 0 0 0-.778-10.32A1.416 1.416 0 0 0 9.689 0a1.414 1.414 0 0 0-1.414 1.414 52.308 52.308 0 0 0-.019 5.355z" fill="#151515"/></svg>